<?xml version="1.0" encoding="UTF-8"?>
<svg height="336" version="1.1" width="1200" xmlns="http://www.w3.org/2000/svg" xmlns:xlink="http://www.w3.org/1999/xlink">
 <path d="M0,0 l1200,0 l0,336 l-1200,0 Z M0,0" fill="rgb(255,255,255)" transform="matrix(1,0,0,-1,0,336)"/>
 <path d="M495.75,254.88 l-34.75,0 l0,34.75 l34.75,0 Z M495.75,254.88" fill="rgb(0,0,0)" stroke="rgb(255,255,255)" stroke-width="5" transform="matrix(1,0,0,-1,0,336)"/>
 <path d="M739,254.88 l-34.75,0 l0,34.75 l34.75,0 Z M739,254.88" fill="rgb(0,0,0)" stroke="rgb(255,255,255)" stroke-width="5" transform="matrix(1,0,0,-1,0,336)"/>
 <path d="M495.75,46.38 l-34.75,0 l0,34.75 l34.75,0 Z M495.75,46.38" fill="rgb(0,0,0)" stroke="rgb(255,255,255)" stroke-width="5" transform="matrix(1,0,0,-1,0,336)"/>
 <path d="M739,46.38 l-34.75,0 l0,34.75 l34.75,0 Z M739,46.38" fill="rgb(0,0,0)" stroke="rgb(255,255,255)" stroke-width="5" transform="matrix(1,0,0,-1,0,336)"/>
 <path d="M530.5,254.88 l-34.75,0 l0,34.75 l34.75,0 Z M530.5,254.88" fill="rgb(0,0,0)" stroke="rgb(255,255,255)" stroke-width="5" transform="matrix(1,0,0,-1,0,336)"/>
 <path d="M704.25,254.88 l-34.75,0 l0,34.75 l34.75,0 Z M704.25,254.88" fill="rgb(0,0,0)" stroke="rgb(255,255,255)" stroke-width="5" transform="matrix(1,0,0,-1,0,336)"/>
 <path d="M530.5,46.38 l-34.75,0 l0,34.75 l34.75,0 Z M530.5,46.38" fill="rgb(0,0,0)" stroke="rgb(255,255,255)" stroke-width="5" transform="matrix(1,0,0,-1,0,336)"/>
 <path d="M704.25,46.38 l-34.75,0 l0,34.75 l34.75,0 Z M704.25,46.38" fill="rgb(0,0,0)" stroke="rgb(255,255,255)" stroke-width="5" transform="matrix(1,0,0,-1,0,336)"/>
 <path d="M530.5,220.12 l-34.75,0 l0,34.75 l34.75,0 Z M530.5,220.12" fill="rgb(0,0,0)" stroke="rgb(255,255,255)" stroke-width="5" transform="matrix(1,0,0,-1,0,336)"/>
 <path d="M704.25,220.12 l-34.75,0 l0,34.75 l34.75,0 Z M704.25,220.12" fill="rgb(0,0,0)" stroke="rgb(255,255,255)" stroke-width="5" transform="matrix(1,0,0,-1,0,336)"/>
 <path d="M530.5,81.12 l-34.75,0 l0,34.75 l34.75,0 Z M530.5,81.12" fill="rgb(0,0,0)" stroke="rgb(255,255,255)" stroke-width="5" transform="matrix(1,0,0,-1,0,336)"/>
 <path d="M704.25,81.12 l-34.75,0 l0,34.75 l34.75,0 Z M704.25,81.12" fill="rgb(0,0,0)" stroke="rgb(255,255,255)" stroke-width="5" transform="matrix(1,0,0,-1,0,336)"/>
 <path d="M530.5,185.38 l-34.75,0 l0,34.75 l34.75,0 Z M530.5,185.38" fill="rgb(0,0,0)" stroke="rgb(255,255,255)" stroke-width="5" transform="matrix(1,0,0,-1,0,336)"/>
 <path d="M704.25,185.38 l-34.75,0 l0,34.75 l34.75,0 Z M704.25,185.38" fill="rgb(0,0,0)" stroke="rgb(255,255,255)" stroke-width="5" transform="matrix(1,0,0,-1,0,336)"/>
 <path d="M530.5,115.88 l-34.75,0 l0,34.75 l34.75,0 Z M530.5,115.88" fill="rgb(0,0,0)" stroke="rgb(255,255,255)" stroke-width="5" transform="matrix(1,0,0,-1,0,336)"/>
 <path d="M704.25,115.88 l-34.75,0 l0,34.75 l34.75,0 Z M704.25,115.88" fill="rgb(0,0,0)" stroke="rgb(255,255,255)" stroke-width="5" transform="matrix(1,0,0,-1,0,336)"/>
 <path d="M530.5,150.62 l-34.75,0 l0,34.75 l34.75,0 Z M530.5,150.62" fill="rgb(0,0,0)" stroke="rgb(255,255,255)" stroke-width="5" transform="matrix(1,0,0,-1,0,336)"/>
 <path d="M704.25,150.62 l-34.75,0 l0,34.75 l34.75,0 Z M704.25,150.62" fill="rgb(0,0,0)" stroke="rgb(255,255,255)" stroke-width="5" transform="matrix(1,0,0,-1,0,336)"/>
 <path d="M565.25,254.88 l-34.75,0 l0,34.75 l34.75,0 Z M565.25,254.88" fill="rgb(0,0,0)" stroke="rgb(255,255,255)" stroke-width="5" transform="matrix(1,0,0,-1,0,336)"/>
 <path d="M669.5,254.88 l-34.75,0 l0,34.75 l34.75,0 Z M669.5,254.88" fill="rgb(0,0,0)" stroke="rgb(255,255,255)" stroke-width="5" transform="matrix(1,0,0,-1,0,336)"/>
 <path d="M565.25,46.38 l-34.75,0 l0,34.75 l34.75,0 Z M565.25,46.38" fill="rgb(0,0,0)" stroke="rgb(255,255,255)" stroke-width="5" transform="matrix(1,0,0,-1,0,336)"/>
 <path d="M669.5,46.38 l-34.75,0 l0,34.75 l34.75,0 Z M669.5,46.38" fill="rgb(0,0,0)" stroke="rgb(255,255,255)" stroke-width="5" transform="matrix(1,0,0,-1,0,336)"/>
 <path d="M565.25,150.62 l-34.75,0 l0,34.75 l34.75,0 Z M565.25,150.62" fill="rgb(0,0,0)" stroke="rgb(255,255,255)" stroke-width="5" transform="matrix(1,0,0,-1,0,336)"/>
 <path d="M669.5,150.62 l-34.75,0 l0,34.75 l34.75,0 Z M669.5,150.62" fill="rgb(0,0,0)" stroke="rgb(255,255,255)" stroke-width="5" transform="matrix(1,0,0,-1,0,336)"/>
 <path d="M634.75,254.88 l-34.75,0 l0,34.75 l34.75,0 Z M634.75,254.88" fill="rgb(0,0,0)" stroke="rgb(255,255,255)" stroke-width="5" transform="matrix(1,0,0,-1,0,336)"/>
 <path d="M600,46.38 l-34.75,0 l0,34.75 l34.75,0 Z M600,46.38" fill="rgb(0,0,0)" stroke="rgb(255,255,255)" stroke-width="5" transform="matrix(1,0,0,-1,0,336)"/>
 <path d="M600,150.62 l-34.75,0 l0,34.75 l34.75,0 Z M600,150.62" fill="rgb(0,0,0)" stroke="rgb(255,255,255)" stroke-width="5" transform="matrix(1,0,0,-1,0,336)"/>
 <path d="M634.75,150.62 l-34.75,0 l0,34.75 l34.75,0 Z M634.75,150.62" fill="rgb(0,0,0)" stroke="rgb(255,255,255)" stroke-width="5" transform="matrix(1,0,0,-1,0,336)"/>
 <path d="M758.86,29 l-19.86,17.38 l0,34.75 l19.86,-12.41 Z M758.86,29" fill="rgb(0,0,0)" stroke="rgb(255,255,255)" stroke-width="5" transform="matrix(1,0,0,-1,0,336)"/>
 <path d="M758.86,267.29 l-19.86,-12.41 l0,34.75 l19.86,17.38 Z M758.86,267.29" fill="rgb(0,0,0)" stroke="rgb(255,255,255)" stroke-width="5" transform="matrix(1,0,0,-1,0,336)"/>
 <path d="M461,46.38 l-19.86,-17.38 l0,39.71 l19.86,12.41 Z M461,46.38" fill="rgb(0,0,0)" stroke="rgb(255,255,255)" stroke-width="5" transform="matrix(1,0,0,-1,0,336)"/>
 <path d="M461,254.88 l-19.86,12.41 l0,39.71 l19.86,-17.38 Z M461,254.88" fill="rgb(0,0,0)" stroke="rgb(255,255,255)" stroke-width="5" transform="matrix(1,0,0,-1,0,336)"/>
 <path d="M441.14,307 l39.71,0 l14.89,-17.38 l-34.75,0 Z M441.14,307" fill="rgb(0,0,0)" stroke="rgb(255,255,255)" stroke-width="5" transform="matrix(1,0,0,-1,0,336)"/>
 <path d="M719.14,307 l39.71,0 l-19.86,-17.38 l-34.75,0 Z M719.14,307" fill="rgb(0,0,0)" stroke="rgb(255,255,255)" stroke-width="5" transform="matrix(1,0,0,-1,0,336)"/>
 <path d="M441.14,29 l19.86,17.38 l34.75,0 l-14.89,-17.38 Z M441.14,29" fill="rgb(0,0,0)" stroke="rgb(255,255,255)" stroke-width="5" transform="matrix(1,0,0,-1,0,336)"/>
 <path d="M719.14,29 l-14.89,17.38 l34.75,0 l19.86,-17.38 Z M719.14,29" fill="rgb(0,0,0)" stroke="rgb(255,255,255)" stroke-width="5" transform="matrix(1,0,0,-1,0,336)"/>
 <path d="M441.14,68.71 l39.71,0 l14.89,12.41 l-34.75,0 Z M441.14,68.71" fill="rgb(0,0,0)" stroke="rgb(255,255,255)" stroke-width="5" transform="matrix(1,0,0,-1,0,336)"/>
 <path d="M719.14,68.71 l39.71,0 l-19.86,12.41 l-34.75,0 Z M719.14,68.71" fill="rgb(0,0,0)" stroke="rgb(255,255,255)" stroke-width="5" transform="matrix(1,0,0,-1,0,336)"/>
 <path d="M441.14,267.29 l19.86,-12.41 l34.75,0 l-14.89,12.41 Z M441.14,267.29" fill="rgb(0,0,0)" stroke="rgb(255,255,255)" stroke-width="5" transform="matrix(1,0,0,-1,0,336)"/>
 <path d="M719.14,267.29 l-14.89,-12.41 l34.75,0 l19.86,12.41 Z M719.14,267.29" fill="rgb(0,0,0)" stroke="rgb(255,255,255)" stroke-width="5" transform="matrix(1,0,0,-1,0,336)"/>
 <path d="M480.86,29 l14.89,17.38 l0,34.75 l-14.89,-12.41 Z M480.86,29" fill="rgb(0,0,0)" stroke="rgb(255,255,255)" stroke-width="5" transform="matrix(1,0,0,-1,0,336)"/>
 <path d="M495.75,46.38 l-14.89,-17.38 l0,39.71 l14.89,12.41 Z M495.75,46.38" fill="rgb(0,0,0)" stroke="rgb(255,255,255)" stroke-width="5" transform="matrix(1,0,0,-1,0,336)"/>
 <path d="M704.25,46.38 l14.89,-17.38 l0,39.71 l-14.89,12.41 Z M704.25,46.38" fill="rgb(0,0,0)" stroke="rgb(255,255,255)" stroke-width="5" transform="matrix(1,0,0,-1,0,336)"/>
 <path d="M480.86,267.29 l14.89,-12.41 l0,34.75 l-14.89,17.38 Z M480.86,267.29" fill="rgb(0,0,0)" stroke="rgb(255,255,255)" stroke-width="5" transform="matrix(1,0,0,-1,0,336)"/>
 <path d="M495.75,254.88 l-14.89,12.41 l0,39.71 l14.89,-17.38 Z M495.75,254.88" fill="rgb(0,0,0)" stroke="rgb(255,255,255)" stroke-width="5" transform="matrix(1,0,0,-1,0,336)"/>
 <path d="M704.25,254.88 l14.89,12.41 l0,39.71 l-14.89,-17.38 Z M704.25,254.88" fill="rgb(0,0,0)" stroke="rgb(255,255,255)" stroke-width="5" transform="matrix(1,0,0,-1,0,336)"/>
 <path d="M495.75,220.12 l-14.89,7.45 l0,39.71 l14.89,-12.41 Z M495.75,220.12" fill="rgb(0,0,0)" stroke="rgb(255,255,255)" stroke-width="5" transform="matrix(1,0,0,-1,0,336)"/>
 <path d="M495.75,81.12 l-14.89,-12.41 l0,39.71 l14.89,7.45 Z M495.75,81.12" fill="rgb(0,0,0)" stroke="rgb(255,255,255)" stroke-width="5" transform="matrix(1,0,0,-1,0,336)"/>
 <path d="M495.75,185.38 l-14.89,2.48 l0,39.71 l14.89,-7.45 Z M495.75,185.38" fill="rgb(0,0,0)" stroke="rgb(255,255,255)" stroke-width="5" transform="matrix(1,0,0,-1,0,336)"/>
 <path d="M495.75,115.88 l-14.89,-7.45 l0,39.71 l14.89,2.48 Z M495.75,115.88" fill="rgb(0,0,0)" stroke="rgb(255,255,255)" stroke-width="5" transform="matrix(1,0,0,-1,0,336)"/>
 <path d="M495.75,150.62 l-14.89,-2.48 l0,39.71 l14.89,-2.48 Z M495.75,150.62" fill="rgb(0,0,0)" stroke="rgb(255,255,255)" stroke-width="5" transform="matrix(1,0,0,-1,0,336)"/>
 <path d="M719.14,29 l-14.89,17.38 l0,34.75 l14.89,-12.41 Z M719.14,29" fill="rgb(0,0,0)" stroke="rgb(255,255,255)" stroke-width="5" transform="matrix(1,0,0,-1,0,336)"/>
 <path d="M719.14,267.29 l-14.89,-12.41 l0,34.75 l14.89,17.38 Z M719.14,267.29" fill="rgb(0,0,0)" stroke="rgb(255,255,255)" stroke-width="5" transform="matrix(1,0,0,-1,0,336)"/>
 <path d="M719.14,227.57 l-14.89,-7.45 l0,34.75 l14.89,12.41 Z M719.14,227.57" fill="rgb(0,0,0)" stroke="rgb(255,255,255)" stroke-width="5" transform="matrix(1,0,0,-1,0,336)"/>
 <path d="M719.14,68.71 l-14.89,12.41 l0,34.75 l14.89,-7.45 Z M719.14,68.71" fill="rgb(0,0,0)" stroke="rgb(255,255,255)" stroke-width="5" transform="matrix(1,0,0,-1,0,336)"/>
 <path d="M719.14,187.86 l-14.89,-2.48 l0,34.75 l14.89,7.45 Z M719.14,187.86" fill="rgb(0,0,0)" stroke="rgb(255,255,255)" stroke-width="5" transform="matrix(1,0,0,-1,0,336)"/>
 <path d="M719.14,108.43 l-14.89,7.45 l0,34.75 l14.89,-2.48 Z M719.14,108.43" fill="rgb(0,0,0)" stroke="rgb(255,255,255)" stroke-width="5" transform="matrix(1,0,0,-1,0,336)"/>
 <path d="M719.14,148.14 l-14.89,2.48 l0,34.75 l14.89,2.48 Z M719.14,148.14" fill="rgb(0,0,0)" stroke="rgb(255,255,255)" stroke-width="5" transform="matrix(1,0,0,-1,0,336)"/>
 <path d="M480.86,307 l39.71,0 l9.93,-17.38 l-34.75,0 Z M480.86,307" fill="rgb(0,0,0)" stroke="rgb(255,255,255)" stroke-width="5" transform="matrix(1,0,0,-1,0,336)"/>
 <path d="M679.43,307 l39.71,0 l-14.89,-17.38 l-34.75,0 Z M679.43,307" fill="rgb(0,0,0)" stroke="rgb(255,255,255)" stroke-width="5" transform="matrix(1,0,0,-1,0,336)"/>
 <path d="M480.86,29 l14.89,17.38 l34.75,0 l-9.93,-17.38 Z M480.86,29" fill="rgb(0,0,0)" stroke="rgb(255,255,255)" stroke-width="5" transform="matrix(1,0,0,-1,0,336)"/>
 <path d="M679.43,29 l-9.93,17.38 l34.75,0 l14.89,-17.38 Z M679.43,29" fill="rgb(0,0,0)" stroke="rgb(255,255,255)" stroke-width="5" transform="matrix(1,0,0,-1,0,336)"/>
 <path d="M480.86,68.71 l14.89,12.41 l34.75,0 l-9.93,-12.41 Z M480.86,68.71" fill="rgb(0,0,0)" stroke="rgb(255,255,255)" stroke-width="5" transform="matrix(1,0,0,-1,0,336)"/>
 <path d="M679.43,68.71 l-9.93,12.41 l34.75,0 l14.89,-12.41 Z M679.43,68.71" fill="rgb(0,0,0)" stroke="rgb(255,255,255)" stroke-width="5" transform="matrix(1,0,0,-1,0,336)"/>
 <path d="M480.86,68.71 l39.71,0 l9.93,12.41 l-34.75,0 Z M480.86,68.71" fill="rgb(0,0,0)" stroke="rgb(255,255,255)" stroke-width="5" transform="matrix(1,0,0,-1,0,336)"/>
 <path d="M679.43,68.71 l39.71,0 l-14.89,12.41 l-34.75,0 Z M679.43,68.71" fill="rgb(0,0,0)" stroke="rgb(255,255,255)" stroke-width="5" transform="matrix(1,0,0,-1,0,336)"/>
 <path d="M480.86,267.29 l14.89,-12.41 l34.75,0 l-9.93,12.41 Z M480.86,267.29" fill="rgb(0,0,0)" stroke="rgb(255,255,255)" stroke-width="5" transform="matrix(1,0,0,-1,0,336)"/>
 <path d="M679.43,267.29 l-9.93,-12.41 l34.75,0 l14.89,12.41 Z M679.43,267.29" fill="rgb(0,0,0)" stroke="rgb(255,255,255)" stroke-width="5" transform="matrix(1,0,0,-1,0,336)"/>
 <path d="M480.86,267.29 l39.71,0 l9.93,-12.41 l-34.75,0 Z M480.86,267.29" fill="rgb(0,0,0)" stroke="rgb(255,255,255)" stroke-width="5" transform="matrix(1,0,0,-1,0,336)"/>
 <path d="M679.43,267.29 l39.71,0 l-14.89,-12.41 l-34.75,0 Z M679.43,267.29" fill="rgb(0,0,0)" stroke="rgb(255,255,255)" stroke-width="5" transform="matrix(1,0,0,-1,0,336)"/>
 <path d="M480.86,227.57 l14.89,-7.45 l34.75,0 l-9.93,7.45 Z M480.86,227.57" fill="rgb(0,0,0)" stroke="rgb(255,255,255)" stroke-width="5" transform="matrix(1,0,0,-1,0,336)"/>
 <path d="M679.43,227.57 l-9.93,-7.45 l34.75,0 l14.89,7.45 Z M679.43,227.57" fill="rgb(0,0,0)" stroke="rgb(255,255,255)" stroke-width="5" transform="matrix(1,0,0,-1,0,336)"/>
 <path d="M480.86,227.57 l39.71,0 l9.93,-7.45 l-34.75,0 Z M480.86,227.57" fill="rgb(0,0,0)" stroke="rgb(255,255,255)" stroke-width="5" transform="matrix(1,0,0,-1,0,336)"/>
 <path d="M679.43,227.57 l39.71,0 l-14.89,-7.45 l-34.75,0 Z M679.43,227.57" fill="rgb(0,0,0)" stroke="rgb(255,255,255)" stroke-width="5" transform="matrix(1,0,0,-1,0,336)"/>
 <path d="M480.86,108.43 l14.89,7.45 l34.75,0 l-9.93,-7.45 Z M480.86,108.43" fill="rgb(0,0,0)" stroke="rgb(255,255,255)" stroke-width="5" transform="matrix(1,0,0,-1,0,336)"/>
 <path d="M679.43,108.43 l-9.93,7.45 l34.75,0 l14.89,-7.45 Z M679.43,108.43" fill="rgb(0,0,0)" stroke="rgb(255,255,255)" stroke-width="5" transform="matrix(1,0,0,-1,0,336)"/>
 <path d="M480.86,108.43 l39.71,0 l9.93,7.45 l-34.75,0 Z M480.86,108.43" fill="rgb(0,0,0)" stroke="rgb(255,255,255)" stroke-width="5" transform="matrix(1,0,0,-1,0,336)"/>
 <path d="M679.43,108.43 l39.71,0 l-14.89,7.45 l-34.75,0 Z M679.43,108.43" fill="rgb(0,0,0)" stroke="rgb(255,255,255)" stroke-width="5" transform="matrix(1,0,0,-1,0,336)"/>
 <path d="M480.86,187.86 l14.89,-2.48 l34.75,0 l-9.93,2.48 Z M480.86,187.86" fill="rgb(0,0,0)" stroke="rgb(255,255,255)" stroke-width="5" transform="matrix(1,0,0,-1,0,336)"/>
 <path d="M679.43,187.86 l-9.93,-2.48 l34.75,0 l14.89,2.48 Z M679.43,187.86" fill="rgb(0,0,0)" stroke="rgb(255,255,255)" stroke-width="5" transform="matrix(1,0,0,-1,0,336)"/>
 <path d="M480.86,148.14 l14.89,2.48 l34.75,0 l-9.93,-2.48 Z M480.86,148.14" fill="rgb(0,0,0)" stroke="rgb(255,255,255)" stroke-width="5" transform="matrix(1,0,0,-1,0,336)"/>
 <path d="M480.86,187.86 l39.71,0 l9.93,-2.48 l-34.75,0 Z M480.86,187.86" fill="rgb(0,0,0)" stroke="rgb(255,255,255)" stroke-width="5" transform="matrix(1,0,0,-1,0,336)"/>
 <path d="M679.43,148.14 l-9.93,2.48 l34.75,0 l14.89,-2.48 Z M679.43,148.14" fill="rgb(0,0,0)" stroke="rgb(255,255,255)" stroke-width="5" transform="matrix(1,0,0,-1,0,336)"/>
 <path d="M679.43,187.86 l39.71,0 l-14.89,-2.48 l-34.75,0 Z M679.43,187.86" fill="rgb(0,0,0)" stroke="rgb(255,255,255)" stroke-width="5" transform="matrix(1,0,0,-1,0,336)"/>
 <path d="M480.86,148.14 l39.71,0 l9.93,2.48 l-34.75,0 Z M480.86,148.14" fill="rgb(0,0,0)" stroke="rgb(255,255,255)" stroke-width="5" transform="matrix(1,0,0,-1,0,336)"/>
 <path d="M679.43,148.14 l39.71,0 l-14.89,2.48 l-34.75,0 Z M679.43,148.14" fill="rgb(0,0,0)" stroke="rgb(255,255,255)" stroke-width="5" transform="matrix(1,0,0,-1,0,336)"/>
 <path d="M520.57,29 l9.93,17.38 l0,34.75 l-9.93,-12.41 Z M520.57,29" fill="rgb(0,0,0)" stroke="rgb(255,255,255)" stroke-width="5" transform="matrix(1,0,0,-1,0,336)"/>
 <path d="M530.5,46.38 l-9.93,-17.38 l0,39.71 l9.93,12.41 Z M530.5,46.38" fill="rgb(0,0,0)" stroke="rgb(255,255,255)" stroke-width="5" transform="matrix(1,0,0,-1,0,336)"/>
 <path d="M679.43,29 l-9.93,17.38 l0,34.75 l9.93,-12.41 Z M679.43,29" fill="rgb(0,0,0)" stroke="rgb(255,255,255)" stroke-width="5" transform="matrix(1,0,0,-1,0,336)"/>
 <path d="M669.5,46.38 l9.93,-17.38 l0,39.71 l-9.93,12.41 Z M669.5,46.38" fill="rgb(0,0,0)" stroke="rgb(255,255,255)" stroke-width="5" transform="matrix(1,0,0,-1,0,336)"/>
 <path d="M520.57,267.29 l9.93,-12.41 l0,34.75 l-9.93,17.38 Z M520.57,267.29" fill="rgb(0,0,0)" stroke="rgb(255,255,255)" stroke-width="5" transform="matrix(1,0,0,-1,0,336)"/>
 <path d="M530.5,254.88 l-9.93,12.41 l0,39.71 l9.93,-17.38 Z M530.5,254.88" fill="rgb(0,0,0)" stroke="rgb(255,255,255)" stroke-width="5" transform="matrix(1,0,0,-1,0,336)"/>
 <path d="M679.43,267.29 l-9.93,-12.41 l0,34.75 l9.93,17.38 Z M679.43,267.29" fill="rgb(0,0,0)" stroke="rgb(255,255,255)" stroke-width="5" transform="matrix(1,0,0,-1,0,336)"/>
 <path d="M669.5,254.88 l9.93,12.41 l0,39.71 l-9.93,-17.38 Z M669.5,254.88" fill="rgb(0,0,0)" stroke="rgb(255,255,255)" stroke-width="5" transform="matrix(1,0,0,-1,0,336)"/>
 <path d="M520.57,227.57 l9.93,-7.45 l0,34.75 l-9.93,12.41 Z M520.57,227.57" fill="rgb(0,0,0)" stroke="rgb(255,255,255)" stroke-width="5" transform="matrix(1,0,0,-1,0,336)"/>
 <path d="M669.5,220.12 l9.93,7.45 l0,39.71 l-9.93,-12.41 Z M669.5,220.12" fill="rgb(0,0,0)" stroke="rgb(255,255,255)" stroke-width="5" transform="matrix(1,0,0,-1,0,336)"/>
 <path d="M520.57,68.71 l9.93,12.41 l0,34.75 l-9.93,-7.45 Z M520.57,68.71" fill="rgb(0,0,0)" stroke="rgb(255,255,255)" stroke-width="5" transform="matrix(1,0,0,-1,0,336)"/>
 <path d="M669.5,81.12 l9.93,-12.41 l0,39.71 l-9.93,7.45 Z M669.5,81.12" fill="rgb(0,0,0)" stroke="rgb(255,255,255)" stroke-width="5" transform="matrix(1,0,0,-1,0,336)"/>
 <path d="M520.57,187.86 l9.93,-2.48 l0,34.75 l-9.93,7.45 Z M520.57,187.86" fill="rgb(0,0,0)" stroke="rgb(255,255,255)" stroke-width="5" transform="matrix(1,0,0,-1,0,336)"/>
 <path d="M669.5,185.38 l9.93,2.48 l0,39.71 l-9.93,-7.45 Z M669.5,185.38" fill="rgb(0,0,0)" stroke="rgb(255,255,255)" stroke-width="5" transform="matrix(1,0,0,-1,0,336)"/>
 <path d="M520.57,108.43 l9.93,7.45 l0,34.75 l-9.93,-2.48 Z M520.57,108.43" fill="rgb(0,0,0)" stroke="rgb(255,255,255)" stroke-width="5" transform="matrix(1,0,0,-1,0,336)"/>
 <path d="M669.5,115.88 l9.93,-7.45 l0,39.71 l-9.93,2.48 Z M669.5,115.88" fill="rgb(0,0,0)" stroke="rgb(255,255,255)" stroke-width="5" transform="matrix(1,0,0,-1,0,336)"/>
 <path d="M520.57,148.14 l9.93,2.48 l0,34.75 l-9.93,2.48 Z M520.57,148.14" fill="rgb(0,0,0)" stroke="rgb(255,255,255)" stroke-width="5" transform="matrix(1,0,0,-1,0,336)"/>
 <path d="M530.5,150.62 l-9.93,-2.48 l0,39.71 l9.93,-2.48 Z M530.5,150.62" fill="rgb(0,0,0)" stroke="rgb(255,255,255)" stroke-width="5" transform="matrix(1,0,0,-1,0,336)"/>
 <path d="M679.43,148.14 l-9.93,2.48 l0,34.75 l9.93,2.48 Z M679.43,148.14" fill="rgb(0,0,0)" stroke="rgb(255,255,255)" stroke-width="5" transform="matrix(1,0,0,-1,0,336)"/>
 <path d="M669.5,150.62 l9.93,-2.48 l0,39.71 l-9.93,-2.48 Z M669.5,150.62" fill="rgb(0,0,0)" stroke="rgb(255,255,255)" stroke-width="5" transform="matrix(1,0,0,-1,0,336)"/>
 <path d="M520.57,29 l9.93,17.38 l34.75,0 l-4.96,-17.38 Z M520.57,29" fill="rgb(0,0,0)" stroke="rgb(255,255,255)" stroke-width="5" transform="matrix(1,0,0,-1,0,336)"/>
 <path d="M639.71,29 l-4.96,17.38 l34.75,0 l9.93,-17.38 Z M639.71,29" fill="rgb(0,0,0)" stroke="rgb(255,255,255)" stroke-width="5" transform="matrix(1,0,0,-1,0,336)"/>
 <path d="M520.57,267.29 l9.93,-12.41 l34.75,0 l-4.96,12.41 Z M520.57,267.29" fill="rgb(0,0,0)" stroke="rgb(255,255,255)" stroke-width="5" transform="matrix(1,0,0,-1,0,336)"/>
 <path d="M639.71,267.29 l-4.96,-12.41 l34.75,0 l9.93,12.41 Z M639.71,267.29" fill="rgb(0,0,0)" stroke="rgb(255,255,255)" stroke-width="5" transform="matrix(1,0,0,-1,0,336)"/>
 <path d="M520.57,148.14 l9.93,2.48 l34.75,0 l-4.96,-2.48 Z M520.57,148.14" fill="rgb(0,0,0)" stroke="rgb(255,255,255)" stroke-width="5" transform="matrix(1,0,0,-1,0,336)"/>
 <path d="M639.71,148.14 l-4.96,2.48 l34.75,0 l9.93,-2.48 Z M639.71,148.14" fill="rgb(0,0,0)" stroke="rgb(255,255,255)" stroke-width="5" transform="matrix(1,0,0,-1,0,336)"/>
 <path d="M520.57,307 l39.71,0 l4.96,-17.38 l-34.75,0 Z M520.57,307" fill="rgb(0,0,0)" stroke="rgb(255,255,255)" stroke-width="5" transform="matrix(1,0,0,-1,0,336)"/>
 <path d="M639.71,307 l39.71,0 l-9.93,-17.38 l-34.75,0 Z M639.71,307" fill="rgb(0,0,0)" stroke="rgb(255,255,255)" stroke-width="5" transform="matrix(1,0,0,-1,0,336)"/>
 <path d="M520.57,68.71 l39.71,0 l4.96,12.41 l-34.75,0 Z M520.57,68.71" fill="rgb(0,0,0)" stroke="rgb(255,255,255)" stroke-width="5" transform="matrix(1,0,0,-1,0,336)"/>
 <path d="M639.71,68.71 l39.71,0 l-9.93,12.41 l-34.75,0 Z M639.71,68.71" fill="rgb(0,0,0)" stroke="rgb(255,255,255)" stroke-width="5" transform="matrix(1,0,0,-1,0,336)"/>
 <path d="M520.57,187.86 l39.71,0 l4.96,-2.48 l-34.75,0 Z M520.57,187.86" fill="rgb(0,0,0)" stroke="rgb(255,255,255)" stroke-width="5" transform="matrix(1,0,0,-1,0,336)"/>
 <path d="M639.71,187.86 l39.71,0 l-9.93,-2.48 l-34.75,0 Z M639.71,187.86" fill="rgb(0,0,0)" stroke="rgb(255,255,255)" stroke-width="5" transform="matrix(1,0,0,-1,0,336)"/>
 <path d="M560.29,29 l4.96,17.38 l0,34.75 l-4.96,-12.41 Z M560.29,29" fill="rgb(0,0,0)" stroke="rgb(255,255,255)" stroke-width="5" transform="matrix(1,0,0,-1,0,336)"/>
 <path d="M565.25,46.38 l-4.96,-17.38 l0,39.71 l4.96,12.41 Z M565.25,46.38" fill="rgb(0,0,0)" stroke="rgb(255,255,255)" stroke-width="5" transform="matrix(1,0,0,-1,0,336)"/>
 <path d="M634.75,46.38 l4.96,-17.38 l0,39.71 l-4.96,12.41 Z M634.75,46.38" fill="rgb(0,0,0)" stroke="rgb(255,255,255)" stroke-width="5" transform="matrix(1,0,0,-1,0,336)"/>
 <path d="M560.29,267.29 l4.96,-12.41 l0,34.75 l-4.96,17.38 Z M560.29,267.29" fill="rgb(0,0,0)" stroke="rgb(255,255,255)" stroke-width="5" transform="matrix(1,0,0,-1,0,336)"/>
 <path d="M639.71,267.29 l-4.96,-12.41 l0,34.75 l4.96,17.38 Z M639.71,267.29" fill="rgb(0,0,0)" stroke="rgb(255,255,255)" stroke-width="5" transform="matrix(1,0,0,-1,0,336)"/>
 <path d="M634.75,254.88 l4.96,12.41 l0,39.71 l-4.96,-17.38 Z M634.75,254.88" fill="rgb(0,0,0)" stroke="rgb(255,255,255)" stroke-width="5" transform="matrix(1,0,0,-1,0,336)"/>
 <path d="M560.29,148.14 l4.96,2.48 l0,34.75 l-4.96,2.48 Z M560.29,148.14" fill="rgb(0,0,0)" stroke="rgb(255,255,255)" stroke-width="5" transform="matrix(1,0,0,-1,0,336)"/>
 <path d="M565.25,150.62 l-4.96,-2.48 l0,39.71 l4.96,-2.48 Z M565.25,150.62" fill="rgb(0,0,0)" stroke="rgb(255,255,255)" stroke-width="5" transform="matrix(1,0,0,-1,0,336)"/>
 <path d="M639.71,148.14 l-4.96,2.48 l0,34.75 l4.96,2.48 Z M639.71,148.14" fill="rgb(0,0,0)" stroke="rgb(255,255,255)" stroke-width="5" transform="matrix(1,0,0,-1,0,336)"/>
 <path d="M634.75,150.62 l4.96,-2.48 l0,39.71 l-4.96,-2.48 Z M634.75,150.62" fill="rgb(0,0,0)" stroke="rgb(255,255,255)" stroke-width="5" transform="matrix(1,0,0,-1,0,336)"/>
 <path d="M600,307 l39.71,0 l-4.96,-17.38 l-34.75,0 Z M600,307" fill="rgb(0,0,0)" stroke="rgb(255,255,255)" stroke-width="5" transform="matrix(1,0,0,-1,0,336)"/>
 <path d="M560.29,29 l4.96,17.38 l34.75,0 l0,-17.38 Z M560.29,29" fill="rgb(0,0,0)" stroke="rgb(255,255,255)" stroke-width="5" transform="matrix(1,0,0,-1,0,336)"/>
 <path d="M560.29,68.71 l39.71,0 l0,12.41 l-34.75,0 Z M560.29,68.71" fill="rgb(0,0,0)" stroke="rgb(255,255,255)" stroke-width="5" transform="matrix(1,0,0,-1,0,336)"/>
 <path d="M600,267.29 l0,-12.41 l34.75,0 l4.96,12.41 Z M600,267.29" fill="rgb(0,0,0)" stroke="rgb(255,255,255)" stroke-width="5" transform="matrix(1,0,0,-1,0,336)"/>
 <path d="M560.29,148.14 l4.96,2.48 l34.75,0 l0,-2.48 Z M560.29,148.14" fill="rgb(0,0,0)" stroke="rgb(255,255,255)" stroke-width="5" transform="matrix(1,0,0,-1,0,336)"/>
 <path d="M560.29,187.86 l39.71,0 l0,-2.48 l-34.75,0 Z M560.29,187.86" fill="rgb(0,0,0)" stroke="rgb(255,255,255)" stroke-width="5" transform="matrix(1,0,0,-1,0,336)"/>
 <path d="M600,148.14 l0,2.48 l34.75,0 l4.96,-2.48 Z M600,148.14" fill="rgb(0,0,0)" stroke="rgb(255,255,255)" stroke-width="5" transform="matrix(1,0,0,-1,0,336)"/>
 <path d="M600,187.86 l39.71,0 l-4.96,-2.48 l-34.75,0 Z M600,187.86" fill="rgb(0,0,0)" stroke="rgb(255,255,255)" stroke-width="5" transform="matrix(1,0,0,-1,0,336)"/>
 <path d="M600,29 l0,17.38 l0,34.75 l0,-12.41 Z M600,29" fill="rgb(0,0,0)" stroke="rgb(255,255,255)" stroke-width="5" transform="matrix(1,0,0,-1,0,336)"/>
 <path d="M600,254.88 l0,12.41 l0,39.71 l0,-17.38 Z M600,254.88" fill="rgb(0,0,0)" stroke="rgb(255,255,255)" stroke-width="5" transform="matrix(1,0,0,-1,0,336)"/>
 <path d="M600,148.14 l0,2.48 l0,34.75 l0,2.48 Z M600,148.14" fill="rgb(0,0,0)" stroke="rgb(255,255,255)" stroke-width="5" transform="matrix(1,0,0,-1,0,336)"/>
 <path d="M600,150.62 l0,-2.48 l0,39.71 l0,-2.48 Z M600,150.62" fill="rgb(0,0,0)" stroke="rgb(255,255,255)" stroke-width="5" transform="matrix(1,0,0,-1,0,336)"/>
 <path d="M441.14,29 l39.71,0 l0,39.71 l-39.71,0 Z M441.14,29" fill="rgb(0,0,0)" stroke="rgb(255,255,255)" stroke-width="5" transform="matrix(1,0,0,-1,0,336)"/>
 <path d="M719.14,29 l39.71,0 l0,39.71 l-39.71,0 Z M719.14,29" fill="rgb(0,0,0)" stroke="rgb(255,255,255)" stroke-width="5" transform="matrix(1,0,0,-1,0,336)"/>
 <path d="M441.14,267.29 l39.71,0 l0,39.71 l-39.71,0 Z M441.14,267.29" fill="rgb(0,0,0)" stroke="rgb(255,255,255)" stroke-width="5" transform="matrix(1,0,0,-1,0,336)"/>
 <path d="M719.14,267.29 l39.71,0 l0,39.71 l-39.71,0 Z M719.14,267.29" fill="rgb(0,0,0)" stroke="rgb(255,255,255)" stroke-width="5" transform="matrix(1,0,0,-1,0,336)"/>
 <path d="M480.86,29 l39.71,0 l0,39.71 l-39.71,0 Z M480.86,29" fill="rgb(0,0,0)" stroke="rgb(255,255,255)" stroke-width="5" transform="matrix(1,0,0,-1,0,336)"/>
 <path d="M480.86,267.29 l39.71,0 l0,39.71 l-39.71,0 Z M480.86,267.29" fill="rgb(0,0,0)" stroke="rgb(255,255,255)" stroke-width="5" transform="matrix(1,0,0,-1,0,336)"/>
 <path d="M480.86,68.71 l39.71,0 l0,39.71 l-39.71,0 Z M480.86,68.71" fill="rgb(0,0,0)" stroke="rgb(255,255,255)" stroke-width="5" transform="matrix(1,0,0,-1,0,336)"/>
 <path d="M480.86,227.57 l39.71,0 l0,39.71 l-39.71,0 Z M480.86,227.57" fill="rgb(0,0,0)" stroke="rgb(255,255,255)" stroke-width="5" transform="matrix(1,0,0,-1,0,336)"/>
 <path d="M480.86,108.43 l39.71,0 l0,39.71 l-39.71,0 Z M480.86,108.43" fill="rgb(0,0,0)" stroke="rgb(255,255,255)" stroke-width="5" transform="matrix(1,0,0,-1,0,336)"/>
 <path d="M480.86,187.86 l39.71,0 l0,39.71 l-39.71,0 Z M480.86,187.86" fill="rgb(0,0,0)" stroke="rgb(255,255,255)" stroke-width="5" transform="matrix(1,0,0,-1,0,336)"/>
 <path d="M480.86,148.14 l39.71,0 l0,39.71 l-39.71,0 Z M480.86,148.14" fill="rgb(0,0,0)" stroke="rgb(255,255,255)" stroke-width="5" transform="matrix(1,0,0,-1,0,336)"/>
 <path d="M679.43,29 l39.71,0 l0,39.71 l-39.71,0 Z M679.43,29" fill="rgb(0,0,0)" stroke="rgb(255,255,255)" stroke-width="5" transform="matrix(1,0,0,-1,0,336)"/>
 <path d="M679.43,267.29 l39.71,0 l0,39.71 l-39.71,0 Z M679.43,267.29" fill="rgb(0,0,0)" stroke="rgb(255,255,255)" stroke-width="5" transform="matrix(1,0,0,-1,0,336)"/>
 <path d="M679.43,68.71 l39.71,0 l0,39.71 l-39.71,0 Z M679.43,68.71" fill="rgb(0,0,0)" stroke="rgb(255,255,255)" stroke-width="5" transform="matrix(1,0,0,-1,0,336)"/>
 <path d="M679.43,227.57 l39.71,0 l0,39.71 l-39.71,0 Z M679.43,227.57" fill="rgb(0,0,0)" stroke="rgb(255,255,255)" stroke-width="5" transform="matrix(1,0,0,-1,0,336)"/>
 <path d="M679.43,108.43 l39.71,0 l0,39.71 l-39.71,0 Z M679.43,108.43" fill="rgb(0,0,0)" stroke="rgb(255,255,255)" stroke-width="5" transform="matrix(1,0,0,-1,0,336)"/>
 <path d="M679.43,187.86 l39.71,0 l0,39.71 l-39.71,0 Z M679.43,187.86" fill="rgb(0,0,0)" stroke="rgb(255,255,255)" stroke-width="5" transform="matrix(1,0,0,-1,0,336)"/>
 <path d="M679.43,148.14 l39.71,0 l0,39.71 l-39.71,0 Z M679.43,148.14" fill="rgb(0,0,0)" stroke="rgb(255,255,255)" stroke-width="5" transform="matrix(1,0,0,-1,0,336)"/>
 <path d="M520.57,29 l39.71,0 l0,39.71 l-39.71,0 Z M520.57,29" fill="rgb(0,0,0)" stroke="rgb(255,255,255)" stroke-width="5" transform="matrix(1,0,0,-1,0,336)"/>
 <path d="M639.71,29 l39.71,0 l0,39.71 l-39.71,0 Z M639.71,29" fill="rgb(0,0,0)" stroke="rgb(255,255,255)" stroke-width="5" transform="matrix(1,0,0,-1,0,336)"/>
 <path d="M520.57,267.29 l39.71,0 l0,39.71 l-39.71,0 Z M520.57,267.29" fill="rgb(0,0,0)" stroke="rgb(255,255,255)" stroke-width="5" transform="matrix(1,0,0,-1,0,336)"/>
 <path d="M639.71,267.29 l39.71,0 l0,39.71 l-39.71,0 Z M639.71,267.29" fill="rgb(0,0,0)" stroke="rgb(255,255,255)" stroke-width="5" transform="matrix(1,0,0,-1,0,336)"/>
 <path d="M520.57,148.14 l39.71,0 l0,39.71 l-39.71,0 Z M520.57,148.14" fill="rgb(0,0,0)" stroke="rgb(255,255,255)" stroke-width="5" transform="matrix(1,0,0,-1,0,336)"/>
 <path d="M639.71,148.14 l39.71,0 l0,39.71 l-39.71,0 Z M639.71,148.14" fill="rgb(0,0,0)" stroke="rgb(255,255,255)" stroke-width="5" transform="matrix(1,0,0,-1,0,336)"/>
 <path d="M560.29,29 l39.71,0 l0,39.71 l-39.71,0 Z M560.29,29" fill="rgb(0,0,0)" stroke="rgb(255,255,255)" stroke-width="5" transform="matrix(1,0,0,-1,0,336)"/>
 <path d="M600,267.29 l39.71,0 l0,39.71 l-39.71,0 Z M600,267.29" fill="rgb(0,0,0)" stroke="rgb(255,255,255)" stroke-width="5" transform="matrix(1,0,0,-1,0,336)"/>
 <path d="M560.29,148.14 l39.71,0 l0,39.71 l-39.71,0 Z M560.29,148.14" fill="rgb(0,0,0)" stroke="rgb(255,255,255)" stroke-width="5" transform="matrix(1,0,0,-1,0,336)"/>
 <path d="M600,148.14 l39.71,0 l0,39.71 l-39.71,0 Z M600,148.14" fill="rgb(0,0,0)" stroke="rgb(255,255,255)" stroke-width="5" transform="matrix(1,0,0,-1,0,336)"/>
</svg>