<svg xmlns="http://www.w3.org/2000/svg" viewBox="0 0 1200 336"><title>Sobrado</title><path d="M237.93,150.54c-12.6-4.14-25.74-8.1-25.74-21.06,0-12.78,12.6-18.9,25.56-18.9,17.82,0,31.14,8.1,36.18,11V108.78c-4.5-2.7-16.2-10.08-36.18-10.08-26.82,0-39.06,14.94-39.06,30.78,0,23.58,23.22,29.34,35.64,33.66,10.62,3.78,31.32,8.46,31.32,24.48,0,11-8.1,19.8-29.7,19.8-17.82,0-34.74-8.82-39.78-12.6V207.6c4.14,3.06,18,11.7,39.78,11.7,27.72,0,43.2-13.32,43.2-31.68C279.15,160.8,250.89,154.68,237.93,150.54Z"/><path d="M355.29,98.7c-28.8,0-43.74,18.54-43.74,59.4,0,41.76,14.94,61.2,43.74,61.2S399,199.86,399,158.1C399,117.24,384.09,98.7,355.29,98.7Zm0,108.54c-21.24,0-30.78-14.76-30.78-49.14,0-33.48,9.54-47.34,30.78-47.34s30.78,13.86,30.78,47.34C386.07,192.48,376.53,207.24,355.29,207.24Z"/><path d="M500.78,157.82c8.94-3.75,16.69-11.65,16.69-25.82,0-19.8-11.88-31.5-33.48-31.5h-43.2v117H484c21.6,0,36-10.44,36-32C520,169.5,512.62,161.12,500.78,157.82ZM484,112.2c12.6,0,20.52,7.2,20.52,19.8s-7.92,21.06-20.52,21.06h-30.6V112.2ZM484,206h-30.6V164.76H484c14.4,0,23,6.3,23,20.7S498.39,206,484,206Z"/><path d="M619.7,169.78c10.88-4.33,19.81-16.88,19.81-32.92,0-20-11.7-36.36-35.28-36.36H561v117h12.6V173.22h26.64c8.46,0,12.24,2.52,15.66,10.08l15.66,34h13.68l-16.56-36.18C626.77,176.78,624.26,172.27,619.7,169.78Zm-46.07-8.26V112.2h30.6c14.76,0,22.32,10.26,22.32,24.66s-7.38,24.66-18.72,24.66Z"/><path d="M718.17,98.7c-30.6,0-40.32,18.54-40.32,59.4v59.4h12.6V180.24h55.44V217.5h12.6V158.1C758.49,117.24,748.77,98.7,718.17,98.7Zm27.72,69.84H690.45V158.1c0-33.48,4.68-47.34,27.72-47.34,20.88,0,27.72,13.86,27.72,47.34Z"/><path d="M839.67,100.5h-39.6v117h39.6c31,0,47.34-21.42,47.34-58.5C887,129.12,877.83,100.5,839.67,100.5Zm0,105.3h-27V112.2h27c26.1,0,34.38,20.34,34.38,46.8C874.05,193.56,856.41,205.8,839.67,205.8Z"/><path d="M960.09,98.7c-28.8,0-43.74,18.54-43.74,59.4,0,41.76,14.94,61.2,43.74,61.2s43.74-19.44,43.74-61.2C1003.83,117.24,988.89,98.7,960.09,98.7Zm0,108.54c-21.24,0-30.78-14.76-30.78-49.14,0-33.48,9.54-47.34,30.78-47.34s30.78,13.86,30.78,47.34C990.87,192.48,981.33,207.24,960.09,207.24Z"/></svg>