<svg xmlns="http://www.w3.org/2000/svg" viewBox="0 0 1200 336"><title>Belvedere</title><path d="M251.26,203.46c0-16.2,19.44-60.66,30.78-94.14a77.55,77.55,0,0,0-12.24,6.12,5.38,5.38,0,0,1-4-5.58c0-9.18,23.39-18.9,44.81-18.9,28.08,0,36,11.88,36,24.3,0,13.86-9,24.84-22,31.68,11,2.7,17.46,11.52,17.46,23.76,0,24.3-30.06,49.86-69.29,49.86C260.08,220.56,251.26,214.44,251.26,203.46Zm74.33-31.32c0-7.56-4.68-13-15.12-13-8.1,0-15.48,2.16-19.8,4.86-2-.54-2.88-1.44-2.88-3.78,0-3.6,6.66-8.28,14.76-11.34a27.34,27.34,0,0,1,3.6-1.08c11.52-4.5,23.58-14.94,23.58-27.9,0-9.36-5.58-14.94-23-14.94-2,0-3.78,0-5.76.18-12.95,33.66-30.23,70.56-32.57,96.3,3.6,1.62,7.92,2.52,14.93,2.52C302,204,325.59,192.84,325.59,172.14Z"/><path d="M383.19,220.56c-19.44,0-30.77-11.34-30.77-31.5,0-30.6,22.67-63.9,48.95-63.9,15.48,0,24.3,9.54,24.3,22.32,0,19.8-20.7,33.66-40.32,33.66a42.63,42.63,0,0,1-14.94-2.52,27.87,27.87,0,0,0-.18,4c0,16.2,7.38,21.42,18.72,21.42,8.82,0,16.56-4,25.38-12.42,2.88,0,4.14,1.8,4.14,4.68C418.47,204,402.81,220.56,383.19,220.56Zm25.74-68.4c0-6.66-4-11.88-11.7-11.88-10.44,0-21.42,11.52-25.38,28.62a37.56,37.56,0,0,0,11,1.44C395.25,170.34,408.93,163.5,408.93,152.16Z"/><path d="M478.59,95.29c0,26.27-26.82,81.17-25.74,102.05.18,3.42,1.44,5.4,4,5.4,2.7,0,6.12-1.62,8.28-5.76,3.06-1.44,4.5,1.08,4.5,3.42,0,7.92-9,20.16-21.42,20.16-7.56,0-13.32-5.76-13.32-16.38,0-27.72,27.72-83,26.46-107.81-4.5-.18-11.88,1.43-15.3,3.42a3.14,3.14,0,0,1-2.88-3.25c0-7.19,14.58-16.37,25.38-16.37C475.17,80.17,478.59,84.67,478.59,95.29Z"/><path d="M522.33,136.14c0,8.46-14.58,31-14.58,50.58,0,11.7,4.68,16.56,11.88,16.56,12.42,0,30.42-24.12,30.42-46.8,0-9.36-2-17.64-7.38-23.22a9.67,9.67,0,0,1,9.9-8.1c9.18,0,13.14,11.34,13.14,22.14,0,38.88-32.4,73.26-54.54,73.26-14.76,0-21.06-13-21.06-29,0-20,10.62-38.7,13-49.5-6.66-.36-11,2.34-13.32,6.12-3.24.54-5.22-.72-5.22-4.14,0-8.82,11.7-18.9,23.94-18.9C517.47,125.16,522.33,130.38,522.33,136.14Z"/><path d="M603.51,220.56c-19.44,0-30.78-11.34-30.78-31.5,0-30.6,22.68-63.9,49-63.9,15.48,0,24.3,9.54,24.3,22.32,0,19.8-20.7,33.66-40.32,33.66a42.63,42.63,0,0,1-14.94-2.52,27.87,27.87,0,0,0-.18,4c0,16.2,7.38,21.42,18.72,21.42,8.82,0,16.56-4,25.38-12.42,2.88,0,4.14,1.8,4.14,4.68C638.79,204,623.13,220.56,603.51,220.56Zm25.74-68.4c0-6.66-4-11.88-11.7-11.88-10.44,0-21.42,11.52-25.38,28.62a37.56,37.56,0,0,0,11,1.44C615.57,170.34,629.25,163.5,629.25,152.16Z"/><path d="M702.69,208a34.07,34.07,0,0,1,1.26-9.18c-8.46,12.6-18.72,21.78-30.06,21.78-13.5,0-21.78-10.8-21.78-26.82,0-35.1,26.82-68.58,56.16-68.58a43.45,43.45,0,0,1,15.3,2.7A145.85,145.85,0,0,0,729.87,96c-4.5-.18-11.88,1.45-15.3,3.42a3.13,3.13,0,0,1-2.88-3.23c0-7.21,15.48-16,26.27-16,7,0,10.08,6.12,10.08,12,0,23.4-26.63,84.06-26.63,102.42,0,4.68.89,7,4,7,3.42,0,6.3-2.16,7.92-5.4,3.05-1.44,4.49,1.08,4.49,3.42,0,8.64-9.9,20.88-22.85,20.88C707.37,220.56,702.69,215.88,702.69,208Zm-34.38-21.6c0,11.34,5.58,15.3,12.24,15.3,18.36,0,33.84-34.2,37.07-57.78a22.93,22.93,0,0,0-13.85-4.32C686,139.56,668.31,165.66,668.31,186.36Z"/><path d="M780.45,220.56c-19.44,0-30.78-11.34-30.78-31.5,0-30.6,22.68-63.9,49-63.9,15.48,0,24.3,9.54,24.3,22.32,0,19.8-20.7,33.66-40.31,33.66a42.6,42.6,0,0,1-14.94-2.52,27.87,27.87,0,0,0-.18,4c0,16.2,7.38,21.42,18.72,21.42,8.81,0,16.55-4,25.37-12.42,2.88,0,4.14,1.8,4.14,4.68C815.72,204,800.06,220.56,780.45,220.56Zm25.73-68.4c0-6.66-4-11.88-11.7-11.88-10.44,0-21.41,11.52-25.37,28.62a37.5,37.5,0,0,0,11,1.44C792.5,170.34,806.18,163.5,806.18,152.16Z"/><path d="M833.54,208.68c0-13.68,17.46-51.84,17.46-66.6-6.83-.36-11.33,2.34-13.67,6.12-3.25.54-5.22-.72-5.22-4.14,0-8.82,11.51-18.9,24.29-18.9,6.48,0,10.62,4.32,10.62,11,0,5.4-3.42,15.12-7,24.66,9.36-19.62,20.52-35.64,31.14-35.64,11.16,0,11,14.4,6.84,18.54-16-5.94-46.8,18.9-43.92,70.92-1.08,1.8-5.39,5.94-10.44,5.94C838.76,220.56,833.54,218.22,833.54,208.68Z"/><path d="M924.44,220.56c-19.44,0-30.78-11.34-30.78-31.5,0-30.6,22.68-63.9,49-63.9,15.48,0,24.3,9.54,24.3,22.32,0,19.8-20.7,33.66-40.32,33.66a42.63,42.63,0,0,1-14.94-2.52,27.87,27.87,0,0,0-.18,4c0,16.2,7.38,21.42,18.72,21.42,8.82,0,16.56-4,25.38-12.42,2.88,0,4.14,1.8,4.14,4.68C959.72,204,944.06,220.56,924.44,220.56Zm25.74-68.4c0-6.66-4-11.88-11.7-11.88-10.44,0-21.42,11.52-25.38,28.62a37.56,37.56,0,0,0,11,1.44C936.5,170.34,950.18,163.5,950.18,152.16Z"/></svg>