<svg xmlns="http://www.w3.org/2000/svg" viewBox="0 0 1076 1944"><title>Belvedere-Specimen</title><path d="M15.25,127.4c0-10.07,10.64-21,18.7-29.92-10.07-3.45-25.61-4.6-32.22-4-5.18-10.35,2-19,12.37-19,8.63,0,17,4.6,23.87,7.48-.57-12.37-5.17-26.76-8-32.8C32.51,45.7,35.38,44,40.56,44,53.51,44,57,63.25,55.81,82,67.32,77.34,82,70.73,87.17,65.55c3.45,1.72,6.9,5.46,6.9,12.66,0,13.81-23.3,16.11-34.52,18.41,9.49,10.07,24.17,19,31.93,22.44.58,5.18-3.74,13.81-14.09,13.81-9.78,0-21.58-15.25-30.79-26.76C40,114.74,32.22,134.59,30.21,141.5,20.43,142.36,15.25,136,15.25,127.4Z"/><path d="M183.26,242.19c0-19.28,11.5-48.62,23-79.12-22.44,1.16-50.06,5.76-73.36,13.53-10.07,25.89-17.84,54.08-16.11,82.27a16.93,16.93,0,0,1-14.67,8.35c-10.07,0-15.25-8.06-15.25-20.14,0-34.24,53.8-131.47,53.51-160.53-6-2-18.12,0-23.88,3.74a5.45,5.45,0,0,1-4.89-5.75c0-9.5,17.26-24.46,38-24.46,14.09,0,17.55,10.65,17.55,21.87,0,17-11.51,40.56-23.31,68.18a332.68,332.68,0,0,1,70.2-7.19c9.49-26.47,17.55-52.36,16.69-72.79,3.45-6.33,7.48-10.07,14.09-10.07,7.77,0,15.25,5.18,15.25,17.55,0,31.07-49.48,122.84-49.48,152.48,0,6,2,8.63,6,8.63,4.31,0,10.07-2.59,13.52-9.21,4-2.3,6.62,0,6.62,3.74,0,12.66-15.25,34-35.1,34C189.59,267.22,183.26,258.59,183.26,242.19Z"/><path d="M338.33,247.37a82.53,82.53,0,0,1,2.3-18.41c-13.81,21.86-31.36,38.26-50.35,38.26-21.57,0-34.81-17.26-34.81-42.87,0-56.1,42.87-109.61,89.76-109.61,15,0,26.18,4,32.8,7.48A37.53,37.53,0,0,1,398.74,115c4,0,6.62,1.15,6.62,4.6-18.12,28.48-37.69,79.12-37.69,104.72,0,9.21,2.59,12.66,6.33,12.66,5.47,0,10.07-3.45,12.66-8.63,4.89-2.3,7.19,1.73,7.19,5.47,0,12.37-15.82,33.37-36.53,33.37C345.23,267.22,338.33,259.16,338.33,247.37Zm-57-34.81c0,18.12,8.91,24.45,19.56,24.45,29.34,0,54.08-54.66,59.26-92.35-4.31-3.45-12.37-6.9-22.15-6.9C309.56,137.76,281.37,179.47,281.37,212.56Z"/><path d="M481.31,135.46c0,21.29-28.2,75.66-28.2,94.65,0,4.6,1.73,8.63,6.62,8.63,5.18,0,10.07-2.59,13.52-9.21,4.89-2.3,7.2,1.73,7.2,5.47,0,12.66-14.1,32.22-33.95,32.22-13.81,0-22.15-10.65-22.15-26.18,0-29.35,27.33-82.28,27.33-99.25-10.65-.58-17.84,3.74-21.58,9.78-5.18.86-8.34-1.15-8.34-6.62,0-14.1,18.7-30.21,38.26-30.21C473.83,114.74,481.31,122.51,481.31,135.46Zm13.23-70.78C494.54,77.63,484.19,90,472.1,90,465.2,90,458,84.25,458,73.89c0-14.38,12.08-25.32,21.86-25.32C489.36,48.57,494.54,56.05,494.54,64.68Z"/><path d="M508.06,248.23c0-21.86,27.91-82.85,27.91-106.44-10.93-.58-18.12,3.74-21.86,9.78-5.18.86-8.35-1.15-8.35-6.62,0-14.1,18.41-30.21,38.84-30.21,10.36,0,17,6.91,17,17.55,0,8.63-5.46,24.17-11.22,39.42,15-31.36,32.8-57,49.77-57,17.84,0,17.55,23,10.94,29.63-25.61-9.49-74.8,30.21-70.2,113.35-1.73,2.88-8.63,9.5-16.69,9.5C516.41,267.22,508.06,263.48,508.06,248.23Z"/><path d="M685.86,67c0,42-42.87,129.74-41.14,163.12.29,5.46,2.3,8.63,6.33,8.63,4.31,0,9.78-2.59,13.23-9.21,4.89-2.3,7.19,1.73,7.19,5.47,0,12.66-14.38,32.22-34.23,32.22C625.15,267.22,616,258,616,241c0-44.31,44.3-132.63,42.29-172.33-7.19-.29-19,2.3-24.46,5.47a5,5,0,0,1-4.6-5.18c0-11.51,23.31-26.18,40.57-26.18C680.39,42.82,685.86,50,685.86,67Z"/><path d="M760.65,135.46c0,21.29-28.19,75.66-28.19,94.65,0,4.6,1.73,8.63,6.62,8.63,5.18,0,10.07-2.59,13.52-9.21,4.89-2.3,7.19,1.73,7.19,5.47,0,12.66-14.1,32.22-33.95,32.22-13.81,0-22.15-10.65-22.15-26.18,0-29.35,27.33-82.28,27.33-99.25-10.64-.58-17.84,3.74-21.57,9.78-5.18.86-8.35-1.15-8.35-6.62,0-14.1,18.7-30.21,38.26-30.21C753.17,114.74,760.65,122.51,760.65,135.46Zm13.24-70.78c0,12.95-10.36,25.32-22.44,25.32-6.91,0-14.1-5.75-14.1-16.11,0-14.38,12.08-25.32,21.86-25.32C768.71,48.57,773.89,56.05,773.89,64.68Z"/><path d="M871.7,242.76c0-32.22,21-66.16,21-87.45,0-9.21-4.6-15-12.94-15-35.68,0-65.6,62.14-56.1,117.37-1.73,2.88-9.78,9.5-17.84,9.5-7.77,0-17-3.74-17-19,0-21.86,27-83.14,26.47-106.73-10.94-.58-18.13,3.74-21.87,9.78-5.18.86-8.34-1.15-8.34-6.62,0-14.09,18.41-29.92,38.84-29.92,15,0,19.85,8.35,19.85,19.57a38.35,38.35,0,0,1-2,10.64c14.1-16.69,34-30.21,51.5-30.21,20.71,0,29.63,15.54,29.63,33.66,0,25.32-22.44,62.72-22.44,82.86,0,6.33,2.3,9.2,6.33,9.2,6.33,0,12.66-6.9,14.1-10.93,4.89-2.3,7.19,1.73,7.19,5.47,0,12.66-14.1,32.22-34,32.22C879.18,267.22,871.7,256.29,871.7,242.76Z"/><path d="M993.68,267.22c-31.07,0-49.19-18.13-49.19-50.35,0-48.9,36.25-102.13,78.25-102.13,24.74,0,38.84,15.25,38.84,35.68,0,31.64-33.09,53.79-64.45,53.79-6.61,0-15.82-.86-23.87-4a44.12,44.12,0,0,0-.29,6.33c0,25.89,11.79,34.23,29.92,34.23,14.1,0,26.47-6.33,40.56-19.85,4.61,0,6.62,2.88,6.62,7.48C1050.07,240.75,1025,267.22,993.68,267.22Zm41.14-109.32c0-10.65-6.33-19-18.7-19-16.68,0-34.23,18.41-40.56,45.74a59.9,59.9,0,0,0,17.55,2.3C1013,187,1034.82,176,1034.82,157.9Z"/><path d="M16.2,753.88c0-31,37.65-116.78,59.26-181.61a185,185,0,0,0-23.35,11.85c-6.63-2.09-7.67-8-7.67-11.5,0-17.78,45.32-36.61,86.8-36.61C188.4,536,210,569.13,210,617.24,210,684.16,144.13,787,57.34,787,33.63,787,16.2,775.49,16.2,753.88ZM176.9,622.12c0-43.23-18.82-58.22-53.33-58.22-3.84,0-7.67,0-11.51.35-24.75,64.84-58.21,136.3-62.74,185.8,4.53,3.13,12.9,4.88,25.79,4.88C128.8,754.93,176.9,682.07,176.9,622.12Z"/><path d="M307.27,762.94a100.24,100.24,0,0,1,2.79-22.3c-16.73,26.49-38,46.36-61,46.36-26.15,0-42.18-20.92-42.18-51.94,0-68,51.94-132.81,108.76-132.81,18.12,0,31.72,4.88,39.74,9.06a45.41,45.41,0,0,1,25.09-8.72c4.88,0,8,1.4,8,5.58-22,34.51-45.66,95.86-45.66,126.89,0,11.15,3.13,15.34,7.67,15.34,6.62,0,12.2-4.19,15.33-10.46,5.93-2.79,8.72,2.09,8.72,6.62,0,15-19.17,40.44-44.27,40.44C315.64,787,307.27,777.24,307.27,762.94Zm-69-42.17c0,22,10.81,29.63,23.7,29.63,35.56,0,65.54-66.24,71.81-111.9-5.23-4.18-15-8.37-26.84-8.37C272.41,630.13,238.25,680.68,238.25,720.77Z"/><path d="M506.3,757.37c0-39,25.45-80.18,25.45-106,0-11.16-5.58-18.13-15.68-18.13-43.23,0-79.48,75.3-68,142.22C446,779,436.24,787,426.48,787c-9.41,0-20.57-4.53-20.57-23,0-26.49,32.77-100.74,32.07-129.33-13.24-.69-22,4.54-26.49,11.86-6.28,1-10.11-1.4-10.11-8,0-17.08,22.31-36.25,47.06-36.25,18.13,0,24.05,10.11,24.05,23.7a46.23,46.23,0,0,1-2.44,12.9c17.08-20.22,41.14-36.6,62.4-36.6,25.1,0,35.9,18.82,35.9,40.78,0,30.68-27.19,76-27.19,100.39,0,7.67,2.79,11.16,7.67,11.16,7.67,0,15.34-8.37,17.08-13.25,5.93-2.79,8.72,2.09,8.72,6.63,0,15.33-17.08,39-41.14,39C515.37,787,506.3,773.75,506.3,757.37Z"/><path d="M659.68,715.89c-1.4-6.28,3.83-9.77,8.36-11.51,23.71-9.76,54.73-26.14,54.73-56.47,0-11.5-5.58-18.13-16.73-18.13-34.16,0-89.24,73.56-69,145.71C634.93,779,625.17,787,615.4,787c-9.41,0-20.56-4.53-20.56-23,0-62.75,60.65-180.22,59.61-217.52-8.72-.35-23,2.79-29.63,6.63a6.06,6.06,0,0,1-5.58-6.28c0-13.94,31.37-31.72,52.29-31.72,13.59,0,22,8,22,19.52,0,29.63-23.36,82.62-40.09,119.57,18.13-28.94,39-51.94,69.72-51.94,21.61,0,35.9,14.29,35.9,36.25,0,34.51-36.95,63.44-68.32,76.69,12.9,31.37,23,44.62,36.95,44.62,7,0,13.25-3.14,16-7.67,3.13-2.09,7,.7,7,4.88,0,12.9-12.55,30-31.38,30C685.47,787,667,746.56,659.68,715.89Z"/><path d="M695.92,849.39c0-7.66,4.53-20.56,22-22,1.75,10.46,17.43,17.78,31,17.78,39-.35,62.4-42.53,62.4-115.38,0-48.8-4.19-84-14.3-97.26-6.62-.35-18.82,8-22,13.25-4.53,1-7.32-1.74-7.32-6.62,0-18.83,22.31-37,37.65-37,29.28,0,38.69,58.21,38.69,109.8,0,15.34-1,45-5.92,69,30-42.53,64.49-116.08,50.89-163.83,3.83-7.33,11.16-15,20.22-15,12.2,0,17.78,8.71,17.78,24,0,68-100.4,247.84-197,247.84C713.7,874.14,695.92,867.17,695.92,849.39Z"/><path d="M986.64,754.58c0,16.73-13.24,32.42-28.58,32.42-9.07,0-18.13-7.32-18.13-20.57,0-18.47,15.34-32.42,27.89-32.42C980,734,986.64,743.77,986.64,754.58ZM1071,571.92c0,62.05-90.63,72.51-89.24,126.88-11.85,8.37-29.63,5.23-29.63-14.64,0-43.92,89.24-69.71,89.24-109.8,0-11.16-9.06-23-34.86-23-25.45,0-38.34,14.29-45.66,25.8C952.48,573.66,948,567,948,558c0-21.62,33.11-35.91,64.49-35.91C1049,522.07,1071,541.59,1071,571.92Z"/><path d="M67.58,438.89c0-5.64,1.75-14.51,5-27.41-8.87.27-16.66,1.75-25.93,4-5.78,10.62-9.27,21.5-8.2,31.31-1.75,2-3.9,3.63-7,3.63-4.16,0-6.85-3.36-6.85-9.28,0-18.67,35.34-58.58,52.54-76.32A37.9,37.9,0,0,0,67.31,367a4,4,0,0,1-1.88-3.36c0-5.64,14.51-9.94,21.63-9.94,6.18,0,7.8,4.7,7.8,10.62,0,8.46-5.25,26.06-8.87,40.84-4.17,17.2-8.06,31.18-2.56,31.18,2.15,0,4-1.75,5.24-3.09,2.29-.27,3.23,1.07,3.23,2.95,0,5.51-7.39,14.25-14.78,14.25C70.67,450.45,67.58,446.15,67.58,438.89Zm7.25-36c3.5-12.63,7.8-25.13,9.68-34.67-8.2,8.2-21,21.37-30.91,36C60.05,403.15,66.37,403,74.83,402.88Z"/><path d="M149.54,393.07c0,6.18-3.76,8.47-7,8.47a8.22,8.22,0,0,1-5.78-2.29c.54-7.66-6.18-10.75-10.48-10.75s-7.53,2.42-7.53,7.66c0,13,26.88,11.56,26.88,30.23,0,14.38-12.5,24.06-27.28,24.06-13,0-21-7.26-21-15.46,0-5.77,3-9.54,7.52-9.54a9,9,0,0,1,6.45,2.83c-2.15,6.58,1.75,13.16,10.62,13.16,7.39,0,11.15-4.57,11.15-9.4,0-12.23-26.74-12.77-26.74-30.5,0-12.37,9.54-22.31,24.19-22.31C140.41,379.23,149.54,386.08,149.54,393.07Z"/><path d="M223.71,438.89c0-5.64,1.75-14.51,5-27.41-8.86.27-16.66,1.75-25.93,4-5.78,10.62-9.27,21.5-8.2,31.31-1.74,2-3.89,3.63-7,3.63-4.17,0-6.86-3.36-6.86-9.28,0-18.67,35.34-58.58,52.54-76.32a38,38,0,0,0-9.81,2.15,4,4,0,0,1-1.88-3.36c0-5.64,14.51-9.94,21.64-9.94,6.18,0,7.79,4.7,7.79,10.62,0,8.46-5.24,26.06-8.87,40.84-4.17,17.2-8.06,31.18-2.55,31.18,2.15,0,4-1.75,5.24-3.09,2.28-.27,3.22,1.07,3.22,2.95,0,5.51-7.39,14.25-14.78,14.25C226.8,450.45,223.71,446.15,223.71,438.89Zm7.26-36c3.49-12.63,7.79-25.13,9.67-34.67-8.19,8.2-21,21.37-30.9,36C216.19,403.15,222.5,403,231,402.88Z"/><path d="M256.5,437.82c0-18.14,21.63-65.71,21.23-80.09-3.36-.13-8.87,1.08-11.42,2.55a2.33,2.33,0,0,1-2.15-2.41c0-5.38,12.09-12.23,20.15-12.23,5.24,0,8.47,3.09,8.47,7.52,0,11.29-8.74,31.45-15.19,45.55,6.72-10.88,14.11-19.48,23.38-19.48,10.08,0,16.26,8.06,16.26,20,0,25.93-20,51.2-41.92,51.2C263.62,450.45,256.5,446.15,256.5,437.82Zm11.82-1.35a17.2,17.2,0,0,0,10.35,3.23c13.3,0,26.47-19.49,26.47-34.94,0-8.6-4.17-11.42-9.14-11.42C282.3,393.34,270.74,418.87,268.32,436.47Z"/><path d="M382.94,401.4c0,24.19-21.5,49.05-39.1,49.05-12.23,0-21-6.05-21-24.59s15.59-46.63,39.78-46.63C376.49,379.23,382.94,388.64,382.94,401.4Zm-46.76,22c0,9,4.3,14.38,11.69,14.38,15.05,0,21.76-19.35,21.76-30.78,0-9.27-4.56-15.18-11.42-15.18C344.91,391.86,336.18,407,336.18,423.44Z"/><path d="M418.54,387.43c0,6.31-10.88,23.11-10.88,37.75,0,8.74,3.49,12.37,8.87,12.37,9.27,0,22.71-18,22.71-34.94,0-7-1.48-13.17-5.51-17.33a7.21,7.21,0,0,1,7.39-6c6.85,0,9.81,8.47,9.81,16.53,0,29-24.19,54.69-40.72,54.69-11,0-15.72-9.68-15.72-21.64,0-14.91,7.93-28.89,9.68-36.95-5-.27-8.2,1.75-9.95,4.57-2.42.4-3.89-.54-3.89-3.09,0-6.58,8.73-14.11,17.87-14.11C414.91,379.23,418.54,383.13,418.54,387.43Z"/><path d="M479.14,450.45c-14.51,0-23-8.47-23-23.52,0-22.84,16.94-47.7,36.55-47.7,11.56,0,18.14,7.12,18.14,16.66,0,14.78-15.45,25.13-30.1,25.13a31.76,31.76,0,0,1-11.15-1.88,21.44,21.44,0,0,0-.13,2.95c0,12.1,5.51,16,14,16,6.59,0,12.36-2.95,18.95-9.27,2.15,0,3.09,1.35,3.09,3.5C505.48,438.08,493.79,450.45,479.14,450.45Zm19.22-51.06c0-5-3-8.87-8.74-8.87-7.79,0-16,8.6-18.94,21.36a27.89,27.89,0,0,0,8.19,1.08C488.14,413,498.36,407.85,498.36,399.39Z"/><path d="M529.66,438.89c0,14.38-12.22,31-24.45,31-4.7,0-6.59-3.9-5-7.26,9.67.14,16.66-8.06,16.66-14,0-2.82-1.88-5-5.65-3.49C509.91,437.82,516,430,522.41,430,527.11,430,529.66,433.92,529.66,438.89Z"/><path d="M629.77,370.23c0,5.1-2.83,7.39-5.78,7.39s-3.9-1.08-5.38-2.15c-.13-7.8-7.25-11-13.3-11-6.85,0-11.42,4.84-11.42,10.88,0,15.32,27.54,18.41,27.54,44.48,0,14.11-12.09,30.64-30.9,30.64-13.3,0-23.11-8.74-23.11-21.23,0-6.32,3.49-12.23,7.52-12.23a5.09,5.09,0,0,1,4.57,3.09c-3.76,11.69,4.57,18.68,13.71,18.68,10.21,0,16.52-7,16.52-14.92,0-18.68-27.27-20.83-27.27-44.21,0-12.9,9.4-25.93,27.41-25.93C621.3,353.7,629.77,362,629.77,370.23Z"/><path d="M689.69,401.4c0,24.19-21.5,49.05-39.1,49.05-12.23,0-21-6.05-21-24.59s15.59-46.63,39.77-46.63C683.24,379.23,689.69,388.64,689.69,401.4Zm-46.76,22c0,9,4.3,14.38,11.69,14.38,15,0,21.77-19.35,21.77-30.78,0-9.27-4.57-15.18-11.42-15.18C651.66,391.86,642.93,407,642.93,423.44Z"/><path d="M726.51,437.68c0-12.09,14.51-45.28,23-70.27a57.48,57.48,0,0,0-9.13,4.56,4,4,0,0,1-3-4.16c0-6.85,17.47-14.11,33.46-14.11,21,0,26.87,8.87,26.87,18.14,0,10.35-6.72,18.54-16.39,23.65,8.19,2,13,8.6,13,17.74,0,18.14-22.44,37.22-51.73,37.22C733.09,450.45,726.51,445.88,726.51,437.68ZM782,414.3c0-5.64-3.49-9.67-11.29-9.67-6,0-11.55,1.61-14.78,3.62a2.47,2.47,0,0,1-2.15-2.82c0-2.69,5-6.18,11-8.46a21.16,21.16,0,0,1,2.69-.81c8.6-3.36,17.6-11.15,17.6-20.83,0-7-4.17-11.15-17.2-11.15-1.48,0-2.82,0-4.3.14C753.92,389.44,741,417,739.27,436.2c2.69,1.21,5.91,1.88,11.15,1.88C764.4,438.08,782,429.75,782,414.3Z"/><path d="M825,450.45c-14.52,0-23-8.47-23-23.52,0-22.84,16.93-47.7,36.55-47.7,11.55,0,18.14,7.12,18.14,16.66,0,14.78-15.46,25.13-30.1,25.13a31.76,31.76,0,0,1-11.15-1.88,19.92,19.92,0,0,0-.14,2.95c0,12.1,5.51,16,14,16,6.58,0,12.36-2.95,18.94-9.27,2.15,0,3.09,1.35,3.09,3.5C851.33,438.08,839.64,450.45,825,450.45Zm19.21-51.06c0-5-3-8.87-8.73-8.87-7.8,0-16,8.6-19,21.36a27.92,27.92,0,0,0,8.2,1.08C834,413,844.21,407.85,844.21,399.39Z"/><path d="M896.21,356.93c0,19.61-20,60.6-19.22,76.18.14,2.56,1.08,4,3,4s4.57-1.21,6.18-4.3c2.29-1.07,3.36.81,3.36,2.56,0,5.91-6.72,15.05-16,15.05-5.64,0-9.94-4.3-9.94-12.23,0-20.69,20.69-62,19.75-80.49-3.36-.13-8.87,1.08-11.42,2.55a2.33,2.33,0,0,1-2.15-2.41c0-5.38,10.88-12.23,19-12.23C893.66,345.64,896.21,349,896.21,356.93Z"/><path d="M959.23,401.4c0,24.19-21.5,49.05-39.1,49.05-12.23,0-21-6.05-21-24.59s15.59-46.63,39.78-46.63C952.78,379.23,959.23,388.64,959.23,401.4Zm-46.76,22c0,9,4.3,14.38,11.69,14.38,15.05,0,21.76-19.35,21.76-30.78,0-9.27-4.56-15.18-11.42-15.18C921.2,391.86,912.47,407,912.47,423.44Z"/><path d="M1006.39,435.8c-7,8.6-14.78,14.65-21.9,14.65-8.2,0-13.44-6.45-13.44-18.41,0-14.92,10.61-32.12,12.36-40.18-5-.27-8.19,1.75-9.94,4.57-2.42.4-3.9-.54-3.9-3.09,0-6.58,8.74-14.11,17.87-14.11,6.72,0,9.68,3.9,9.68,8.2,0,6.31-13.57,25.93-13.57,40.58,0,5.77,2.28,9.54,6.31,9.54,14.51,0,27.82-27.95,23.38-53.89.81-1.34,3.23-4.43,7-4.43s7.93,1.75,7.93,8.87a41.88,41.88,0,0,1-2.15,11.42c-3.77,14.38-12,38.16-2.42,38.16,10.08,0,26.07-16.26,26.07-35.07,0-7-1.75-13.17-5.78-17.33a7.21,7.21,0,0,1,7.39-6c6.85,0,9.81,8.47,9.81,16.53,0,29-25,54.69-41.52,54.69C1011.36,450.45,1007.33,445.61,1006.39,435.8Z"/><path d="M49,980.9a3.92,3.92,0,0,1,2.27-4.53C63.3,972.3,79,965.51,79,951.81c0-6.79-3.74-11.2-14.72-11.2-1.24,0-2.49,0-3.73.11-4.19,12.68-22.75,46.52-18.68,68.7-1.7,2.38-3.62,3.85-6.56,3.85-3.63,0-5.89-2.94-5.89-9.62,0-13.13,12.56-40.07,19.36-60.33a49.76,49.76,0,0,0-7.7,3.85,3.38,3.38,0,0,1-2.49-3.51c0-5.77,14.71-11.88,28.18-11.88,15.85,0,22.64,7.58,22.64,18.9,0,17.66-20.6,28.07-29.09,30,3.06,9.28,8.83,20.71,16,20.71,2.6,0,5-1,6.11-2.83,1.59-.68,3.4.11,3.4,3.28,0,4.87-4.76,11.43-11.32,11.43C61.38,1013.27,53.8,994.26,49,980.9Z"/><path d="M109.82,1013.27c-12.22,0-19.35-7.13-19.35-19.8,0-19.25,14.26-40.19,30.78-40.19,9.74,0,15.28,6,15.28,14,0,12.45-13,21.17-25.35,21.17a26.66,26.66,0,0,1-9.39-1.59,16.56,16.56,0,0,0-.12,2.49c0,10.19,4.64,13.47,11.77,13.47,5.55,0,10.42-2.49,16-7.81,1.81,0,2.61,1.13,2.61,2.94C132,1002.86,122.16,1013.27,109.82,1013.27Zm16.19-43c0-4.19-2.49-7.47-7.36-7.47-6.57,0-13.47,7.25-16,18a23.57,23.57,0,0,0,6.9.9C117.4,981.69,126,977.39,126,970.26Z"/><path d="M144.34,1039.08c-4.3,0-7.13-2.6-7.13-8,0-18.22,17.43-47.08,17.77-66.44-4.19-.22-7,1.47-8.49,3.85-2,.34-3.28-.45-3.28-2.6,0-5.55,7.92-12.57,15.51-12.57,4.75,0,7.13,3.17,7.13,7.81a30.82,30.82,0,0,1-.8,6.34c5.21-8.15,11.89-14.15,19.13-14.15,8.49,0,13.7,6.8,13.7,16.87,0,22.07-16.87,43.12-35.32,43.12a22.86,22.86,0,0,1-9.62-2.49c-2.26,7.93-3.51,15.4-1.92,24.56A9,9,0,0,1,144.34,1039.08Zm12.34-37.58a14.45,14.45,0,0,0,8.71,2.72c11.21,0,22.3-16.41,22.3-29.43,0-7.24-3.51-9.62-7.7-9.62C168.45,965.17,158.72,986.67,156.68,1001.5Z"/><path d="M222,1013.27c-12.22,0-19.35-7.13-19.35-19.8,0-19.25,14.26-40.19,30.79-40.19,9.73,0,15.28,6,15.28,14,0,12.45-13,21.17-25.36,21.17A26.7,26.7,0,0,1,214,986.9a16.56,16.56,0,0,0-.12,2.49c0,10.19,4.64,13.47,11.78,13.47,5.54,0,10.41-2.49,15.95-7.81,1.82,0,2.61,1.13,2.61,2.94C244.17,1002.86,234.32,1013.27,222,1013.27Zm16.19-43c0-4.19-2.49-7.47-7.36-7.47-6.56,0-13.47,7.25-16,18a23.64,23.64,0,0,0,6.91.9C229.57,981.69,238.17,977.39,238.17,970.26Z"/><path d="M254.81,1002.63c0-9.28,6.67-24.78,10.86-39.61-1.24.34-2.26.68-3.28,1a5.93,5.93,0,0,1-3.85-5.44c0-3.62,2.49-5.32,6.23-5.32a30.18,30.18,0,0,1,3.17.12c.9-5.21,1.24-10.08.45-14.38,2-2.37,4.07-3.51,6.56-3.51,3.29,0,5.89,2,5.89,7.36,0,2.49-.91,6.34-2.15,11,5,.11,9.85.11,12.33-.68a3.3,3.3,0,0,1,1.36,2.94,4.44,4.44,0,0,1-4.3,4.31c-1.36.11-6.22.22-11.66.79-4.3,13.35-10.07,29.31-10.07,37,0,3.28,1.25,4.53,2.83,4.53,2.49,0,5.66-2.38,6.68-4.3,1.92-.91,2.83.67,2.83,2.26,0,4.87-5.77,12.56-13.58,12.56C258.77,1013.27,254.81,1009.42,254.81,1002.63Z"/><path d="M316,961.43c0,8.38-11.09,29.77-11.09,37.24,0,1.81.68,3.4,2.6,3.4s4-1,5.32-3.62c1.92-.91,2.83.67,2.83,2.15,0,5-5.55,12.67-13.36,12.67-5.43,0-8.71-4.18-8.71-10.3,0-11.54,10.75-32.37,10.75-39.05-4.19-.22-7,1.48-8.49,3.85-2,.34-3.28-.45-3.28-2.6,0-5.55,7.36-11.89,15.05-11.89C313.1,953.28,316,956.34,316,961.43Zm5.21-27.84c0,5.09-4.08,10-8.83,10-2.72,0-5.55-2.26-5.55-6.34,0-5.66,4.75-10,8.6-10S321.25,930.2,321.25,933.59Z"/><path d="M326,1002.63c0-9.28,6.68-24.78,10.86-39.61-1.24.34-2.26.68-3.28,1a5.93,5.93,0,0,1-3.85-5.44c0-3.62,2.49-5.32,6.23-5.32a30.09,30.09,0,0,1,3.17.12c.9-5.21,1.24-10.08.45-14.38,2-2.37,4.07-3.51,6.56-3.51,3.29,0,5.89,2,5.89,7.36,0,2.49-.91,6.34-2.15,11,5,.11,9.85.11,12.34-.68a3.33,3.33,0,0,1,1.36,2.94,4.45,4.45,0,0,1-4.31,4.31c-1.35.11-6.22.22-11.65.79-4.3,13.35-10.08,29.31-10.08,37,0,3.28,1.25,4.53,2.83,4.53,2.49,0,5.66-2.38,6.68-4.3,1.92-.91,2.83.67,2.83,2.26,0,4.87-5.77,12.56-13.58,12.56C330,1013.27,326,1009.42,326,1002.63Z"/><path d="M387.23,961.43c0,8.38-11.09,29.77-11.09,37.24,0,1.81.68,3.4,2.6,3.4s4-1,5.32-3.62c1.93-.91,2.83.67,2.83,2.15,0,5-5.54,12.67-13.35,12.67-5.44,0-8.72-4.18-8.72-10.3,0-11.54,10.75-32.37,10.75-39.05-4.19-.22-7,1.48-8.49,3.85-2,.34-3.28-.45-3.28-2.6,0-5.55,7.36-11.89,15.06-11.89C384.29,953.28,387.23,956.34,387.23,961.43Zm5.21-27.84c0,5.09-4.08,10-8.83,10-2.72,0-5.55-2.26-5.55-6.34,0-5.66,4.76-10,8.6-10S392.44,930.2,392.44,933.59Z"/><path d="M446.2,972c0,20.37-18.11,41.31-32.94,41.31-10.3,0-17.65-5.09-17.65-20.71s13.13-39.28,33.5-39.28C440.77,953.28,446.2,961.21,446.2,972Zm-39.39,18.56c0,7.59,3.62,12.11,9.85,12.11,12.67,0,18.33-16.3,18.33-25.92,0-7.81-3.84-12.79-9.62-12.79C414.17,963.92,406.81,976.71,406.81,990.52Z"/><path d="M486.49,1003.65c0-12.67,8.26-26,8.26-34.41,0-3.62-1.81-5.88-5.09-5.88-14,0-25.8,24.45-22.07,46.18a9.91,9.91,0,0,1-7,3.73c-3.05,0-6.67-1.47-6.67-7.47,0-8.6,10.63-32.71,10.41-42-4.3-.23-7.13,1.47-8.6,3.85-2,.34-3.29-.45-3.29-2.6,0-5.55,7.25-11.78,15.28-11.78,5.89,0,7.81,3.29,7.81,7.7a15.13,15.13,0,0,1-.79,4.19c5.55-6.57,13.36-11.89,20.26-11.89,8.15,0,11.66,6.12,11.66,13.25,0,10-8.83,24.67-8.83,32.59,0,2.49.91,3.63,2.49,3.63,2.49,0,5-2.72,5.55-4.3,1.92-.91,2.83.67,2.83,2.15,0,5-5.55,12.67-13.36,12.67C489.44,1013.27,486.49,1009,486.49,1003.65Z"/><path d="M604.31,1013.27c-7.13,0-13.13-3.51-19.46-9.39-7.59,5.88-16.08,9.39-24.45,9.39-12.23,0-20.94-6.79-20.94-17.65,0-11.89,7.81-20.49,18.11-26.26a29.54,29.54,0,0,1-1.93-10.64c0-16,11.55-26.94,23.89-26.94a13.88,13.88,0,0,1,14.14,13.92c0,13.47-10.41,18.22-13.92,12.34a17.82,17.82,0,0,0,3.17-10.53c0-4.86-2.83-7.69-6.34-7.69-6.22,0-11,7.81-11,16.86,0,11.43,7.47,18.22,14.61,25.81,3,3.28,5.54,6,7.69,8.49a46.33,46.33,0,0,0,9.85-17.32,70.93,70.93,0,0,0-12.34,2.94c-1.47-2.38-1-7.92,6.23-9.62,15.62-3.62,20.48-4.19,24.78-9.39a5,5,0,0,1,3.85,5.09c0,4.41-4.19,7.81-14.48,9.62a61.17,61.17,0,0,1-12.91,23.88c5.66,5.43,10.19,7.81,19.58,8.49C614.27,1009.88,609.75,1013.27,604.31,1013.27ZM579,998c-2.49-2.49-5.09-5.32-7.81-8.37-3.51-3.85-7.81-8.61-11-14.38a19,19,0,0,0-10,16.3c0,6.11,4.42,11,12.79,11A34,34,0,0,0,579,998Z"/><path d="M663.17,980.9a3.91,3.91,0,0,1,2.26-4.53c12-4.07,27.73-10.86,27.73-24.56,0-6.79-3.73-11.2-14.71-11.2-1.25,0-2.49,0-3.74.11-4.19,12.68-22.75,46.52-18.67,68.7-1.7,2.38-3.63,3.85-6.57,3.85-3.62,0-5.88-2.94-5.88-9.62,0-13.13,12.56-40.07,19.35-60.33a49.76,49.76,0,0,0-7.7,3.85,3.38,3.38,0,0,1-2.49-3.51c0-5.77,14.72-11.88,28.19-11.88,15.84,0,22.63,7.58,22.63,18.9,0,17.66-20.6,28.07-29.08,30,3,9.28,8.82,20.71,16,20.71,2.61,0,5-1,6.12-2.83,1.58-.68,3.39.11,3.39,3.28,0,4.87-4.75,11.43-11.32,11.43C675.5,1013.27,667.92,994.26,663.17,980.9Z"/><path d="M723.94,1013.27c-12.22,0-19.35-7.13-19.35-19.8,0-19.25,14.26-40.19,30.79-40.19,9.73,0,15.28,6,15.28,14,0,12.45-13,21.17-25.36,21.17a26.7,26.7,0,0,1-9.39-1.59,18,18,0,0,0-.11,2.49c0,10.19,4.64,13.47,11.77,13.47,5.54,0,10.41-2.49,16-7.81,1.81,0,2.6,1.13,2.6,2.94C746.13,1002.86,736.28,1013.27,723.94,1013.27Zm16.19-43c0-4.19-2.49-7.47-7.36-7.47-6.56,0-13.47,7.25-16,18a23.64,23.64,0,0,0,6.91.9C731.53,981.69,740.13,977.39,740.13,970.26Z"/><path d="M780.65,960.87c0,5.88-2.83,17.32-5.43,29.09-5.44,24.44-17.1,51.61-33.62,51.61-11.32,0-13.58-9.85-6.11-14.15a10.57,10.57,0,0,0,8.26,4c10.41,0,14.71-13.58,20.49-38a251.28,251.28,0,0,0,5.32-29.43c-4.19-.22-7,1.48-8.49,3.85-2,.34-3.28-.45-3.28-2.6,0-5.55,7.58-11.89,15.28-11.89C778.5,953.28,780.65,955.77,780.65,960.87Zm3.51-25.36c0,4.65-3.74,9.17-8.15,9.17-2.49,0-5.09-2-5.09-5.88,0-5.21,4.41-9.17,7.92-9.17S784.16,932.35,784.16,935.51Z"/><path d="M807.13,1013.27c-12.22,0-19.35-7.13-19.35-19.8,0-19.25,14.26-40.19,30.79-40.19,9.73,0,15.28,6,15.28,14,0,12.45-13,21.17-25.36,21.17a26.7,26.7,0,0,1-9.39-1.59,18,18,0,0,0-.11,2.49c0,10.19,4.64,13.47,11.77,13.47,5.54,0,10.41-2.49,16-7.81,1.81,0,2.6,1.13,2.6,2.94C829.32,1002.86,819.47,1013.27,807.13,1013.27Zm16.19-43c0-4.19-2.49-7.47-7.36-7.47-6.56,0-13.47,7.25-16,18a23.64,23.64,0,0,0,6.91.9C814.72,981.69,823.32,977.39,823.32,970.26Z"/><path d="M886,965.62c0,5.43-3.39,8.49-6.9,8.49a7,7,0,0,1-4.87-1.92c.91-5.78-1.47-8.94-7.47-8.94-8.49,0-17.43,13.92-17.43,26.48,0,9.06,4.19,13.13,11.32,13.13,5.54,0,10.86-2.49,16.41-7.81,1.81,0,2.6,1.13,2.6,2.94,0,3.62-9.84,15.28-22.18,15.28s-19.35-6.68-19.35-20.14c0-18.11,16-39.85,33.16-39.85C880.14,953.28,886,958.83,886,965.62Z"/><path d="M890.32,1002.63c0-9.28,6.68-24.78,10.87-39.61-1.25.34-2.27.68-3.29,1a5.92,5.92,0,0,1-3.84-5.44c0-3.62,2.49-5.32,6.22-5.32a30,30,0,0,1,3.17.12c.91-5.21,1.25-10.08.45-14.38,2-2.37,4.08-3.51,6.57-3.51,3.28,0,5.88,2,5.88,7.36,0,2.49-.9,6.34-2.15,11,5,.11,9.85.11,12.34-.68a3.33,3.33,0,0,1,1.36,2.94,4.45,4.45,0,0,1-4.3,4.31c-1.36.11-6.23.22-11.66.79-4.3,13.35-10.07,29.31-10.07,37,0,3.28,1.24,4.53,2.83,4.53,2.49,0,5.65-2.38,6.67-4.3,1.93-.91,2.83.67,2.83,2.26,0,4.87-5.77,12.56-13.58,12.56C894.28,1013.27,890.32,1009.42,890.32,1002.63Z"/><path d="M951.55,961.43c0,8.38-11.09,29.77-11.09,37.24,0,1.81.68,3.4,2.61,3.4s4-1,5.32-3.62c1.92-.91,2.82.67,2.82,2.15,0,5-5.54,12.67-13.35,12.67-5.43,0-8.72-4.18-8.72-10.3,0-11.54,10.76-32.37,10.76-39.05-4.19-.22-7,1.48-8.49,3.85-2,.34-3.28-.45-3.28-2.6,0-5.55,7.35-11.89,15-11.89C948.61,953.28,951.55,956.34,951.55,961.43Zm5.21-27.84c0,5.09-4.07,10-8.83,10-2.71,0-5.54-2.26-5.54-6.34,0-5.66,4.75-10,8.6-10S956.76,930.2,956.76,933.59Z"/><path d="M1010.52,972c0,20.37-18.11,41.31-32.93,41.31-10.3,0-17.66-5.09-17.66-20.71s13.13-39.28,33.5-39.28C1005.09,953.28,1010.52,961.21,1010.52,972Zm-39.38,18.56c0,7.59,3.62,12.11,9.84,12.11,12.68,0,18.34-16.3,18.34-25.92,0-7.81-3.85-12.79-9.62-12.79C978.49,963.92,971.14,976.71,971.14,990.52Z"/><path d="M1050.82,1003.65c0-12.67,8.26-26,8.26-34.41,0-3.62-1.81-5.88-5.09-5.88-14,0-25.81,24.45-22.08,46.18a9.86,9.86,0,0,1-7,3.73c-3.06,0-6.68-1.47-6.68-7.47,0-8.6,10.64-32.71,10.41-42-4.3-.23-7.13,1.47-8.6,3.85-2,.34-3.28-.45-3.28-2.6,0-5.55,7.24-11.78,15.28-11.78,5.88,0,7.81,3.29,7.81,7.7a14.81,14.81,0,0,1-.8,4.19c5.55-6.57,13.36-11.89,20.26-11.89,8.15,0,11.66,6.12,11.66,13.25,0,10-8.83,24.67-8.83,32.59,0,2.49.91,3.63,2.49,3.63,2.49,0,5-2.72,5.55-4.3,1.93-.91,2.83.67,2.83,2.15,0,5-5.55,12.67-13.36,12.67C1053.76,1013.27,1050.82,1009,1050.82,1003.65Z"/><path d="M28.7,1439.06c0-5.07,2.75-10.71,5.28-10.71a2,2,0,0,1,2,1.34c-2.88,6.06-1.83,12,1.2,12,5.21,0,8.87-11.76,11.41-21a137.18,137.18,0,0,0,3.66-16.13,22.3,22.3,0,0,0-13.1,3c-1.41-.64-1.9-1.2-1.9-2.47,0-3.24,7.68-7,15.56-7,4.44,0,6.13,3,6.13,6.06,0,2.89-2.82,12.81-4.44,17.81-3.16,9.93-9.36,26.83-18.73,26.83C31.73,1448.77,28.7,1444.9,28.7,1439.06Z"/><path d="M79.62,1444.34a10.57,10.57,0,0,1,.35-2.54c-3.24,3.66-8.52,7-13,7-4.93,0-7-3.66-7-7.53,0-6.2,7.18-18,6.55-23.17a5.5,5.5,0,0,0-5.28,2.4c-1.27.21-2.05-.36-2.05-1.62,0-3.45,4.58-7.4,9.37-7.4,3.38,0,5.21,1.9,5.21,5.07,0,5.21-6.48,17.54-6.48,22.75,0,2.25,1,3.66,3.17,3.66,8.31,0,15.77-16.69,13.73-28.94a4.93,4.93,0,0,1,3.81-2.54c2.6,0,4.22,1.62,4.22,5.78,0,6-5.63,17.81-5.63,22.46,0,1.13.42,2.11,1.62,2.11a4.87,4.87,0,0,0,3.31-2.25c1.19-.56,1.76.42,1.76,1.34,0,3.1-3.45,7.88-8.31,7.88C81,1448.77,79.62,1446.52,79.62,1444.34Z"/><path d="M108.84,1437.58c-2.18,4.22-5.92,11.19-10.92,11.19a4,4,0,0,1-4.22-4.15,4.76,4.76,0,0,1,2.25-3.94,5.19,5.19,0,0,0,3.52,1.12c3.31,0,6.41-4.15,8.59-8.38-.21-1.05-.35-2-.56-3a89,89,0,0,0-3.45-12.88c-1.34-.07-3.8,1.62-4.44,2.67-.91.22-1.48-.35-1.48-1.33,0-3.81,4.51-7.47,7.68-7.47,5.42,0,5.7,9,7.39,16.76,3-3.17,5.92-9.22,5.15-14.22.7-1,1.76-2.33,3.52-2.33s3,1.06,3,3.45c0,4.51-6.33,13.45-10.7,17.19,1.2,5.28,1.76,9.78,4.16,9.78a3.62,3.62,0,0,0,2.88-1.62c.78-.42,1.76,0,1.76,1.41,0,2.89-2.74,6.55-6.26,6.9C111.8,1449.2,110,1443.7,108.84,1437.58Z"/><path d="M128.27,1442.16c0-5.78,4.16-15.43,6.76-24.65-.77.21-1.4.42-2,.63a3.68,3.68,0,0,1-2.39-3.38c0-2.25,1.55-3.31,3.87-3.31.56,0,1.27,0,2,.07a25.49,25.49,0,0,0,.28-8.94,5.23,5.23,0,0,1,4.09-2.18c2,0,3.66,1.26,3.66,4.57a31,31,0,0,1-1.34,6.83c3.1.07,6.13.07,7.68-.42a2.07,2.07,0,0,1,.84,1.83,2.75,2.75,0,0,1-2.67,2.68c-.85.07-3.88.14-7.26.49-2.67,8.31-6.26,18.24-6.26,23,0,2,.77,2.82,1.76,2.82a5.68,5.68,0,0,0,4.15-2.68c1.2-.56,1.76.42,1.76,1.41,0,3-3.59,7.81-8.45,7.81C130.74,1448.77,128.27,1446.38,128.27,1442.16Z"/><path d="M168.77,1443.91a20.37,20.37,0,0,1,.56-4.5c-3.38,5.35-7.68,9.36-12.32,9.36-5.28,0-8.52-4.22-8.52-10.49,0-13.73,10.49-26.83,22-26.83a17.5,17.5,0,0,1,8,1.83,9.18,9.18,0,0,1,5.07-1.76c1,0,1.62.28,1.62,1.13-4.43,7-9.22,19.36-9.22,25.63,0,2.25.63,3.1,1.55,3.1a3.53,3.53,0,0,0,3.1-2.11c1.19-.57,1.76.42,1.76,1.34,0,3-3.88,8.16-9,8.16C170.46,1448.77,168.77,1446.8,168.77,1443.91Zm-14-8.52c0,4.44,2.19,6,4.79,6,7.18,0,13.24-13.38,14.51-22.6a9,9,0,0,0-5.42-1.7C161.72,1417.08,154.82,1427.3,154.82,1435.39Z"/><path d="M189.05,1464.83c-2.68,0-4.44-1.62-4.44-5,0-11.34,10.84-29.29,11.06-41.34a5.53,5.53,0,0,0-5.29,2.4c-1.26.21-2-.28-2-1.62,0-3.45,4.93-7.82,9.65-7.82,3,0,4.44,2,4.44,4.86a18.82,18.82,0,0,1-.5,3.94c3.24-5.07,7.4-8.8,11.9-8.8,5.29,0,8.53,4.23,8.53,10.49,0,13.74-10.5,26.83-22,26.83a14.14,14.14,0,0,1-6-1.55,32.52,32.52,0,0,0-1.2,15.29A5.64,5.64,0,0,1,189.05,1464.83Zm7.67-23.38a9,9,0,0,0,5.42,1.69c7,0,13.88-10.21,13.88-18.31,0-4.51-2.19-6-4.79-6C204.05,1418.85,198,1432.23,196.72,1441.45Z"/><path d="M256.79,1423.07c0,12.68-11.27,25.7-20.49,25.7-6.41,0-11-3.17-11-12.88s8.17-24.44,20.85-24.44C253.41,1411.45,256.79,1416.38,256.79,1423.07Zm-24.51,11.55c0,4.72,2.26,7.54,6.13,7.54,7.89,0,11.41-10.15,11.41-16.13,0-4.86-2.39-8-6-8C236.86,1418.07,232.28,1426,232.28,1434.62Z"/><path d="M285.94,1418.7c0,3.24-2,4.44-3.66,4.44a4.31,4.31,0,0,1-3-1.2c.29-4-3.23-5.63-5.49-5.63a3.64,3.64,0,0,0-3.94,4c0,6.84,14.08,6.06,14.08,15.85,0,7.53-6.55,12.6-14.29,12.6-6.83,0-11-3.8-11-8.09,0-3,1.55-5,3.95-5a4.72,4.72,0,0,1,3.38,1.48c-1.13,3.45.91,6.9,5.56,6.9,3.87,0,5.84-2.4,5.84-4.93,0-6.41-14-6.69-14-16,0-6.48,5-11.69,12.68-11.69C281.16,1411.45,285.94,1415,285.94,1418.7Z"/><path d="M306.51,1416.52c0,5.21-6.9,18.52-6.9,23.17,0,1.13.42,2.11,1.62,2.11a3.66,3.66,0,0,0,3.31-2.25c1.19-.56,1.76.42,1.76,1.34,0,3.1-3.45,7.88-8.31,7.88-3.38,0-5.43-2.6-5.43-6.4,0-7.19,6.69-20.14,6.69-24.3a5.52,5.52,0,0,0-5.28,2.4c-1.27.21-2-.29-2-1.62,0-3.45,4.58-7.4,9.37-7.4C304.68,1411.45,306.51,1413.35,306.51,1416.52Zm3.24-17.32c0,3.17-2.54,6.2-5.5,6.2a3.64,3.64,0,0,1-3.45-4c0-3.52,3-6.2,5.35-6.2S309.75,1397.09,309.75,1399.2Z"/><path d="M312.7,1442.16c0-5.78,4.16-15.43,6.76-24.65-.77.21-1.4.42-2,.63a3.68,3.68,0,0,1-2.39-3.38c0-2.25,1.55-3.31,3.87-3.31.56,0,1.27,0,2,.07a25.49,25.49,0,0,0,.28-8.94,5.23,5.23,0,0,1,4.09-2.18c2,0,3.66,1.26,3.66,4.57a31,31,0,0,1-1.34,6.83c3.1.07,6.13.07,7.68-.42a2.07,2.07,0,0,1,.84,1.83,2.75,2.75,0,0,1-2.67,2.68c-.85.07-3.88.14-7.26.49-2.67,8.31-6.26,18.24-6.26,23,0,2,.77,2.82,1.76,2.82a5.68,5.68,0,0,0,4.15-2.68c1.2-.56,1.76.42,1.76,1.41,0,3-3.59,7.81-8.45,7.81C315.17,1448.77,312.7,1446.38,312.7,1442.16Z"/><path d="M350.8,1416.52c0,5.21-6.9,18.52-6.9,23.17,0,1.13.42,2.11,1.62,2.11a3.65,3.65,0,0,0,3.31-2.25c1.2-.56,1.76.42,1.76,1.34,0,3.1-3.45,7.88-8.31,7.88-3.38,0-5.42-2.6-5.42-6.4,0-7.19,6.69-20.14,6.69-24.3a5.5,5.5,0,0,0-5.28,2.4c-1.27.21-2-.29-2-1.62,0-3.45,4.58-7.4,9.37-7.4C349,1411.45,350.8,1413.35,350.8,1416.52ZM354,1399.2c0,3.17-2.53,6.2-5.49,6.2a3.64,3.64,0,0,1-3.45-4c0-3.52,2.95-6.2,5.35-6.2S354,1397.09,354,1399.2Z"/><path d="M387.49,1423.07c0,12.68-11.27,25.7-20.49,25.7-6.41,0-11-3.17-11-12.88s8.17-24.44,20.85-24.44C384.11,1411.45,387.49,1416.38,387.49,1423.07ZM363,1434.62c0,4.72,2.26,7.54,6.13,7.54,7.89,0,11.41-10.15,11.41-16.13,0-4.86-2.4-8-6-8C367.56,1418.07,363,1426,363,1434.62Z"/><path d="M412.56,1442.79c0-7.89,5.14-16.2,5.14-21.41,0-2.25-1.13-3.66-3.17-3.66-8.73,0-16,15.21-13.73,28.73a6.16,6.16,0,0,1-4.37,2.32c-1.9,0-4.15-.91-4.15-4.64,0-5.36,6.62-20.35,6.48-26.13-2.68-.14-4.44.92-5.35,2.4-1.27.21-2.05-.29-2.05-1.62,0-3.46,4.51-7.33,9.51-7.33,3.66,0,4.86,2,4.86,4.79a9.51,9.51,0,0,1-.49,2.61c3.45-4.09,8.31-7.4,12.6-7.4,5.07,0,7.25,3.8,7.25,8.24,0,6.2-5.49,15.35-5.49,20.28,0,1.55.57,2.26,1.55,2.26,1.55,0,3.1-1.7,3.45-2.68,1.2-.56,1.76.42,1.76,1.34,0,3.1-3.45,7.88-8.31,7.88C414.39,1448.77,412.56,1446.1,412.56,1442.79Z"/><path d="M477.34,1423.07c0,12.68-11.26,25.7-20.49,25.7-6.41,0-11-3.17-11-12.88s8.17-24.44,20.84-24.44C474,1411.45,477.34,1416.38,477.34,1423.07Zm-24.5,11.55c0,4.72,2.25,7.54,6.13,7.54,7.88,0,11.4-10.15,11.4-16.13,0-4.86-2.39-8-6-8C457.42,1418.07,452.84,1426,452.84,1434.62Z"/><path d="M467,1459a11.9,11.9,0,0,0,5.14,1c10.64,0,10.57-17.18,15-36.19.57-2.4,1.06-4.65,1.62-6.77a21.4,21.4,0,0,0-3.59,1,4.22,4.22,0,0,1-1.12-2.75,3.69,3.69,0,0,1,3.87-3.87c.7,0,1.48,0,2.32.07,3.31-11.9,6.83-17.67,14.58-17.67,8.24,0,7.53,9.15,2.18,8.1,0-2.12-2-2.68-3.45-2.68-4.36,0-6.05,5.28-7.32,12.53,3,.07,5.77.07,7.32-.42a2.06,2.06,0,0,1,.85,1.83,2.76,2.76,0,0,1-2.68,2.68c-.7.07-3.24.14-6.27.35-.56,3.31-1.05,6.83-1.83,10.35-6.12,28.73-10.77,39.79-22.25,39.79C465,1466.38,465,1460.89,467,1459Z"/><path d="M538.05,1442.72c0-3,.91-7.61,2.6-14.37a62.87,62.87,0,0,0-13.59,2.11c-3,5.57-4.86,11.27-4.3,16.41a4.71,4.71,0,0,1-3.66,1.9c-2.18,0-3.59-1.76-3.59-4.86,0-9.78,18.52-30.7,27.54-40a20.12,20.12,0,0,0-5.15,1.12,2.09,2.09,0,0,1-1-1.76c0-3,7.6-5.21,11.34-5.21,3.24,0,4.08,2.47,4.08,5.57,0,4.43-2.75,13.66-4.65,21.4-2.18,9-4.22,16.34-1.33,16.34a4.12,4.12,0,0,0,2.74-1.62c1.2-.14,1.69.56,1.69,1.55,0,2.89-3.87,7.46-7.74,7.46C539.67,1448.77,538.05,1446.52,538.05,1442.72Zm3.8-18.87c1.83-6.62,4.08-13.17,5.07-18.17a134.89,134.89,0,0,0-16.2,18.87A74.37,74.37,0,0,1,541.85,1423.85Z"/><path d="M584.59,1419.13c0,3.38-2.11,5.28-4.29,5.28a4.29,4.29,0,0,1-3-1.2c.56-3.59-.91-5.56-4.65-5.56-5.28,0-10.84,8.66-10.84,16.48,0,5.63,2.6,8.17,7,8.17,3.45,0,6.76-1.55,10.21-4.86,1.13,0,1.62.7,1.62,1.83,0,2.25-6.13,9.5-13.8,9.5s-12-4.15-12-12.53c0-11.27,9.93-24.79,20.63-24.79C580.93,1411.45,584.59,1414.9,584.59,1419.13Z"/><path d="M587.27,1442.16c0-5.78,4.16-15.43,6.76-24.65-.77.21-1.41.42-2,.63a3.69,3.69,0,0,1-2.4-3.38c0-2.25,1.55-3.31,3.88-3.31.56,0,1.27,0,2,.07a26,26,0,0,0,.28-8.94,5.23,5.23,0,0,1,4.09-2.18c2,0,3.66,1.26,3.66,4.57a31.63,31.63,0,0,1-1.34,6.83c3.1.07,6.13.07,7.67-.42a2.06,2.06,0,0,1,.85,1.83,2.76,2.76,0,0,1-2.68,2.68c-.84.07-3.87.14-7.25.49-2.68,8.31-6.27,18.24-6.27,23,0,2,.78,2.82,1.76,2.82a5.7,5.7,0,0,0,4.16-2.68c1.2-.56,1.76.42,1.76,1.41,0,3-3.59,7.81-8.45,7.81C589.74,1448.77,587.27,1446.38,587.27,1442.16Z"/><path d="M625.37,1416.52c0,5.21-6.9,18.52-6.9,23.17,0,1.13.42,2.11,1.62,2.11a3.66,3.66,0,0,0,3.31-2.25c1.19-.56,1.76.42,1.76,1.34,0,3.1-3.45,7.88-8.31,7.88-3.38,0-5.43-2.6-5.43-6.4,0-7.19,6.69-20.14,6.69-24.3a5.52,5.52,0,0,0-5.28,2.4c-1.26.21-2-.29-2-1.62,0-3.45,4.58-7.4,9.37-7.4C623.54,1411.45,625.37,1413.35,625.37,1416.52Zm3.24-17.32c0,3.17-2.54,6.2-5.5,6.2a3.64,3.64,0,0,1-3.45-4c0-3.52,3-6.2,5.36-6.2S628.61,1397.09,628.61,1399.2Z"/><path d="M662.06,1423.07c0,12.68-11.27,25.7-20.5,25.7-6.4,0-11-3.17-11-12.88s8.17-24.44,20.84-24.44C658.68,1411.45,662.06,1416.38,662.06,1423.07Zm-24.51,11.55c0,4.72,2.25,7.54,6.13,7.54,7.88,0,11.4-10.15,11.4-16.13,0-4.86-2.39-8-6-8C642.13,1418.07,637.55,1426,637.55,1434.62Z"/><path d="M687.13,1442.79c0-7.89,5.14-16.2,5.14-21.41,0-2.25-1.13-3.66-3.17-3.66-8.73,0-16.06,15.21-13.73,28.73a6.2,6.2,0,0,1-4.37,2.32c-1.9,0-4.15-.91-4.15-4.64,0-5.36,6.61-20.35,6.47-26.13-2.67-.14-4.43.92-5.35,2.4-1.27.21-2-.29-2-1.62,0-3.46,4.51-7.33,9.51-7.33,3.66,0,4.85,2,4.85,4.79a9.51,9.51,0,0,1-.49,2.61c3.45-4.09,8.31-7.4,12.61-7.4,5.07,0,7.25,3.8,7.25,8.24,0,6.2-5.49,15.35-5.49,20.28,0,1.55.56,2.26,1.55,2.26,1.55,0,3.1-1.7,3.45-2.68,1.19-.56,1.76.42,1.76,1.34,0,3.1-3.45,7.88-8.31,7.88C689,1448.77,687.13,1446.1,687.13,1442.79Z"/><path d="M740.29,1443.91a19.82,19.82,0,0,1,.57-4.5c-3.39,5.35-7.68,9.36-12.33,9.36-5.28,0-8.52-4.22-8.52-10.49,0-13.73,10.49-26.83,22-26.83a17.54,17.54,0,0,1,8,1.83,9.16,9.16,0,0,1,5.07-1.76c1,0,1.62.28,1.62,1.13-4.44,7-9.23,19.36-9.23,25.63,0,2.25.64,3.1,1.55,3.1a3.52,3.52,0,0,0,3.1-2.11c1.2-.57,1.76.42,1.76,1.34,0,3-3.87,8.16-8.94,8.16C742,1448.77,740.29,1446.8,740.29,1443.91Zm-13.94-8.52c0,4.44,2.18,6,4.79,6,7.18,0,13.24-13.38,14.5-22.6a9,9,0,0,0-5.42-1.7C733.25,1417.08,726.35,1427.3,726.35,1435.39Z"/><path d="M780.5,1442.79c0-7.89,5.14-16.2,5.14-21.41,0-2.25-1.13-3.66-3.17-3.66-8.73,0-16.05,15.21-13.73,28.73a6.16,6.16,0,0,1-4.37,2.32c-1.9,0-4.15-.91-4.15-4.64,0-5.36,6.62-20.35,6.48-26.13-2.68-.14-4.44.92-5.35,2.4-1.27.21-2.05-.29-2.05-1.62,0-3.46,4.51-7.33,9.51-7.33,3.66,0,4.86,2,4.86,4.79a9.51,9.51,0,0,1-.49,2.61c3.45-4.09,8.31-7.4,12.6-7.4,5.07,0,7.26,3.8,7.26,8.24,0,6.2-5.5,15.35-5.5,20.28,0,1.55.57,2.26,1.55,2.26,1.55,0,3.1-1.7,3.45-2.68,1.2-.56,1.76.42,1.76,1.34,0,3.1-3.45,7.88-8.31,7.88C782.33,1448.77,780.5,1446.1,780.5,1442.79Z"/><path d="M817.68,1443.84a13.08,13.08,0,0,1,.5-3.59c-3.31,4.93-7.33,8.52-11.76,8.52-5.29,0-8.53-4.22-8.53-10.49,0-13.73,10.5-26.83,22-26.83a16.86,16.86,0,0,1,6,1.06,56.89,56.89,0,0,0,2.47-12.47,13.94,13.94,0,0,0-6,1.34,1.23,1.23,0,0,1-1.13-1.27c0-2.81,6.06-6.26,10.28-6.26,2.75,0,3.95,2.39,3.95,4.72,0,9.15-10.42,32.88-10.42,40.06,0,1.83.35,2.75,1.55,2.75a3.52,3.52,0,0,0,3.09-2.11c1.2-.57,1.76.42,1.76,1.34,0,3.38-3.87,8.16-8.94,8.16C819.51,1448.77,817.68,1446.94,817.68,1443.84Zm-13.45-8.45c0,4.44,2.19,6,4.79,6,7.18,0,13.24-13.38,14.51-22.6a9,9,0,0,0-5.42-1.7C811.13,1417.08,804.23,1427.3,804.23,1435.39Z"/><path d="M864.44,1428.63a2.42,2.42,0,0,1,1.41-2.81c7.46-2.54,17.25-6.76,17.25-15.28,0-4.23-2.32-7-9.15-7-.78,0-1.55,0-2.33.07-2.6,7.88-14.15,28.94-11.62,42.74a4.77,4.77,0,0,1-4.08,2.39c-2.25,0-3.66-1.83-3.66-6,0-8.17,7.81-24.93,12-37.54a30.59,30.59,0,0,0-4.79,2.4,2.1,2.1,0,0,1-1.55-2.18c0-3.6,9.16-7.4,17.54-7.4,9.85,0,14.08,4.72,14.08,11.76,0,11-12.82,17.47-18.1,18.66,1.9,5.78,5.49,12.89,9.93,12.89a4.39,4.39,0,0,0,3.8-1.76c1-.42,2.12.07,2.12,2,0,3-3,7.11-7.05,7.11C872.12,1448.77,867.4,1436.94,864.44,1428.63Z"/><path d="M902.26,1448.77c-7.61,0-12-4.43-12-12.32,0-12,8.88-25,19.16-25,6,0,9.5,3.73,9.5,8.73,0,7.75-8.09,13.17-15.77,13.17a16.74,16.74,0,0,1-5.84-1,10.84,10.84,0,0,0-.07,1.54c0,6.34,2.88,8.39,7.32,8.39,3.45,0,6.48-1.55,9.93-4.86,1.13,0,1.62.7,1.62,1.83C916.06,1442.3,909.93,1448.77,902.26,1448.77ZM912.33,1422a4.3,4.3,0,0,0-4.58-4.64c-4.09,0-8.38,4.5-9.93,11.19a14.46,14.46,0,0,0,4.29.57C907,1429.13,912.33,1426.45,912.33,1422Z"/><path d="M941.55,1443.91a20.37,20.37,0,0,1,.56-4.5c-3.38,5.35-7.67,9.36-12.32,9.36-5.28,0-8.52-4.22-8.52-10.49,0-13.73,10.49-26.83,22-26.83a17.54,17.54,0,0,1,8,1.83,9.16,9.16,0,0,1,5.07-1.76c1,0,1.62.28,1.62,1.13-4.44,7-9.23,19.36-9.23,25.63,0,2.25.64,3.1,1.55,3.1a3.52,3.52,0,0,0,3.1-2.11c1.2-.57,1.76.42,1.76,1.34,0,3-3.87,8.16-8.94,8.16C943.24,1448.77,941.55,1446.8,941.55,1443.91Zm-13.94-8.52c0,4.44,2.18,6,4.79,6,7.18,0,13.23-13.38,14.5-22.6a9,9,0,0,0-5.42-1.7C934.51,1417.08,927.61,1427.3,927.61,1435.39Z"/><path d="M985.84,1418.7c0,3.24-2,4.44-3.66,4.44a4.31,4.31,0,0,1-3-1.2c.29-4-3.24-5.63-5.49-5.63a3.64,3.64,0,0,0-3.94,4c0,6.84,14.08,6.06,14.08,15.85,0,7.53-6.55,12.6-14.29,12.6-6.83,0-11-3.8-11-8.09,0-3,1.55-5,3.94-5a4.69,4.69,0,0,1,3.38,1.48c-1.12,3.45.92,6.9,5.57,6.9,3.87,0,5.84-2.4,5.84-4.93,0-6.41-14-6.69-14-16,0-6.48,5-11.69,12.67-11.69C981.06,1411.45,985.84,1415,985.84,1418.7Z"/><path d="M1021.12,1423.07c0,12.68-11.26,25.7-20.49,25.7-6.41,0-11-3.17-11-12.88s8.17-24.44,20.84-24.44C1017.74,1411.45,1021.12,1416.38,1021.12,1423.07Zm-24.5,11.55c0,4.72,2.25,7.54,6.12,7.54,7.89,0,11.41-10.15,11.41-16.13,0-4.86-2.39-8-6-8C1001.2,1418.07,996.62,1426,996.62,1434.62Z"/><path d="M1046.19,1442.79c0-7.89,5.14-16.2,5.14-21.41,0-2.25-1.12-3.66-3.17-3.66-8.73,0-16.05,15.21-13.73,28.73a6.15,6.15,0,0,1-4.36,2.32c-1.9,0-4.16-.91-4.16-4.64,0-5.36,6.62-20.35,6.48-26.13-2.68-.14-4.44.92-5.35,2.4-1.27.21-2-.29-2-1.62,0-3.46,4.5-7.33,9.5-7.33,3.67,0,4.86,2,4.86,4.79a9.51,9.51,0,0,1-.49,2.61c3.45-4.09,8.31-7.4,12.6-7.4,5.07,0,7.26,3.8,7.26,8.24,0,6.2-5.49,15.35-5.49,20.28,0,1.55.56,2.26,1.54,2.26,1.55,0,3.1-1.7,3.46-2.68,1.19-.56,1.76.42,1.76,1.34,0,3.1-3.46,7.88-8.31,7.88C1048,1448.77,1046.19,1446.1,1046.19,1442.79Z"/><path d="M31.74,1856.14c0-17.68,21.08-64,20.69-78a25.77,25.77,0,0,0-11.13,2.49,2.27,2.27,0,0,1-2.09-2.36c0-5.24,11.78-11.91,19.64-11.91,5.1,0,8.25,3,8.25,7.33,0,11-8.51,30.64-14.8,44.38,6.55-10.6,13.75-19,22.78-19,9.82,0,15.85,7.86,15.85,19.51,0,25.27-19.51,49.89-40.86,49.89C38.68,1868.45,31.74,1864.26,31.74,1856.14Zm11.53-1.31A16.72,16.72,0,0,0,53.35,1858c13,0,25.79-19,25.79-34,0-8.38-4.06-11.13-8.9-11.13C56.88,1812.8,45.62,1837.68,43.27,1854.83Z"/><path d="M98.92,1859.8c0-10,12.7-37.71,12.7-48.44-5-.26-8.25,1.7-10,4.45-2.35.39-3.79-.53-3.79-3,0-6.42,8.38-13.75,17.67-13.75,4.72,0,7.73,3.14,7.73,8,0,3.92-2.49,11-5.11,17.93,6.81-14.27,14.93-25.92,22.65-25.92,8.12,0,8,10.47,5,13.49-11.65-4.33-34,13.74-31.95,51.58-.78,1.31-3.93,4.33-7.59,4.33S98.92,1866.74,98.92,1859.8Z"/><path d="M179.57,1859.41a37.92,37.92,0,0,1,1.05-8.38c-6.29,10-14.27,17.42-22.91,17.42-9.82,0-15.85-7.86-15.85-19.51,0-25.54,19.51-49.89,40.85-49.89a32.49,32.49,0,0,1,14.93,3.4,17.12,17.12,0,0,1,9.43-3.27c1.83,0,3,.52,3,2.1-8.25,13-17.15,36-17.15,47.66,0,4.19,1.18,5.76,2.88,5.76a6.53,6.53,0,0,0,5.76-3.93c2.23-1,3.27.78,3.27,2.49,0,5.63-7.2,15.19-16.63,15.19C182.71,1868.45,179.57,1864.78,179.57,1859.41Zm-25.92-15.84c0,8.25,4.06,11.13,8.9,11.13,13.36,0,24.62-24.88,27-42a16.72,16.72,0,0,0-10.08-3.15C166.48,1809.52,153.65,1828.51,153.65,1843.57Z"/><path d="M254.34,1857.32c0-14.67,9.55-30.12,9.55-39.81,0-4.19-2.09-6.81-5.89-6.81-16.23,0-29.85,28.29-25.53,53.42-.79,1.31-4.45,4.33-8.12,4.33s-7.72-1.71-7.72-8.65c0-10,12.31-37.84,12-48.57-5-.27-8.25,1.7-9.95,4.45-2.35.39-3.79-.53-3.79-3,0-6.42,8.37-13.62,17.67-13.62,6.81,0,9,3.8,9,8.9a17.6,17.6,0,0,1-.92,4.85c6.41-7.6,15.45-13.75,23.44-13.75,9.42,0,13.48,7.07,13.48,15.32,0,11.52-10.21,28.54-10.21,37.71,0,2.88,1.05,4.19,2.88,4.19,2.88,0,5.76-3.14,6.42-5,2.22-1,3.27.79,3.27,2.49,0,5.76-6.42,14.67-15.45,14.67C257.74,1868.45,254.34,1863.47,254.34,1857.32Z"/><path d="M323.47,1859.28a24.59,24.59,0,0,1,.92-6.68c-6.16,9.17-13.62,15.85-21.87,15.85-9.82,0-15.84-7.86-15.84-19.51,0-25.54,19.51-49.89,40.85-49.89a31.57,31.57,0,0,1,11.13,2,104.78,104.78,0,0,0,4.58-23.17,25.77,25.77,0,0,0-11.13,2.49A2.27,2.27,0,0,1,330,1778c0-5.24,11.26-11.65,19.11-11.65,5.11,0,7.34,4.45,7.34,8.77,0,17-19.38,61.15-19.38,74.5,0,3.4.65,5.11,2.88,5.11a6.53,6.53,0,0,0,5.76-3.93c2.23-1,3.27.78,3.27,2.49,0,6.28-7.2,15.19-16.63,15.19C326.88,1868.45,323.47,1865,323.47,1859.28Zm-25-15.71c0,8.25,4.06,11.13,8.91,11.13,13.35,0,24.61-24.88,27-42a16.74,16.74,0,0,0-10.08-3.15C311.29,1809.52,298.46,1828.51,298.46,1843.57Z"/><path d="M326.09,1891.88c0-2.88,1.7-7.72,8.25-8.25.66,3.93,6.55,6.68,11.65,6.68,14.67-.13,23.44-16,23.44-43.34,0-18.33-1.57-31.55-5.37-36.53-2.48-.13-7.07,3-8.25,5-1.7.39-2.74-.66-2.74-2.49,0-7.07,8.38-13.88,14.14-13.88,11,0,14.53,21.87,14.53,41.24,0,5.77-.39,16.89-2.23,25.93,11.26-16,24.23-43.6,19.12-61.54,1.44-2.75,4.19-5.63,7.59-5.63,4.59,0,6.68,3.27,6.68,9,0,25.54-37.71,93.1-74,93.1C332.77,1901.18,326.09,1898.56,326.09,1891.88Z"/><path d="M417,1854.83c0-44.91,36.93-78.69,77-78.69,30.51,0,43.73,16.49,43.73,37.84,0,27.88-26.31,52.63-44.78,54.47h-.78c-7.33,0-9.17-3.41-9.17-8.52a42.88,42.88,0,0,1,1.84-10.6c-6,10.74-14.14,19.12-23.05,19.12-9.29,0-14.92-7.34-14.92-18.34,0-24.09,18.33-47,38.36-47,10.87,0,16.76,4.45,20.43,8-6.42,12.56-10.74,29.59-10.74,39,0,3.8,1.18,5.24,2.75,5.24,11.91.92,27.76-13.75,27.76-36.92,0-19.51-12-31.3-36.4-31.3-39.68,0-59.84,36-59.84,63.51,0,24.88,11.91,37.31,36,37.31,13,0,28.93-7.33,34.56-13.74,2.36-.53,3.8.91,3.8,3.4,0,7.33-21.47,21.87-42.95,21.87C430.71,1899.48,417,1881.93,417,1854.83Zm40.85-9.82c0,7.72,3.93,10.34,8.51,10.34,12.57,0,23.18-23.17,25.27-39.41a15.13,15.13,0,0,0-9.42-2.88C470.12,1813.06,457.81,1830.87,457.81,1845Z"/><path d="M582.6,1854.17c-6.81,8.38-14.4,14.28-21.34,14.28-8,0-13.1-6.29-13.1-17.94,0-14.54,10.35-31.3,12.05-39.15-4.85-.26-8,1.7-9.69,4.45-2.36.39-3.8-.53-3.8-3,0-6.42,8.51-13.75,17.42-13.75,6.54,0,9.42,3.8,9.42,8,0,6.15-13.22,25.27-13.22,39.54,0,5.63,2.23,9.3,6.15,9.3,14.14,0,27.11-27.24,22.79-52.51.78-1.31,3.14-4.32,6.8-4.32s7.73,1.7,7.73,8.64a40.72,40.72,0,0,1-2.1,11.13c-3.66,14-11.65,37.19-2.35,37.19,9.82,0,25.4-15.85,25.4-34.18,0-6.81-1.7-12.83-5.63-16.89a7,7,0,0,1,7.2-5.89c6.68,0,9.56,8.25,9.56,16.1,0,28.29-24.36,53.3-40.46,53.3C587.44,1868.45,583.51,1863.73,582.6,1854.17Z"/><path d="M674,1808.48c0,9.69-12.83,34.43-12.83,43.07,0,2.1.79,3.93,3,3.93s4.59-1.18,6.16-4.19c2.22-1,3.27.79,3.27,2.49,0,5.76-6.41,14.67-15.45,14.67-6.29,0-10.08-4.85-10.08-11.92,0-13.36,12.44-37.45,12.44-45.17-4.85-.26-8.12,1.7-9.82,4.45-2.36.39-3.8-.53-3.8-3,0-6.42,8.51-13.75,17.41-13.75C670.59,1799.05,674,1802.58,674,1808.48Zm6-32.21c0,5.89-4.72,11.52-10.22,11.52-3.14,0-6.41-2.62-6.41-7.33,0-6.55,5.5-11.53,10-11.53S680,1772.34,680,1776.27Z"/><path d="M724.53,1857.32c0-14.67,9.56-30.12,9.56-39.81,0-4.19-2.09-6.81-5.89-6.81-16.23,0-29.85,28.29-25.53,53.42-.79,1.31-4.45,4.33-8.12,4.33s-7.72-1.71-7.72-8.65c0-10,12.3-37.84,12-48.57-5-.27-8.25,1.7-10,4.45-2.36.39-3.8-.53-3.8-3,0-6.42,8.38-13.62,17.68-13.62,6.81,0,9,3.8,9,8.9a17.56,17.56,0,0,1-.91,4.85c6.41-7.6,15.45-13.75,23.44-13.75,9.42,0,13.48,7.07,13.48,15.32,0,11.52-10.21,28.54-10.21,37.71,0,2.88,1,4.19,2.88,4.19,2.88,0,5.76-3.14,6.42-5,2.22-1,3.27.79,3.27,2.49,0,5.76-6.42,14.67-15.45,14.67C727.94,1868.45,724.53,1863.47,724.53,1857.32Z"/><path d="M780.05,1868.45c-14.14,0-22.39-8.25-22.39-22.92,0-22.26,16.5-46.48,35.62-46.48,11.26,0,17.67,6.94,17.67,16.23,0,14.41-15.05,24.49-29.33,24.49a31,31,0,0,1-10.86-1.83,18.9,18.9,0,0,0-.14,2.88c0,11.78,5.37,15.58,13.62,15.58,6.42,0,12-2.88,18.46-9,2.1,0,3,1.31,3,3.41C805.72,1856.4,794.32,1868.45,780.05,1868.45Zm18.73-49.76c0-4.84-2.88-8.64-8.51-8.64-7.6,0-15.59,8.38-18.47,20.82a27.53,27.53,0,0,0,8,1C788.82,1831.91,798.78,1826.94,798.78,1818.69Z"/><path d="M829,1856.27c0,6.28-5,12.18-10.73,12.18-3.41,0-6.81-2.75-6.81-7.73,0-6.94,5.76-12.18,10.47-12.18S829,1852.21,829,1856.27Z"/><path d="M893.7,1813.32c0,6.29-3.92,9.82-8,9.82a8.07,8.07,0,0,1-5.63-2.22c1-6.68-1.71-10.35-8.64-10.35-9.83,0-20.17,16.11-20.17,30.64,0,10.48,4.85,15.19,13.09,15.19,6.42,0,12.57-2.88,19-9,2.09,0,3,1.31,3,3.41,0,4.19-11.39,17.68-25.66,17.68s-22.39-7.73-22.39-23.31c0-21,18.46-46.09,38.36-46.09C886.9,1799.05,893.7,1805.47,893.7,1813.32Z"/><path d="M955.37,1820.65c0,23.57-20.94,47.8-38.1,47.8-11.91,0-20.42-5.9-20.42-24s15.18-45.43,38.75-45.43C949.09,1799.05,955.37,1808.21,955.37,1820.65Zm-45.56,21.48c0,8.77,4.19,14,11.39,14,14.66,0,21.21-18.86,21.21-30,0-9-4.45-14.79-11.13-14.79C918.32,1811.36,909.81,1826.15,909.81,1842.13Z"/><path d="M1034.33,1857.32c0-14.67,9.56-30.12,9.56-39.81,0-4.19-2.23-6.81-5.89-6.81-16.24,0-27.24,28.42-22.92,53.42-.78,1.31-4.45,4.33-8.12,4.33s-7.72-1.84-7.72-8.65c0-14.66,10.61-32.6,10.61-42.29,0-4.19-2.1-6.81-5.9-6.81-16.23,0-27.23,28.29-22.91,53.42-.79,1.31-4.45,4.33-8.12,4.33s-7.72-1.71-7.72-8.65c0-10,11.39-37.84,11.13-48.57-5-.27-8.25,1.7-10,4.45-2.35.39-3.79-.53-3.79-3,0-6.42,8.38-13.62,17.67-13.62,5.37,0,8.65,3,8.65,7.86a14.83,14.83,0,0,1-1,5c6.94-7.85,15.19-12.83,23.83-12.83,7.59,0,11.91,5.5,11.91,12.18v.52c5.5-6.55,12.84-12.7,20.56-12.7,8.77,0,13.49,7.07,13.49,15.32,0,11.52-10.22,28.54-10.22,37.71,0,2.88,1,4.19,3,4.19,2.75,0,5.63-3.14,6.28-5,2.23-1,3.27.79,3.27,2.49,0,5.76-6.41,14.67-15.45,14.67C1037.74,1868.45,1034.33,1863.47,1034.33,1857.32Z"/><path d="M26.4,1637.46l29.34-38.29c9.45-12.43,16.16-16.66,24.37-16.66,6.21,0,9.94,3.73,12.18,7-11.93,6-30.08,32.32-46,49.23,8.7,14.67,17.16,38.54,29.59,52-3.73,4.72-7.71,6.46-12.93,6.46C46.54,1697.13,40.57,1663.82,26.4,1637.46Zm44.76.5,32.57-38.79c10.19-12.18,18.4-16.66,26.85-16.66,6.22,0,9.95,3.73,12.19,7-11.94,6-33.82,34.81-51.72,49.48,9.69,14.42,20.14,38,33.32,51.72-4,4.72-7.71,6.46-13.18,6.46C94.78,1697.13,85.83,1664.31,71.16,1638Z"/><path d="M220.59,1684.45c0-10.44,3.23-26.85,9.2-50.72-16.41.5-30.83,3.23-48,7.46-10.69,19.64-17.15,39.78-15.16,57.93-3.24,3.73-7.21,6.72-12.93,6.72-7.71,0-12.68-6.22-12.68-17.16,0-34.56,65.39-108.41,97.22-141.23a70.25,70.25,0,0,0-18.16,4c-2.48-2-3.48-3.73-3.48-6.22,0-10.44,26.86-18.4,40-18.4,11.44,0,14.43,8.71,14.43,19.65,0,15.66-9.7,48.23-16.41,75.58-7.71,31.83-14.92,57.69-4.73,57.69,4,0,7.46-3.23,9.7-5.72,4.23-.5,6,2,6,5.47,0,10.19-13.68,26.36-27.35,26.36C226.31,1705.84,220.59,1697.88,220.59,1684.45ZM234,1617.82c6.46-23.38,14.42-46.5,17.9-64.15-15.17,15.16-38.79,39.53-57.19,66.63C206.67,1618.31,218.35,1618.07,234,1617.82Z"/><path d="M385,1601.16c0,11.93-7.46,18.65-15.17,18.65a15.26,15.26,0,0,1-10.69-4.23c2-12.68-3.23-19.64-16.41-19.64-18.65,0-38.29,30.58-38.29,58.18,0,19.89,9.2,28.84,24.86,28.84,12.19,0,23.87-5.47,36.06-17.16,4,0,5.72,2.49,5.72,6.47,0,8-21.64,33.57-48.74,33.57-27.35,0-42.52-14.67-42.52-44.26,0-39.79,35.06-87.52,72.86-87.52C372,1574.06,385,1586.24,385,1601.16Z"/><path d="M460.54,1684.7c0-27.85,18.15-55.45,18.15-73.85,0-6.46-4.73-10.69-11.94-10.69-25.36,0-56.94,47.25-47.49,97.47-1.49,2.49-6.71,8.21-13.67,8.21-6.72,0-14.67-3.24-14.67-16.41,0-44.76,43.51-128.55,42.76-155.16-6.21-.25-16.41,2-21.13,4.73a4.33,4.33,0,0,1-4-4.48c0-9.94,21.63-22.62,36.55-22.62,9.7,0,15.67,5.71,15.67,13.92,0,20.64-15.92,57.44-27.6,83.29,11.93-19.64,25.11-35,42-35,16.66,0,27.85,13.42,27.85,29.09,0,21.88-19.4,54.2-19.4,71.61,0,5.47,2,8,5.47,8,5.47,0,10.94-6,12.18-9.45,4.23-2,6.22,1.5,6.22,4.73,0,10.94-11.44,27.85-28.59,27.85C466,1705.84,460.54,1696.39,460.54,1684.7Z"/><path d="M581.13,1592c0,18.4-24.37,65.39-24.37,81.8,0,4,1.5,7.46,5.72,7.46,4.48,0,8.71-2.24,11.69-8,4.23-2,6.21,1.5,6.21,4.73,0,10.94-12.18,27.85-29.34,27.85-11.93,0-19.14-9.2-19.14-22.63,0-25.36,23.62-71.11,23.62-85.78-9.2-.5-15.42,3.23-18.65,8.45-4.47.75-7.21-1-7.21-5.72,0-12.18,16.16-26.1,33.07-26.1C574.67,1574.06,581.13,1580.77,581.13,1592Zm11.44-61.17c0,11.19-9,21.88-19.4,21.88-6,0-12.18-5-12.18-13.92,0-12.43,10.44-21.88,18.9-21.88C588.09,1516.87,592.57,1523.33,592.57,1530.79Z"/><path d="M662.69,1532.78c0,36.3-37.05,112.14-35.56,141,.25,4.73,2,7.46,5.47,7.46,3.73,0,8.45-2.24,11.44-8,4.23-2,6.21,1.5,6.21,4.73,0,10.94-12.43,27.85-29.58,27.85-10.45,0-18.4-8-18.4-22.63,0-38.29,38.29-114.62,36.55-148.94-6.22-.25-16.41,2-21.14,4.73a4.33,4.33,0,0,1-4-4.48c0-9.94,20.14-22.62,35.06-22.62C658,1511.9,662.69,1518.11,662.69,1532.78Z"/><path d="M731.31,1532.78c0,36.3-37,112.14-35.56,141,.25,4.73,2,7.46,5.47,7.46,3.73,0,8.46-2.24,11.44-8,4.23-2,6.22,1.5,6.22,4.73,0,10.94-12.43,27.85-29.59,27.85-10.44,0-18.4-8-18.4-22.63,0-38.29,38.29-114.62,36.55-148.94-6.22-.25-16.41,2-21.13,4.73a4.33,4.33,0,0,1-4-4.48c0-9.94,20.14-22.62,35.06-22.62C726.59,1511.9,731.31,1518.11,731.31,1532.78Z"/><path d="M779.3,1705.84c-26.86,0-42.52-15.67-42.52-43.52,0-42.27,31.33-88.26,67.63-88.26,21.38,0,33.57,13.17,33.57,30.83,0,27.35-28.6,46.49-55.7,46.49-5.72,0-13.68-.74-20.64-3.48a38.28,38.28,0,0,0-.25,5.47c0,22.38,10.2,29.59,25.86,29.59,12.19,0,22.88-5.47,35.06-17.16,4,0,5.72,2.49,5.72,6.47C828,1683,806.4,1705.84,779.3,1705.84Zm35.55-94.49c0-9.2-5.47-16.41-16.16-16.41-14.42,0-29.59,15.91-35.06,39.54a52,52,0,0,0,15.17,2C796,1636.46,814.85,1627,814.85,1611.35Z"/><path d="M939.92,1599.67c0,11.43-7,15.66-12.93,15.66a15.26,15.26,0,0,1-10.69-4.23c1-14.17-11.44-19.89-19.4-19.89S883,1595.69,883,1605.38c0,24.12,49.73,21.39,49.73,55.95,0,26.6-23.12,44.51-50.47,44.51-24.12,0-38.79-13.43-38.79-28.6,0-10.69,5.47-17.65,13.92-17.65,5.22,0,8.7,2.24,11.94,5.22-4,12.18,3.23,24.37,19.64,24.37,13.67,0,20.64-8.46,20.64-17.41,0-22.62-49.48-23.62-49.48-56.44,0-22.88,17.65-41.27,44.75-41.27C923,1574.06,939.92,1586.74,939.92,1599.67Z"/><path d="M947.63,1690.17c11.94-6,33.82-34.81,51.72-49.48-9.7-14.42-20.14-38-33.32-51.72,4-4.72,7.71-6.46,13.18-6.46,16.41,0,25.36,32.82,40,59.18l-32.57,38.78c-10.2,12.19-18.4,16.66-26.86,16.66C953.6,1697.13,949.87,1693.4,947.63,1690.17Zm50.47,0c11.94-6,30.09-32.32,46-49.23-8.7-14.67-17.15-38.54-29.59-52,3.73-4.72,7.71-6.46,12.93-6.46,16.41,0,22.38,33.32,36.55,59.67l-29.34,38.29c-9.44,12.44-16.16,16.66-24.36,16.66C1004.07,1697.13,1000.34,1693.4,998.1,1690.17Z"/><path d="M48.18,1318.83a258.11,258.11,0,0,0,10.74-27c-16.83-4.06-29.6-17.71-29.6-33.38,0-11,7.83-15.68,14.51-12.78,4.35,13.36,11.9,22.65,21.48,26.42,4.64-15.38,9.29-32.22,13.93-49.06-11.61-9.87-23.51-21.48-23.51-40.93,0-21.77,18.87-40.35,45-42.67,2-8.42,3.49-14.22,4.07-16.55,2.9-9.86,9.87-13.64,20-11.32-1.45,2.33-4.65,13.07-9.29,29,14.22,3.78,25.54,15.68,25.54,26.42,0,8.13-4.35,12.19-9.29,12.19a13.48,13.48,0,0,1-9.86-4.06c-.29-7.84-5.23-13.36-11.62-16.26-3.77,14.51-8.41,31.35-13.06,48.19,11.9,10.45,24.39,21.77,24.39,38.89,0,21.49-20.61,44.71-48.77,46.74-2.32,8.13-4.65,15.1-6.68,20.9C63.57,1320.57,54.28,1320.57,48.18,1318.83Zm38-121.92c3.77-14.81,7.26-28.45,10.16-40.06-12.77,1.16-19.74,10.45-19.74,20.61C76.63,1184.72,80.7,1190.81,86.21,1196.91Zm3.77,36c-3.77,14.23-7.83,28.16-11.32,40.93,13.94-1.16,21.77-9.29,21.77-20.9C100.43,1245.09,96.08,1239,90,1232.9Z"/><path d="M172.13,1275c0-24.09,26.12-68.79,39.77-94.34-10.45,11.32-25.26,19.45-35.42,19.45-20.32,0-18.87-19.45-12.19-26.13,26.13,7.55,52.25-18.28,52.83-32.51,2-2.61,6.1-6.67,12.49-6.67,9,0,11.9,7,11.9,15.09,0,27-45.29,94-39.77,133.53-1.74,2.9-7,9.58-15.1,9.58S172.13,1288.35,172.13,1275Z"/><path d="M211.6,1343.5c0-8.13,5.52-13.64,10.45-16.84,7.55,7.55,19.74,12.78,37.16,12.78,37.44,0,65.31-37.16,65.31-64.45,0-29.32-36.87-25.54-48.77-14.8-5.22-1.16-6.38-4.94-6.38-8.71,0-8.42,11.9-18,28.16-21.48,17.7-4.35,41.8-22.93,41.8-45,0-12.2-7.55-18.58-19.74-18.58-10.16,0-25.55,6.38-36.58,25-11,1.45-12.77-6.09-12.77-11,0-16.84,25.25-41.22,56.6-41.22,27.87,0,40.93,19.45,40.93,38.32,0,22.64-18.28,43.54-39.18,54.86,14.51,6.39,24.38,19.74,24.38,38.9,0,44.12-53.12,94.34-106.83,94.34C226.7,1365.56,211.6,1357.43,211.6,1343.5Z"/><path d="M376.48,1293c-10.45-42.38,114.37-70.54,114.37-113.79,0-10.45-8.42-17.13-23.23-17.13-10.16,0-31.35,5.23-42.38,23.81-11,1.45-12.77-6.1-12.77-11,0-16.84,27.87-40.06,62.12-40.06,31.64,0,45,18,45,38.31,0,47.61-70,73.74-104.5,92.89,20.9-5.51,47.9-9,65.32-9,18.28,0,26.7,8.7,26.7,19.15,0,6.68-2.32,12.78-7,16.84C467,1278.77,404.34,1287.48,376.48,1293Z"/><path d="M598.54,1292.7c-39.19,0-51.09-35.7-51.09-61.83C547.45,1160,605.21,1084,674.3,1084c19.74,0,34.54,8.12,34.54,22.06,0,9-5.51,14.8-10.45,18-7.54-7.55-18.57-12.78-36-12.78-43,0-68.51,38.61-79.54,74.9,11-13.65,28.74-25.26,47.32-25.26,26.7,0,46.44,22.06,46.44,50.22C676.62,1248.87,639.47,1292.7,598.54,1292.7Zm52-73.73c0-17.42-13.07-30.77-31.93-30.77-15.39,0-29.61,7.84-41.22,21.19a108.61,108.61,0,0,0-1.17,16.26c0,20.6,7.26,42.09,31.06,42.09C630.47,1267.74,650.5,1242.77,650.5,1219Z"/><path d="M730,1266c0,13.94-11,27-23.8,27-7.55,0-15.1-6.09-15.1-17.13,0-15.38,12.77-27,23.22-27C724.51,1248.87,730,1257,730,1266Z"/><path d="M898.39,1197.49c0,43.83-40.64,95.5-94.63,95.5-33.39,0-52.54-22.64-52.54-57.77,0-54.28,45.28-96.08,91.43-96.08C883,1139.14,898.39,1167.3,898.39,1197.49Zm-118.73,29c0,26.7,13.94,39.47,36.58,39.47,29.9,0,53.41-27.28,53.41-58.34,0-27.58-15.09-42.67-38.32-42.67C799.4,1165,779.66,1194.29,779.66,1226.52Z"/><path d="M1065,1197.49c0,43.83-40.64,95.5-94.63,95.5-33.38,0-52.54-22.64-52.54-57.77,0-54.28,45.28-96.08,91.44-96.08C1049.62,1139.14,1065,1167.3,1065,1197.49Zm-118.72,29c0,26.7,13.93,39.47,36.57,39.47,29.9,0,53.42-27.28,53.42-58.34,0-27.58-15.1-42.67-38.32-42.67C966,1165,946.28,1194.29,946.28,1226.52Z"/></svg>