<?xml version="1.0" encoding="UTF-8"?>
<svg height="336" version="1.1" width="600" xmlns="http://www.w3.org/2000/svg" xmlns:xlink="http://www.w3.org/1999/xlink">
 <path d="M0,0 l600,0 l0,336 l-600,0 Z M0,0" fill="rgb(255,255,255)" transform="matrix(1,0,0,-1,0,336)"/>
 <path d="M195.75,254.88 l-34.75,0 l0,34.75 l34.75,0 Z M195.75,254.88" fill="rgb(0,0,0)" stroke="rgb(255,255,255)" stroke-width="5" transform="matrix(1,0,0,-1,0,336)"/>
 <path d="M439,254.88 l-34.75,0 l0,34.75 l34.75,0 Z M439,254.88" fill="rgb(0,0,0)" stroke="rgb(255,255,255)" stroke-width="5" transform="matrix(1,0,0,-1,0,336)"/>
 <path d="M195.75,46.38 l-34.75,0 l0,34.75 l34.75,0 Z M195.75,46.38" fill="rgb(0,0,0)" stroke="rgb(255,255,255)" stroke-width="5" transform="matrix(1,0,0,-1,0,336)"/>
 <path d="M439,46.38 l-34.75,0 l0,34.75 l34.75,0 Z M439,46.38" fill="rgb(0,0,0)" stroke="rgb(255,255,255)" stroke-width="5" transform="matrix(1,0,0,-1,0,336)"/>
 <path d="M230.5,254.88 l-34.75,0 l0,34.75 l34.75,0 Z M230.5,254.88" fill="rgb(0,0,0)" stroke="rgb(255,255,255)" stroke-width="5" transform="matrix(1,0,0,-1,0,336)"/>
 <path d="M404.25,254.88 l-34.75,0 l0,34.75 l34.75,0 Z M404.25,254.88" fill="rgb(0,0,0)" stroke="rgb(255,255,255)" stroke-width="5" transform="matrix(1,0,0,-1,0,336)"/>
 <path d="M230.5,46.38 l-34.75,0 l0,34.75 l34.75,0 Z M230.5,46.38" fill="rgb(0,0,0)" stroke="rgb(255,255,255)" stroke-width="5" transform="matrix(1,0,0,-1,0,336)"/>
 <path d="M404.25,46.38 l-34.75,0 l0,34.75 l34.75,0 Z M404.25,46.38" fill="rgb(0,0,0)" stroke="rgb(255,255,255)" stroke-width="5" transform="matrix(1,0,0,-1,0,336)"/>
 <path d="M230.5,220.12 l-34.75,0 l0,34.75 l34.75,0 Z M230.5,220.12" fill="rgb(0,0,0)" stroke="rgb(255,255,255)" stroke-width="5" transform="matrix(1,0,0,-1,0,336)"/>
 <path d="M404.25,220.12 l-34.75,0 l0,34.75 l34.75,0 Z M404.25,220.12" fill="rgb(0,0,0)" stroke="rgb(255,255,255)" stroke-width="5" transform="matrix(1,0,0,-1,0,336)"/>
 <path d="M230.5,81.12 l-34.75,0 l0,34.75 l34.75,0 Z M230.5,81.12" fill="rgb(0,0,0)" stroke="rgb(255,255,255)" stroke-width="5" transform="matrix(1,0,0,-1,0,336)"/>
 <path d="M404.25,81.12 l-34.75,0 l0,34.75 l34.75,0 Z M404.25,81.12" fill="rgb(0,0,0)" stroke="rgb(255,255,255)" stroke-width="5" transform="matrix(1,0,0,-1,0,336)"/>
 <path d="M230.5,185.38 l-34.75,0 l0,34.75 l34.75,0 Z M230.5,185.38" fill="rgb(0,0,0)" stroke="rgb(255,255,255)" stroke-width="5" transform="matrix(1,0,0,-1,0,336)"/>
 <path d="M404.25,185.38 l-34.75,0 l0,34.75 l34.75,0 Z M404.25,185.38" fill="rgb(0,0,0)" stroke="rgb(255,255,255)" stroke-width="5" transform="matrix(1,0,0,-1,0,336)"/>
 <path d="M230.5,115.88 l-34.75,0 l0,34.75 l34.75,0 Z M230.5,115.88" fill="rgb(0,0,0)" stroke="rgb(255,255,255)" stroke-width="5" transform="matrix(1,0,0,-1,0,336)"/>
 <path d="M404.25,115.88 l-34.75,0 l0,34.75 l34.75,0 Z M404.25,115.88" fill="rgb(0,0,0)" stroke="rgb(255,255,255)" stroke-width="5" transform="matrix(1,0,0,-1,0,336)"/>
 <path d="M230.5,150.62 l-34.75,0 l0,34.75 l34.75,0 Z M230.5,150.62" fill="rgb(0,0,0)" stroke="rgb(255,255,255)" stroke-width="5" transform="matrix(1,0,0,-1,0,336)"/>
 <path d="M404.25,150.62 l-34.75,0 l0,34.75 l34.75,0 Z M404.25,150.62" fill="rgb(0,0,0)" stroke="rgb(255,255,255)" stroke-width="5" transform="matrix(1,0,0,-1,0,336)"/>
 <path d="M265.25,254.88 l-34.75,0 l0,34.75 l34.75,0 Z M265.25,254.88" fill="rgb(0,0,0)" stroke="rgb(255,255,255)" stroke-width="5" transform="matrix(1,0,0,-1,0,336)"/>
 <path d="M369.5,254.88 l-34.75,0 l0,34.75 l34.75,0 Z M369.5,254.88" fill="rgb(0,0,0)" stroke="rgb(255,255,255)" stroke-width="5" transform="matrix(1,0,0,-1,0,336)"/>
 <path d="M265.25,46.38 l-34.75,0 l0,34.75 l34.75,0 Z M265.25,46.38" fill="rgb(0,0,0)" stroke="rgb(255,255,255)" stroke-width="5" transform="matrix(1,0,0,-1,0,336)"/>
 <path d="M369.5,46.38 l-34.75,0 l0,34.75 l34.75,0 Z M369.5,46.38" fill="rgb(0,0,0)" stroke="rgb(255,255,255)" stroke-width="5" transform="matrix(1,0,0,-1,0,336)"/>
 <path d="M265.25,150.62 l-34.75,0 l0,34.75 l34.75,0 Z M265.25,150.62" fill="rgb(0,0,0)" stroke="rgb(255,255,255)" stroke-width="5" transform="matrix(1,0,0,-1,0,336)"/>
 <path d="M369.5,150.62 l-34.75,0 l0,34.75 l34.75,0 Z M369.5,150.62" fill="rgb(0,0,0)" stroke="rgb(255,255,255)" stroke-width="5" transform="matrix(1,0,0,-1,0,336)"/>
 <path d="M334.75,254.88 l-34.75,0 l0,34.75 l34.75,0 Z M334.75,254.88" fill="rgb(0,0,0)" stroke="rgb(255,255,255)" stroke-width="5" transform="matrix(1,0,0,-1,0,336)"/>
 <path d="M300,46.38 l-34.75,0 l0,34.75 l34.75,0 Z M300,46.38" fill="rgb(0,0,0)" stroke="rgb(255,255,255)" stroke-width="5" transform="matrix(1,0,0,-1,0,336)"/>
 <path d="M300,150.62 l-34.75,0 l0,34.75 l34.75,0 Z M300,150.62" fill="rgb(0,0,0)" stroke="rgb(255,255,255)" stroke-width="5" transform="matrix(1,0,0,-1,0,336)"/>
 <path d="M334.75,150.62 l-34.75,0 l0,34.75 l34.75,0 Z M334.75,150.62" fill="rgb(0,0,0)" stroke="rgb(255,255,255)" stroke-width="5" transform="matrix(1,0,0,-1,0,336)"/>
 <path d="M161,46.38 l-19.86,-17.38 l0,39.71 l19.86,12.41 Z M161,46.38" fill="rgb(0,0,0)" stroke="rgb(255,255,255)" stroke-width="5" transform="matrix(1,0,0,-1,0,336)"/>
 <path d="M458.86,29 l-19.86,17.38 l0,34.75 l19.86,-12.41 Z M458.86,29" fill="rgb(0,0,0)" stroke="rgb(255,255,255)" stroke-width="5" transform="matrix(1,0,0,-1,0,336)"/>
 <path d="M161,254.88 l-19.86,12.41 l0,39.71 l19.86,-17.38 Z M161,254.88" fill="rgb(0,0,0)" stroke="rgb(255,255,255)" stroke-width="5" transform="matrix(1,0,0,-1,0,336)"/>
 <path d="M458.86,267.29 l-19.86,-12.41 l0,34.75 l19.86,17.38 Z M458.86,267.29" fill="rgb(0,0,0)" stroke="rgb(255,255,255)" stroke-width="5" transform="matrix(1,0,0,-1,0,336)"/>
 <path d="M141.14,307 l39.71,0 l14.89,-17.38 l-34.75,0 Z M141.14,307" fill="rgb(0,0,0)" stroke="rgb(255,255,255)" stroke-width="5" transform="matrix(1,0,0,-1,0,336)"/>
 <path d="M419.14,307 l39.71,0 l-19.86,-17.38 l-34.75,0 Z M419.14,307" fill="rgb(0,0,0)" stroke="rgb(255,255,255)" stroke-width="5" transform="matrix(1,0,0,-1,0,336)"/>
 <path d="M141.14,29 l19.86,17.38 l34.75,0 l-14.89,-17.38 Z M141.14,29" fill="rgb(0,0,0)" stroke="rgb(255,255,255)" stroke-width="5" transform="matrix(1,0,0,-1,0,336)"/>
 <path d="M419.14,29 l-14.89,17.38 l34.75,0 l19.86,-17.38 Z M419.14,29" fill="rgb(0,0,0)" stroke="rgb(255,255,255)" stroke-width="5" transform="matrix(1,0,0,-1,0,336)"/>
 <path d="M141.14,68.71 l39.71,0 l14.89,12.41 l-34.75,0 Z M141.14,68.71" fill="rgb(0,0,0)" stroke="rgb(255,255,255)" stroke-width="5" transform="matrix(1,0,0,-1,0,336)"/>
 <path d="M419.14,68.71 l39.71,0 l-19.86,12.41 l-34.75,0 Z M419.14,68.71" fill="rgb(0,0,0)" stroke="rgb(255,255,255)" stroke-width="5" transform="matrix(1,0,0,-1,0,336)"/>
 <path d="M141.14,267.29 l19.86,-12.41 l34.75,0 l-14.89,12.41 Z M141.14,267.29" fill="rgb(0,0,0)" stroke="rgb(255,255,255)" stroke-width="5" transform="matrix(1,0,0,-1,0,336)"/>
 <path d="M419.14,267.29 l-14.89,-12.41 l34.75,0 l19.86,12.41 Z M419.14,267.29" fill="rgb(0,0,0)" stroke="rgb(255,255,255)" stroke-width="5" transform="matrix(1,0,0,-1,0,336)"/>
 <path d="M180.86,29 l14.89,17.38 l0,34.75 l-14.89,-12.41 Z M180.86,29" fill="rgb(0,0,0)" stroke="rgb(255,255,255)" stroke-width="5" transform="matrix(1,0,0,-1,0,336)"/>
 <path d="M195.75,46.38 l-14.89,-17.38 l0,39.71 l14.89,12.41 Z M195.75,46.38" fill="rgb(0,0,0)" stroke="rgb(255,255,255)" stroke-width="5" transform="matrix(1,0,0,-1,0,336)"/>
 <path d="M419.14,29 l-14.89,17.38 l0,34.75 l14.89,-12.41 Z M419.14,29" fill="rgb(0,0,0)" stroke="rgb(255,255,255)" stroke-width="5" transform="matrix(1,0,0,-1,0,336)"/>
 <path d="M404.25,46.38 l14.89,-17.38 l0,39.71 l-14.89,12.41 Z M404.25,46.38" fill="rgb(0,0,0)" stroke="rgb(255,255,255)" stroke-width="5" transform="matrix(1,0,0,-1,0,336)"/>
 <path d="M180.86,267.29 l14.89,-12.41 l0,34.75 l-14.89,17.38 Z M180.86,267.29" fill="rgb(0,0,0)" stroke="rgb(255,255,255)" stroke-width="5" transform="matrix(1,0,0,-1,0,336)"/>
 <path d="M195.75,254.88 l-14.89,12.41 l0,39.71 l14.89,-17.38 Z M195.75,254.88" fill="rgb(0,0,0)" stroke="rgb(255,255,255)" stroke-width="5" transform="matrix(1,0,0,-1,0,336)"/>
 <path d="M419.14,267.29 l-14.89,-12.41 l0,34.75 l14.89,17.38 Z M419.14,267.29" fill="rgb(0,0,0)" stroke="rgb(255,255,255)" stroke-width="5" transform="matrix(1,0,0,-1,0,336)"/>
 <path d="M404.25,254.88 l14.89,12.41 l0,39.71 l-14.89,-17.38 Z M404.25,254.88" fill="rgb(0,0,0)" stroke="rgb(255,255,255)" stroke-width="5" transform="matrix(1,0,0,-1,0,336)"/>
 <path d="M195.75,220.12 l-14.89,7.45 l0,39.71 l14.89,-12.41 Z M195.75,220.12" fill="rgb(0,0,0)" stroke="rgb(255,255,255)" stroke-width="5" transform="matrix(1,0,0,-1,0,336)"/>
 <path d="M419.14,227.57 l-14.89,-7.45 l0,34.75 l14.89,12.41 Z M419.14,227.57" fill="rgb(0,0,0)" stroke="rgb(255,255,255)" stroke-width="5" transform="matrix(1,0,0,-1,0,336)"/>
 <path d="M195.75,81.12 l-14.89,-12.41 l0,39.71 l14.89,7.45 Z M195.75,81.12" fill="rgb(0,0,0)" stroke="rgb(255,255,255)" stroke-width="5" transform="matrix(1,0,0,-1,0,336)"/>
 <path d="M419.14,68.71 l-14.89,12.41 l0,34.75 l14.89,-7.45 Z M419.14,68.71" fill="rgb(0,0,0)" stroke="rgb(255,255,255)" stroke-width="5" transform="matrix(1,0,0,-1,0,336)"/>
 <path d="M195.75,185.38 l-14.89,2.48 l0,39.71 l14.89,-7.45 Z M195.75,185.38" fill="rgb(0,0,0)" stroke="rgb(255,255,255)" stroke-width="5" transform="matrix(1,0,0,-1,0,336)"/>
 <path d="M419.14,187.86 l-14.89,-2.48 l0,34.75 l14.89,7.45 Z M419.14,187.86" fill="rgb(0,0,0)" stroke="rgb(255,255,255)" stroke-width="5" transform="matrix(1,0,0,-1,0,336)"/>
 <path d="M195.75,115.88 l-14.89,-7.45 l0,39.71 l14.89,2.48 Z M195.75,115.88" fill="rgb(0,0,0)" stroke="rgb(255,255,255)" stroke-width="5" transform="matrix(1,0,0,-1,0,336)"/>
 <path d="M419.14,108.43 l-14.89,7.45 l0,34.75 l14.89,-2.48 Z M419.14,108.43" fill="rgb(0,0,0)" stroke="rgb(255,255,255)" stroke-width="5" transform="matrix(1,0,0,-1,0,336)"/>
 <path d="M195.75,150.62 l-14.89,-2.48 l0,39.71 l14.89,-2.48 Z M195.75,150.62" fill="rgb(0,0,0)" stroke="rgb(255,255,255)" stroke-width="5" transform="matrix(1,0,0,-1,0,336)"/>
 <path d="M419.14,148.14 l-14.89,2.48 l0,34.75 l14.89,2.48 Z M419.14,148.14" fill="rgb(0,0,0)" stroke="rgb(255,255,255)" stroke-width="5" transform="matrix(1,0,0,-1,0,336)"/>
 <path d="M379.43,29 l-9.93,17.38 l34.75,0 l14.89,-17.38 Z M379.43,29" fill="rgb(0,0,0)" stroke="rgb(255,255,255)" stroke-width="5" transform="matrix(1,0,0,-1,0,336)"/>
 <path d="M379.43,68.71 l-9.93,12.41 l34.75,0 l14.89,-12.41 Z M379.43,68.71" fill="rgb(0,0,0)" stroke="rgb(255,255,255)" stroke-width="5" transform="matrix(1,0,0,-1,0,336)"/>
 <path d="M379.43,267.29 l-9.93,-12.41 l34.75,0 l14.89,12.41 Z M379.43,267.29" fill="rgb(0,0,0)" stroke="rgb(255,255,255)" stroke-width="5" transform="matrix(1,0,0,-1,0,336)"/>
 <path d="M379.43,227.57 l-9.93,-7.45 l34.75,0 l14.89,7.45 Z M379.43,227.57" fill="rgb(0,0,0)" stroke="rgb(255,255,255)" stroke-width="5" transform="matrix(1,0,0,-1,0,336)"/>
 <path d="M379.43,108.43 l-9.93,7.45 l34.75,0 l14.89,-7.45 Z M379.43,108.43" fill="rgb(0,0,0)" stroke="rgb(255,255,255)" stroke-width="5" transform="matrix(1,0,0,-1,0,336)"/>
 <path d="M379.43,187.86 l-9.93,-2.48 l34.75,0 l14.89,2.48 Z M379.43,187.86" fill="rgb(0,0,0)" stroke="rgb(255,255,255)" stroke-width="5" transform="matrix(1,0,0,-1,0,336)"/>
 <path d="M379.43,148.14 l-9.93,2.48 l34.75,0 l14.89,-2.48 Z M379.43,148.14" fill="rgb(0,0,0)" stroke="rgb(255,255,255)" stroke-width="5" transform="matrix(1,0,0,-1,0,336)"/>
 <path d="M180.86,307 l39.71,0 l9.93,-17.38 l-34.75,0 Z M180.86,307" fill="rgb(0,0,0)" stroke="rgb(255,255,255)" stroke-width="5" transform="matrix(1,0,0,-1,0,336)"/>
 <path d="M180.86,29 l14.89,17.38 l34.75,0 l-9.93,-17.38 Z M180.86,29" fill="rgb(0,0,0)" stroke="rgb(255,255,255)" stroke-width="5" transform="matrix(1,0,0,-1,0,336)"/>
 <path d="M180.86,68.71 l14.89,12.41 l34.75,0 l-9.93,-12.41 Z M180.86,68.71" fill="rgb(0,0,0)" stroke="rgb(255,255,255)" stroke-width="5" transform="matrix(1,0,0,-1,0,336)"/>
 <path d="M180.86,68.71 l39.71,0 l9.93,12.41 l-34.75,0 Z M180.86,68.71" fill="rgb(0,0,0)" stroke="rgb(255,255,255)" stroke-width="5" transform="matrix(1,0,0,-1,0,336)"/>
 <path d="M180.86,267.29 l14.89,-12.41 l34.75,0 l-9.93,12.41 Z M180.86,267.29" fill="rgb(0,0,0)" stroke="rgb(255,255,255)" stroke-width="5" transform="matrix(1,0,0,-1,0,336)"/>
 <path d="M180.86,267.29 l39.71,0 l9.93,-12.41 l-34.75,0 Z M180.86,267.29" fill="rgb(0,0,0)" stroke="rgb(255,255,255)" stroke-width="5" transform="matrix(1,0,0,-1,0,336)"/>
 <path d="M180.86,227.57 l14.89,-7.45 l34.75,0 l-9.93,7.45 Z M180.86,227.57" fill="rgb(0,0,0)" stroke="rgb(255,255,255)" stroke-width="5" transform="matrix(1,0,0,-1,0,336)"/>
 <path d="M180.86,227.57 l39.71,0 l9.93,-7.45 l-34.75,0 Z M180.86,227.57" fill="rgb(0,0,0)" stroke="rgb(255,255,255)" stroke-width="5" transform="matrix(1,0,0,-1,0,336)"/>
 <path d="M180.86,108.43 l14.89,7.45 l34.75,0 l-9.93,-7.45 Z M180.86,108.43" fill="rgb(0,0,0)" stroke="rgb(255,255,255)" stroke-width="5" transform="matrix(1,0,0,-1,0,336)"/>
 <path d="M180.86,108.43 l39.71,0 l9.93,7.45 l-34.75,0 Z M180.86,108.43" fill="rgb(0,0,0)" stroke="rgb(255,255,255)" stroke-width="5" transform="matrix(1,0,0,-1,0,336)"/>
 <path d="M180.86,187.86 l14.89,-2.48 l34.75,0 l-9.93,2.48 Z M180.86,187.86" fill="rgb(0,0,0)" stroke="rgb(255,255,255)" stroke-width="5" transform="matrix(1,0,0,-1,0,336)"/>
 <path d="M180.86,148.14 l14.89,2.48 l34.75,0 l-9.93,-2.48 Z M180.86,148.14" fill="rgb(0,0,0)" stroke="rgb(255,255,255)" stroke-width="5" transform="matrix(1,0,0,-1,0,336)"/>
 <path d="M180.86,187.86 l39.71,0 l9.93,-2.48 l-34.75,0 Z M180.86,187.86" fill="rgb(0,0,0)" stroke="rgb(255,255,255)" stroke-width="5" transform="matrix(1,0,0,-1,0,336)"/>
 <path d="M180.86,148.14 l39.71,0 l9.93,2.48 l-34.75,0 Z M180.86,148.14" fill="rgb(0,0,0)" stroke="rgb(255,255,255)" stroke-width="5" transform="matrix(1,0,0,-1,0,336)"/>
 <path d="M379.43,307 l39.71,0 l-14.89,-17.38 l-34.75,0 Z M379.43,307" fill="rgb(0,0,0)" stroke="rgb(255,255,255)" stroke-width="5" transform="matrix(1,0,0,-1,0,336)"/>
 <path d="M379.43,68.71 l39.71,0 l-14.89,12.41 l-34.75,0 Z M379.43,68.71" fill="rgb(0,0,0)" stroke="rgb(255,255,255)" stroke-width="5" transform="matrix(1,0,0,-1,0,336)"/>
 <path d="M379.43,267.29 l39.71,0 l-14.89,-12.41 l-34.75,0 Z M379.43,267.29" fill="rgb(0,0,0)" stroke="rgb(255,255,255)" stroke-width="5" transform="matrix(1,0,0,-1,0,336)"/>
 <path d="M379.43,227.57 l39.71,0 l-14.89,-7.45 l-34.75,0 Z M379.43,227.57" fill="rgb(0,0,0)" stroke="rgb(255,255,255)" stroke-width="5" transform="matrix(1,0,0,-1,0,336)"/>
 <path d="M379.43,108.43 l39.71,0 l-14.89,7.45 l-34.75,0 Z M379.43,108.43" fill="rgb(0,0,0)" stroke="rgb(255,255,255)" stroke-width="5" transform="matrix(1,0,0,-1,0,336)"/>
 <path d="M379.43,187.86 l39.71,0 l-14.89,-2.48 l-34.75,0 Z M379.43,187.86" fill="rgb(0,0,0)" stroke="rgb(255,255,255)" stroke-width="5" transform="matrix(1,0,0,-1,0,336)"/>
 <path d="M379.43,148.14 l39.71,0 l-14.89,2.48 l-34.75,0 Z M379.43,148.14" fill="rgb(0,0,0)" stroke="rgb(255,255,255)" stroke-width="5" transform="matrix(1,0,0,-1,0,336)"/>
 <path d="M379.43,29 l-9.93,17.38 l0,34.75 l9.93,-12.41 Z M379.43,29" fill="rgb(0,0,0)" stroke="rgb(255,255,255)" stroke-width="5" transform="matrix(1,0,0,-1,0,336)"/>
 <path d="M379.43,267.29 l-9.93,-12.41 l0,34.75 l9.93,17.38 Z M379.43,267.29" fill="rgb(0,0,0)" stroke="rgb(255,255,255)" stroke-width="5" transform="matrix(1,0,0,-1,0,336)"/>
 <path d="M379.43,148.14 l-9.93,2.48 l0,34.75 l9.93,2.48 Z M379.43,148.14" fill="rgb(0,0,0)" stroke="rgb(255,255,255)" stroke-width="5" transform="matrix(1,0,0,-1,0,336)"/>
 <path d="M220.57,29 l9.93,17.38 l0,34.75 l-9.93,-12.41 Z M220.57,29" fill="rgb(0,0,0)" stroke="rgb(255,255,255)" stroke-width="5" transform="matrix(1,0,0,-1,0,336)"/>
 <path d="M230.5,46.38 l-9.93,-17.38 l0,39.71 l9.93,12.41 Z M230.5,46.38" fill="rgb(0,0,0)" stroke="rgb(255,255,255)" stroke-width="5" transform="matrix(1,0,0,-1,0,336)"/>
 <path d="M369.5,46.38 l9.93,-17.38 l0,39.71 l-9.93,12.41 Z M369.5,46.38" fill="rgb(0,0,0)" stroke="rgb(255,255,255)" stroke-width="5" transform="matrix(1,0,0,-1,0,336)"/>
 <path d="M220.57,267.29 l9.93,-12.41 l0,34.75 l-9.93,17.38 Z M220.57,267.29" fill="rgb(0,0,0)" stroke="rgb(255,255,255)" stroke-width="5" transform="matrix(1,0,0,-1,0,336)"/>
 <path d="M230.5,254.88 l-9.93,12.41 l0,39.71 l9.93,-17.38 Z M230.5,254.88" fill="rgb(0,0,0)" stroke="rgb(255,255,255)" stroke-width="5" transform="matrix(1,0,0,-1,0,336)"/>
 <path d="M369.5,254.88 l9.93,12.41 l0,39.71 l-9.93,-17.38 Z M369.5,254.88" fill="rgb(0,0,0)" stroke="rgb(255,255,255)" stroke-width="5" transform="matrix(1,0,0,-1,0,336)"/>
 <path d="M220.57,227.57 l9.93,-7.45 l0,34.75 l-9.93,12.41 Z M220.57,227.57" fill="rgb(0,0,0)" stroke="rgb(255,255,255)" stroke-width="5" transform="matrix(1,0,0,-1,0,336)"/>
 <path d="M369.5,220.12 l9.93,7.45 l0,39.71 l-9.93,-12.41 Z M369.5,220.12" fill="rgb(0,0,0)" stroke="rgb(255,255,255)" stroke-width="5" transform="matrix(1,0,0,-1,0,336)"/>
 <path d="M220.57,68.71 l9.93,12.41 l0,34.75 l-9.93,-7.45 Z M220.57,68.71" fill="rgb(0,0,0)" stroke="rgb(255,255,255)" stroke-width="5" transform="matrix(1,0,0,-1,0,336)"/>
 <path d="M369.5,81.12 l9.93,-12.41 l0,39.71 l-9.93,7.45 Z M369.5,81.12" fill="rgb(0,0,0)" stroke="rgb(255,255,255)" stroke-width="5" transform="matrix(1,0,0,-1,0,336)"/>
 <path d="M220.57,187.86 l9.93,-2.48 l0,34.75 l-9.93,7.45 Z M220.57,187.86" fill="rgb(0,0,0)" stroke="rgb(255,255,255)" stroke-width="5" transform="matrix(1,0,0,-1,0,336)"/>
 <path d="M369.5,185.38 l9.93,2.48 l0,39.71 l-9.93,-7.45 Z M369.5,185.38" fill="rgb(0,0,0)" stroke="rgb(255,255,255)" stroke-width="5" transform="matrix(1,0,0,-1,0,336)"/>
 <path d="M220.57,108.43 l9.93,7.45 l0,34.75 l-9.93,-2.48 Z M220.57,108.43" fill="rgb(0,0,0)" stroke="rgb(255,255,255)" stroke-width="5" transform="matrix(1,0,0,-1,0,336)"/>
 <path d="M369.5,115.88 l9.93,-7.45 l0,39.71 l-9.93,2.48 Z M369.5,115.88" fill="rgb(0,0,0)" stroke="rgb(255,255,255)" stroke-width="5" transform="matrix(1,0,0,-1,0,336)"/>
 <path d="M220.57,148.14 l9.93,2.48 l0,34.75 l-9.93,2.48 Z M220.57,148.14" fill="rgb(0,0,0)" stroke="rgb(255,255,255)" stroke-width="5" transform="matrix(1,0,0,-1,0,336)"/>
 <path d="M230.5,150.62 l-9.93,-2.48 l0,39.71 l9.93,-2.48 Z M230.5,150.62" fill="rgb(0,0,0)" stroke="rgb(255,255,255)" stroke-width="5" transform="matrix(1,0,0,-1,0,336)"/>
 <path d="M369.5,150.62 l9.93,-2.48 l0,39.71 l-9.93,-2.48 Z M369.5,150.62" fill="rgb(0,0,0)" stroke="rgb(255,255,255)" stroke-width="5" transform="matrix(1,0,0,-1,0,336)"/>
 <path d="M339.71,29 l-4.96,17.38 l34.75,0 l9.93,-17.38 Z M339.71,29" fill="rgb(0,0,0)" stroke="rgb(255,255,255)" stroke-width="5" transform="matrix(1,0,0,-1,0,336)"/>
 <path d="M339.71,267.29 l-4.96,-12.41 l34.75,0 l9.93,12.41 Z M339.71,267.29" fill="rgb(0,0,0)" stroke="rgb(255,255,255)" stroke-width="5" transform="matrix(1,0,0,-1,0,336)"/>
 <path d="M339.71,148.14 l-4.96,2.48 l34.75,0 l9.93,-2.48 Z M339.71,148.14" fill="rgb(0,0,0)" stroke="rgb(255,255,255)" stroke-width="5" transform="matrix(1,0,0,-1,0,336)"/>
 <path d="M220.57,307 l39.71,0 l4.96,-17.38 l-34.75,0 Z M220.57,307" fill="rgb(0,0,0)" stroke="rgb(255,255,255)" stroke-width="5" transform="matrix(1,0,0,-1,0,336)"/>
 <path d="M339.71,307 l39.71,0 l-9.93,-17.38 l-34.75,0 Z M339.71,307" fill="rgb(0,0,0)" stroke="rgb(255,255,255)" stroke-width="5" transform="matrix(1,0,0,-1,0,336)"/>
 <path d="M220.57,29 l9.93,17.38 l34.75,0 l-4.96,-17.38 Z M220.57,29" fill="rgb(0,0,0)" stroke="rgb(255,255,255)" stroke-width="5" transform="matrix(1,0,0,-1,0,336)"/>
 <path d="M220.57,68.71 l39.71,0 l4.96,12.41 l-34.75,0 Z M220.57,68.71" fill="rgb(0,0,0)" stroke="rgb(255,255,255)" stroke-width="5" transform="matrix(1,0,0,-1,0,336)"/>
 <path d="M339.71,68.71 l39.71,0 l-9.93,12.41 l-34.75,0 Z M339.71,68.71" fill="rgb(0,0,0)" stroke="rgb(255,255,255)" stroke-width="5" transform="matrix(1,0,0,-1,0,336)"/>
 <path d="M220.57,267.29 l9.93,-12.41 l34.75,0 l-4.96,12.41 Z M220.57,267.29" fill="rgb(0,0,0)" stroke="rgb(255,255,255)" stroke-width="5" transform="matrix(1,0,0,-1,0,336)"/>
 <path d="M220.57,148.14 l9.93,2.48 l34.75,0 l-4.96,-2.48 Z M220.57,148.14" fill="rgb(0,0,0)" stroke="rgb(255,255,255)" stroke-width="5" transform="matrix(1,0,0,-1,0,336)"/>
 <path d="M220.57,187.86 l39.71,0 l4.96,-2.48 l-34.75,0 Z M220.57,187.86" fill="rgb(0,0,0)" stroke="rgb(255,255,255)" stroke-width="5" transform="matrix(1,0,0,-1,0,336)"/>
 <path d="M339.71,187.86 l39.71,0 l-9.93,-2.48 l-34.75,0 Z M339.71,187.86" fill="rgb(0,0,0)" stroke="rgb(255,255,255)" stroke-width="5" transform="matrix(1,0,0,-1,0,336)"/>
 <path d="M260.29,29 l4.96,17.38 l0,34.75 l-4.96,-12.41 Z M260.29,29" fill="rgb(0,0,0)" stroke="rgb(255,255,255)" stroke-width="5" transform="matrix(1,0,0,-1,0,336)"/>
 <path d="M265.25,46.38 l-4.96,-17.38 l0,39.71 l4.96,12.41 Z M265.25,46.38" fill="rgb(0,0,0)" stroke="rgb(255,255,255)" stroke-width="5" transform="matrix(1,0,0,-1,0,336)"/>
 <path d="M334.75,46.38 l4.96,-17.38 l0,39.71 l-4.96,12.41 Z M334.75,46.38" fill="rgb(0,0,0)" stroke="rgb(255,255,255)" stroke-width="5" transform="matrix(1,0,0,-1,0,336)"/>
 <path d="M260.29,267.29 l4.96,-12.41 l0,34.75 l-4.96,17.38 Z M260.29,267.29" fill="rgb(0,0,0)" stroke="rgb(255,255,255)" stroke-width="5" transform="matrix(1,0,0,-1,0,336)"/>
 <path d="M339.71,267.29 l-4.96,-12.41 l0,34.75 l4.96,17.38 Z M339.71,267.29" fill="rgb(0,0,0)" stroke="rgb(255,255,255)" stroke-width="5" transform="matrix(1,0,0,-1,0,336)"/>
 <path d="M334.75,254.88 l4.96,12.41 l0,39.71 l-4.96,-17.38 Z M334.75,254.88" fill="rgb(0,0,0)" stroke="rgb(255,255,255)" stroke-width="5" transform="matrix(1,0,0,-1,0,336)"/>
 <path d="M260.29,148.14 l4.96,2.48 l0,34.75 l-4.96,2.48 Z M260.29,148.14" fill="rgb(0,0,0)" stroke="rgb(255,255,255)" stroke-width="5" transform="matrix(1,0,0,-1,0,336)"/>
 <path d="M265.25,150.62 l-4.96,-2.48 l0,39.71 l4.96,-2.48 Z M265.25,150.62" fill="rgb(0,0,0)" stroke="rgb(255,255,255)" stroke-width="5" transform="matrix(1,0,0,-1,0,336)"/>
 <path d="M339.71,148.14 l-4.96,2.48 l0,34.75 l4.96,2.48 Z M339.71,148.14" fill="rgb(0,0,0)" stroke="rgb(255,255,255)" stroke-width="5" transform="matrix(1,0,0,-1,0,336)"/>
 <path d="M334.75,150.62 l4.96,-2.48 l0,39.71 l-4.96,-2.48 Z M334.75,150.62" fill="rgb(0,0,0)" stroke="rgb(255,255,255)" stroke-width="5" transform="matrix(1,0,0,-1,0,336)"/>
 <path d="M300,307 l39.71,0 l-4.96,-17.38 l-34.75,0 Z M300,307" fill="rgb(0,0,0)" stroke="rgb(255,255,255)" stroke-width="5" transform="matrix(1,0,0,-1,0,336)"/>
 <path d="M260.29,29 l4.96,17.38 l34.75,0 l0,-17.38 Z M260.29,29" fill="rgb(0,0,0)" stroke="rgb(255,255,255)" stroke-width="5" transform="matrix(1,0,0,-1,0,336)"/>
 <path d="M260.29,68.71 l39.71,0 l0,12.41 l-34.75,0 Z M260.29,68.71" fill="rgb(0,0,0)" stroke="rgb(255,255,255)" stroke-width="5" transform="matrix(1,0,0,-1,0,336)"/>
 <path d="M300,267.29 l0,-12.41 l34.75,0 l4.96,12.41 Z M300,267.29" fill="rgb(0,0,0)" stroke="rgb(255,255,255)" stroke-width="5" transform="matrix(1,0,0,-1,0,336)"/>
 <path d="M260.29,148.14 l4.96,2.48 l34.75,0 l0,-2.48 Z M260.29,148.14" fill="rgb(0,0,0)" stroke="rgb(255,255,255)" stroke-width="5" transform="matrix(1,0,0,-1,0,336)"/>
 <path d="M260.29,187.86 l39.71,0 l0,-2.48 l-34.75,0 Z M260.29,187.86" fill="rgb(0,0,0)" stroke="rgb(255,255,255)" stroke-width="5" transform="matrix(1,0,0,-1,0,336)"/>
 <path d="M300,148.14 l0,2.48 l34.75,0 l4.96,-2.48 Z M300,148.14" fill="rgb(0,0,0)" stroke="rgb(255,255,255)" stroke-width="5" transform="matrix(1,0,0,-1,0,336)"/>
 <path d="M300,187.86 l39.71,0 l-4.96,-2.48 l-34.75,0 Z M300,187.86" fill="rgb(0,0,0)" stroke="rgb(255,255,255)" stroke-width="5" transform="matrix(1,0,0,-1,0,336)"/>
 <path d="M300,29 l0,17.38 l0,34.75 l0,-12.41 Z M300,29" fill="rgb(0,0,0)" stroke="rgb(255,255,255)" stroke-width="5" transform="matrix(1,0,0,-1,0,336)"/>
 <path d="M300,254.88 l0,12.41 l0,39.71 l0,-17.38 Z M300,254.88" fill="rgb(0,0,0)" stroke="rgb(255,255,255)" stroke-width="5" transform="matrix(1,0,0,-1,0,336)"/>
 <path d="M300,148.14 l0,2.48 l0,34.75 l0,2.48 Z M300,148.14" fill="rgb(0,0,0)" stroke="rgb(255,255,255)" stroke-width="5" transform="matrix(1,0,0,-1,0,336)"/>
 <path d="M300,150.62 l0,-2.48 l0,39.71 l0,-2.48 Z M300,150.62" fill="rgb(0,0,0)" stroke="rgb(255,255,255)" stroke-width="5" transform="matrix(1,0,0,-1,0,336)"/>
 <path d="M141.14,29 l39.71,0 l0,39.71 l-39.71,0 Z M141.14,29" fill="rgb(0,0,0)" stroke="rgb(255,255,255)" stroke-width="5" transform="matrix(1,0,0,-1,0,336)"/>
 <path d="M419.14,29 l39.71,0 l0,39.71 l-39.71,0 Z M419.14,29" fill="rgb(0,0,0)" stroke="rgb(255,255,255)" stroke-width="5" transform="matrix(1,0,0,-1,0,336)"/>
 <path d="M141.14,267.29 l39.71,0 l0,39.71 l-39.71,0 Z M141.14,267.29" fill="rgb(0,0,0)" stroke="rgb(255,255,255)" stroke-width="5" transform="matrix(1,0,0,-1,0,336)"/>
 <path d="M419.14,267.29 l39.71,0 l0,39.71 l-39.71,0 Z M419.14,267.29" fill="rgb(0,0,0)" stroke="rgb(255,255,255)" stroke-width="5" transform="matrix(1,0,0,-1,0,336)"/>
 <path d="M379.43,29 l39.71,0 l0,39.71 l-39.71,0 Z M379.43,29" fill="rgb(0,0,0)" stroke="rgb(255,255,255)" stroke-width="5" transform="matrix(1,0,0,-1,0,336)"/>
 <path d="M379.43,267.29 l39.71,0 l0,39.71 l-39.71,0 Z M379.43,267.29" fill="rgb(0,0,0)" stroke="rgb(255,255,255)" stroke-width="5" transform="matrix(1,0,0,-1,0,336)"/>
 <path d="M379.43,68.71 l39.71,0 l0,39.71 l-39.71,0 Z M379.43,68.71" fill="rgb(0,0,0)" stroke="rgb(255,255,255)" stroke-width="5" transform="matrix(1,0,0,-1,0,336)"/>
 <path d="M379.43,227.57 l39.71,0 l0,39.71 l-39.71,0 Z M379.43,227.57" fill="rgb(0,0,0)" stroke="rgb(255,255,255)" stroke-width="5" transform="matrix(1,0,0,-1,0,336)"/>
 <path d="M379.43,108.43 l39.71,0 l0,39.71 l-39.71,0 Z M379.43,108.43" fill="rgb(0,0,0)" stroke="rgb(255,255,255)" stroke-width="5" transform="matrix(1,0,0,-1,0,336)"/>
 <path d="M379.43,187.86 l39.71,0 l0,39.71 l-39.71,0 Z M379.43,187.86" fill="rgb(0,0,0)" stroke="rgb(255,255,255)" stroke-width="5" transform="matrix(1,0,0,-1,0,336)"/>
 <path d="M379.43,148.14 l39.71,0 l0,39.71 l-39.71,0 Z M379.43,148.14" fill="rgb(0,0,0)" stroke="rgb(255,255,255)" stroke-width="5" transform="matrix(1,0,0,-1,0,336)"/>
 <path d="M180.86,29 l39.71,0 l0,39.71 l-39.71,0 Z M180.86,29" fill="rgb(0,0,0)" stroke="rgb(255,255,255)" stroke-width="5" transform="matrix(1,0,0,-1,0,336)"/>
 <path d="M180.86,267.29 l39.71,0 l0,39.71 l-39.71,0 Z M180.86,267.29" fill="rgb(0,0,0)" stroke="rgb(255,255,255)" stroke-width="5" transform="matrix(1,0,0,-1,0,336)"/>
 <path d="M180.86,68.71 l39.71,0 l0,39.71 l-39.71,0 Z M180.86,68.71" fill="rgb(0,0,0)" stroke="rgb(255,255,255)" stroke-width="5" transform="matrix(1,0,0,-1,0,336)"/>
 <path d="M180.86,227.57 l39.71,0 l0,39.71 l-39.71,0 Z M180.86,227.57" fill="rgb(0,0,0)" stroke="rgb(255,255,255)" stroke-width="5" transform="matrix(1,0,0,-1,0,336)"/>
 <path d="M180.86,108.43 l39.71,0 l0,39.71 l-39.71,0 Z M180.86,108.43" fill="rgb(0,0,0)" stroke="rgb(255,255,255)" stroke-width="5" transform="matrix(1,0,0,-1,0,336)"/>
 <path d="M180.86,187.86 l39.71,0 l0,39.71 l-39.71,0 Z M180.86,187.86" fill="rgb(0,0,0)" stroke="rgb(255,255,255)" stroke-width="5" transform="matrix(1,0,0,-1,0,336)"/>
 <path d="M180.86,148.14 l39.71,0 l0,39.71 l-39.71,0 Z M180.86,148.14" fill="rgb(0,0,0)" stroke="rgb(255,255,255)" stroke-width="5" transform="matrix(1,0,0,-1,0,336)"/>
 <path d="M220.57,29 l39.71,0 l0,39.71 l-39.71,0 Z M220.57,29" fill="rgb(0,0,0)" stroke="rgb(255,255,255)" stroke-width="5" transform="matrix(1,0,0,-1,0,336)"/>
 <path d="M220.57,267.29 l39.71,0 l0,39.71 l-39.71,0 Z M220.57,267.29" fill="rgb(0,0,0)" stroke="rgb(255,255,255)" stroke-width="5" transform="matrix(1,0,0,-1,0,336)"/>
 <path d="M220.57,148.14 l39.71,0 l0,39.71 l-39.71,0 Z M220.57,148.14" fill="rgb(0,0,0)" stroke="rgb(255,255,255)" stroke-width="5" transform="matrix(1,0,0,-1,0,336)"/>
 <path d="M339.71,29 l39.71,0 l0,39.71 l-39.71,0 Z M339.71,29" fill="rgb(0,0,0)" stroke="rgb(255,255,255)" stroke-width="5" transform="matrix(1,0,0,-1,0,336)"/>
 <path d="M339.71,267.29 l39.71,0 l0,39.71 l-39.71,0 Z M339.71,267.29" fill="rgb(0,0,0)" stroke="rgb(255,255,255)" stroke-width="5" transform="matrix(1,0,0,-1,0,336)"/>
 <path d="M339.71,148.14 l39.71,0 l0,39.71 l-39.71,0 Z M339.71,148.14" fill="rgb(0,0,0)" stroke="rgb(255,255,255)" stroke-width="5" transform="matrix(1,0,0,-1,0,336)"/>
 <path d="M260.29,29 l39.71,0 l0,39.71 l-39.71,0 Z M260.29,29" fill="rgb(0,0,0)" stroke="rgb(255,255,255)" stroke-width="5" transform="matrix(1,0,0,-1,0,336)"/>
 <path d="M300,267.29 l39.71,0 l0,39.71 l-39.71,0 Z M300,267.29" fill="rgb(0,0,0)" stroke="rgb(255,255,255)" stroke-width="5" transform="matrix(1,0,0,-1,0,336)"/>
 <path d="M260.29,148.14 l39.71,0 l0,39.71 l-39.71,0 Z M260.29,148.14" fill="rgb(0,0,0)" stroke="rgb(255,255,255)" stroke-width="5" transform="matrix(1,0,0,-1,0,336)"/>
 <path d="M300,148.14 l39.71,0 l0,39.71 l-39.71,0 Z M300,148.14" fill="rgb(0,0,0)" stroke="rgb(255,255,255)" stroke-width="5" transform="matrix(1,0,0,-1,0,336)"/>
</svg>