<svg xmlns="http://www.w3.org/2000/svg" xmlns:xlink="http://www.w3.org/1999/xlink" viewBox="0 0 1200 323"><defs><clipPath id="a"><rect width="1200" height="323" fill="none"/></clipPath></defs><title>Artboard 1 copy 3</title><g clip-path="url(#a)"><path d="M1623.9,199.62,1599.05,146V121.15l33.13,71.93Zm-24.85,138.17,80.64-75-3.92-3.92-20.92,19.18-55.8-21.8V157.77l20.49,45.33-38.36,30.52,2.61,4.79,96.77-76.72-42.28-92.41c-33.13,36.18-74.54,67.13-126.41,93.72,4.36,5.23,6.1,13.95,6.1,21.79v77.59a99.75,99.75,0,0,1-4.35,29.65C1544.56,301.18,1572.9,316.44,1599.05,337.79Zm-128.59,0,47.08-46.2-2.18-3.92-25.28-17V5.64c0-22.23,5.66-45.77,17-63.64-29.21,15.69-48.82,37.05-63.64,63.64-7.85-4.79-15.7-6.54-24-7L1402,4.77a63.81,63.81,0,0,1,7,28.77v228c0,14.82-1.74,23.54-6.1,30.52C1426.44,302.49,1448.67,317.31,1470.46,337.79Zm128.59-6.1c-20.49-17.87-47.51-32.25-78.9-42.72a103.63,103.63,0,0,0,3.06-25.71V184.79a56.9,56.9,0,0,0-3.49-18.74l10-5.67c2.62,6.11,3.93,16.57,3.93,24.41v78.47a105.24,105.24,0,0,1-2.18,20.05c28.77,10.46,53.61,24,75,41.84Zm-128.59-.43a229.14,229.14,0,0,0-61-41.41c3-7.85,4.79-14,4.79-28.34v-228A66.7,66.7,0,0,0,1409,7.38l10.46-3.48c3.49,7.84,5.23,17.87,5.23,29.64v228c0,7.85-.87,17-2.61,22.23,20.92,10,40.1,24,56.66,39.23Zm-97.64-207.49v-9.15h17l-6.54,9.15ZM1297,90.21c0-11.34-3-23.54-7.41-34.44l10-5.67c4.79,12.64,7.85,26.59,7.85,40.11Zm56.24,247.58,54-46.2-.88-3.49-33.56-21.79V128.13h11.77l27-37.92H1375a953.06,953.06,0,0,1,5.67-108.11,517,517,0,0,1-98.08,71.49c4.79,10.9,9.15,24,9.15,36.62l-34.87,37.92h34.87V261.51c0,14.82-1.74,23.54-6.1,30.52C1310.92,302.05,1333.15,317.74,1353.21,337.79Zm.43-8.28c-16.56-16.56-37.05-30.07-60.15-40.54,3.48-9.59,3.48-19.18,3.48-29.2v-136h-28.76l8.71-9.15h30.52v146a100.14,100.14,0,0,1-2.18,22.67c22.66,9.59,40.53,23.1,56.23,38.79Zm-124.23,2.18c-25.72-15.69-40.54-41.84-40.54-75V133.79l-20-18.3,10-7.85,20.48,19.62V256.72c0,30.95,11.77,52.74,37.49,68.43Zm-101.13,6.1,12.21-13.07a137.25,137.25,0,0,1,44.89-41.85c-10.46-8.28-16.56-22.23-16.56-41V123.33l14.82,13.52V256.72c0,35.74,15.69,64.07,45.77,81.07l61.9-47.07-2.62-2.62c-14.82-3.05-24-13.51-24-31.82V111.13l-48.39-41.85-51.87,41.85-42.72-41.85-68.43,54.05,3.48,5.67,12.21-9.59,18.74,17.44V241.9c0,20.92-11.77,34.87-27,45.77C1089.05,299,1112.15,318.18,1128.28,337.79Zm.44-7.84c-14.39-17-37-34.87-58.41-43.59,13.07-9.59,22.66-23.1,22.66-44.46V133.79l-19.18-18.3,10-7.85,19.62,19.62V241.9c0,18.74-6.11,32.69-16.57,41,18.31,10,35.75,22.67,50.13,37.92Zm-208.36,7.84L977.9,288.1c-14.39,0-22.23-11.33-22.23-31.38V124.21l14.82,13.07V256.72c0,35.74,15.69,64.07,45.77,81.07l53.61-51.43c-8.28-1.74-18.31-11.77-18.31-30.08V156.46c0-18.74,4.8-26.15,14.39-34.43L1089.49,102,1086,97.62l-36.62,28.76-58.84-57.1c-29.21,36.62-69.31,68.44-122,93.72,4.36,5.23,6.1,13.95,6.1,21.79v76.29C874.59,299,890.28,321.67,920.36,337.79Zm95.46-6.53c-25.28-15.7-40.1-41.41-40.1-74.54V133.79l-20.49-18.3a79.4,79.4,0,0,0,8.72-8.28l22.23,20.05V256.72c0,30.95,11.33,52.31,36.18,68Zm-95.46.43c-25.72-14.82-40.54-34.87-40.54-70.61V184.36c0-7.41-1.74-14.82-4.79-19.62l9.15-4.36c3.92,6.11,6.1,14.39,6.1,24v76.72c0,33.13,11.77,49.25,37.49,64.07Zm-98.51,0c-25.72-15.69-40.54-41.84-40.54-75V133.79l-20-18.3,10-7.85,20.49,19.62V256.72c0,30.95,11.77,52.74,37.49,68.43Zm-197,6.1L637,324.72a134.45,134.45,0,0,1,44.89-41.85c-10.46-8.28-16.56-22.23-16.56-41V123.33l14.82,13.52V241.9c0,20.92-11.77,34.87-27,45.77,28.34,11.33,51.44,30.51,67.57,50.12l12.2-13.07a137.28,137.28,0,0,1,44.9-41.85c-10.46-8.28-16.56-22.23-16.56-41V123.33l14.82,13.52V256.72c0,35.74,15.69,64.07,45.77,81.07l58.84-51-.87-7.41-7,5.67c-9.59-2.61-15.7-12.2-15.7-28.77l-.43-106.79c0-18.75,4.36-27.9,13.95-36.18l23.54-20-3.49-4.36-36.18,30.51L807.46,69.28,756.9,111.13,713.74,69.28,661,111.13,617.85,69.28l-68.44,54.05L552.9,129l12.2-9.59,19.18,17.44V241.9c0,20.92-11.77,34.87-27,45.77C585.59,299,608.69,318.18,624.82,337.79ZM721.15,330c-14.38-17-37-34.87-58.41-43.59,13.08-9.59,22.67-23.1,22.67-44.46V133.79l-20-18.3,8.72-7,21.79,20.93V241.9c0,18.74-6.1,32.69-16.56,41,18.31,10,35.74,22.67,50.13,37.92Zm-95.89,0c-14.39-17-37-34.87-58.41-43.59,13.07-9.59,22.66-23.1,22.66-44.46V133.79l-20-18.3,10-7.85L600,127.26V241.9c0,17.87-5.23,30.51-16.56,41,17,6.54,37.05,21.8,50.13,37.92ZM518.9,199.62,494.05,146V121.15l33.13,71.93ZM494.05,337.79l58.41-54.48-58.41-27V157.77l20.49,45.33-38.36,30.52,2.61,4.79,96.77-76.72L533.28,69.28c-33.13,36.18-74.54,67.13-126.41,93.72,4.36,5.23,6.1,13.95,6.1,21.79v83.7c0,18.74-4.35,27.89-13.94,36.18l-23.54,20.05,3.48,4.36,34-28.77A245.4,245.4,0,0,1,494.05,337.79ZM267.82,37.46C248.64,37.46,229.9,27,219,13.05v-27.9c13.51,27,34.87,44.47,58.41,44.47,11.77,0,22.67-3.49,34-11.34C299.64,31.36,284.38,37.46,267.82,37.46ZM382.46,155.15c-13.95,0-25.28-6.1-34.43-14.38V123.33c10,14,23.53,21.36,40.1,21.36,16.13,0,27-6.1,38.36-18.31C417.77,143,402.51,155.15,382.46,155.15ZM494.05,331.69c-21.36-15.25-48.82-27.9-80.2-37.05,3.48-8.72,4.36-17.43,4.36-26.15v-83.7a56.9,56.9,0,0,0-3.49-18.74l10-5.67c2.62,6.11,3.93,16.57,3.93,24.41v83.7c0,7,0,13.51-2.62,20.48,28.77,8.29,54.05,20.49,75,35.75ZM265.21,115.05l5.23-4.36V39.21h-5.23Zm39.66,222.74,88.05-76.28L389,257.15l-25.72,22.67-17-17.87V148.18A59.51,59.51,0,0,0,382,160.38c30.51,0,53.61-24.84,58.84-66.69-6.1,5.23-12.2,7.85-18.74,7.85-15.26,0-26.59-10.9-30.51-32.26l-45.34,41.85c-6.54-15.26-17.87-30.08-34.43-41.85l-75.41,68.87,3.48,4.36,11.77-10.46,13.52,12.21V264.13c0,18.74-4.36,27.9-13.95,36.18l-23.54,20.05,3.49,4.36,34-28.77C280.9,307.28,294,321.67,304.87,337.79ZM218.13,136.85v-9.16h14.38a92.4,92.4,0,0,0-4.79,9.16ZM306.18,330a168.58,168.58,0,0,0-38.8-40.1c2.62-7.41,3.49-17,3.49-25.72V141.64l-14.82-13.95,9.16-7.84,16.12,15.25v129a89.69,89.69,0,0,1-2.61,21.36,169.55,169.55,0,0,1,34.87,37.92Zm-46.64-88.49c3,0,6.1-1.74,8.28-3.49V222.28c-2.18-1.74-5.23-3.49-8.28-3.49-6.1,0-10,3.93-10,11.34S253.44,241.46,259.54,241.46ZM45.51,98.92c0-8.28-.87-14.38-3.48-20l9.59-5.23c3.05,7,4.35,15.69,4.35,25.28Zm65.82,232.77c-37.92,0-85.43-19.18-122.48-19.18-22.67,0-33.13,7.41-34.44,15.26,0-12.21,10.46-26.59,38.36-26.59,42.28,0,84.13,26.15,127.28,26.15a127.6,127.6,0,0,0,29.21-3.48C138.36,329.51,127.46,331.69,111.33,331.69ZM2.79,367c26.59,0,52.31-11.33,62.34-22.23l-3-3.92c-13.52,12.2-37.93,20.92-59.29,20.92-17.87,0-44.89-7-44.89-26.15,0-10.9,9.15-17.88,31-17.88,33.56,0,74.53,19.18,118.12,19.18,65.82,0,111.16-46.2,111.16-138.61v-57.1h12.2c7-15.26,16.57-30.08,27.9-44.9H219V21.77c9.59,10.46,28.33,20.05,48.82,20.05,30.08,0,55.8-19.61,71.49-54.49-7.85,5.67-15.69,8.29-24,8.29-19.61,0-34-13.95-34-43.16A66.54,66.54,0,0,1,282.21-58L34.62,77.13c3.92,4.79,5.66,10.9,5.66,21.79H29.82L4.1,141.21H40.28v75.84c0,17.44-2.18,23.1-9.15,29.21l3.92,3.48c7.41-6.53,10.46-13.07,10.46-32.69v-80.2H12l5.67-9.16H56v88.93c0,21.35-5.66,28.76-16.56,34.87l4.36,1.3c36.61-7.41,62.33-17.43,83.26-32.25v47.51c0,17.44-2.62,34-11.77,48.82l4.79,2.18c9.16-13.95,12.21-29.2,12.21-51v-238l10.46-5.67V268.05c0,32.26-10.46,47.95-22.23,47.95-10.9,0-21.36-7.85-45.77-37.49-26.16-31.38-47.51-43.15-75.85-43.15-42.72,0-68.43,27-68.43,63.64C-69.56,343.9-38.18,367,2.79,367Z"/></g></svg>