<svg xmlns="http://www.w3.org/2000/svg" viewBox="0 0 1200 431"><title>hand</title><path d="M973.85,323.91c-12.16,48-23,59.5-35.83,59.5-9.6,0-15.36-5.11-15.36-18.55,0-10.88,2.56-19.2,6.4-33.91l18.56-69.1c26.87-99.18-7-153.57-78.06-153.57-49.91,0-88.3,33.28-103.66,83.18h-6.4a130.53,130.53,0,0,0,1.92-21.75c0-36.47-21.11-61.43-64.62-61.43-48,0-92.78,26.24-113.25,117.09h9.6c12.15-48,23-59.5,35.83-59.5,9.59,0,15.35,5.12,15.35,21.11,0,9.6-1.92,22.4-5.76,39.67L590,434.6h128l48-206.67c14.72-64.62,32-83.18,52.47-83.18,22.39,0,33.27,17.28,12.16,96.62l-19.2,72.3c-6.4,24.32-9.6,44.79-9.6,62.07,0,44.15,21.76,65.26,68.47,65.26,48,0,92.77-26.23,113.25-117.09Z"/><path d="M1339.28,383.41c-9.59,0-15.35-5.11-15.35-20.47,0-17.28,8.32-46.07,17.27-85.1L1402,18.71H1274L1245.88,134.2c-15.4-17-38.94-25.92-73.59-25.92-97.26,0-170.2,103.66-170.2,212.43,0,77.42,38.39,120.29,99.81,120.29,49.27,0,80.62-21.11,100.46-83.18h6.4a130.65,130.65,0,0,0-1.92,21.76c0,36.47,21.11,61.42,64.62,61.42,48,0,92.78-26.23,113.25-117.09h-9.6C1363,371.9,1352.08,383.41,1339.28,383.41Zm-131.16-87.65c-18.56,80.62-32,108.77-54.39,108.77-16,0-23.67-13.44-23.67-58.23,0-70.38,33.91-213.06,88.29-213.06,10.24,0,19.2,4.48,24.32,14.71Z"/><path d="M563.7,323.91c-12.16,48-23,59.5-35.83,59.5-9.6,0-15.36-5.11-15.36-20.47,0-17.28,8.32-46.07,17.28-85.1l38.39-163.16h-6.4L441,142.64c-15-22.52-40.15-34.36-80.14-34.36-97.26,0-170.2,103.66-170.2,212.43,0,77.42,38.39,120.29,99.82,120.29,49.27,0,80.62-21.11,100.45-83.18h6.4a130.65,130.65,0,0,0-1.92,21.76c0,36.47,21.12,61.42,64.63,61.42,48,0,92.77-26.23,113.25-117.09Zm-167-28.15c-18.55,80.62-32,108.77-54.38,108.77-16,0-23.68-13.44-23.68-58.23,0-70.38,33.91-213.06,88.3-213.06,10.24,0,19.19,4.48,24.31,14.71Z"/><polygon points="85.57 -12 39.94 192.75 -68.83 192.75 -23.2 -12 -151.17 -12 -250.99 435.89 -123.02 435.89 -71.69 205.54 37.09 205.54 -14.25 435.89 113.72 435.89 213.53 -12 85.57 -12"/></svg>