<svg xmlns="http://www.w3.org/2000/svg" viewBox="0 0 1200 538"><title>hello</title><path d="M899.28,318.16c2.42,0,4,3.64,4.44,5.25l8.07,24.22c2.42,7.26,4.44,12.11,4.44,14.93a1.48,1.48,0,0,1-1.61,1.62c-2.43,0-3.64-5.25-6.06-11.71l-10.09-25.83c-1.61-4-2-4.44-2-6.06C896.45,319.37,897.26,318.16,899.28,318.16Zm178.41-123.51c1.21,0,2,.8,2,2.82s-1.62,11.71-4,11.71c-.81,0-1.21-.81-1.21-3.23C1074.46,197.47,1076.08,194.65,1077.69,194.65Zm-249.05,22.2c2,0,3.63,5.24,3.63,6.86a1.47,1.47,0,0,1-1.61,1.61c-2,0-4-5.24-4-6.45A1.88,1.88,0,0,1,828.64,216.85Zm-21-62.57c2.42,0,3.63,3.64,4,5.25l8.47,28.25c2,7.27,5.25,16.15,5.25,19A1.07,1.07,0,0,1,824.2,208c-2.42,0-4.44-8.48-6.86-15.34l-10.9-29.87c-1.21-3.63-1.62-4.44-1.62-6.06C804.82,155.49,805.63,154.28,807.65,154.28ZM1022.79,503a1.89,1.89,0,0,1,2,2c0,2-2,8.88-4,8.88a1.48,1.48,0,0,1-1.62-1.61C1019.16,510.7,1020.78,503,1022.79,503Zm14.54-44.8a2.74,2.74,0,0,1,2.82,2.82c0,1.62-.4,2.83-2,7.27l-6.86,20.18c-2.42,6.86-2.42,8.48-4.84,8.48a1.85,1.85,0,0,1-1.62-2c0-2.83,1.21-3.23,3.23-10.49l5.25-18.17C1034.5,461.86,1034.9,458.23,1037.33,458.23Zm-153.39,25c2,0,6,6.46,6,8.08,0,.8-.4,1.61-2,1.61s-6.06-5.65-6.06-7.67A1.89,1.89,0,0,1,883.94,483.25Zm-38.75-56.1c2.42,0,4.44,3.23,5.25,4.84L869,460.65c4,6.05,9.29,12.11,9.29,14.94a1.07,1.07,0,0,1-1.21,1.21c-2.42,0-6.86-5.66-10.9-11.31l-21-30.27c-2-3.23-2.83-4-2.83-5.65C842.36,428.36,843.17,427.15,845.19,427.15Zm-180-8.48c2.42,0,6.06,2.42,7.67,3.63l15.74,10.5c6.87,4.84,14.94,7.26,14.94,10.09a2.33,2.33,0,0,1-2.42,2.42c-2.42,0-6.06-4-12.52-7.67l-21-12.11c-3.22-1.61-5.24-2.82-5.24-4.44C662.34,419.88,663.14,418.67,665.16,418.67Zm123.92,83.56c2.42,0,5.25,1.61,7.27,2.82l8.88,5.65c7.67,4.85,10.49,5.65,10.49,7.27a1.47,1.47,0,0,1-1.61,1.61c-1.21,0-3.63-1.61-10.5-4.84l-13.32-6.46c-2.42-1.21-4-2-4-3.63C786.26,503.44,787.06,502.23,789.08,502.23Zm-221.2,23c2.43,0,6.06,2.83,15.75,4.44l33.1,5.65c8.47,1.62,14.93.81,14.93,3.64,0,1.61-1.21,2.42-3.23,2.42-1.61,0-4-.81-11.7-2l-41.18-6.86c-8.47-1.21-10.49-3.23-10.49-4.84C565.06,526.44,565.87,525.23,567.88,525.23Zm-16.55-44.8c2,0,7.27,2.42,7.27,4,0,.8-.81,1.61-2.42,1.61s-7.67-1.21-7.67-3.23C548.51,481.24,549.72,480.43,551.33,480.43Zm-88.39-29.87c2.42,0,6.05,1.21,15.74,4.44L527.12,472c8.07,2.83,14.93,2.83,14.93,5.65,0,1.62-1.21,2.43-3.23,2.43-1.61,0-4.44-1.62-11.7-4l-56.51-18.17c-8.48-2.82-10.5-3.22-10.5-4.84C460.11,451.77,460.92,450.56,462.94,450.56Zm-99.7,48c2,0,2.42.81,7.66,2,4.44,1.21,8.48.4,8.48,2.83,0,1.21-.81,1.61-2.42,1.61s-4.44-.81-9.28-1.61-6.46-1.21-6.46-2.83A1.91,1.91,0,0,1,363.24,498.59Zm-75.49-14.53c2.43,0,4.85,2.42,15.75,4.44L336.59,495c9.29,2,14.94.81,14.94,3.63,0,1.62-1.21,2.42-3.23,2.42-1.61,0-4-.4-11.71-2l-41.17-7.67c-9.68-1.62-10.49-3.23-10.49-4.85C284.93,485.27,285.74,484.06,287.75,484.06ZM214.69,334.31c2.43,0,4,.81,7.27,1.61l6.86,2c5.25,1.62,6.86,1.62,6.86,3.23s-1.21,2.42-3.23,2.42c-1.61,0-4-1.21-7.67-2l-6.45-1.21c-4.85-.8-6.46-2-6.46-4C211.87,335.12,212.68,334.31,214.69,334.31ZM90.77,416.65c2.43,0,5.25,2,8.08,2.42l6.05,1.22c5.25,1.21,6.86,1.61,6.86,3.22s-1.21,2.43-3.23,2.43a40.71,40.71,0,0,1-7.67-1.21l-6.45-1.22c-5.65-1.21-6.46-2.82-6.46-4A2.74,2.74,0,0,1,90.77,416.65ZM90,241.47c2.42,0,5.24,2.42,8.07,3.63l11.3,4.44c5.25,2,6.86,2.42,6.86,4S115,256,113,256c-1.61,0-4-.81-7.67-2l-11.7-4.44c-5.65-2-6.46-4-6.46-5.24A2.74,2.74,0,0,1,90,241.47ZM697.86,87.28,787.06,74V300c0,6.86,4,10.49,11.31,9.69l88.8-10.09v56.91c0,18.16,4,29.06,8.88,40.77l12.11,29.87c3.63,8.88,6.46,14.53,6.46,19,0,2-.81,2.82-2,2.82-2.83,0-5.25-6.05-7.27-10.89L890,398.49c-3.63-8.88-10.89-10.5-28.65-9.29l-110.2,8.88c-8.88.81-14.53-1.21-14.53,3.23,0,3.23,6.86,8.48,10.09,10.9l18.57,14.53c5.65,4.44,15.74,12.52,11.3,14.94s-14.53-9.69-23-16.15L739.43,415c-6.45-4.85-22.6-14.53-32.69-13.73l-8.88.81ZM481.91,119.16,559,107.86c14.94,16.15,36.74,38.75,36.74,43.19a1.91,1.91,0,0,1-2,2c-3.64,0-8.08-6.86-14.94-15.34s-12.11-17.35-15.34-17.35S559,122.8,559,130.06v35.12c0,14.94,3.64,23,34.31,51.67,24.63,23,40.37,31.89,40.37,38.34,0,1.62-1.21,2.83-3.23,2.83-8.07,0-19-16.15-32.7-29.87-15.74-15.74-28.25-28.66-33.9-28.66-3.64,0-4.85,2.42-4.85,7.27V316.55c0,11.3,4.44,16.14,14.94,14.93l73.46-7.26c9.29,33.1,23,24.22,23,30.27,0,1.62-1.21,2.42-2.83,2.42-5.24,0-10.09-8.47-14.93-8.47a4.87,4.87,0,0,0-5.25,5.24v53.69l-134.82,11.7c-12.1,1.22-10.89,4.85-4,7.27l96.07,33.91C655.07,478,673.24,482,673.24,486.48c0,1.62-1.62,2.43-3.64,2.43-8.07,0-21-6.87-67.41-23.42L481.91,422.3Zm590.53-13.32c-31.48,0-48.43,30.28-49.65,75.49l-1.21,44c-1.61,57.32,20.19,75.49,46,75.49,36.33,0,57.32-19,58.12-75.49l.81-48c.41-33.91-7.26-61.76-21.8-61.76-9.28,0-12.51,9.29-14.93,25.43l-3.63,23c-1.62,10.9-2.43,19-6.46,19-3.63,0-1.21-10.09.4-23l3.23-26.23a110.77,110.77,0,0,0,.81-15.75C1084.15,109.48,1079.71,105.84,1072.44,105.84Zm19.38-87.59c99.7,0,135.22,47.63,135.22,162.27,0,96.07-14.53,137.24-46.42,176l-83.15,99.7c-18.17,21.39-17.76,25.83-22.2,25.83-2.42,0-3.63-2.42-3.63-4.84,0-6.46,8.47-11.3,24.62-29.87l32.29-37.14c14.13-16.14,26.64-29.46,26.64-34.31,0-1.21-.81-2-2.42-2-3.63,0-9.29,4-15.34,7.26-20.18,10.5-45.21,16.95-76.69,16.95-42.39,0-73.87-10.09-95.26-29.86-2.83-2.43-4.44-5.25-6.87-5.25-2.82,0-3.63,2-3.63,6.86,0,6.05,1.62,14.13,3.23,23.81l5.65,28.66c4.85,26.64,11.3,41.18,5.65,41.18-2.42,0-5.24-8.48-11.7-38l-19-86c-12.11-55.3-14.54-88-14.54-117.06C924.3,79.2,973.15,18.25,1091.82,18.25ZM255.06,152.67l167.11-24.62v45.61c0,14.53,1.21,18.57,12.11,26.64l23,17.35c4.84,3.64,4,6.87,1.21,6.87-5.25,0-8.48-6.06-21-14.53-11.31-7.67-17-10.5-25.84-9.69L344.26,208c-6.86.8-11.3,2.82-11.3,7.26,0,7.67,25,10.09,25,17.36,0,1.61-.81,2.42-3.63,2.42-6.87,0-20.59-13.72-31.89-13.72-4.85,0-8.48,3.23-8.48,10.09v21c0,8.48,6.06,12.11,17.36,10.49l71.85-11.3c5.24,6.86,8.47,9.69,14.53,13.73,21.79,14.53,37.54,14.93,37.54,22.6,0,2.42-2,3.63-4.44,3.63-12.11,0-26.24-19.37-40.77-19.37-4.44,0-6.86,2.82-6.86,8.07v21.39L339,307.67c-6.06.4-10.5,0-10.5,3.63,0,4.44,14.94,6.06,14.94,12.11a3.6,3.6,0,0,1-3.64,3.63c-6.05,0-9.68-9.68-17.35-9.68-4.44,0-5.25,2.42-5.25,7.66v27.86c0,8.47,4.44,12.91,18.16,11.3l85.17-10.5,6.06,3.64c17.35,10.49,27.45,8.47,27.45,14.53a4,4,0,0,1-4,3.63c-8.07,0-16.55-9.69-22.6-9.69-5.25,0-6.87,3.64-6.87,11.31v28.25c0,6.86,3.23,12.92,10.09,15.34,7.27,2.42,17.36,4.44,17.36,8.07,0,1.62-1.61,2.42-4,2.42-6,0-13.32-4.84-21-6.86-8.48-2.42-14.54-2.42-26.65-1.21l-89.61,8.07c-8.47.81-10.09,2.83-10.09,4.44,0,3.23,9.29,5.25,18.17,6.87l33.5,6.86c16.55,3.23,26.24,2.82,26.24,8.88,0,2.42-2.83,4-6.06,4-9.68,0-18.16-6.05-47.63-12.1-32.29-6.46-40-12.92-54.49-11.31l-11.3,1.21ZM16.5,188.19l54.9-8.07c4,7.66,16.14,16.14,26.64,20.18,8.48,3.23,10.49,4.44,10.49,6s-1.61,2.83-3.63,2.83c-6.86,0-16.55-8.88-26.64-8.88-5.25,0-6.05,1.61-6.05,6V210c0,3.22,1.61,6,12.11,10.09,6.05,2.42,10.09,3.63,10.09,6.46,0,.8-.81,1.61-3.23,1.61-6.06,0-10.5-5.25-14.94-5.25-3.23,0-4,2.42-4,9.69v43.19c0,6.86,2.42,10.9,12.91,9.28L126.7,279c6.86-.81,9.69-4,9.69-14.53V170.43l62.16-9.29v40.77c0,14.94,2.82,19,12.91,25.43,8.48,5.65,14.94,6.06,14.94,9.29,0,2-.81,2.82-2.83,2.82-3.23,0-11.3-5.25-17.35-5.25s-7.67,3.23-7.67,10.5V412.62c0,19,4.44,24.22,28.66,31.08,21,6.05,36.32,5.24,36.32,9.68,0,1.62-1.61,2.43-5.24,2.43-8.48,0-20.59-3.23-33.91-6.87-21.39-5.65-31.89-7.66-52.47-6.05l-36.74,2.83V364.18c0-7.67-6-11.3-19-9.69l-20.58,2.83c-12.11,1.61-16.55.8-16.55,3.23,0,2,1.61,2.82,9.28,4.44,8.07,1.61,14.94,1.61,14.94,5.24,0,1.62-1.62,2.43-4.44,2.43-5.25,0-15.34-4-20.59-4-3.63,0-6.05,1.61-6.05,7.67V455.4l-8.88,1.21c-6.87.81-8.48.81-8.48,1.62,0,2.42,6,1.61,54.49,9.69,37.94,6.45,46,6.05,46,9.68,0,.81-.81,2.83-5.25,2.83-8.88,0-20.18-3.23-53.69-9.69-40.76-7.67-55.29-11.3-68.62-10.49l-12.1.8ZM6.41,158.72c-16.55,2.42-22.6,16.55-22.6,35.52l-.81,266c0,28.66,8.48,42.78,33.5,47.63l336.24,62.56,677.72-17.35c23.41-.41,35.93-6.06,48.44-21l107.37-125.54c62.16-72.65,76.29-119.48,76.29-228.87,0-138.45-50-192.13-168.72-192.13-123.12,0-206.27,58.93-206.27,251.07L819.76,59c-6.46-17.36-15.34-22.6-40.77-19L682.92,53.77c-15.74,2.43-22.2,12.11-21.79,28.66l1.21,92.84L588.47,88.49c-10.49-12.11-21.8-16.55-40-13.73L468.18,86.87C452.44,89.3,448,92.93,446.39,99c-2.43-6-9.69-7.26-27.05-4.44L238.51,123.2c-6.86,1.21-12.92,5.25-15.74,9.69-8.48-6.06-15.75-4.84-29.47-2.83l-70.23,10.5c-13.73,2-19,10.49-19,18.16-14.53-7.67-29.46-10.9-44-8.47Z"/></svg>