<?xml version="1.0" encoding="UTF-8"?>
<svg height="336" version="1.1" width="600" xmlns="http://www.w3.org/2000/svg" xmlns:xlink="http://www.w3.org/1999/xlink">
 <path d="M0,0 l600,0 l0,336 l-600,0 Z M0,0" fill="rgb(255,255,255)" transform="matrix(1,0,0,-1,0,336)"/>
 <path d="M896,598 l-26.14,4.54" fill="none" stroke="rgb(0,0,0)" stroke-linecap="round" stroke-width="30" transform="matrix(0.7,0.0,0.0,-0.7,-240,576)"/>
 <path d="M869.86,602.54 l-24.84,3.78" fill="none" stroke="rgb(0,0,0)" stroke-linecap="round" stroke-width="30" transform="matrix(0.7,0.0,0.0,-0.7,-240,576)"/>
 <path d="M845.02,606.32 l-23.59,3.07" fill="none" stroke="rgb(0,0,0)" stroke-linecap="round" stroke-width="30" transform="matrix(0.7,0.0,0.0,-0.7,-240,576)"/>
 <path d="M821.43,609.39 l-22.39,2.38" fill="none" stroke="rgb(0,0,0)" stroke-linecap="round" stroke-width="30" transform="matrix(0.7,0.0,0.0,-0.7,-240,576)"/>
 <path d="M799.04,611.77 l-21.24,1.73" fill="none" stroke="rgb(0,0,0)" stroke-linecap="round" stroke-width="30" transform="matrix(0.7,0.0,0.0,-0.7,-240,576)"/>
 <path d="M777.81,613.5 l-20.14,1.12" fill="none" stroke="rgb(0,0,0)" stroke-linecap="round" stroke-width="30" transform="matrix(0.7,0.0,0.0,-0.7,-240,576)"/>
 <path d="M757.67,614.62 l-19.08,0.53" fill="none" stroke="rgb(0,0,0)" stroke-linecap="round" stroke-width="30" transform="matrix(0.7,0.0,0.0,-0.7,-240,576)"/>
 <path d="M738.59,615.15 l-18.07,-0.02" fill="none" stroke="rgb(0,0,0)" stroke-linecap="round" stroke-width="30" transform="matrix(0.7,0.0,0.0,-0.7,-240,576)"/>
 <path d="M720.52,615.14 l-17.11,-0.54" fill="none" stroke="rgb(0,0,0)" stroke-linecap="round" stroke-width="30" transform="matrix(0.7,0.0,0.0,-0.7,-240,576)"/>
 <path d="M703.41,614.6 l-16.18,-1.03" fill="none" stroke="rgb(0,0,0)" stroke-linecap="round" stroke-width="30" transform="matrix(0.7,0.0,0.0,-0.7,-240,576)"/>
 <path d="M687.23,613.57 l-15.29,-1.49" fill="none" stroke="rgb(0,0,0)" stroke-linecap="round" stroke-width="30" transform="matrix(0.7,0.0,0.0,-0.7,-240,576)"/>
 <path d="M671.94,612.09 l-14.45,-1.92" fill="none" stroke="rgb(0,0,0)" stroke-linecap="round" stroke-width="30" transform="matrix(0.7,0.0,0.0,-0.7,-240,576)"/>
 <path d="M657.49,610.17 l-13.64,-2.32" fill="none" stroke="rgb(0,0,0)" stroke-linecap="round" stroke-width="30" transform="matrix(0.7,0.0,0.0,-0.7,-240,576)"/>
 <path d="M643.85,607.86 l-12.86,-2.69" fill="none" stroke="rgb(0,0,0)" stroke-linecap="round" stroke-width="30" transform="matrix(0.7,0.0,0.0,-0.7,-240,576)"/>
 <path d="M630.99,605.17 l-12.12,-3.03" fill="none" stroke="rgb(0,0,0)" stroke-linecap="round" stroke-width="30" transform="matrix(0.7,0.0,0.0,-0.7,-240,576)"/>
 <path d="M618.87,602.13 l-11.41,-3.35" fill="none" stroke="rgb(0,0,0)" stroke-linecap="round" stroke-width="30" transform="matrix(0.7,0.0,0.0,-0.7,-240,576)"/>
 <path d="M607.46,598.78 l-10.73,-3.65" fill="none" stroke="rgb(0,0,0)" stroke-linecap="round" stroke-width="30" transform="matrix(0.7,0.0,0.0,-0.7,-240,576)"/>
 <path d="M596.73,595.13 l-10.09,-3.91" fill="none" stroke="rgb(0,0,0)" stroke-linecap="round" stroke-width="30" transform="matrix(0.7,0.0,0.0,-0.7,-240,576)"/>
 <path d="M586.64,591.22 l-9.47,-4.16" fill="none" stroke="rgb(0,0,0)" stroke-linecap="round" stroke-width="30" transform="matrix(0.7,0.0,0.0,-0.7,-240,576)"/>
 <path d="M577.17,587.06 l-8.87,-4.38" fill="none" stroke="rgb(0,0,0)" stroke-linecap="round" stroke-width="30" transform="matrix(0.7,0.0,0.0,-0.7,-240,576)"/>
 <path d="M568.3,582.69 l-8.31,-4.57" fill="none" stroke="rgb(0,0,0)" stroke-linecap="round" stroke-width="30" transform="matrix(0.7,0.0,0.0,-0.7,-240,576)"/>
 <path d="M559.99,578.12 l-7.77,-4.75" fill="none" stroke="rgb(0,0,0)" stroke-linecap="round" stroke-width="30" transform="matrix(0.7,0.0,0.0,-0.7,-240,576)"/>
 <path d="M552.23,573.37 l-7.25,-4.9" fill="none" stroke="rgb(0,0,0)" stroke-linecap="round" stroke-width="30" transform="matrix(0.7,0.0,0.0,-0.7,-240,576)"/>
 <path d="M544.98,568.47 l-6.76,-5.03" fill="none" stroke="rgb(0,0,0)" stroke-linecap="round" stroke-width="30" transform="matrix(0.7,0.0,0.0,-0.7,-240,576)"/>
 <path d="M538.22,563.45 l-6.28,-5.14" fill="none" stroke="rgb(0,0,0)" stroke-linecap="round" stroke-width="30" transform="matrix(0.7,0.0,0.0,-0.7,-240,576)"/>
 <path d="M531.94,558.31 l-5.83,-5.23" fill="none" stroke="rgb(0,0,0)" stroke-linecap="round" stroke-width="30" transform="matrix(0.7,0.0,0.0,-0.7,-240,576)"/>
 <path d="M526.11,553.08 l-5.4,-5.3" fill="none" stroke="rgb(0,0,0)" stroke-linecap="round" stroke-width="30" transform="matrix(0.7,0.0,0.0,-0.7,-240,576)"/>
 <path d="M520.71,547.79 l-4.99,-5.35" fill="none" stroke="rgb(0,0,0)" stroke-linecap="round" stroke-width="30" transform="matrix(0.7,0.0,0.0,-0.7,-240,576)"/>
 <path d="M515.72,542.44 l-4.59,-5.38" fill="none" stroke="rgb(0,0,0)" stroke-linecap="round" stroke-width="30" transform="matrix(0.7,0.0,0.0,-0.7,-240,576)"/>
 <path d="M511.13,537.06 l-4.22,-5.4" fill="none" stroke="rgb(0,0,0)" stroke-linecap="round" stroke-width="30" transform="matrix(0.7,0.0,0.0,-0.7,-240,576)"/>
 <path d="M506.91,531.66 l-3.85,-5.4" fill="none" stroke="rgb(0,0,0)" stroke-linecap="round" stroke-width="30" transform="matrix(0.7,0.0,0.0,-0.7,-240,576)"/>
 <path d="M503.06,526.26 l-3.51,-5.38" fill="none" stroke="rgb(0,0,0)" stroke-linecap="round" stroke-width="30" transform="matrix(0.7,0.0,0.0,-0.7,-240,576)"/>
 <path d="M499.55,520.87 l-3.18,-5.35" fill="none" stroke="rgb(0,0,0)" stroke-linecap="round" stroke-width="30" transform="matrix(0.7,0.0,0.0,-0.7,-240,576)"/>
 <path d="M496.37,515.52 l-2.86,-5.31" fill="none" stroke="rgb(0,0,0)" stroke-linecap="round" stroke-width="30" transform="matrix(0.7,0.0,0.0,-0.7,-240,576)"/>
 <path d="M493.51,510.21 l-2.56,-5.25" fill="none" stroke="rgb(0,0,0)" stroke-linecap="round" stroke-width="30" transform="matrix(0.7,0.0,0.0,-0.7,-240,576)"/>
 <path d="M490.95,504.97 l-2.27,-5.17" fill="none" stroke="rgb(0,0,0)" stroke-linecap="round" stroke-width="30" transform="matrix(0.7,0.0,0.0,-0.7,-240,576)"/>
 <path d="M488.68,499.79 l-1.99,-5.09" fill="none" stroke="rgb(0,0,0)" stroke-linecap="round" stroke-width="30" transform="matrix(0.7,0.0,0.0,-0.7,-240,576)"/>
 <path d="M486.68,494.71 l-1.73,-4.99" fill="none" stroke="rgb(0,0,0)" stroke-linecap="round" stroke-width="30" transform="matrix(0.7,0.0,0.0,-0.7,-240,576)"/>
 <path d="M484.96,489.72 l-1.47,-4.88" fill="none" stroke="rgb(0,0,0)" stroke-linecap="round" stroke-width="30" transform="matrix(0.7,0.0,0.0,-0.7,-240,576)"/>
 <path d="M483.49,484.84 l-1.23,-4.75" fill="none" stroke="rgb(0,0,0)" stroke-linecap="round" stroke-width="30" transform="matrix(0.7,0.0,0.0,-0.7,-240,576)"/>
 <path d="M482.26,480.09 l-0.99,-4.62" fill="none" stroke="rgb(0,0,0)" stroke-linecap="round" stroke-width="30" transform="matrix(0.7,0.0,0.0,-0.7,-240,576)"/>
 <path d="M481.27,475.47 l-0.76,-4.48" fill="none" stroke="rgb(0,0,0)" stroke-linecap="round" stroke-width="30" transform="matrix(0.7,0.0,0.0,-0.7,-240,576)"/>
 <path d="M480.51,470.99 l-0.55,-4.33" fill="none" stroke="rgb(0,0,0)" stroke-linecap="round" stroke-width="30" transform="matrix(0.7,0.0,0.0,-0.7,-240,576)"/>
 <path d="M479.96,466.66 l-0.34,-4.17" fill="none" stroke="rgb(0,0,0)" stroke-linecap="round" stroke-width="30" transform="matrix(0.7,0.0,0.0,-0.7,-240,576)"/>
 <path d="M479.62,462.49 l-0.14,-4.0" fill="none" stroke="rgb(0,0,0)" stroke-linecap="round" stroke-width="30" transform="matrix(0.7,0.0,0.0,-0.7,-240,576)"/>
 <path d="M479.48,458.49 l0.05,-3.82" fill="none" stroke="rgb(0,0,0)" stroke-linecap="round" stroke-width="30" transform="matrix(0.7,0.0,0.0,-0.7,-240,576)"/>
 <path d="M479.54,454.67 l0.24,-3.64" fill="none" stroke="rgb(0,0,0)" stroke-linecap="round" stroke-width="30" transform="matrix(0.7,0.0,0.0,-0.7,-240,576)"/>
 <path d="M479.78,451.04 l0.42,-3.45" fill="none" stroke="rgb(0,0,0)" stroke-linecap="round" stroke-width="30" transform="matrix(0.7,0.0,0.0,-0.7,-240,576)"/>
 <path d="M480.2,447.59 l0.59,-3.25" fill="none" stroke="rgb(0,0,0)" stroke-linecap="round" stroke-width="30" transform="matrix(0.7,0.0,0.0,-0.7,-240,576)"/>
 <path d="M480.79,444.34 l0.76,-3.05" fill="none" stroke="rgb(0,0,0)" stroke-linecap="round" stroke-width="30" transform="matrix(0.7,0.0,0.0,-0.7,-240,576)"/>
 <path d="M481.55,441.3 l0.92,-2.84" fill="none" stroke="rgb(0,0,0)" stroke-linecap="round" stroke-width="30" transform="matrix(0.7,0.0,0.0,-0.7,-240,576)"/>
 <path d="M482.47,438.46 l1.08,-2.62" fill="none" stroke="rgb(0,0,0)" stroke-linecap="round" stroke-width="30" transform="matrix(0.7,0.0,0.0,-0.7,-240,576)"/>
 <path d="M483.55,435.84 l1.23,-2.41" fill="none" stroke="rgb(0,0,0)" stroke-linecap="round" stroke-width="30" transform="matrix(0.7,0.0,0.0,-0.7,-240,576)"/>
 <path d="M484.77,433.43 l1.37,-2.19" fill="none" stroke="rgb(0,0,0)" stroke-linecap="round" stroke-width="30" transform="matrix(0.7,0.0,0.0,-0.7,-240,576)"/>
 <path d="M486.15,431.25 l1.51,-1.96" fill="none" stroke="rgb(0,0,0)" stroke-linecap="round" stroke-width="30" transform="matrix(0.7,0.0,0.0,-0.7,-240,576)"/>
 <path d="M487.66,429.29 l1.65,-1.73" fill="none" stroke="rgb(0,0,0)" stroke-linecap="round" stroke-width="30" transform="matrix(0.7,0.0,0.0,-0.7,-240,576)"/>
 <path d="M489.31,427.55 l1.78,-1.5" fill="none" stroke="rgb(0,0,0)" stroke-linecap="round" stroke-width="30" transform="matrix(0.7,0.0,0.0,-0.7,-240,576)"/>
 <path d="M491.09,426.05 l1.91,-1.27" fill="none" stroke="rgb(0,0,0)" stroke-linecap="round" stroke-width="30" transform="matrix(0.7,0.0,0.0,-0.7,-240,576)"/>
 <path d="M493.0,424.77 l2.04,-1.04" fill="none" stroke="rgb(0,0,0)" stroke-linecap="round" stroke-width="30" transform="matrix(0.7,0.0,0.0,-0.7,-240,576)"/>
 <path d="M495.04,423.74 l2.16,-0.8" fill="none" stroke="rgb(0,0,0)" stroke-linecap="round" stroke-width="30" transform="matrix(0.7,0.0,0.0,-0.7,-240,576)"/>
 <path d="M497.2,422.93 l2.27,-0.57" fill="none" stroke="rgb(0,0,0)" stroke-linecap="round" stroke-width="30" transform="matrix(0.7,0.0,0.0,-0.7,-240,576)"/>
 <path d="M499.47,422.36 l2.39,-0.33" fill="none" stroke="rgb(0,0,0)" stroke-linecap="round" stroke-width="30" transform="matrix(0.7,0.0,0.0,-0.7,-240,576)"/>
 <path d="M501.86,422.03 l2.5,-0.1" fill="none" stroke="rgb(0,0,0)" stroke-linecap="round" stroke-width="30" transform="matrix(0.7,0.0,0.0,-0.7,-240,576)"/>
 <path d="M504.36,421.93 l2.61,0.14" fill="none" stroke="rgb(0,0,0)" stroke-linecap="round" stroke-width="30" transform="matrix(0.7,0.0,0.0,-0.7,-240,576)"/>
 <path d="M506.97,422.06 l2.71,0.37" fill="none" stroke="rgb(0,0,0)" stroke-linecap="round" stroke-width="30" transform="matrix(0.7,0.0,0.0,-0.7,-240,576)"/>
 <path d="M509.68,422.44 l2.82,0.6" fill="none" stroke="rgb(0,0,0)" stroke-linecap="round" stroke-width="30" transform="matrix(0.7,0.0,0.0,-0.7,-240,576)"/>
 <path d="M512.5,423.04 l2.92,0.84" fill="none" stroke="rgb(0,0,0)" stroke-linecap="round" stroke-width="30" transform="matrix(0.7,0.0,0.0,-0.7,-240,576)"/>
 <path d="M515.41,423.87 l3.01,1.07" fill="none" stroke="rgb(0,0,0)" stroke-linecap="round" stroke-width="30" transform="matrix(0.7,0.0,0.0,-0.7,-240,576)"/>
 <path d="M518.43,424.94 l3.11,1.29" fill="none" stroke="rgb(0,0,0)" stroke-linecap="round" stroke-width="30" transform="matrix(0.7,0.0,0.0,-0.7,-240,576)"/>
 <path d="M521.53,426.23 l3.2,1.52" fill="none" stroke="rgb(0,0,0)" stroke-linecap="round" stroke-width="30" transform="matrix(0.7,0.0,0.0,-0.7,-240,576)"/>
 <path d="M524.73,427.75 l3.29,1.74" fill="none" stroke="rgb(0,0,0)" stroke-linecap="round" stroke-width="30" transform="matrix(0.7,0.0,0.0,-0.7,-240,576)"/>
 <path d="M528.02,429.49 l3.37,1.96" fill="none" stroke="rgb(0,0,0)" stroke-linecap="round" stroke-width="30" transform="matrix(0.7,0.0,0.0,-0.7,-240,576)"/>
 <path d="M531.39,431.45 l3.46,2.17" fill="none" stroke="rgb(0,0,0)" stroke-linecap="round" stroke-width="30" transform="matrix(0.7,0.0,0.0,-0.7,-240,576)"/>
 <path d="M534.85,433.62 l3.54,2.39" fill="none" stroke="rgb(0,0,0)" stroke-linecap="round" stroke-width="30" transform="matrix(0.7,0.0,0.0,-0.7,-240,576)"/>
 <path d="M538.39,436.01 l3.62,2.6" fill="none" stroke="rgb(0,0,0)" stroke-linecap="round" stroke-width="30" transform="matrix(0.7,0.0,0.0,-0.7,-240,576)"/>
 <path d="M542.01,438.61 l3.7,2.8" fill="none" stroke="rgb(0,0,0)" stroke-linecap="round" stroke-width="30" transform="matrix(0.7,0.0,0.0,-0.7,-240,576)"/>
 <path d="M545.71,441.41 l3.77,3.0" fill="none" stroke="rgb(0,0,0)" stroke-linecap="round" stroke-width="30" transform="matrix(0.7,0.0,0.0,-0.7,-240,576)"/>
 <path d="M549.48,444.4 l3.84,3.19" fill="none" stroke="rgb(0,0,0)" stroke-linecap="round" stroke-width="30" transform="matrix(0.7,0.0,0.0,-0.7,-240,576)"/>
 <path d="M553.32,447.6 l3.91,3.38" fill="none" stroke="rgb(0,0,0)" stroke-linecap="round" stroke-width="30" transform="matrix(0.7,0.0,0.0,-0.7,-240,576)"/>
 <path d="M557.24,450.98 l3.98,3.57" fill="none" stroke="rgb(0,0,0)" stroke-linecap="round" stroke-width="30" transform="matrix(0.7,0.0,0.0,-0.7,-240,576)"/>
 <path d="M561.22,454.55 l4.05,3.75" fill="none" stroke="rgb(0,0,0)" stroke-linecap="round" stroke-width="30" transform="matrix(0.7,0.0,0.0,-0.7,-240,576)"/>
 <path d="M565.27,458.3 l4.11,3.92" fill="none" stroke="rgb(0,0,0)" stroke-linecap="round" stroke-width="30" transform="matrix(0.7,0.0,0.0,-0.7,-240,576)"/>
 <path d="M569.38,462.22 l4.17,4.09" fill="none" stroke="rgb(0,0,0)" stroke-linecap="round" stroke-width="30" transform="matrix(0.7,0.0,0.0,-0.7,-240,576)"/>
 <path d="M573.55,466.3 l4.23,4.25" fill="none" stroke="rgb(0,0,0)" stroke-linecap="round" stroke-width="30" transform="matrix(0.7,0.0,0.0,-0.7,-240,576)"/>
 <path d="M577.78,470.56 l4.28,4.41" fill="none" stroke="rgb(0,0,0)" stroke-linecap="round" stroke-width="30" transform="matrix(0.7,0.0,0.0,-0.7,-240,576)"/>
 <path d="M582.06,474.96 l4.34,4.56" fill="none" stroke="rgb(0,0,0)" stroke-linecap="round" stroke-width="30" transform="matrix(0.7,0.0,0.0,-0.7,-240,576)"/>
 <path d="M586.4,479.52 l4.39,4.7" fill="none" stroke="rgb(0,0,0)" stroke-linecap="round" stroke-width="30" transform="matrix(0.7,0.0,0.0,-0.7,-240,576)"/>
 <path d="M590.79,484.22 l4.44,4.84" fill="none" stroke="rgb(0,0,0)" stroke-linecap="round" stroke-width="30" transform="matrix(0.7,0.0,0.0,-0.7,-240,576)"/>
 <path d="M595.22,489.05 l4.48,4.97" fill="none" stroke="rgb(0,0,0)" stroke-linecap="round" stroke-width="30" transform="matrix(0.7,0.0,0.0,-0.7,-240,576)"/>
 <path d="M599.7,494.02 l4.52,5.09" fill="none" stroke="rgb(0,0,0)" stroke-linecap="round" stroke-width="30" transform="matrix(0.7,0.0,0.0,-0.7,-240,576)"/>
 <path d="M604.23,499.1 l4.56,5.2" fill="none" stroke="rgb(0,0,0)" stroke-linecap="round" stroke-width="30" transform="matrix(0.7,0.0,0.0,-0.7,-240,576)"/>
 <path d="M608.79,504.31 l4.6,5.31" fill="none" stroke="rgb(0,0,0)" stroke-linecap="round" stroke-width="30" transform="matrix(0.7,0.0,0.0,-0.7,-240,576)"/>
 <path d="M613.39,509.62 l4.64,5.41" fill="none" stroke="rgb(0,0,0)" stroke-linecap="round" stroke-width="30" transform="matrix(0.7,0.0,0.0,-0.7,-240,576)"/>
 <path d="M618.03,515.04 l4.67,5.51" fill="none" stroke="rgb(0,0,0)" stroke-linecap="round" stroke-width="30" transform="matrix(0.7,0.0,0.0,-0.7,-240,576)"/>
 <path d="M622.7,520.54 l4.7,5.6" fill="none" stroke="rgb(0,0,0)" stroke-linecap="round" stroke-width="30" transform="matrix(0.7,0.0,0.0,-0.7,-240,576)"/>
 <path d="M627.39,526.14 l4.72,5.68" fill="none" stroke="rgb(0,0,0)" stroke-linecap="round" stroke-width="30" transform="matrix(0.7,0.0,0.0,-0.7,-240,576)"/>
 <path d="M632.12,531.81 l4.75,5.75" fill="none" stroke="rgb(0,0,0)" stroke-linecap="round" stroke-width="30" transform="matrix(0.7,0.0,0.0,-0.7,-240,576)"/>
 <path d="M636.86,537.56 l4.77,5.81" fill="none" stroke="rgb(0,0,0)" stroke-linecap="round" stroke-width="30" transform="matrix(0.7,0.0,0.0,-0.7,-240,576)"/>
 <path d="M641.63,543.37 l4.78,5.87" fill="none" stroke="rgb(0,0,0)" stroke-linecap="round" stroke-width="30" transform="matrix(0.7,0.0,0.0,-0.7,-240,576)"/>
 <path d="M646.41,549.24 l4.8,5.92" fill="none" stroke="rgb(0,0,0)" stroke-linecap="round" stroke-width="30" transform="matrix(0.7,0.0,0.0,-0.7,-240,576)"/>
 <path d="M651.21,555.16 l4.81,5.96" fill="none" stroke="rgb(0,0,0)" stroke-linecap="round" stroke-width="30" transform="matrix(0.7,0.0,0.0,-0.7,-240,576)"/>
 <path d="M656.02,561.12 l4.81,5.99" fill="none" stroke="rgb(0,0,0)" stroke-linecap="round" stroke-width="30" transform="matrix(0.7,0.0,0.0,-0.7,-240,576)"/>
 <path d="M660.83,567.11 l4.82,6.02" fill="none" stroke="rgb(0,0,0)" stroke-linecap="round" stroke-width="30" transform="matrix(0.7,0.0,0.0,-0.7,-240,576)"/>
 <path d="M665.65,573.13 l4.82,6.04" fill="none" stroke="rgb(0,0,0)" stroke-linecap="round" stroke-width="30" transform="matrix(0.7,0.0,0.0,-0.7,-240,576)"/>
 <path d="M670.47,579.17 l4.82,6.05" fill="none" stroke="rgb(0,0,0)" stroke-linecap="round" stroke-width="30" transform="matrix(0.7,0.0,0.0,-0.7,-240,576)"/>
 <path d="M675.29,585.22 l4.81,6.05" fill="none" stroke="rgb(0,0,0)" stroke-linecap="round" stroke-width="30" transform="matrix(0.7,0.0,0.0,-0.7,-240,576)"/>
 <path d="M680.1,591.27 l4.8,6.05" fill="none" stroke="rgb(0,0,0)" stroke-linecap="round" stroke-width="30" transform="matrix(0.7,0.0,0.0,-0.7,-240,576)"/>
 <path d="M684.91,597.32 l4.79,6.04" fill="none" stroke="rgb(0,0,0)" stroke-linecap="round" stroke-width="30" transform="matrix(0.7,0.0,0.0,-0.7,-240,576)"/>
 <path d="M689.7,603.36 l4.78,6.02" fill="none" stroke="rgb(0,0,0)" stroke-linecap="round" stroke-width="30" transform="matrix(0.7,0.0,0.0,-0.7,-240,576)"/>
 <path d="M694.48,609.37 l4.76,5.99" fill="none" stroke="rgb(0,0,0)" stroke-linecap="round" stroke-width="30" transform="matrix(0.7,0.0,0.0,-0.7,-240,576)"/>
 <path d="M699.23,615.36 l4.74,5.96" fill="none" stroke="rgb(0,0,0)" stroke-linecap="round" stroke-width="30" transform="matrix(0.7,0.0,0.0,-0.7,-240,576)"/>
 <path d="M703.97,621.32 l4.71,5.91" fill="none" stroke="rgb(0,0,0)" stroke-linecap="round" stroke-width="30" transform="matrix(0.7,0.0,0.0,-0.7,-240,576)"/>
 <path d="M708.68,627.23 l4.68,5.86" fill="none" stroke="rgb(0,0,0)" stroke-linecap="round" stroke-width="30" transform="matrix(0.7,0.0,0.0,-0.7,-240,576)"/>
 <path d="M713.36,633.1 l4.65,5.81" fill="none" stroke="rgb(0,0,0)" stroke-linecap="round" stroke-width="30" transform="matrix(0.7,0.0,0.0,-0.7,-240,576)"/>
 <path d="M718.01,638.9 l4.61,5.74" fill="none" stroke="rgb(0,0,0)" stroke-linecap="round" stroke-width="30" transform="matrix(0.7,0.0,0.0,-0.7,-240,576)"/>
 <path d="M722.62,644.65 l4.57,5.67" fill="none" stroke="rgb(0,0,0)" stroke-linecap="round" stroke-width="30" transform="matrix(0.7,0.0,0.0,-0.7,-240,576)"/>
 <path d="M727.2,650.32 l4.53,5.59" fill="none" stroke="rgb(0,0,0)" stroke-linecap="round" stroke-width="30" transform="matrix(0.7,0.0,0.0,-0.7,-240,576)"/>
 <path d="M731.73,655.92 l4.49,5.51" fill="none" stroke="rgb(0,0,0)" stroke-linecap="round" stroke-width="30" transform="matrix(0.7,0.0,0.0,-0.7,-240,576)"/>
 <path d="M736.22,661.43 l4.44,5.42" fill="none" stroke="rgb(0,0,0)" stroke-linecap="round" stroke-width="30" transform="matrix(0.7,0.0,0.0,-0.7,-240,576)"/>
 <path d="M740.65,666.84 l4.38,5.32" fill="none" stroke="rgb(0,0,0)" stroke-linecap="round" stroke-width="30" transform="matrix(0.7,0.0,0.0,-0.7,-240,576)"/>
 <path d="M745.04,672.16 l4.33,5.22" fill="none" stroke="rgb(0,0,0)" stroke-linecap="round" stroke-width="30" transform="matrix(0.7,0.0,0.0,-0.7,-240,576)"/>
 <path d="M749.36,677.38 l4.27,5.1" fill="none" stroke="rgb(0,0,0)" stroke-linecap="round" stroke-width="30" transform="matrix(0.7,0.0,0.0,-0.7,-240,576)"/>
 <path d="M753.63,682.49 l4.21,4.99" fill="none" stroke="rgb(0,0,0)" stroke-linecap="round" stroke-width="30" transform="matrix(0.7,0.0,0.0,-0.7,-240,576)"/>
 <path d="M757.84,687.47 l4.14,4.86" fill="none" stroke="rgb(0,0,0)" stroke-linecap="round" stroke-width="30" transform="matrix(0.7,0.0,0.0,-0.7,-240,576)"/>
 <path d="M761.98,692.34 l4.07,4.73" fill="none" stroke="rgb(0,0,0)" stroke-linecap="round" stroke-width="30" transform="matrix(0.7,0.0,0.0,-0.7,-240,576)"/>
 <path d="M766.05,697.07 l4.0,4.6" fill="none" stroke="rgb(0,0,0)" stroke-linecap="round" stroke-width="30" transform="matrix(0.7,0.0,0.0,-0.7,-240,576)"/>
 <path d="M770.05,701.67 l3.92,4.46" fill="none" stroke="rgb(0,0,0)" stroke-linecap="round" stroke-width="30" transform="matrix(0.7,0.0,0.0,-0.7,-240,576)"/>
 <path d="M773.97,706.13 l3.84,4.31" fill="none" stroke="rgb(0,0,0)" stroke-linecap="round" stroke-width="30" transform="matrix(0.7,0.0,0.0,-0.7,-240,576)"/>
 <path d="M777.81,710.44 l3.76,4.16" fill="none" stroke="rgb(0,0,0)" stroke-linecap="round" stroke-width="30" transform="matrix(0.7,0.0,0.0,-0.7,-240,576)"/>
 <path d="M781.58,714.6 l3.68,4.0" fill="none" stroke="rgb(0,0,0)" stroke-linecap="round" stroke-width="30" transform="matrix(0.7,0.0,0.0,-0.7,-240,576)"/>
 <path d="M785.26,718.6 l3.59,3.84" fill="none" stroke="rgb(0,0,0)" stroke-linecap="round" stroke-width="30" transform="matrix(0.7,0.0,0.0,-0.7,-240,576)"/>
 <path d="M788.85,722.44 l3.5,3.67" fill="none" stroke="rgb(0,0,0)" stroke-linecap="round" stroke-width="30" transform="matrix(0.7,0.0,0.0,-0.7,-240,576)"/>
 <path d="M792.35,726.11 l3.41,3.5" fill="none" stroke="rgb(0,0,0)" stroke-linecap="round" stroke-width="30" transform="matrix(0.7,0.0,0.0,-0.7,-240,576)"/>
 <path d="M795.76,729.62 l3.32,3.33" fill="none" stroke="rgb(0,0,0)" stroke-linecap="round" stroke-width="30" transform="matrix(0.7,0.0,0.0,-0.7,-240,576)"/>
 <path d="M799.08,732.94 l3.22,3.15" fill="none" stroke="rgb(0,0,0)" stroke-linecap="round" stroke-width="30" transform="matrix(0.7,0.0,0.0,-0.7,-240,576)"/>
 <path d="M802.3,736.09 l3.12,2.96" fill="none" stroke="rgb(0,0,0)" stroke-linecap="round" stroke-width="30" transform="matrix(0.7,0.0,0.0,-0.7,-240,576)"/>
 <path d="M805.41,739.05 l3.02,2.77" fill="none" stroke="rgb(0,0,0)" stroke-linecap="round" stroke-width="30" transform="matrix(0.7,0.0,0.0,-0.7,-240,576)"/>
 <path d="M808.43,741.82 l2.91,2.58" fill="none" stroke="rgb(0,0,0)" stroke-linecap="round" stroke-width="30" transform="matrix(0.7,0.0,0.0,-0.7,-240,576)"/>
 <path d="M811.34,744.4 l2.81,2.39" fill="none" stroke="rgb(0,0,0)" stroke-linecap="round" stroke-width="30" transform="matrix(0.7,0.0,0.0,-0.7,-240,576)"/>
 <path d="M814.15,746.79 l2.7,2.19" fill="none" stroke="rgb(0,0,0)" stroke-linecap="round" stroke-width="30" transform="matrix(0.7,0.0,0.0,-0.7,-240,576)"/>
 <path d="M816.85,748.98 l2.59,1.99" fill="none" stroke="rgb(0,0,0)" stroke-linecap="round" stroke-width="30" transform="matrix(0.7,0.0,0.0,-0.7,-240,576)"/>
 <path d="M819.43,750.97 l2.48,1.78" fill="none" stroke="rgb(0,0,0)" stroke-linecap="round" stroke-width="30" transform="matrix(0.7,0.0,0.0,-0.7,-240,576)"/>
 <path d="M821.91,752.75 l2.36,1.58" fill="none" stroke="rgb(0,0,0)" stroke-linecap="round" stroke-width="30" transform="matrix(0.7,0.0,0.0,-0.7,-240,576)"/>
 <path d="M824.27,754.33 l2.25,1.37" fill="none" stroke="rgb(0,0,0)" stroke-linecap="round" stroke-width="30" transform="matrix(0.7,0.0,0.0,-0.7,-240,576)"/>
 <path d="M826.52,755.7 l2.13,1.16" fill="none" stroke="rgb(0,0,0)" stroke-linecap="round" stroke-width="30" transform="matrix(0.7,0.0,0.0,-0.7,-240,576)"/>
 <path d="M828.65,756.85 l2.02,0.94" fill="none" stroke="rgb(0,0,0)" stroke-linecap="round" stroke-width="30" transform="matrix(0.7,0.0,0.0,-0.7,-240,576)"/>
 <path d="M830.67,757.8 l1.9,0.73" fill="none" stroke="rgb(0,0,0)" stroke-linecap="round" stroke-width="30" transform="matrix(0.7,0.0,0.0,-0.7,-240,576)"/>
 <path d="M832.57,758.53 l1.78,0.52" fill="none" stroke="rgb(0,0,0)" stroke-linecap="round" stroke-width="30" transform="matrix(0.7,0.0,0.0,-0.7,-240,576)"/>
 <path d="M834.35,759.04 l1.66,0.3" fill="none" stroke="rgb(0,0,0)" stroke-linecap="round" stroke-width="30" transform="matrix(0.7,0.0,0.0,-0.7,-240,576)"/>
 <path d="M836.01,759.34 l1.54,0.08" fill="none" stroke="rgb(0,0,0)" stroke-linecap="round" stroke-width="30" transform="matrix(0.7,0.0,0.0,-0.7,-240,576)"/>
 <path d="M837.55,759.42 l1.42,-0.14" fill="none" stroke="rgb(0,0,0)" stroke-linecap="round" stroke-width="30" transform="matrix(0.7,0.0,0.0,-0.7,-240,576)"/>
 <path d="M838.97,759.29 l1.3,-0.36" fill="none" stroke="rgb(0,0,0)" stroke-linecap="round" stroke-width="30" transform="matrix(0.7,0.0,0.0,-0.7,-240,576)"/>
 <path d="M840.27,758.93 l1.18,-0.57" fill="none" stroke="rgb(0,0,0)" stroke-linecap="round" stroke-width="30" transform="matrix(0.7,0.0,0.0,-0.7,-240,576)"/>
 <path d="M841.45,758.36 l1.06,-0.79" fill="none" stroke="rgb(0,0,0)" stroke-linecap="round" stroke-width="30" transform="matrix(0.7,0.0,0.0,-0.7,-240,576)"/>
 <path d="M842.5,757.56 l0.94,-1.01" fill="none" stroke="rgb(0,0,0)" stroke-linecap="round" stroke-width="30" transform="matrix(0.7,0.0,0.0,-0.7,-240,576)"/>
 <path d="M843.44,756.55 l0.82,-1.23" fill="none" stroke="rgb(0,0,0)" stroke-linecap="round" stroke-width="30" transform="matrix(0.7,0.0,0.0,-0.7,-240,576)"/>
 <path d="M844.26,755.32 l0.7,-1.45" fill="none" stroke="rgb(0,0,0)" stroke-linecap="round" stroke-width="30" transform="matrix(0.7,0.0,0.0,-0.7,-240,576)"/>
 <path d="M844.97,753.88 l0.59,-1.66" fill="none" stroke="rgb(0,0,0)" stroke-linecap="round" stroke-width="30" transform="matrix(0.7,0.0,0.0,-0.7,-240,576)"/>
 <path d="M845.55,752.22 l0.47,-1.87" fill="none" stroke="rgb(0,0,0)" stroke-linecap="round" stroke-width="30" transform="matrix(0.7,0.0,0.0,-0.7,-240,576)"/>
 <path d="M846.02,750.34 l0.35,-2.09" fill="none" stroke="rgb(0,0,0)" stroke-linecap="round" stroke-width="30" transform="matrix(0.7,0.0,0.0,-0.7,-240,576)"/>
 <path d="M846.38,748.26 l0.24,-2.3" fill="none" stroke="rgb(0,0,0)" stroke-linecap="round" stroke-width="30" transform="matrix(0.7,0.0,0.0,-0.7,-240,576)"/>
 <path d="M846.62,745.96 l0.13,-2.51" fill="none" stroke="rgb(0,0,0)" stroke-linecap="round" stroke-width="30" transform="matrix(0.7,0.0,0.0,-0.7,-240,576)"/>
 <path d="M846.75,743.45 l0.02,-2.71" fill="none" stroke="rgb(0,0,0)" stroke-linecap="round" stroke-width="30" transform="matrix(0.7,0.0,0.0,-0.7,-240,576)"/>
 <path d="M846.77,740.74 l-0.09,-2.92" fill="none" stroke="rgb(0,0,0)" stroke-linecap="round" stroke-width="30" transform="matrix(0.7,0.0,0.0,-0.7,-240,576)"/>
 <path d="M846.68,737.82 l-0.19,-3.12" fill="none" stroke="rgb(0,0,0)" stroke-linecap="round" stroke-width="30" transform="matrix(0.7,0.0,0.0,-0.7,-240,576)"/>
 <path d="M846.49,734.7 l-0.29,-3.31" fill="none" stroke="rgb(0,0,0)" stroke-linecap="round" stroke-width="30" transform="matrix(0.7,0.0,0.0,-0.7,-240,576)"/>
 <path d="M846.2,731.39 l-0.39,-3.51" fill="none" stroke="rgb(0,0,0)" stroke-linecap="round" stroke-width="30" transform="matrix(0.7,0.0,0.0,-0.7,-240,576)"/>
 <path d="M845.8,727.88 l-0.49,-3.7" fill="none" stroke="rgb(0,0,0)" stroke-linecap="round" stroke-width="30" transform="matrix(0.7,0.0,0.0,-0.7,-240,576)"/>
 <path d="M845.31,724.18 l-0.58,-3.89" fill="none" stroke="rgb(0,0,0)" stroke-linecap="round" stroke-width="30" transform="matrix(0.7,0.0,0.0,-0.7,-240,576)"/>
 <path d="M844.73,720.3 l-0.67,-4.07" fill="none" stroke="rgb(0,0,0)" stroke-linecap="round" stroke-width="30" transform="matrix(0.7,0.0,0.0,-0.7,-240,576)"/>
 <path d="M844.06,716.23 l-0.76,-4.25" fill="none" stroke="rgb(0,0,0)" stroke-linecap="round" stroke-width="30" transform="matrix(0.7,0.0,0.0,-0.7,-240,576)"/>
 <path d="M843.3,711.98 l-0.84,-4.42" fill="none" stroke="rgb(0,0,0)" stroke-linecap="round" stroke-width="30" transform="matrix(0.7,0.0,0.0,-0.7,-240,576)"/>
 <path d="M842.46,707.56 l-0.92,-4.59" fill="none" stroke="rgb(0,0,0)" stroke-linecap="round" stroke-width="30" transform="matrix(0.7,0.0,0.0,-0.7,-240,576)"/>
 <path d="M841.54,702.98 l-0.99,-4.75" fill="none" stroke="rgb(0,0,0)" stroke-linecap="round" stroke-width="30" transform="matrix(0.7,0.0,0.0,-0.7,-240,576)"/>
 <path d="M840.55,698.23 l-1.06,-4.91" fill="none" stroke="rgb(0,0,0)" stroke-linecap="round" stroke-width="30" transform="matrix(0.7,0.0,0.0,-0.7,-240,576)"/>
 <path d="M839.49,693.32 l-1.12,-5.06" fill="none" stroke="rgb(0,0,0)" stroke-linecap="round" stroke-width="30" transform="matrix(0.7,0.0,0.0,-0.7,-240,576)"/>
 <path d="M838.37,688.25 l-1.18,-5.21" fill="none" stroke="rgb(0,0,0)" stroke-linecap="round" stroke-width="30" transform="matrix(0.7,0.0,0.0,-0.7,-240,576)"/>
 <path d="M837.19,683.04 l-1.24,-5.35" fill="none" stroke="rgb(0,0,0)" stroke-linecap="round" stroke-width="30" transform="matrix(0.7,0.0,0.0,-0.7,-240,576)"/>
 <path d="M835.95,677.7 l-1.29,-5.48" fill="none" stroke="rgb(0,0,0)" stroke-linecap="round" stroke-width="30" transform="matrix(0.7,0.0,0.0,-0.7,-240,576)"/>
 <path d="M834.66,672.21 l-1.33,-5.61" fill="none" stroke="rgb(0,0,0)" stroke-linecap="round" stroke-width="30" transform="matrix(0.7,0.0,0.0,-0.7,-240,576)"/>
 <path d="M833.33,666.6 l-1.37,-5.73" fill="none" stroke="rgb(0,0,0)" stroke-linecap="round" stroke-width="30" transform="matrix(0.7,0.0,0.0,-0.7,-240,576)"/>
 <path d="M831.97,660.86 l-1.4,-5.85" fill="none" stroke="rgb(0,0,0)" stroke-linecap="round" stroke-width="30" transform="matrix(0.7,0.0,0.0,-0.7,-240,576)"/>
 <path d="M830.57,655.02 l-1.42,-5.96" fill="none" stroke="rgb(0,0,0)" stroke-linecap="round" stroke-width="30" transform="matrix(0.7,0.0,0.0,-0.7,-240,576)"/>
 <path d="M829.15,649.06 l-1.44,-6.06" fill="none" stroke="rgb(0,0,0)" stroke-linecap="round" stroke-width="30" transform="matrix(0.7,0.0,0.0,-0.7,-240,576)"/>
 <path d="M827.71,643.01 l-1.45,-6.15" fill="none" stroke="rgb(0,0,0)" stroke-linecap="round" stroke-width="30" transform="matrix(0.7,0.0,0.0,-0.7,-240,576)"/>
 <path d="M826.25,636.86 l-1.46,-6.23" fill="none" stroke="rgb(0,0,0)" stroke-linecap="round" stroke-width="30" transform="matrix(0.7,0.0,0.0,-0.7,-240,576)"/>
 <path d="M824.79,630.63 l-1.46,-6.31" fill="none" stroke="rgb(0,0,0)" stroke-linecap="round" stroke-width="30" transform="matrix(0.7,0.0,0.0,-0.7,-240,576)"/>
 <path d="M823.34,624.32 l-1.45,-6.38" fill="none" stroke="rgb(0,0,0)" stroke-linecap="round" stroke-width="30" transform="matrix(0.7,0.0,0.0,-0.7,-240,576)"/>
 <path d="M821.89,617.94 l-1.43,-6.44" fill="none" stroke="rgb(0,0,0)" stroke-linecap="round" stroke-width="30" transform="matrix(0.7,0.0,0.0,-0.7,-240,576)"/>
 <path d="M820.46,611.5 l-1.41,-6.49" fill="none" stroke="rgb(0,0,0)" stroke-linecap="round" stroke-width="30" transform="matrix(0.7,0.0,0.0,-0.7,-240,576)"/>
 <path d="M819.05,605.01 l-1.38,-6.53" fill="none" stroke="rgb(0,0,0)" stroke-linecap="round" stroke-width="30" transform="matrix(0.7,0.0,0.0,-0.7,-240,576)"/>
 <path d="M817.67,598.47 l-1.34,-6.57" fill="none" stroke="rgb(0,0,0)" stroke-linecap="round" stroke-width="30" transform="matrix(0.7,0.0,0.0,-0.7,-240,576)"/>
 <path d="M816.34,591.91 l-1.29,-6.59" fill="none" stroke="rgb(0,0,0)" stroke-linecap="round" stroke-width="30" transform="matrix(0.7,0.0,0.0,-0.7,-240,576)"/>
 <path d="M815.04,585.31 l-1.24,-6.61" fill="none" stroke="rgb(0,0,0)" stroke-linecap="round" stroke-width="30" transform="matrix(0.7,0.0,0.0,-0.7,-240,576)"/>
 <path d="M813.81,578.7 l-1.17,-6.62" fill="none" stroke="rgb(0,0,0)" stroke-linecap="round" stroke-width="30" transform="matrix(0.7,0.0,0.0,-0.7,-240,576)"/>
 <path d="M812.64,572.09 l-1.1,-6.61" fill="none" stroke="rgb(0,0,0)" stroke-linecap="round" stroke-width="30" transform="matrix(0.7,0.0,0.0,-0.7,-240,576)"/>
 <path d="M811.54,565.47 l-1.02,-6.6" fill="none" stroke="rgb(0,0,0)" stroke-linecap="round" stroke-width="30" transform="matrix(0.7,0.0,0.0,-0.7,-240,576)"/>
 <path d="M810.52,558.87 l-0.93,-6.58" fill="none" stroke="rgb(0,0,0)" stroke-linecap="round" stroke-width="30" transform="matrix(0.7,0.0,0.0,-0.7,-240,576)"/>
 <path d="M809.58,552.29 l-0.83,-6.55" fill="none" stroke="rgb(0,0,0)" stroke-linecap="round" stroke-width="30" transform="matrix(0.7,0.0,0.0,-0.7,-240,576)"/>
 <path d="M808.75,545.75 l-0.73,-6.5" fill="none" stroke="rgb(0,0,0)" stroke-linecap="round" stroke-width="30" transform="matrix(0.7,0.0,0.0,-0.7,-240,576)"/>
 <path d="M808.02,539.24 l-0.61,-6.45" fill="none" stroke="rgb(0,0,0)" stroke-linecap="round" stroke-width="30" transform="matrix(0.7,0.0,0.0,-0.7,-240,576)"/>
 <path d="M807.41,532.79 l-0.49,-6.39" fill="none" stroke="rgb(0,0,0)" stroke-linecap="round" stroke-width="30" transform="matrix(0.7,0.0,0.0,-0.7,-240,576)"/>
 <path d="M806.92,526.4 l-0.36,-6.32" fill="none" stroke="rgb(0,0,0)" stroke-linecap="round" stroke-width="30" transform="matrix(0.7,0.0,0.0,-0.7,-240,576)"/>
 <path d="M806.56,520.08 l-0.22,-6.23" fill="none" stroke="rgb(0,0,0)" stroke-linecap="round" stroke-width="30" transform="matrix(0.7,0.0,0.0,-0.7,-240,576)"/>
 <path d="M806.34,513.85 l-0.07,-6.14" fill="none" stroke="rgb(0,0,0)" stroke-linecap="round" stroke-width="30" transform="matrix(0.7,0.0,0.0,-0.7,-240,576)"/>
 <path d="M806.28,507.71 l0.09,-6.03" fill="none" stroke="rgb(0,0,0)" stroke-linecap="round" stroke-width="30" transform="matrix(0.7,0.0,0.0,-0.7,-240,576)"/>
 <path d="M806.37,501.68 l0.26,-5.92" fill="none" stroke="rgb(0,0,0)" stroke-linecap="round" stroke-width="30" transform="matrix(0.7,0.0,0.0,-0.7,-240,576)"/>
 <path d="M806.64,495.76 l0.44,-5.79" fill="none" stroke="rgb(0,0,0)" stroke-linecap="round" stroke-width="30" transform="matrix(0.7,0.0,0.0,-0.7,-240,576)"/>
 <path d="M807.08,489.97 l0.63,-5.65" fill="none" stroke="rgb(0,0,0)" stroke-linecap="round" stroke-width="30" transform="matrix(0.7,0.0,0.0,-0.7,-240,576)"/>
 <path d="M807.71,484.32 l0.82,-5.5" fill="none" stroke="rgb(0,0,0)" stroke-linecap="round" stroke-width="30" transform="matrix(0.7,0.0,0.0,-0.7,-240,576)"/>
 <path d="M808.53,478.81 l1.03,-5.34" fill="none" stroke="rgb(0,0,0)" stroke-linecap="round" stroke-width="30" transform="matrix(0.7,0.0,0.0,-0.7,-240,576)"/>
 <path d="M809.56,473.47 l1.24,-5.17" fill="none" stroke="rgb(0,0,0)" stroke-linecap="round" stroke-width="30" transform="matrix(0.7,0.0,0.0,-0.7,-240,576)"/>
 <path d="M810.8,468.29 l1.46,-4.99" fill="none" stroke="rgb(0,0,0)" stroke-linecap="round" stroke-width="30" transform="matrix(0.7,0.0,0.0,-0.7,-240,576)"/>
 <path d="M812.26,463.3 l1.69,-4.8" fill="none" stroke="rgb(0,0,0)" stroke-linecap="round" stroke-width="30" transform="matrix(0.7,0.0,0.0,-0.7,-240,576)"/>
 <path d="M813.96,458.5 l1.93,-4.59" fill="none" stroke="rgb(0,0,0)" stroke-linecap="round" stroke-width="30" transform="matrix(0.7,0.0,0.0,-0.7,-240,576)"/>
 <path d="M815.89,453.91 l2.18,-4.38" fill="none" stroke="rgb(0,0,0)" stroke-linecap="round" stroke-width="30" transform="matrix(0.7,0.0,0.0,-0.7,-240,576)"/>
 <path d="M818.07,449.53 l2.44,-4.15" fill="none" stroke="rgb(0,0,0)" stroke-linecap="round" stroke-width="30" transform="matrix(0.7,0.0,0.0,-0.7,-240,576)"/>
 <path d="M820.51,445.39 l2.7,-3.91" fill="none" stroke="rgb(0,0,0)" stroke-linecap="round" stroke-width="30" transform="matrix(0.7,0.0,0.0,-0.7,-240,576)"/>
 <path d="M823.21,441.48 l2.97,-3.66" fill="none" stroke="rgb(0,0,0)" stroke-linecap="round" stroke-width="30" transform="matrix(0.7,0.0,0.0,-0.7,-240,576)"/>
 <path d="M826.19,437.81 l3.25,-3.4" fill="none" stroke="rgb(0,0,0)" stroke-linecap="round" stroke-width="30" transform="matrix(0.7,0.0,0.0,-0.7,-240,576)"/>
 <path d="M829.44,434.42 l3.54,-3.13" fill="none" stroke="rgb(0,0,0)" stroke-linecap="round" stroke-width="30" transform="matrix(0.7,0.0,0.0,-0.7,-240,576)"/>
 <path d="M832.99,431.29 l3.84,-2.84" fill="none" stroke="rgb(0,0,0)" stroke-linecap="round" stroke-width="30" transform="matrix(0.7,0.0,0.0,-0.7,-240,576)"/>
 <path d="M836.82,428.45 l4.14,-2.55" fill="none" stroke="rgb(0,0,0)" stroke-linecap="round" stroke-width="30" transform="matrix(0.7,0.0,0.0,-0.7,-240,576)"/>
 <path d="M840.96,425.9 l4.45,-2.24" fill="none" stroke="rgb(0,0,0)" stroke-linecap="round" stroke-width="30" transform="matrix(0.7,0.0,0.0,-0.7,-240,576)"/>
 <path d="M845.4,423.66 l4.76,-1.92" fill="none" stroke="rgb(0,0,0)" stroke-linecap="round" stroke-width="30" transform="matrix(0.7,0.0,0.0,-0.7,-240,576)"/>
 <path d="M850.16,421.74 l5.08,-1.59" fill="none" stroke="rgb(0,0,0)" stroke-linecap="round" stroke-width="30" transform="matrix(0.7,0.0,0.0,-0.7,-240,576)"/>
 <path d="M855.24,420.15 l5.41,-1.25" fill="none" stroke="rgb(0,0,0)" stroke-linecap="round" stroke-width="30" transform="matrix(0.7,0.0,0.0,-0.7,-240,576)"/>
 <path d="M860.65,418.9 l5.74,-0.9" fill="none" stroke="rgb(0,0,0)" stroke-linecap="round" stroke-width="30" transform="matrix(0.7,0.0,0.0,-0.7,-240,576)"/>
 <path d="M866.39,418.0 l6.07,-0.54" fill="none" stroke="rgb(0,0,0)" stroke-linecap="round" stroke-width="30" transform="matrix(0.7,0.0,0.0,-0.7,-240,576)"/>
 <path d="M872.46,417.46 l6.41,-0.17" fill="none" stroke="rgb(0,0,0)" stroke-linecap="round" stroke-width="30" transform="matrix(0.7,0.0,0.0,-0.7,-240,576)"/>
 <path d="M878.87,417.29 l6.76,0.22" fill="none" stroke="rgb(0,0,0)" stroke-linecap="round" stroke-width="30" transform="matrix(0.7,0.0,0.0,-0.7,-240,576)"/>
 <path d="M885.63,417.51 l7.1,0.61" fill="none" stroke="rgb(0,0,0)" stroke-linecap="round" stroke-width="30" transform="matrix(0.7,0.0,0.0,-0.7,-240,576)"/>
 <path d="M892.73,418.12 l7.45,1.02" fill="none" stroke="rgb(0,0,0)" stroke-linecap="round" stroke-width="30" transform="matrix(0.7,0.0,0.0,-0.7,-240,576)"/>
 <path d="M900.18,419.14 l7.81,1.43" fill="none" stroke="rgb(0,0,0)" stroke-linecap="round" stroke-width="30" transform="matrix(0.7,0.0,0.0,-0.7,-240,576)"/>
 <path d="M907.99,420.57 l8.16,1.86" fill="none" stroke="rgb(0,0,0)" stroke-linecap="round" stroke-width="30" transform="matrix(0.7,0.0,0.0,-0.7,-240,576)"/>
 <path d="M916.15,422.43 l8.52,2.3" fill="none" stroke="rgb(0,0,0)" stroke-linecap="round" stroke-width="30" transform="matrix(0.7,0.0,0.0,-0.7,-240,576)"/>
 <path d="M924.67,424.73 l8.87,2.74" fill="none" stroke="rgb(0,0,0)" stroke-linecap="round" stroke-width="30" transform="matrix(0.7,0.0,0.0,-0.7,-240,576)"/>
 <path d="M933.54,427.47 l9.23,3.2" fill="none" stroke="rgb(0,0,0)" stroke-linecap="round" stroke-width="30" transform="matrix(0.7,0.0,0.0,-0.7,-240,576)"/>
 <path d="M942.76,430.67 l9.58,3.66" fill="none" stroke="rgb(0,0,0)" stroke-linecap="round" stroke-width="30" transform="matrix(0.7,0.0,0.0,-0.7,-240,576)"/>
 <path d="M952.34,434.33 l9.93,4.14" fill="none" stroke="rgb(0,0,0)" stroke-linecap="round" stroke-width="30" transform="matrix(0.7,0.0,0.0,-0.7,-240,576)"/>
 <path d="M962.27,438.47 l10.28,4.62" fill="none" stroke="rgb(0,0,0)" stroke-linecap="round" stroke-width="30" transform="matrix(0.7,0.0,0.0,-0.7,-240,576)"/>
 <path d="M972.56,443.1 l10.63,5.12" fill="none" stroke="rgb(0,0,0)" stroke-linecap="round" stroke-width="30" transform="matrix(0.7,0.0,0.0,-0.7,-240,576)"/>
 <path d="M983.19,448.21 l10.97,5.62" fill="none" stroke="rgb(0,0,0)" stroke-linecap="round" stroke-width="30" transform="matrix(0.7,0.0,0.0,-0.7,-240,576)"/>
 <path d="M994.16,453.84 l11.31,6.13" fill="none" stroke="rgb(0,0,0)" stroke-linecap="round" stroke-width="30" transform="matrix(0.7,0.0,0.0,-0.7,-240,576)"/>
 <path d="M1005.47,459.97 l11.64,6.65" fill="none" stroke="rgb(0,0,0)" stroke-linecap="round" stroke-width="30" transform="matrix(0.7,0.0,0.0,-0.7,-240,576)"/>
 <path d="M1017.11,466.63 l11.96,7.18" fill="none" stroke="rgb(0,0,0)" stroke-linecap="round" stroke-width="30" transform="matrix(0.7,0.0,0.0,-0.7,-240,576)"/>
 <path d="M1029.07,473.81 l12.28,7.72" fill="none" stroke="rgb(0,0,0)" stroke-linecap="round" stroke-width="30" transform="matrix(0.7,0.0,0.0,-0.7,-240,576)"/>
 <path d="M1041.35,481.53 l12.59,8.27" fill="none" stroke="rgb(0,0,0)" stroke-linecap="round" stroke-width="30" transform="matrix(0.7,0.0,0.0,-0.7,-240,576)"/>
 <path d="M1053.94,489.8 l12.89,8.82" fill="none" stroke="rgb(0,0,0)" stroke-linecap="round" stroke-width="30" transform="matrix(0.7,0.0,0.0,-0.7,-240,576)"/>
 <path d="M1066.83,498.62 l13.17,9.38" fill="none" stroke="rgb(0,0,0)" stroke-linecap="round" stroke-width="30" transform="matrix(0.7,0.0,0.0,-0.7,-240,576)"/>
</svg>