<?xml version="1.0" encoding="UTF-8"?>
<svg height="336" version="1.1" width="1200" xmlns="http://www.w3.org/2000/svg" xmlns:xlink="http://www.w3.org/1999/xlink">
 <path d="M0,0 l1200,0 l0,336 l-1200,0 Z M0,0" fill="rgb(255,255,255)" transform="matrix(1,0,0,-1,0,336)"/>
 <path d="M896,598 l-26.14,4.54" fill="none" stroke="rgb(0,0,0)" stroke-linecap="round" stroke-width="30" transform="matrix(0.7,0.0,0.0,-0.7,0,580)"/>
 <path d="M869.86,602.54 l-24.84,3.78" fill="none" stroke="rgb(0,0,0)" stroke-linecap="round" stroke-width="30" transform="matrix(0.7,0.0,0.0,-0.7,0,580)"/>
 <path d="M845.02,606.32 l-23.59,3.07" fill="none" stroke="rgb(0,0,0)" stroke-linecap="round" stroke-width="30" transform="matrix(0.7,0.0,0.0,-0.7,0,580)"/>
 <path d="M821.43,609.39 l-22.39,2.38" fill="none" stroke="rgb(0,0,0)" stroke-linecap="round" stroke-width="30" transform="matrix(0.7,0.0,0.0,-0.7,0,580)"/>
 <path d="M799.04,611.77 l-21.24,1.73" fill="none" stroke="rgb(0,0,0)" stroke-linecap="round" stroke-width="30" transform="matrix(0.7,0.0,0.0,-0.7,0,580)"/>
 <path d="M777.81,613.5 l-20.14,1.12" fill="none" stroke="rgb(0,0,0)" stroke-linecap="round" stroke-width="30" transform="matrix(0.7,0.0,0.0,-0.7,0,580)"/>
 <path d="M757.67,614.62 l-19.08,0.53" fill="none" stroke="rgb(0,0,0)" stroke-linecap="round" stroke-width="30" transform="matrix(0.7,0.0,0.0,-0.7,0,580)"/>
 <path d="M738.59,615.15 l-18.07,-0.02" fill="none" stroke="rgb(0,0,0)" stroke-linecap="round" stroke-width="30" transform="matrix(0.7,0.0,0.0,-0.7,0,580)"/>
 <path d="M720.52,615.14 l-17.11,-0.54" fill="none" stroke="rgb(0,0,0)" stroke-linecap="round" stroke-width="30" transform="matrix(0.7,0.0,0.0,-0.7,0,580)"/>
 <path d="M703.41,614.6 l-16.18,-1.03" fill="none" stroke="rgb(0,0,0)" stroke-linecap="round" stroke-width="30" transform="matrix(0.7,0.0,0.0,-0.7,0,580)"/>
 <path d="M687.23,613.57 l-15.29,-1.49" fill="none" stroke="rgb(0,0,0)" stroke-linecap="round" stroke-width="30" transform="matrix(0.7,0.0,0.0,-0.7,0,580)"/>
 <path d="M671.94,612.09 l-14.45,-1.92" fill="none" stroke="rgb(0,0,0)" stroke-linecap="round" stroke-width="30" transform="matrix(0.7,0.0,0.0,-0.7,0,580)"/>
 <path d="M657.49,610.17 l-13.64,-2.32" fill="none" stroke="rgb(0,0,0)" stroke-linecap="round" stroke-width="30" transform="matrix(0.7,0.0,0.0,-0.7,0,580)"/>
 <path d="M643.85,607.86 l-12.86,-2.69" fill="none" stroke="rgb(0,0,0)" stroke-linecap="round" stroke-width="30" transform="matrix(0.7,0.0,0.0,-0.7,0,580)"/>
 <path d="M630.99,605.17 l-12.12,-3.03" fill="none" stroke="rgb(0,0,0)" stroke-linecap="round" stroke-width="30" transform="matrix(0.7,0.0,0.0,-0.7,0,580)"/>
 <path d="M618.87,602.13 l-11.41,-3.35" fill="none" stroke="rgb(0,0,0)" stroke-linecap="round" stroke-width="30" transform="matrix(0.7,0.0,0.0,-0.7,0,580)"/>
 <path d="M607.46,598.78 l-10.73,-3.65" fill="none" stroke="rgb(0,0,0)" stroke-linecap="round" stroke-width="30" transform="matrix(0.7,0.0,0.0,-0.7,0,580)"/>
 <path d="M596.73,595.13 l-10.09,-3.91" fill="none" stroke="rgb(0,0,0)" stroke-linecap="round" stroke-width="30" transform="matrix(0.7,0.0,0.0,-0.7,0,580)"/>
 <path d="M586.64,591.22 l-9.47,-4.16" fill="none" stroke="rgb(0,0,0)" stroke-linecap="round" stroke-width="30" transform="matrix(0.7,0.0,0.0,-0.7,0,580)"/>
 <path d="M577.17,587.06 l-8.87,-4.38" fill="none" stroke="rgb(0,0,0)" stroke-linecap="round" stroke-width="30" transform="matrix(0.7,0.0,0.0,-0.7,0,580)"/>
 <path d="M568.3,582.69 l-8.31,-4.57" fill="none" stroke="rgb(0,0,0)" stroke-linecap="round" stroke-width="30" transform="matrix(0.7,0.0,0.0,-0.7,0,580)"/>
 <path d="M559.99,578.12 l-7.77,-4.75" fill="none" stroke="rgb(0,0,0)" stroke-linecap="round" stroke-width="30" transform="matrix(0.7,0.0,0.0,-0.7,0,580)"/>
 <path d="M552.23,573.37 l-7.25,-4.9" fill="none" stroke="rgb(0,0,0)" stroke-linecap="round" stroke-width="30" transform="matrix(0.7,0.0,0.0,-0.7,0,580)"/>
 <path d="M544.98,568.47 l-6.76,-5.03" fill="none" stroke="rgb(0,0,0)" stroke-linecap="round" stroke-width="30" transform="matrix(0.7,0.0,0.0,-0.7,0,580)"/>
 <path d="M538.22,563.45 l-6.28,-5.14" fill="none" stroke="rgb(0,0,0)" stroke-linecap="round" stroke-width="30" transform="matrix(0.7,0.0,0.0,-0.7,0,580)"/>
 <path d="M531.94,558.31 l-5.83,-5.23" fill="none" stroke="rgb(0,0,0)" stroke-linecap="round" stroke-width="30" transform="matrix(0.7,0.0,0.0,-0.7,0,580)"/>
 <path d="M526.11,553.08 l-5.4,-5.3" fill="none" stroke="rgb(0,0,0)" stroke-linecap="round" stroke-width="30" transform="matrix(0.7,0.0,0.0,-0.7,0,580)"/>
 <path d="M520.71,547.79 l-4.99,-5.35" fill="none" stroke="rgb(0,0,0)" stroke-linecap="round" stroke-width="30" transform="matrix(0.7,0.0,0.0,-0.7,0,580)"/>
 <path d="M515.72,542.44 l-4.59,-5.38" fill="none" stroke="rgb(0,0,0)" stroke-linecap="round" stroke-width="30" transform="matrix(0.7,0.0,0.0,-0.7,0,580)"/>
 <path d="M511.13,537.06 l-4.22,-5.4" fill="none" stroke="rgb(0,0,0)" stroke-linecap="round" stroke-width="30" transform="matrix(0.7,0.0,0.0,-0.7,0,580)"/>
 <path d="M506.91,531.66 l-3.85,-5.4" fill="none" stroke="rgb(0,0,0)" stroke-linecap="round" stroke-width="30" transform="matrix(0.7,0.0,0.0,-0.7,0,580)"/>
 <path d="M503.06,526.26 l-3.51,-5.38" fill="none" stroke="rgb(0,0,0)" stroke-linecap="round" stroke-width="30" transform="matrix(0.7,0.0,0.0,-0.7,0,580)"/>
 <path d="M499.55,520.87 l-3.18,-5.35" fill="none" stroke="rgb(0,0,0)" stroke-linecap="round" stroke-width="30" transform="matrix(0.7,0.0,0.0,-0.7,0,580)"/>
 <path d="M496.37,515.52 l-2.86,-5.31" fill="none" stroke="rgb(0,0,0)" stroke-linecap="round" stroke-width="30" transform="matrix(0.7,0.0,0.0,-0.7,0,580)"/>
 <path d="M493.51,510.21 l-2.56,-5.25" fill="none" stroke="rgb(0,0,0)" stroke-linecap="round" stroke-width="30" transform="matrix(0.7,0.0,0.0,-0.7,0,580)"/>
 <path d="M490.95,504.97 l-2.27,-5.17" fill="none" stroke="rgb(0,0,0)" stroke-linecap="round" stroke-width="30" transform="matrix(0.7,0.0,0.0,-0.7,0,580)"/>
 <path d="M488.67,499.79 l-1.99,-5.09" fill="none" stroke="rgb(0,0,0)" stroke-linecap="round" stroke-width="30" transform="matrix(0.7,0.0,0.0,-0.7,0,580)"/>
 <path d="M486.68,494.71 l-1.73,-4.99" fill="none" stroke="rgb(0,0,0)" stroke-linecap="round" stroke-width="30" transform="matrix(0.7,0.0,0.0,-0.7,0,580)"/>
 <path d="M484.96,489.72 l-1.47,-4.88" fill="none" stroke="rgb(0,0,0)" stroke-linecap="round" stroke-width="30" transform="matrix(0.7,0.0,0.0,-0.7,0,580)"/>
 <path d="M483.49,484.84 l-1.23,-4.75" fill="none" stroke="rgb(0,0,0)" stroke-linecap="round" stroke-width="30" transform="matrix(0.7,0.0,0.0,-0.7,0,580)"/>
 <path d="M482.26,480.09 l-0.99,-4.62" fill="none" stroke="rgb(0,0,0)" stroke-linecap="round" stroke-width="30" transform="matrix(0.7,0.0,0.0,-0.7,0,580)"/>
 <path d="M481.27,475.47 l-0.77,-4.48" fill="none" stroke="rgb(0,0,0)" stroke-linecap="round" stroke-width="30" transform="matrix(0.7,0.0,0.0,-0.7,0,580)"/>
 <path d="M480.5,470.99 l-0.55,-4.33" fill="none" stroke="rgb(0,0,0)" stroke-linecap="round" stroke-width="30" transform="matrix(0.7,0.0,0.0,-0.7,0,580)"/>
 <path d="M479.95,466.66 l-0.34,-4.17" fill="none" stroke="rgb(0,0,0)" stroke-linecap="round" stroke-width="30" transform="matrix(0.7,0.0,0.0,-0.7,0,580)"/>
 <path d="M479.61,462.49 l-0.14,-4.0" fill="none" stroke="rgb(0,0,0)" stroke-linecap="round" stroke-width="30" transform="matrix(0.7,0.0,0.0,-0.7,0,580)"/>
 <path d="M479.48,458.49 l0.05,-3.82" fill="none" stroke="rgb(0,0,0)" stroke-linecap="round" stroke-width="30" transform="matrix(0.7,0.0,0.0,-0.7,0,580)"/>
 <path d="M479.53,454.67 l0.24,-3.64" fill="none" stroke="rgb(0,0,0)" stroke-linecap="round" stroke-width="30" transform="matrix(0.7,0.0,0.0,-0.7,0,580)"/>
 <path d="M479.77,451.04 l0.42,-3.45" fill="none" stroke="rgb(0,0,0)" stroke-linecap="round" stroke-width="30" transform="matrix(0.7,0.0,0.0,-0.7,0,580)"/>
 <path d="M480.19,447.59 l0.59,-3.25" fill="none" stroke="rgb(0,0,0)" stroke-linecap="round" stroke-width="30" transform="matrix(0.7,0.0,0.0,-0.7,0,580)"/>
 <path d="M480.78,444.34 l0.76,-3.05" fill="none" stroke="rgb(0,0,0)" stroke-linecap="round" stroke-width="30" transform="matrix(0.7,0.0,0.0,-0.7,0,580)"/>
 <path d="M481.54,441.3 l0.92,-2.84" fill="none" stroke="rgb(0,0,0)" stroke-linecap="round" stroke-width="30" transform="matrix(0.7,0.0,0.0,-0.7,0,580)"/>
 <path d="M482.46,438.46 l1.07,-2.62" fill="none" stroke="rgb(0,0,0)" stroke-linecap="round" stroke-width="30" transform="matrix(0.7,0.0,0.0,-0.7,0,580)"/>
 <path d="M483.53,435.84 l1.23,-2.41" fill="none" stroke="rgb(0,0,0)" stroke-linecap="round" stroke-width="30" transform="matrix(0.7,0.0,0.0,-0.7,0,580)"/>
 <path d="M484.76,433.43 l1.37,-2.19" fill="none" stroke="rgb(0,0,0)" stroke-linecap="round" stroke-width="30" transform="matrix(0.7,0.0,0.0,-0.7,0,580)"/>
 <path d="M486.13,431.24 l1.51,-1.96" fill="none" stroke="rgb(0,0,0)" stroke-linecap="round" stroke-width="30" transform="matrix(0.7,0.0,0.0,-0.7,0,580)"/>
 <path d="M487.64,429.28 l1.65,-1.73" fill="none" stroke="rgb(0,0,0)" stroke-linecap="round" stroke-width="30" transform="matrix(0.7,0.0,0.0,-0.7,0,580)"/>
 <path d="M489.29,427.55 l1.78,-1.5" fill="none" stroke="rgb(0,0,0)" stroke-linecap="round" stroke-width="30" transform="matrix(0.7,0.0,0.0,-0.7,0,580)"/>
 <path d="M491.07,426.04 l1.91,-1.27" fill="none" stroke="rgb(0,0,0)" stroke-linecap="round" stroke-width="30" transform="matrix(0.7,0.0,0.0,-0.7,0,580)"/>
 <path d="M492.98,424.77 l2.03,-1.04" fill="none" stroke="rgb(0,0,0)" stroke-linecap="round" stroke-width="30" transform="matrix(0.7,0.0,0.0,-0.7,0,580)"/>
 <path d="M495.01,423.73 l2.15,-0.81" fill="none" stroke="rgb(0,0,0)" stroke-linecap="round" stroke-width="30" transform="matrix(0.7,0.0,0.0,-0.7,0,580)"/>
 <path d="M497.16,422.92 l2.27,-0.57" fill="none" stroke="rgb(0,0,0)" stroke-linecap="round" stroke-width="30" transform="matrix(0.7,0.0,0.0,-0.7,0,580)"/>
 <path d="M499.43,422.35 l2.38,-0.34" fill="none" stroke="rgb(0,0,0)" stroke-linecap="round" stroke-width="30" transform="matrix(0.7,0.0,0.0,-0.7,0,580)"/>
 <path d="M501.82,422.02 l2.5,-0.1" fill="none" stroke="rgb(0,0,0)" stroke-linecap="round" stroke-width="30" transform="matrix(0.7,0.0,0.0,-0.7,0,580)"/>
 <path d="M504.31,421.92 l2.6,0.14" fill="none" stroke="rgb(0,0,0)" stroke-linecap="round" stroke-width="30" transform="matrix(0.7,0.0,0.0,-0.7,0,580)"/>
 <path d="M506.92,422.05 l2.71,0.37" fill="none" stroke="rgb(0,0,0)" stroke-linecap="round" stroke-width="30" transform="matrix(0.7,0.0,0.0,-0.7,0,580)"/>
 <path d="M509.62,422.42 l2.81,0.6" fill="none" stroke="rgb(0,0,0)" stroke-linecap="round" stroke-width="30" transform="matrix(0.7,0.0,0.0,-0.7,0,580)"/>
 <path d="M512.43,423.02 l2.91,0.83" fill="none" stroke="rgb(0,0,0)" stroke-linecap="round" stroke-width="30" transform="matrix(0.7,0.0,0.0,-0.7,0,580)"/>
 <path d="M515.34,423.86 l3.0,1.06" fill="none" stroke="rgb(0,0,0)" stroke-linecap="round" stroke-width="30" transform="matrix(0.7,0.0,0.0,-0.7,0,580)"/>
 <path d="M518.35,424.92 l3.1,1.29" fill="none" stroke="rgb(0,0,0)" stroke-linecap="round" stroke-width="30" transform="matrix(0.7,0.0,0.0,-0.7,0,580)"/>
 <path d="M521.44,426.21 l3.19,1.52" fill="none" stroke="rgb(0,0,0)" stroke-linecap="round" stroke-width="30" transform="matrix(0.7,0.0,0.0,-0.7,0,580)"/>
 <path d="M524.63,427.73 l3.28,1.74" fill="none" stroke="rgb(0,0,0)" stroke-linecap="round" stroke-width="30" transform="matrix(0.7,0.0,0.0,-0.7,0,580)"/>
 <path d="M527.91,429.47 l3.36,1.96" fill="none" stroke="rgb(0,0,0)" stroke-linecap="round" stroke-width="30" transform="matrix(0.7,0.0,0.0,-0.7,0,580)"/>
 <path d="M531.28,431.42 l3.45,2.17" fill="none" stroke="rgb(0,0,0)" stroke-linecap="round" stroke-width="30" transform="matrix(0.7,0.0,0.0,-0.7,0,580)"/>
 <path d="M534.72,433.6 l3.53,2.38" fill="none" stroke="rgb(0,0,0)" stroke-linecap="round" stroke-width="30" transform="matrix(0.7,0.0,0.0,-0.7,0,580)"/>
 <path d="M538.25,435.98 l3.61,2.59" fill="none" stroke="rgb(0,0,0)" stroke-linecap="round" stroke-width="30" transform="matrix(0.7,0.0,0.0,-0.7,0,580)"/>
 <path d="M541.86,438.57 l3.68,2.8" fill="none" stroke="rgb(0,0,0)" stroke-linecap="round" stroke-width="30" transform="matrix(0.7,0.0,0.0,-0.7,0,580)"/>
 <path d="M545.54,441.37 l3.76,3.0" fill="none" stroke="rgb(0,0,0)" stroke-linecap="round" stroke-width="30" transform="matrix(0.7,0.0,0.0,-0.7,0,580)"/>
 <path d="M549.3,444.36 l3.83,3.19" fill="none" stroke="rgb(0,0,0)" stroke-linecap="round" stroke-width="30" transform="matrix(0.7,0.0,0.0,-0.7,0,580)"/>
 <path d="M553.13,447.55 l3.9,3.38" fill="none" stroke="rgb(0,0,0)" stroke-linecap="round" stroke-width="30" transform="matrix(0.7,0.0,0.0,-0.7,0,580)"/>
 <path d="M557.03,450.93 l3.96,3.56" fill="none" stroke="rgb(0,0,0)" stroke-linecap="round" stroke-width="30" transform="matrix(0.7,0.0,0.0,-0.7,0,580)"/>
 <path d="M560.99,454.5 l4.03,3.74" fill="none" stroke="rgb(0,0,0)" stroke-linecap="round" stroke-width="30" transform="matrix(0.7,0.0,0.0,-0.7,0,580)"/>
 <path d="M565.02,458.24 l4.09,3.92" fill="none" stroke="rgb(0,0,0)" stroke-linecap="round" stroke-width="30" transform="matrix(0.7,0.0,0.0,-0.7,0,580)"/>
 <path d="M569.11,462.16 l4.15,4.08" fill="none" stroke="rgb(0,0,0)" stroke-linecap="round" stroke-width="30" transform="matrix(0.7,0.0,0.0,-0.7,0,580)"/>
 <path d="M573.26,466.24 l4.21,4.25" fill="none" stroke="rgb(0,0,0)" stroke-linecap="round" stroke-width="30" transform="matrix(0.7,0.0,0.0,-0.7,0,580)"/>
 <path d="M577.47,470.48 l4.26,4.4" fill="none" stroke="rgb(0,0,0)" stroke-linecap="round" stroke-width="30" transform="matrix(0.7,0.0,0.0,-0.7,0,580)"/>
 <path d="M581.73,474.89 l4.31,4.55" fill="none" stroke="rgb(0,0,0)" stroke-linecap="round" stroke-width="30" transform="matrix(0.7,0.0,0.0,-0.7,0,580)"/>
 <path d="M586.04,479.44 l4.36,4.69" fill="none" stroke="rgb(0,0,0)" stroke-linecap="round" stroke-width="30" transform="matrix(0.7,0.0,0.0,-0.7,0,580)"/>
 <path d="M590.41,484.13 l4.41,4.83" fill="none" stroke="rgb(0,0,0)" stroke-linecap="round" stroke-width="30" transform="matrix(0.7,0.0,0.0,-0.7,0,580)"/>
 <path d="M594.81,488.96 l4.45,4.96" fill="none" stroke="rgb(0,0,0)" stroke-linecap="round" stroke-width="30" transform="matrix(0.7,0.0,0.0,-0.7,0,580)"/>
 <path d="M599.27,493.92 l4.49,5.08" fill="none" stroke="rgb(0,0,0)" stroke-linecap="round" stroke-width="30" transform="matrix(0.7,0.0,0.0,-0.7,0,580)"/>
 <path d="M603.76,499.0 l4.53,5.2" fill="none" stroke="rgb(0,0,0)" stroke-linecap="round" stroke-width="30" transform="matrix(0.7,0.0,0.0,-0.7,0,580)"/>
 <path d="M608.29,504.19 l4.57,5.3" fill="none" stroke="rgb(0,0,0)" stroke-linecap="round" stroke-width="30" transform="matrix(0.7,0.0,0.0,-0.7,0,580)"/>
 <path d="M612.86,509.5 l4.6,5.41" fill="none" stroke="rgb(0,0,0)" stroke-linecap="round" stroke-width="30" transform="matrix(0.7,0.0,0.0,-0.7,0,580)"/>
 <path d="M617.46,514.9 l4.63,5.5" fill="none" stroke="rgb(0,0,0)" stroke-linecap="round" stroke-width="30" transform="matrix(0.7,0.0,0.0,-0.7,0,580)"/>
 <path d="M622.09,520.4 l4.66,5.59" fill="none" stroke="rgb(0,0,0)" stroke-linecap="round" stroke-width="30" transform="matrix(0.7,0.0,0.0,-0.7,0,580)"/>
 <path d="M626.75,525.99 l4.68,5.66" fill="none" stroke="rgb(0,0,0)" stroke-linecap="round" stroke-width="30" transform="matrix(0.7,0.0,0.0,-0.7,0,580)"/>
 <path d="M631.43,531.65 l4.7,5.74" fill="none" stroke="rgb(0,0,0)" stroke-linecap="round" stroke-width="30" transform="matrix(0.7,0.0,0.0,-0.7,0,580)"/>
 <path d="M636.13,537.39 l4.72,5.8" fill="none" stroke="rgb(0,0,0)" stroke-linecap="round" stroke-width="30" transform="matrix(0.7,0.0,0.0,-0.7,0,580)"/>
 <path d="M640.85,543.19 l4.74,5.86" fill="none" stroke="rgb(0,0,0)" stroke-linecap="round" stroke-width="30" transform="matrix(0.7,0.0,0.0,-0.7,0,580)"/>
 <path d="M645.59,549.05 l4.75,5.91" fill="none" stroke="rgb(0,0,0)" stroke-linecap="round" stroke-width="30" transform="matrix(0.7,0.0,0.0,-0.7,0,580)"/>
 <path d="M650.33,554.95 l4.76,5.95" fill="none" stroke="rgb(0,0,0)" stroke-linecap="round" stroke-width="30" transform="matrix(0.7,0.0,0.0,-0.7,0,580)"/>
 <path d="M655.09,560.9 l4.76,5.98" fill="none" stroke="rgb(0,0,0)" stroke-linecap="round" stroke-width="30" transform="matrix(0.7,0.0,0.0,-0.7,0,580)"/>
 <path d="M659.85,566.88 l4.76,6.01" fill="none" stroke="rgb(0,0,0)" stroke-linecap="round" stroke-width="30" transform="matrix(0.7,0.0,0.0,-0.7,0,580)"/>
 <path d="M664.61,572.88 l4.76,6.02" fill="none" stroke="rgb(0,0,0)" stroke-linecap="round" stroke-width="30" transform="matrix(0.7,0.0,0.0,-0.7,0,580)"/>
 <path d="M669.37,578.91 l4.76,6.03" fill="none" stroke="rgb(0,0,0)" stroke-linecap="round" stroke-width="30" transform="matrix(0.7,0.0,0.0,-0.7,0,580)"/>
 <path d="M674.13,584.94 l4.75,6.04" fill="none" stroke="rgb(0,0,0)" stroke-linecap="round" stroke-width="30" transform="matrix(0.7,0.0,0.0,-0.7,0,580)"/>
 <path d="M678.88,590.97 l4.74,6.03" fill="none" stroke="rgb(0,0,0)" stroke-linecap="round" stroke-width="30" transform="matrix(0.7,0.0,0.0,-0.7,0,580)"/>
 <path d="M683.62,597.01 l4.72,6.02" fill="none" stroke="rgb(0,0,0)" stroke-linecap="round" stroke-width="30" transform="matrix(0.7,0.0,0.0,-0.7,0,580)"/>
 <path d="M688.34,603.02 l4.71,6.0" fill="none" stroke="rgb(0,0,0)" stroke-linecap="round" stroke-width="30" transform="matrix(0.7,0.0,0.0,-0.7,0,580)"/>
 <path d="M693.05,609.02 l4.68,5.97" fill="none" stroke="rgb(0,0,0)" stroke-linecap="round" stroke-width="30" transform="matrix(0.7,0.0,0.0,-0.7,0,580)"/>
 <path d="M697.73,614.99 l4.66,5.93" fill="none" stroke="rgb(0,0,0)" stroke-linecap="round" stroke-width="30" transform="matrix(0.7,0.0,0.0,-0.7,0,580)"/>
 <path d="M702.39,620.93 l4.63,5.89" fill="none" stroke="rgb(0,0,0)" stroke-linecap="round" stroke-width="30" transform="matrix(0.7,0.0,0.0,-0.7,0,580)"/>
 <path d="M707.02,626.82 l4.6,5.84" fill="none" stroke="rgb(0,0,0)" stroke-linecap="round" stroke-width="30" transform="matrix(0.7,0.0,0.0,-0.7,0,580)"/>
 <path d="M711.62,632.66 l4.56,5.78" fill="none" stroke="rgb(0,0,0)" stroke-linecap="round" stroke-width="30" transform="matrix(0.7,0.0,0.0,-0.7,0,580)"/>
 <path d="M716.19,638.44 l4.53,5.72" fill="none" stroke="rgb(0,0,0)" stroke-linecap="round" stroke-width="30" transform="matrix(0.7,0.0,0.0,-0.7,0,580)"/>
 <path d="M720.71,644.16 l4.48,5.65" fill="none" stroke="rgb(0,0,0)" stroke-linecap="round" stroke-width="30" transform="matrix(0.7,0.0,0.0,-0.7,0,580)"/>
 <path d="M725.2,649.81 l4.44,5.57" fill="none" stroke="rgb(0,0,0)" stroke-linecap="round" stroke-width="30" transform="matrix(0.7,0.0,0.0,-0.7,0,580)"/>
 <path d="M729.64,655.38 l4.39,5.48" fill="none" stroke="rgb(0,0,0)" stroke-linecap="round" stroke-width="30" transform="matrix(0.7,0.0,0.0,-0.7,0,580)"/>
 <path d="M734.03,660.86 l4.34,5.39" fill="none" stroke="rgb(0,0,0)" stroke-linecap="round" stroke-width="30" transform="matrix(0.7,0.0,0.0,-0.7,0,580)"/>
 <path d="M738.37,666.25 l4.28,5.29" fill="none" stroke="rgb(0,0,0)" stroke-linecap="round" stroke-width="30" transform="matrix(0.7,0.0,0.0,-0.7,0,580)"/>
 <path d="M742.65,671.54 l4.22,5.19" fill="none" stroke="rgb(0,0,0)" stroke-linecap="round" stroke-width="30" transform="matrix(0.7,0.0,0.0,-0.7,0,580)"/>
 <path d="M746.87,676.73 l4.16,5.07" fill="none" stroke="rgb(0,0,0)" stroke-linecap="round" stroke-width="30" transform="matrix(0.7,0.0,0.0,-0.7,0,580)"/>
 <path d="M751.03,681.8 l4.1,4.96" fill="none" stroke="rgb(0,0,0)" stroke-linecap="round" stroke-width="30" transform="matrix(0.7,0.0,0.0,-0.7,0,580)"/>
 <path d="M755.13,686.76 l4.03,4.83" fill="none" stroke="rgb(0,0,0)" stroke-linecap="round" stroke-width="30" transform="matrix(0.7,0.0,0.0,-0.7,0,580)"/>
 <path d="M759.16,691.59 l3.96,4.7" fill="none" stroke="rgb(0,0,0)" stroke-linecap="round" stroke-width="30" transform="matrix(0.7,0.0,0.0,-0.7,0,580)"/>
 <path d="M763.12,696.29 l3.88,4.56" fill="none" stroke="rgb(0,0,0)" stroke-linecap="round" stroke-width="30" transform="matrix(0.7,0.0,0.0,-0.7,0,580)"/>
 <path d="M767.0,700.85 l3.81,4.42" fill="none" stroke="rgb(0,0,0)" stroke-linecap="round" stroke-width="30" transform="matrix(0.7,0.0,0.0,-0.7,0,580)"/>
 <path d="M770.81,705.27 l3.72,4.27" fill="none" stroke="rgb(0,0,0)" stroke-linecap="round" stroke-width="30" transform="matrix(0.7,0.0,0.0,-0.7,0,580)"/>
 <path d="M774.53,709.55 l3.64,4.12" fill="none" stroke="rgb(0,0,0)" stroke-linecap="round" stroke-width="30" transform="matrix(0.7,0.0,0.0,-0.7,0,580)"/>
 <path d="M778.17,713.67 l3.56,3.96" fill="none" stroke="rgb(0,0,0)" stroke-linecap="round" stroke-width="30" transform="matrix(0.7,0.0,0.0,-0.7,0,580)"/>
 <path d="M781.73,717.63 l3.47,3.8" fill="none" stroke="rgb(0,0,0)" stroke-linecap="round" stroke-width="30" transform="matrix(0.7,0.0,0.0,-0.7,0,580)"/>
 <path d="M785.19,721.43 l3.38,3.63" fill="none" stroke="rgb(0,0,0)" stroke-linecap="round" stroke-width="30" transform="matrix(0.7,0.0,0.0,-0.7,0,580)"/>
 <path d="M788.57,725.06 l3.28,3.46" fill="none" stroke="rgb(0,0,0)" stroke-linecap="round" stroke-width="30" transform="matrix(0.7,0.0,0.0,-0.7,0,580)"/>
 <path d="M791.85,728.52 l3.19,3.28" fill="none" stroke="rgb(0,0,0)" stroke-linecap="round" stroke-width="30" transform="matrix(0.7,0.0,0.0,-0.7,0,580)"/>
 <path d="M795.04,731.8 l3.09,3.1" fill="none" stroke="rgb(0,0,0)" stroke-linecap="round" stroke-width="30" transform="matrix(0.7,0.0,0.0,-0.7,0,580)"/>
 <path d="M798.12,734.9 l2.99,2.91" fill="none" stroke="rgb(0,0,0)" stroke-linecap="round" stroke-width="30" transform="matrix(0.7,0.0,0.0,-0.7,0,580)"/>
 <path d="M801.11,737.81 l2.88,2.73" fill="none" stroke="rgb(0,0,0)" stroke-linecap="round" stroke-width="30" transform="matrix(0.7,0.0,0.0,-0.7,0,580)"/>
 <path d="M804.0,740.54 l2.78,2.53" fill="none" stroke="rgb(0,0,0)" stroke-linecap="round" stroke-width="30" transform="matrix(0.7,0.0,0.0,-0.7,0,580)"/>
 <path d="M806.77,743.07 l2.67,2.34" fill="none" stroke="rgb(0,0,0)" stroke-linecap="round" stroke-width="30" transform="matrix(0.7,0.0,0.0,-0.7,0,580)"/>
 <path d="M809.45,745.41 l2.57,2.14" fill="none" stroke="rgb(0,0,0)" stroke-linecap="round" stroke-width="30" transform="matrix(0.7,0.0,0.0,-0.7,0,580)"/>
 <path d="M812.01,747.54 l2.46,1.93" fill="none" stroke="rgb(0,0,0)" stroke-linecap="round" stroke-width="30" transform="matrix(0.7,0.0,0.0,-0.7,0,580)"/>
 <path d="M814.47,749.48 l2.35,1.73" fill="none" stroke="rgb(0,0,0)" stroke-linecap="round" stroke-width="30" transform="matrix(0.7,0.0,0.0,-0.7,0,580)"/>
 <path d="M816.82,751.21 l2.23,1.52" fill="none" stroke="rgb(0,0,0)" stroke-linecap="round" stroke-width="30" transform="matrix(0.7,0.0,0.0,-0.7,0,580)"/>
 <path d="M819.05,752.73 l2.12,1.31" fill="none" stroke="rgb(0,0,0)" stroke-linecap="round" stroke-width="30" transform="matrix(0.7,0.0,0.0,-0.7,0,580)"/>
 <path d="M821.17,754.04 l2.01,1.1" fill="none" stroke="rgb(0,0,0)" stroke-linecap="round" stroke-width="30" transform="matrix(0.7,0.0,0.0,-0.7,0,580)"/>
 <path d="M823.18,755.14 l1.89,0.89" fill="none" stroke="rgb(0,0,0)" stroke-linecap="round" stroke-width="30" transform="matrix(0.7,0.0,0.0,-0.7,0,580)"/>
 <path d="M825.07,756.03 l1.78,0.67" fill="none" stroke="rgb(0,0,0)" stroke-linecap="round" stroke-width="30" transform="matrix(0.7,0.0,0.0,-0.7,0,580)"/>
 <path d="M826.85,756.7 l1.66,0.45" fill="none" stroke="rgb(0,0,0)" stroke-linecap="round" stroke-width="30" transform="matrix(0.7,0.0,0.0,-0.7,0,580)"/>
 <path d="M828.51,757.15 l1.55,0.24" fill="none" stroke="rgb(0,0,0)" stroke-linecap="round" stroke-width="30" transform="matrix(0.7,0.0,0.0,-0.7,0,580)"/>
 <path d="M830.06,757.39 l1.43,0.02" fill="none" stroke="rgb(0,0,0)" stroke-linecap="round" stroke-width="30" transform="matrix(0.7,0.0,0.0,-0.7,0,580)"/>
 <path d="M831.49,757.41 l1.32,-0.2" fill="none" stroke="rgb(0,0,0)" stroke-linecap="round" stroke-width="30" transform="matrix(0.7,0.0,0.0,-0.7,0,580)"/>
 <path d="M832.81,757.21 l1.2,-0.42" fill="none" stroke="rgb(0,0,0)" stroke-linecap="round" stroke-width="30" transform="matrix(0.7,0.0,0.0,-0.7,0,580)"/>
 <path d="M834.01,756.79 l1.09,-0.64" fill="none" stroke="rgb(0,0,0)" stroke-linecap="round" stroke-width="30" transform="matrix(0.7,0.0,0.0,-0.7,0,580)"/>
 <path d="M835.1,756.15 l0.98,-0.86" fill="none" stroke="rgb(0,0,0)" stroke-linecap="round" stroke-width="30" transform="matrix(0.7,0.0,0.0,-0.7,0,580)"/>
 <path d="M836.08,755.29 l0.87,-1.08" fill="none" stroke="rgb(0,0,0)" stroke-linecap="round" stroke-width="30" transform="matrix(0.7,0.0,0.0,-0.7,0,580)"/>
 <path d="M836.94,754.21 l0.75,-1.29" fill="none" stroke="rgb(0,0,0)" stroke-linecap="round" stroke-width="30" transform="matrix(0.7,0.0,0.0,-0.7,0,580)"/>
 <path d="M837.7,752.92 l0.65,-1.51" fill="none" stroke="rgb(0,0,0)" stroke-linecap="round" stroke-width="30" transform="matrix(0.7,0.0,0.0,-0.7,0,580)"/>
 <path d="M838.34,751.41 l0.54,-1.73" fill="none" stroke="rgb(0,0,0)" stroke-linecap="round" stroke-width="30" transform="matrix(0.7,0.0,0.0,-0.7,0,580)"/>
 <path d="M838.88,749.68 l0.43,-1.94" fill="none" stroke="rgb(0,0,0)" stroke-linecap="round" stroke-width="30" transform="matrix(0.7,0.0,0.0,-0.7,0,580)"/>
 <path d="M839.32,747.74 l0.33,-2.16" fill="none" stroke="rgb(0,0,0)" stroke-linecap="round" stroke-width="30" transform="matrix(0.7,0.0,0.0,-0.7,0,580)"/>
 <path d="M839.65,745.58 l0.23,-2.37" fill="none" stroke="rgb(0,0,0)" stroke-linecap="round" stroke-width="30" transform="matrix(0.7,0.0,0.0,-0.7,0,580)"/>
 <path d="M839.88,743.22 l0.14,-2.57" fill="none" stroke="rgb(0,0,0)" stroke-linecap="round" stroke-width="30" transform="matrix(0.7,0.0,0.0,-0.7,0,580)"/>
 <path d="M840.02,740.64 l0.04,-2.78" fill="none" stroke="rgb(0,0,0)" stroke-linecap="round" stroke-width="30" transform="matrix(0.7,0.0,0.0,-0.7,0,580)"/>
 <path d="M840.06,737.86 l-0.05,-2.98" fill="none" stroke="rgb(0,0,0)" stroke-linecap="round" stroke-width="30" transform="matrix(0.7,0.0,0.0,-0.7,0,580)"/>
 <path d="M840.01,734.88 l-0.14,-3.18" fill="none" stroke="rgb(0,0,0)" stroke-linecap="round" stroke-width="30" transform="matrix(0.7,0.0,0.0,-0.7,0,580)"/>
 <path d="M839.88,731.69 l-0.22,-3.38" fill="none" stroke="rgb(0,0,0)" stroke-linecap="round" stroke-width="30" transform="matrix(0.7,0.0,0.0,-0.7,0,580)"/>
 <path d="M839.66,728.31 l-0.3,-3.57" fill="none" stroke="rgb(0,0,0)" stroke-linecap="round" stroke-width="30" transform="matrix(0.7,0.0,0.0,-0.7,0,580)"/>
 <path d="M839.36,724.74 l-0.37,-3.76" fill="none" stroke="rgb(0,0,0)" stroke-linecap="round" stroke-width="30" transform="matrix(0.7,0.0,0.0,-0.7,0,580)"/>
 <path d="M838.99,720.97 l-0.44,-3.95" fill="none" stroke="rgb(0,0,0)" stroke-linecap="round" stroke-width="30" transform="matrix(0.7,0.0,0.0,-0.7,0,580)"/>
 <path d="M838.55,717.03 l-0.51,-4.13" fill="none" stroke="rgb(0,0,0)" stroke-linecap="round" stroke-width="30" transform="matrix(0.7,0.0,0.0,-0.7,0,580)"/>
 <path d="M838.04,712.9 l-0.57,-4.31" fill="none" stroke="rgb(0,0,0)" stroke-linecap="round" stroke-width="30" transform="matrix(0.7,0.0,0.0,-0.7,0,580)"/>
 <path d="M837.47,708.59 l-0.62,-4.48" fill="none" stroke="rgb(0,0,0)" stroke-linecap="round" stroke-width="30" transform="matrix(0.7,0.0,0.0,-0.7,0,580)"/>
 <path d="M836.86,704.11 l-0.67,-4.65" fill="none" stroke="rgb(0,0,0)" stroke-linecap="round" stroke-width="30" transform="matrix(0.7,0.0,0.0,-0.7,0,580)"/>
 <path d="M836.19,699.46 l-0.71,-4.81" fill="none" stroke="rgb(0,0,0)" stroke-linecap="round" stroke-width="30" transform="matrix(0.7,0.0,0.0,-0.7,0,580)"/>
 <path d="M835.48,694.66 l-0.75,-4.96" fill="none" stroke="rgb(0,0,0)" stroke-linecap="round" stroke-width="30" transform="matrix(0.7,0.0,0.0,-0.7,0,580)"/>
 <path d="M834.73,689.69 l-0.77,-5.11" fill="none" stroke="rgb(0,0,0)" stroke-linecap="round" stroke-width="30" transform="matrix(0.7,0.0,0.0,-0.7,0,580)"/>
 <path d="M833.96,684.58 l-0.8,-5.26" fill="none" stroke="rgb(0,0,0)" stroke-linecap="round" stroke-width="30" transform="matrix(0.7,0.0,0.0,-0.7,0,580)"/>
 <path d="M833.16,679.32 l-0.81,-5.4" fill="none" stroke="rgb(0,0,0)" stroke-linecap="round" stroke-width="30" transform="matrix(0.7,0.0,0.0,-0.7,0,580)"/>
 <path d="M832.35,673.93 l-0.82,-5.53" fill="none" stroke="rgb(0,0,0)" stroke-linecap="round" stroke-width="30" transform="matrix(0.7,0.0,0.0,-0.7,0,580)"/>
 <path d="M831.53,668.4 l-0.82,-5.65" fill="none" stroke="rgb(0,0,0)" stroke-linecap="round" stroke-width="30" transform="matrix(0.7,0.0,0.0,-0.7,0,580)"/>
 <path d="M830.72,662.75 l-0.81,-5.77" fill="none" stroke="rgb(0,0,0)" stroke-linecap="round" stroke-width="30" transform="matrix(0.7,0.0,0.0,-0.7,0,580)"/>
 <path d="M829.91,656.98 l-0.79,-5.88" fill="none" stroke="rgb(0,0,0)" stroke-linecap="round" stroke-width="30" transform="matrix(0.7,0.0,0.0,-0.7,0,580)"/>
 <path d="M829.12,651.1 l-0.76,-5.98" fill="none" stroke="rgb(0,0,0)" stroke-linecap="round" stroke-width="30" transform="matrix(0.7,0.0,0.0,-0.7,0,580)"/>
 <path d="M828.35,645.12 l-0.73,-6.08" fill="none" stroke="rgb(0,0,0)" stroke-linecap="round" stroke-width="30" transform="matrix(0.7,0.0,0.0,-0.7,0,580)"/>
 <path d="M827.62,639.04 l-0.69,-6.17" fill="none" stroke="rgb(0,0,0)" stroke-linecap="round" stroke-width="30" transform="matrix(0.7,0.0,0.0,-0.7,0,580)"/>
 <path d="M826.94,632.87 l-0.63,-6.24" fill="none" stroke="rgb(0,0,0)" stroke-linecap="round" stroke-width="30" transform="matrix(0.7,0.0,0.0,-0.7,0,580)"/>
 <path d="M826.31,626.63 l-0.57,-6.32" fill="none" stroke="rgb(0,0,0)" stroke-linecap="round" stroke-width="30" transform="matrix(0.7,0.0,0.0,-0.7,0,580)"/>
 <path d="M825.74,620.31 l-0.49,-6.38" fill="none" stroke="rgb(0,0,0)" stroke-linecap="round" stroke-width="30" transform="matrix(0.7,0.0,0.0,-0.7,0,580)"/>
 <path d="M825.24,613.93 l-0.41,-6.43" fill="none" stroke="rgb(0,0,0)" stroke-linecap="round" stroke-width="30" transform="matrix(0.7,0.0,0.0,-0.7,0,580)"/>
 <path d="M824.84,607.5 l-0.31,-6.48" fill="none" stroke="rgb(0,0,0)" stroke-linecap="round" stroke-width="30" transform="matrix(0.7,0.0,0.0,-0.7,0,580)"/>
 <path d="M824.52,601.02 l-0.21,-6.51" fill="none" stroke="rgb(0,0,0)" stroke-linecap="round" stroke-width="30" transform="matrix(0.7,0.0,0.0,-0.7,0,580)"/>
 <path d="M824.31,594.51 l-0.09,-6.54" fill="none" stroke="rgb(0,0,0)" stroke-linecap="round" stroke-width="30" transform="matrix(0.7,0.0,0.0,-0.7,0,580)"/>
 <path d="M824.22,587.97 l0.04,-6.56" fill="none" stroke="rgb(0,0,0)" stroke-linecap="round" stroke-width="30" transform="matrix(0.7,0.0,0.0,-0.7,0,580)"/>
 <path d="M824.26,581.42 l0.18,-6.56" fill="none" stroke="rgb(0,0,0)" stroke-linecap="round" stroke-width="30" transform="matrix(0.7,0.0,0.0,-0.7,0,580)"/>
 <path d="M824.44,574.85 l0.33,-6.56" fill="none" stroke="rgb(0,0,0)" stroke-linecap="round" stroke-width="30" transform="matrix(0.7,0.0,0.0,-0.7,0,580)"/>
 <path d="M824.77,568.29 l0.5,-6.55" fill="none" stroke="rgb(0,0,0)" stroke-linecap="round" stroke-width="30" transform="matrix(0.7,0.0,0.0,-0.7,0,580)"/>
 <path d="M825.27,561.75 l0.67,-6.53" fill="none" stroke="rgb(0,0,0)" stroke-linecap="round" stroke-width="30" transform="matrix(0.7,0.0,0.0,-0.7,0,580)"/>
 <path d="M825.94,555.22 l0.86,-6.49" fill="none" stroke="rgb(0,0,0)" stroke-linecap="round" stroke-width="30" transform="matrix(0.7,0.0,0.0,-0.7,0,580)"/>
 <path d="M826.81,548.73 l1.07,-6.45" fill="none" stroke="rgb(0,0,0)" stroke-linecap="round" stroke-width="30" transform="matrix(0.7,0.0,0.0,-0.7,0,580)"/>
 <path d="M827.88,542.28 l1.28,-6.39" fill="none" stroke="rgb(0,0,0)" stroke-linecap="round" stroke-width="30" transform="matrix(0.7,0.0,0.0,-0.7,0,580)"/>
 <path d="M829.16,535.89 l1.52,-6.33" fill="none" stroke="rgb(0,0,0)" stroke-linecap="round" stroke-width="30" transform="matrix(0.7,0.0,0.0,-0.7,0,580)"/>
 <path d="M830.68,529.56 l1.76,-6.25" fill="none" stroke="rgb(0,0,0)" stroke-linecap="round" stroke-width="30" transform="matrix(0.7,0.0,0.0,-0.7,0,580)"/>
 <path d="M832.43,523.31 l2.02,-6.16" fill="none" stroke="rgb(0,0,0)" stroke-linecap="round" stroke-width="30" transform="matrix(0.7,0.0,0.0,-0.7,0,580)"/>
 <path d="M834.45,517.14 l2.29,-6.07" fill="none" stroke="rgb(0,0,0)" stroke-linecap="round" stroke-width="30" transform="matrix(0.7,0.0,0.0,-0.7,0,580)"/>
 <path d="M836.74,511.08 l2.57,-5.96" fill="none" stroke="rgb(0,0,0)" stroke-linecap="round" stroke-width="30" transform="matrix(0.7,0.0,0.0,-0.7,0,580)"/>
 <path d="M839.31,505.12 l2.88,-5.83" fill="none" stroke="rgb(0,0,0)" stroke-linecap="round" stroke-width="30" transform="matrix(0.7,0.0,0.0,-0.7,0,580)"/>
 <path d="M842.19,499.28 l3.19,-5.7" fill="none" stroke="rgb(0,0,0)" stroke-linecap="round" stroke-width="30" transform="matrix(0.7,0.0,0.0,-0.7,0,580)"/>
 <path d="M845.38,493.58 l3.52,-5.56" fill="none" stroke="rgb(0,0,0)" stroke-linecap="round" stroke-width="30" transform="matrix(0.7,0.0,0.0,-0.7,0,580)"/>
 <path d="M848.9,488.03 l3.87,-5.4" fill="none" stroke="rgb(0,0,0)" stroke-linecap="round" stroke-width="30" transform="matrix(0.7,0.0,0.0,-0.7,0,580)"/>
 <path d="M852.77,482.63 l4.23,-5.23" fill="none" stroke="rgb(0,0,0)" stroke-linecap="round" stroke-width="30" transform="matrix(0.7,0.0,0.0,-0.7,0,580)"/>
 <path d="M856.99,477.4 l4.6,-5.05" fill="none" stroke="rgb(0,0,0)" stroke-linecap="round" stroke-width="30" transform="matrix(0.7,0.0,0.0,-0.7,0,580)"/>
 <path d="M861.6,472.34 l4.99,-4.86" fill="none" stroke="rgb(0,0,0)" stroke-linecap="round" stroke-width="30" transform="matrix(0.7,0.0,0.0,-0.7,0,580)"/>
 <path d="M866.59,467.49 l5.4,-4.65" fill="none" stroke="rgb(0,0,0)" stroke-linecap="round" stroke-width="30" transform="matrix(0.7,0.0,0.0,-0.7,0,580)"/>
 <path d="M871.99,462.83 l5.82,-4.44" fill="none" stroke="rgb(0,0,0)" stroke-linecap="round" stroke-width="30" transform="matrix(0.7,0.0,0.0,-0.7,0,580)"/>
 <path d="M877.81,458.4 l6.26,-4.21" fill="none" stroke="rgb(0,0,0)" stroke-linecap="round" stroke-width="30" transform="matrix(0.7,0.0,0.0,-0.7,0,580)"/>
 <path d="M884.07,454.19 l6.71,-3.97" fill="none" stroke="rgb(0,0,0)" stroke-linecap="round" stroke-width="30" transform="matrix(0.7,0.0,0.0,-0.7,0,580)"/>
 <path d="M890.79,450.22 l7.18,-3.71" fill="none" stroke="rgb(0,0,0)" stroke-linecap="round" stroke-width="30" transform="matrix(0.7,0.0,0.0,-0.7,0,580)"/>
 <path d="M897.97,446.51 l7.67,-3.44" fill="none" stroke="rgb(0,0,0)" stroke-linecap="round" stroke-width="30" transform="matrix(0.7,0.0,0.0,-0.7,0,580)"/>
 <path d="M905.64,443.07 l8.17,-3.16" fill="none" stroke="rgb(0,0,0)" stroke-linecap="round" stroke-width="30" transform="matrix(0.7,0.0,0.0,-0.7,0,580)"/>
 <path d="M913.81,439.91 l8.69,-2.87" fill="none" stroke="rgb(0,0,0)" stroke-linecap="round" stroke-width="30" transform="matrix(0.7,0.0,0.0,-0.7,0,580)"/>
 <path d="M922.49,437.03 l9.22,-2.57" fill="none" stroke="rgb(0,0,0)" stroke-linecap="round" stroke-width="30" transform="matrix(0.7,0.0,0.0,-0.7,0,580)"/>
 <path d="M931.71,434.46 l9.77,-2.25" fill="none" stroke="rgb(0,0,0)" stroke-linecap="round" stroke-width="30" transform="matrix(0.7,0.0,0.0,-0.7,0,580)"/>
 <path d="M941.48,432.21 l10.33,-1.92" fill="none" stroke="rgb(0,0,0)" stroke-linecap="round" stroke-width="30" transform="matrix(0.7,0.0,0.0,-0.7,0,580)"/>
 <path d="M951.81,430.29 l10.91,-1.58" fill="none" stroke="rgb(0,0,0)" stroke-linecap="round" stroke-width="30" transform="matrix(0.7,0.0,0.0,-0.7,0,580)"/>
 <path d="M962.72,428.71 l11.51,-1.23" fill="none" stroke="rgb(0,0,0)" stroke-linecap="round" stroke-width="30" transform="matrix(0.7,0.0,0.0,-0.7,0,580)"/>
 <path d="M974.23,427.48 l12.12,-0.86" fill="none" stroke="rgb(0,0,0)" stroke-linecap="round" stroke-width="30" transform="matrix(0.7,0.0,0.0,-0.7,0,580)"/>
 <path d="M986.36,426.62 l12.75,-0.48" fill="none" stroke="rgb(0,0,0)" stroke-linecap="round" stroke-width="30" transform="matrix(0.7,0.0,0.0,-0.7,0,580)"/>
 <path d="M999.11,426.14 l13.39,-0.09" fill="none" stroke="rgb(0,0,0)" stroke-linecap="round" stroke-width="30" transform="matrix(0.7,0.0,0.0,-0.7,0,580)"/>
 <path d="M1012.5,426.06 l14.05,0.32" fill="none" stroke="rgb(0,0,0)" stroke-linecap="round" stroke-width="30" transform="matrix(0.7,0.0,0.0,-0.7,0,580)"/>
 <path d="M1026.55,426.37 l14.72,0.74" fill="none" stroke="rgb(0,0,0)" stroke-linecap="round" stroke-width="30" transform="matrix(0.7,0.0,0.0,-0.7,0,580)"/>
 <path d="M1041.27,427.11 l15.41,1.16" fill="none" stroke="rgb(0,0,0)" stroke-linecap="round" stroke-width="30" transform="matrix(0.7,0.0,0.0,-0.7,0,580)"/>
 <path d="M1056.68,428.27 l16.12,1.61" fill="none" stroke="rgb(0,0,0)" stroke-linecap="round" stroke-width="30" transform="matrix(0.7,0.0,0.0,-0.7,0,580)"/>
 <path d="M1072.8,429.88 l16.83,2.06" fill="none" stroke="rgb(0,0,0)" stroke-linecap="round" stroke-width="30" transform="matrix(0.7,0.0,0.0,-0.7,0,580)"/>
 <path d="M1089.63,431.94 l17.56,2.53" fill="none" stroke="rgb(0,0,0)" stroke-linecap="round" stroke-width="30" transform="matrix(0.7,0.0,0.0,-0.7,0,580)"/>
 <path d="M1107.2,434.47 l18.31,3.01" fill="none" stroke="rgb(0,0,0)" stroke-linecap="round" stroke-width="30" transform="matrix(0.7,0.0,0.0,-0.7,0,580)"/>
 <path d="M1125.51,437.48 l19.07,3.5" fill="none" stroke="rgb(0,0,0)" stroke-linecap="round" stroke-width="30" transform="matrix(0.7,0.0,0.0,-0.7,0,580)"/>
 <path d="M1144.57,440.98 l19.84,4.0" fill="none" stroke="rgb(0,0,0)" stroke-linecap="round" stroke-width="30" transform="matrix(0.7,0.0,0.0,-0.7,0,580)"/>
 <path d="M1164.42,444.98 l20.63,4.52" fill="none" stroke="rgb(0,0,0)" stroke-linecap="round" stroke-width="30" transform="matrix(0.7,0.0,0.0,-0.7,0,580)"/>
 <path d="M1185.04,449.49 l21.43,5.04" fill="none" stroke="rgb(0,0,0)" stroke-linecap="round" stroke-width="30" transform="matrix(0.7,0.0,0.0,-0.7,0,580)"/>
 <path d="M1206.47,454.53 l22.24,5.58" fill="none" stroke="rgb(0,0,0)" stroke-linecap="round" stroke-width="30" transform="matrix(0.7,0.0,0.0,-0.7,0,580)"/>
 <path d="M1228.71,460.11 l23.06,6.13" fill="none" stroke="rgb(0,0,0)" stroke-linecap="round" stroke-width="30" transform="matrix(0.7,0.0,0.0,-0.7,0,580)"/>
 <path d="M1251.77,466.24 l23.89,6.69" fill="none" stroke="rgb(0,0,0)" stroke-linecap="round" stroke-width="30" transform="matrix(0.7,0.0,0.0,-0.7,0,580)"/>
 <path d="M1275.66,472.93 l24.74,7.26" fill="none" stroke="rgb(0,0,0)" stroke-linecap="round" stroke-width="30" transform="matrix(0.7,0.0,0.0,-0.7,0,580)"/>
 <path d="M1300.4,480.2 l25.59,7.85" fill="none" stroke="rgb(0,0,0)" stroke-linecap="round" stroke-width="30" transform="matrix(0.7,0.0,0.0,-0.7,0,580)"/>
 <path d="M1325.99,488.05 l26.46,8.44" fill="none" stroke="rgb(0,0,0)" stroke-linecap="round" stroke-width="30" transform="matrix(0.7,0.0,0.0,-0.7,0,580)"/>
 <path d="M1352.45,496.49 l27.33,9.05" fill="none" stroke="rgb(0,0,0)" stroke-linecap="round" stroke-width="30" transform="matrix(0.7,0.0,0.0,-0.7,0,580)"/>
 <path d="M1379.78,505.54 l28.21,9.66" fill="none" stroke="rgb(0,0,0)" stroke-linecap="round" stroke-width="30" transform="matrix(0.7,0.0,0.0,-0.7,0,580)"/>
 <path d="M1407.99,515.2 l29.1,10.29" fill="none" stroke="rgb(0,0,0)" stroke-linecap="round" stroke-width="30" transform="matrix(0.7,0.0,0.0,-0.7,0,580)"/>
 <path d="M1437.09,525.49 l30.0,10.93" fill="none" stroke="rgb(0,0,0)" stroke-linecap="round" stroke-width="30" transform="matrix(0.7,0.0,0.0,-0.7,0,580)"/>
 <path d="M1467.09,536.42 l30.91,11.58" fill="none" stroke="rgb(0,0,0)" stroke-linecap="round" stroke-width="30" transform="matrix(0.7,0.0,0.0,-0.7,0,580)"/>
</svg>