<svg xmlns="http://www.w3.org/2000/svg" viewBox="0 0 1200 431"><title>its-okay</title><path d="M469.71,64.92,437.19,47.81C426.07,64.92,422.65,80.32,422.65,106,362.76,342.12,308,378.06,284.05,378.06c-27.38,0-35.08-24.82-23.1-71l43.8-165.12h69.13V124.81H309.29L346.51-15.5H312.28l-38,140.31H194.26c20.21-69.94,34-109.28,50.1-155,28.73-14,46.06-30.89,56.8-51.14l-20.53-18C261.68-84.19,248.77-65,236-38.21,208.69-25.93,173.23-17.42,104.38-6.94-46.19,16.16-91.54,62.36-91.54,124.81c0,44.49,30,80.42,83,80.42,42.05,0,79.51-26.75,83.49-74.48,15.24,7.08,39.63,10.2,80.77,11-10.87,31.89-22.39,69.36-35.07,114.85C71,434.52,30.81,522.64-47,522.64c-53,0-96.68-38.5-96.68-115.5,0-75.28,29.95-119.77,59-119.77,19.67,0,29.94,18.82,29.94,68.44,0,19.68-4.28,44.49-9.41,62.46h35.93c6.85-18,11.12-38.5,11.12-64.17,0-44.49-23.1-75.29-66.73-75.29-49.62,0-94.11,64.17-94.11,143.73,0,78.72,49.62,118.93,113.79,118.93,105.23,0,169.4-84.7,219.88-275.49,13.18-50.28,24.12-90.52,33.64-124.06h80.33L225,307c-14.55,54.76-1.71,92.4,41.06,92.4,49.17,0,102.27-47.1,158.54-263.87C433.34,201.11,468,247.31,468,307.9c0,42.78-17.11,70.16-46.2,70.16-19.67,0-34.22-12-34.22-37.65,0-16.25,6-29.94,16.26-45.34H390.14c-7.7,17.11-11.12,32.51-11.12,46.2,0,38.5,21.39,58.17,52.19,58.17,44.48,0,71.86-29.08,71.86-86.41,0-65-59.89-125.76-59.89-177.1C443.18,109.41,453.45,87.17,469.71,64.92ZM75.21,118.74C74.28,97.51,65,75.1,48.77,58.08L30,68.34C35.53,91.44,47,110.08,62.41,122.9c0,1.43.05,2.91.05,4.48,0,34.22-29.09,65-65,65-35.08,0-61.6-24-61.6-68.44C-64.16,69.2-30.79,26.42,107,5.89c52.84-7.82,92.25-17.41,121.74-29.21-23.19,41.77-43.8,82.65-67.09,148.1C116.32,124.59,91.41,123.46,75.21,118.74Z"/><path d="M1504.93,32.41c-92.4,0-143.74,71.87-143.74,145.45,0,27.34,5.57,48.42,16.19,63.36-38.71,110-63.83,136.84-83.77,136.84-14.55,0-19.68-13.69-8.56-55.62l52.19-197.63H1303l-6.68,25.27c-49.72,185.57-77.92,228-95.13,228-12,0-14.55-12.84-5.14-47.92l53-201h-34.23l-8,29c-3.79-28.72-21.31-36.74-39.88-36.74-65,0-120.63,121.49-120.63,213-8.56,34.22-30.8,46.2-47.91,46.2-7.7,0-13.69-5.13-13.69-13.69,0-15.4,12-40.21,12-63.31,0-25.41-13.24-38.13-51.64-40.4C989,249.64,1031,211.8,1031,170.16c0-29.09-18-48.77-39.36-48.77-18.82,0-39.24,10.23-56.57,44.36L999.29-131H965.07L917.35,89.31c-19.8,74.73-56.89,122-100,149.38a664.32,664.32,0,0,0,4.79-78.8c0-151.43-51.33-242.12-144.58-242.12-77,0-143.74,84.7-143.74,196.77,0,64.23,22.56,114.21,59.54,145.76-26,54.35-44.14,113.4-44.14,162.24,0,81.28,34.22,118.93,88.12,118.93,83.63,0,151.88-128,175.71-272.57,35.57-21.55,65.88-55.19,87.44-102l-49.26,227.4h34.23l26.68-123.2h8.39c27.38,0,40.21,11.12,40.21,29.09,0,23.1-12.83,51.33-12.83,66.73,0,22.25,16.26,32.51,37.65,32.51,23.51,0,49.38-13.66,62.32-44.42,5,30.26,21.6,44.42,42.91,44.42,19.77,0,43-15.51,65.53-56.54-6.44,35.83,5.79,56.54,31.15,56.54,18.9,0,38.1-13.42,62.71-74.67-11.73,45.71,2.85,74.67,34.82,74.67,22.34,0,43-16.27,66.44-64.35-6.67,23.5-11.86,46.87-17.67,83.18q-1.21,7.05-2.67,13.82c-112.4,39.46-138.5,63.92-138.5,93.12,0,20.53,12,36.79,42.78,36.79,60.93,0,111.06-56.32,127.68-131.6q23-7.41,49.42-15.56C1557.12,370.36,1647,292.5,1647,180.42,1647,91.44,1592.19,32.41,1504.93,32.41ZM549.27,116.26c0-94.12,53.05-174.54,116.36-174.54C740.92-58.28,788,20.43,788,180.42c0,25.92-1.27,51.05-3.65,75.16a212.87,212.87,0,0,1-78.48,14.68c-33.41,0-63.44-6.86-88.06-20.69,11.85-28.95,26.5-56.61,43.57-80.27H647.66a552.36,552.36,0,0,0-44.2,71C569.7,215.09,549.27,173.9,549.27,116.26ZM646,522.64c-35.08,0-62.46-38.5-62.46-115.5,0-39.28,9.13-87.95,25.72-135,26.47,17.21,58.56,26.4,94.06,26.4a217.18,217.18,0,0,0,77.59-13.84C761.29,424.35,704.18,522.64,646,522.64ZM973.63,147.06c12.83,0,21.39,11.12,21.39,29.94,0,41.17-40.38,77.77-80.15,81.77l9.54-44.08C940.3,159.23,960.56,147.06,973.63,147.06Zm128.33,231c-11.12,0-18-12-18-47.06,0-83.84,48.77-188.22,91.55-188.22,17.61,0,29.22,14.23,15.24,73.48L1181.72,249C1151.09,349.28,1120.47,378.06,1102,378.06Zm135.18,173.67c-15.4,0-24.81-12-24.81-28.23,0-33.25,39.25-55.07,116.59-81.74C1312.53,508.25,1278.63,551.73,1237.14,551.73ZM1410,406.29q-24.12,7.47-44.9,14.3c.14-.78.28-1.55.41-2.32,7.7-42.78,13.69-66.74,22.25-95.83l18.21-59.27q14.08,5.37,32.26,5.37c50.48,0,96.68-36.78,96.68-97.53h-24.81c0,54.76-29.09,89-71.87,89-10.91,0-20.81-2-29.46-5.92l39.73-129.26h-34.22l-12.83,43c-6.87,22.36-13.37,42.46-19.54,60.51-6.72-12.65-10.41-29.15-10.41-49.57,0-73.58,49.62-133.47,133.47-133.47,71.86,0,113.79,59.89,113.79,136C1618.72,288.22,1548.56,363.51,1410,406.29Z"/></svg>