<svg xmlns="http://www.w3.org/2000/svg" viewBox="0 0 1200 800"><title>life</title><path d="M757.08,215.4c48.8,0,138.48-52.76,138.48-167.51,0-47.48-22.42-71.22-69.9-71.22-40.89,0-54.08,29-83.09,35.61C697.72,22.83,674,59.76,674,105.93,674,162.64,701.68,215.4,757.08,215.4Z"/><path d="M489.33,525.34c-15.82,0-26.37,9.24-26.37,25.06,0,29,39.56,38.25,39.56,63.31,0,26.38-22.42,43.53-68.58,43.53-64.86,0-134.43-38.63-210.12-79.36,48-63.75,86.57-137.83,112.44-215.21,104.18-68.78,175.5-180,175.5-292.36C511.76-23.33,472.19-84,403.6-84,336.34-84,321.83-40.48,273-20.69,187.3,13.6,160.92,45.25,150.37,199.57c-4.84,71.12-11.2,133.52-19.19,188.14q-8.82.46-17.74.47c-131.89,0-205.75-60.68-205.75-145.09,0-79.13,69.9-143.76,130.57-143.76,33,0,33,27.7,60.67,27.7,14.51,0,23.74-7.92,23.74-21.1C122.67,90.1,104.21,69,48.81,69c-92.32,0-189.92,64.62-189.92,174.09,0,110.79,96.28,188.61,254.55,188.61,3.57,0,7.13-.06,10.68-.16-5.73,32.34-12.15,61.59-19.3,88C54.52,498.94,1.67,484.46-54.06,484.46c-59.35,0-91,26.38-124,75.18-42.21,62-87,71.22-87,125.29s51.44,96.28,138.49,96.28c75.46,0,147.15-25.6,211.45-68.84,98.56,49.74,195.43,108.41,275.23,108.41,112.11,0,179.37-98.92,179.37-209.71C539.45,555.68,513.07,525.34,489.33,525.34ZM360.08,273.43c25.06-124,18.46-288.85,67.26-288.85,25.06,0,35.62,34.3,35.62,83.1,0,80.56-41,162.13-106.52,222.83Q358.36,282,360.08,273.43ZM-127.92,739c-55.4,0-88.37-19.78-88.37-51.44,0-29,33-43.52,87-43.52,48.87,0,100.43,16.32,152.4,39C-16.92,723.66-66.8,739-127.92,739Z"/><path d="M853.36,622.94c-15.83,0-14.51,30.34-43.53,30.34-18.46,0-30.33-18.47-30.33-43.53,0-54.07,67.26-162.22,67.26-245.32,0-43.52-29-76.49-84.41-76.49-95,0-213.66,143.76-213.66,175.41,0,10.56,5.27,17.15,15.82,17.15,21.11,0,26.38-34.29,55.4-34.29,17.14,0,26.38,14.51,26.38,35.61,0,73.86-64.63,151.68-64.63,222.9,0,47.48,29,89.68,92.32,89.68,84.41,0,192.57-101.55,192.57-156.95C866.55,629.54,862.59,622.94,853.36,622.94Z"/><path d="M1657.9,622.94c-22.42,0-34.29,46.17-98.92,46.17-50.5,0-87.85-26.3-102.57-83.63,136.47-40.5,206.77-116.82,206.77-192,0-50.12-30.34-105.51-130.58-105.51-143.76,0-257.19,153-257.19,295.44,0,2.45,0,4.89.1,7.32a414.35,414.35,0,0,1-77.91,7.18q-3.28,0-6.55-.14c-12.67-45.75-31.93-88.28-56.27-123.16.24-1,.47-2,.7-3.05,133.34-115.2,228.3-258.51,228.3-411.77,0-79.13-19.78-137.17-83.09-137.17-51.44,0-55.4,31.66-127.94,62-73.86,31.66-100.23,66-130.57,192.57-17.4,72.67-34.71,142-50.81,208.12-50.94,6.08-85,38.32-85,83.36,0,26,16.12,57,45.74,85.65C906.22,674.18,889,782.34,889,880.13c0,124,52.76,164.87,121.34,164.87,105.51,0,197.84-127.94,197.84-323.14a461.63,461.63,0,0,0-6.78-78.06,467.77,467.77,0,0,0,78.61-8.67c16.86,92,80.07,159.27,184,159.27,129.25,0,207.07-112.1,207.07-156.95C1671.09,629.54,1667.13,622.94,1657.9,622.94ZM1275.41,4.37c11.87,0,21.11,6.59,21.11,51.44,0,97.45-42.3,203.68-136.19,310,12.19-51,24.77-102.88,37.27-154.38C1237.16,49.21,1257,4.37,1275.41,4.37ZM1090.76,928.93c-18.46,0-25.06-13.18-25.06-50.11,0-55.82,13.36-141.47,33.87-242.84a430.13,430.13,0,0,0,50.61,6.79c4.35,22,6.53,47.28,6.53,79.09C1156.71,822.1,1122.42,928.93,1090.76,928.93Zm430-585.6c17.15,0,27.7,10.55,27.7,38.25,0,54.08-29.56,114.62-98.72,153.81-.13-3.71-.2-7.49-.2-11.37C1449.51,406.64,1487.76,343.33,1520.73,343.33Z"/></svg>