<svg xmlns="http://www.w3.org/2000/svg" viewBox="0 0 1200 1553"><title>paca</title><path d="M-47.45-34.74q33,0,57.92,12.83T49.15,11.53Q63,32.14,64.89,54.29H48.57Q46.62,36,34.77,18.72T1.92-9.47q-21-10.87-49.37-10.88-29.55,0-53.65,15t-38.29,44.31q-14.21,29.35-14.19,70.17t14.19,70.17q14.17,29.35,38.29,44.32t53.65,15q28.37,0,49.37-10.89t32.85-28.18q11.85-17.3,13.8-35.57H64.89q-1.95,22.16-15.74,42.76T10.47,240.11q-24.88,12.82-57.92,12.83-35,0-62.79-16.91T-154,186.66q-15.94-32.46-15.94-77.56T-154,31.55Q-138-.91-110.24-17.82T-47.45-34.74Z"/><path d="M233.61-30.85l109.63,279.9H326.91L219.62-25.41h11.66L124,249.05H107.66L217.28-30.85ZM304,162v13.61H145.75V162Z"/><path d="M421-30.85v279.9H405.43V-30.85Zm163.28,0v13.61H417.1V-30.85Zm-44.71,110V92.78H417.1V79.17Zm44.71,156.28v13.6H417.1v-13.6Z"/><path d="M662-30.85h12.83l110.8,146.17L896.42-30.85h12.83v279.9H893.7V-3.25L786,141.37h-.78L677.55-3.25v252.3H662Z"/><path d="M1025.87-30.85v279.9h-15.55V-30.85Zm74.25,0q34.61,0,55.59,15.94t21,46.65q0,28.38-22.16,44.71t-63.37,16.33l-1.94-11.28q52.86,0,81.25,21.77t28.38,61.81q0,43.15-26.63,63.56t-70.17,20.41h-84v-13.6h83.19q35,0,58.12-16.53t23.13-53.84q0-36.93-23.52-53.84t-57.73-16.91h-81.64V80.72h80.86q23.71,0,41.79-11.08t18.08-37.9q0-27.21-17.1-38.1T1100.9-17.24h-82.8V-30.85Z"/><path d="M57,303.15H69.83l110.8,146.17L291.42,303.15h12.83v279.9H288.7V330.75L181,475.37h-.78L72.55,330.75v252.3H57Z"/><path d="M420.87,303.15v279.9H405.32V303.15Zm74.25,0q34.61,0,55.59,15.94t21,46.65q0,28.38-22.16,44.71t-63.37,16.33l-1.94-11.28q52.86,0,81.25,21.77t28.38,61.81q0,43.16-26.63,63.56t-70.17,20.41h-84v-13.6h83.19q35,0,58.12-16.53t23.13-53.84q0-36.93-23.52-53.84t-57.73-16.91H414.65V414.72h80.86q23.72,0,41.79-11.08t18.08-37.9q0-27.21-17.1-38.1T495.9,316.76H413.1V303.15Z"/><path d="M694.94,303.15V470.32q0,34.2,10.88,57.34t29.74,34.4q18.86,11.28,43,11.27t43-11.27q18.85-11.26,29.74-34.4t10.89-57.34V303.15h15.55V465.26q0,57.54-25.08,89.61t-74.05,32.07q-49,0-74.06-32.07t-25.07-89.61V303.15Zm135.67-64.92L745.86,281l-6.22-12.82,84.75-42.77Z"/><path d="M994.27,303.15v279.9H978.72V303.15Zm60.64,0q35,0,60.07,10.89t38.68,32.65q13.6,21.78,13.6,53.65T1153.66,454Q1140,475.76,1115,486.64t-60.07,10.89H986.49V483.92h70q42.36,0,68.42-21.19t26-62.39q0-41.2-26-62.39t-68.42-21.19h-70V303.15Z"/><path d="M1324.32,303.15l109.62,279.9h-16.32l-107.3-274.46H1322L1214.69,583.05h-16.33L1308,303.15ZM1394.68,496v13.61H1236.46V496Z"/><path d="M94.94,637.15V804.32q0,34.2,10.88,57.34t29.74,34.4q18.85,11.28,43,11.27t42.95-11.27q18.85-11.26,29.74-34.4t10.89-57.34V637.15h15.55V799.26q0,57.54-25.08,89.61t-74,32.07q-49,0-74.06-32.07T79.39,799.26V637.15Zm135.67-64.92L145.86,615l-6.22-12.82,84.75-42.77Z"/><path d="M394.27,637.15v279.9H378.72V637.15Zm60.64,0q35,0,60.07,10.89t38.68,32.65q13.61,21.78,13.6,53.65T553.66,788Q540,809.76,515,820.64t-60.07,10.89H386.49V817.92h70q42.36,0,68.42-21.19t26.05-62.39q0-41.21-26.05-62.39t-68.42-21.19h-70V637.15Z"/><path d="M724.32,637.15l109.62,279.9H817.62L710.32,642.59H722L614.69,917.05H598.36L708,637.15ZM794.68,830v13.61H636.46V830Z"/><path d="M1001.1,633.26q33,0,57.92,12.83t38.69,33.44q13.79,20.61,15.74,42.76h-16.33q-1.95-18.27-13.8-35.57t-32.85-28.19q-21-10.87-49.37-10.88-29.55,0-53.65,15t-38.29,44.31Q895,736.29,895,777.1t14.19,70.17q14.19,29.36,38.29,44.32t53.65,15q28.38,0,49.37-10.89t32.85-28.18q11.85-17.29,13.8-35.57h16.33q-2,22.16-15.74,42.76T1059,908.11q-24.87,12.82-57.92,12.83-35,0-62.78-16.91t-43.74-49.37q-15.95-32.46-15.94-77.56t15.94-77.55q15.95-32.46,43.74-49.37T1001.1,633.26Z"/><path d="M1282.17,637.15l109.62,279.9h-16.32l-107.3-274.46h11.66L1172.54,917.05h-16.33l109.63-279.9ZM1352.53,830v13.61H1194.31V830Z"/><path d="M125.32,971.15l109.62,279.9H218.62L111.32,976.59H123L15.69,1251.05H-.64L109,971.15ZM195.68,1164v13.61H37.46V1164Z"/><path d="M402.1,967.26q33,0,57.92,12.83t38.69,33.44q13.79,20.61,15.74,42.76H498.12q-2-18.27-13.8-35.57t-32.85-28.19q-21-10.87-49.37-10.88-29.55,0-53.65,15t-38.29,44.31Q296,1070.28,296,1111.1t14.19,70.17q14.19,29.36,38.29,44.32t53.65,15q28.38,0,49.37-10.89t32.85-28.18q11.85-17.29,13.8-35.57h16.33q-2,22.15-15.74,42.76T460,1242.11q-24.87,12.83-57.92,12.83-35,0-62.78-16.91t-43.74-49.37q-15.94-32.46-15.94-77.56t15.94-77.55q15.94-32.46,43.74-49.37T402.1,967.26Z"/><path d="M683.17,971.15l109.62,279.9H776.47L669.17,976.59h11.66L573.54,1251.05H557.21l109.63-279.9ZM753.53,1164v13.61H595.31V1164Z"/><path d="M870.54,971.15v279.9H855V971.15Zm163.27,0v13.61H866.65V971.15Zm-44.7,110v13.61H866.65v-13.61Zm44.7,156.28v13.6H866.65v-13.6Z"/><path d="M1111.56,971.15h12.83l110.79,146.17L1346,971.15h12.82v279.9h-15.55V998.75l-107.68,144.62h-.78L1127.11,998.75v252.3h-15.55Z"/><path d="M83.17,1305.15l109.62,279.9H176.47L69.17,1310.59H80.83L-26.46,1585.05H-42.79l109.63-279.9ZM153.53,1498v13.61H-4.69V1498Z"/><path d="M270.54,1305.15v279.9H255v-279.9Zm163.27,0v13.61H266.65v-13.61Zm-44.7,110v13.61H266.65v-13.61Zm44.7,156.28v13.6H266.65v-13.6Z"/><path d="M511.56,1305.15h12.83l110.79,146.17L746,1305.15H758.8v279.9H743.25v-252.3L635.57,1477.37h-.78L527.11,1332.75v252.3H511.56Z"/><path d="M875.43,1305.15v279.9H859.88v-279.9Zm74.25,0q34.59,0,55.59,15.94t21,46.65q0,28.38-22.16,44.71t-63.36,16.33l-2-11.28q52.88,0,81.25,21.77t28.38,61.81q0,43.15-26.63,63.56t-70.17,20.41h-84v-13.6h83.19q35,0,58.12-16.53t23.13-53.84q0-36.93-23.52-53.84t-57.73-16.91H869.21v-13.61h80.86q23.7,0,41.79-11.08t18.07-37.9q0-27.21-17.1-38.1t-42.37-10.88H867.65v-13.61Z"/><path d="M1149.49,1305.15v167.17q0,34.2,10.89,57.34t29.74,34.4q18.84,11.28,43,11.27t43-11.27q18.85-11.26,29.74-34.4t10.88-57.34V1305.15h15.55v162.11q0,57.54-25.07,89.61t-74.06,32.07q-49,0-74-32.07t-25.08-89.61V1305.15Zm135.68-64.92L1200.42,1283l-6.22-12.82,84.74-42.77Z"/></svg>