<svg xmlns="http://www.w3.org/2000/svg" viewBox="0 0 1200 336"><title>Pacaembu</title><path d="M207.33,92q-11.61-5-27.81-5H144.24V216.6h7.2V177h28.08q16.2,0,27.81-5a38.65,38.65,0,0,0,17.91-15.12q6.3-10.08,6.3-24.84t-6.3-24.84A38.65,38.65,0,0,0,207.33,92Zm4.59,68.85q-12.06,9.81-31.68,9.81h-28.8V93.3h28.8q19.62,0,31.68,9.81T224,132Q224,151.08,211.92,160.89Z"/><path d="M294,121.2A43.67,43.67,0,0,0,275.19,125a30.85,30.85,0,0,0-12.51,10.26,31.38,31.38,0,0,0-5.4,14.76h7.56a26.9,26.9,0,0,1,9.27-16.11q7.29-6,20.25-6,14,0,21.87,8.28t7.83,22.21l-36,5.51q-18.54,2.88-26.73,10.17t-8.19,18.81a23,23,0,0,0,8.46,18.45q8.46,7.11,22.5,7.11a45.34,45.34,0,0,0,21.78-5.31,41.11,41.11,0,0,0,15.48-14,36.14,36.14,0,0,0,2.7-5V216.6h7.2v-58q0-17.46-9.63-27.45T294,121.2ZM318.48,191a40.24,40.24,0,0,1-14.76,15.3,38.06,38.06,0,0,1-19.62,5.4q-10.44,0-16.83-5.31a16.88,16.88,0,0,1-6.39-13.59,17.58,17.58,0,0,1,6.57-14.13q6.57-5.49,22.41-8l34.2-5.47v3.13A45.39,45.39,0,0,1,318.48,191Z"/><path d="M385.71,133.08a36.61,36.61,0,0,1,34.29-1.8,33.23,33.23,0,0,1,11.79,9.09,23.32,23.32,0,0,1,5.31,12.33H445a32.64,32.64,0,0,0-6.57-15.57,39.08,39.08,0,0,0-14.31-11.61,43.59,43.59,0,0,0-19.44-4.32,45.55,45.55,0,0,0-23.13,5.85,40.16,40.16,0,0,0-15.84,16.83q-5.67,11-5.67,25.92t5.67,25.92a40.16,40.16,0,0,0,15.84,16.83,45.55,45.55,0,0,0,23.13,5.85,43.59,43.59,0,0,0,19.44-4.32,39.08,39.08,0,0,0,14.31-11.61A32.64,32.64,0,0,0,445,186.9H437.1a23.32,23.32,0,0,1-5.31,12.33A33.23,33.23,0,0,1,420,208.32a36.61,36.61,0,0,1-34.29-1.8,35.79,35.79,0,0,1-13.14-14.76,48.47,48.47,0,0,1-4.77-22,48.47,48.47,0,0,1,4.77-22A35.79,35.79,0,0,1,385.71,133.08Z"/><path d="M510.18,121.2A43.67,43.67,0,0,0,491.37,125a30.85,30.85,0,0,0-12.51,10.26,31.38,31.38,0,0,0-5.4,14.76H481a26.9,26.9,0,0,1,9.27-16.11q7.29-6,20.25-6,14,0,21.87,8.28t7.83,22.21l-36,5.51Q485.7,166.74,477.51,174t-8.19,18.81a23,23,0,0,0,8.46,18.45q8.46,7.11,22.5,7.11a45.34,45.34,0,0,0,21.78-5.31,41.11,41.11,0,0,0,15.48-14,36.14,36.14,0,0,0,2.7-5V216.6h7.2v-58q0-17.46-9.63-27.45T510.18,121.2ZM534.66,191a40.24,40.24,0,0,1-14.76,15.3,38.06,38.06,0,0,1-19.62,5.4q-10.44,0-16.83-5.31a16.88,16.88,0,0,1-6.39-13.59,17.58,17.58,0,0,1,6.57-14.13q6.57-5.49,22.41-8l34.2-5.47v3.13A45.39,45.39,0,0,1,534.66,191Z"/><path d="M644.28,126.87a47.2,47.2,0,0,0-23.22-5.67,45.55,45.55,0,0,0-23.13,5.85A40.86,40.86,0,0,0,582,143.79q-5.76,10.89-5.76,25.29,0,14.76,5.76,25.92a41.92,41.92,0,0,0,16.11,17.28,45.62,45.62,0,0,0,23.67,6.12,49.29,49.29,0,0,0,18-3.15,39.93,39.93,0,0,0,14-9A43.3,43.3,0,0,0,663,192.3h-8.28a30.14,30.14,0,0,1-12.6,14.31q-8.64,5.13-20.34,5.13a37.19,37.19,0,0,1-19.62-5.22,35.18,35.18,0,0,1-13.41-14.76A48.07,48.07,0,0,1,584,170.7h82.06V168q0-14.22-5.76-24.84A39.91,39.91,0,0,0,644.28,126.87Zm-42.21,6.21a35.73,35.73,0,0,1,19-5.22,37.56,37.56,0,0,1,19.17,5,34.93,34.93,0,0,1,13.41,13.95A42,42,0,0,1,658.36,164h-74.3a40.34,40.34,0,0,1,4.69-16.83A36.36,36.36,0,0,1,602.07,133.08Z"/><path d="M813.21,126.33a31.63,31.63,0,0,0-17.73-5.13q-12.78,0-21.15,7.38A33.88,33.88,0,0,0,764,145c-.45-1.27-.93-2.51-1.47-3.7a34.47,34.47,0,0,0-12.33-14.94,31.63,31.63,0,0,0-17.73-5.13q-12.24,0-20.07,7.38a33.69,33.69,0,0,0-8.55,12.93V123h-7.2v93.6h7.2V163.65l.18,1.83a49.94,49.94,0,0,1,3.6-19.53,31.64,31.64,0,0,1,9.9-13.32,23,23,0,0,1,14.22-4.77,24.51,24.51,0,0,1,20.43,9.9q7.65,9.9,7.65,28.08V216.6H767V165.48a49.94,49.94,0,0,1,3.6-19.53,31.64,31.64,0,0,1,9.9-13.32,23,23,0,0,1,14.22-4.77,24.51,24.51,0,0,1,20.43,9.9q7.65,9.9,7.65,28.08V216.6H830V164.76q0-13.68-4.5-23.49A34.47,34.47,0,0,0,813.21,126.33Z"/><path d="M934.08,127.41a43.36,43.36,0,0,0-23.22-6.21q-16,0-26.46,7.83a39.19,39.19,0,0,0-11.16,13.19V81.6H866v135h7.2V197.38a39.19,39.19,0,0,0,11.16,13.19q10.44,7.83,26.46,7.83a43.36,43.36,0,0,0,23.22-6.21,41.43,41.43,0,0,0,15.57-17.28,55.76,55.76,0,0,0,5.49-25.11,55.76,55.76,0,0,0-5.49-25.11A41.43,41.43,0,0,0,934.08,127.41Zm8.64,64a36.21,36.21,0,0,1-13.14,14.94,35,35,0,0,1-19.26,5.4q-17.28,0-27.18-11.43t-9.9-30.51q0-19.08,9.9-30.51t27.18-11.43a35,35,0,0,1,19.26,5.4,36.21,36.21,0,0,1,13.14,14.94,52.19,52.19,0,0,1,0,43.2Z"/><polygon points="1044.06 92.94 1041.18 87 1001.94 106.8 1004.82 112.74 1044.06 92.94"/><path d="M1048.56,123v55.56a44.9,44.9,0,0,1-3.69,15.09A32.11,32.11,0,0,1,1034.25,207a25.47,25.47,0,0,1-15,4.77q-12.79,0-20.43-9.9t-7.65-28.08V123h-7.2v51.84q0,13.68,4.5,23.49a34.4,34.4,0,0,0,12.33,14.94,31.63,31.63,0,0,0,17.73,5.13q12.78,0,21.15-7.38a33.88,33.88,0,0,0,8.91-12.38v18h7.2V123Z"/></svg>