<svg xmlns="http://www.w3.org/2000/svg" xmlns:xlink="http://www.w3.org/1999/xlink" viewBox="0 0 1200 438.67"><defs><clipPath id="a"><rect width="1200" height="438.67" fill="none"/></clipPath></defs><title>Artboard 1 copy</title><g clip-path="url(#a)"><path d="M36.44,413.28a48.15,48.15,0,0,1-10.25-1c9.35-19.16,22.29-33.43,39.44-50,4.13-14.6,7-30.14,7-46.64,0-47.28-21.58-80-73.94-80.6-16.54,15.93-31.9,28.31-46.64,36.29-12.64-27-33.16-37.18-67.26-36.29-19.68,25.7-42.84,42.84-68.86,54.89-4.76,20.31-7.61,38.08-7.61,61.56,0,67.27,19.67,95.51,55.52,112l35.86-48.87-2.22-2.22c-28.24,5.71-49.5-19.67-49.5-72,0-42.84,16.5-65.37,35.85-65.37,22.53,0,37.44,34.59,37.44,88.85,0,42.2-3.8,68.53-5.71,102.8,16.82-13,33.32-25.7,50.14-38.71-5.72-23.8-7.62-45.69-7.94-71.39-.63-61.56,14.28-81.23,37.13-81.23,19.67,0,33.31,16.5,33.31,48.23,0,37.12-23.16,86.3-45.37,128.5l4.12,7.62c9.84-5.4,17.77-7.62,29.2-7.62,11.1,0,19,1.91,31.41,7.62,8.25-19.67,19.35-39.35,34-60.29l-4.44-3.49C68.49,408.84,56.75,413.28,36.44,413.28Z"/><path d="M191.28,234.33c-20,20.62-45.05,35.85-75.83,45.69-9.2,24.43-14.28,43.15-14.28,68.85,0,48.23,17.77,84.4,87.58,115.18,27.92-25.7,62.19-45.37,90.11-56.48,5.71-19.67,10.47-38.39,10.47-64.73C289.33,271.45,259.19,239.72,191.28,234.33ZM237,407.57c-5.4,2.86-14,4.13-25.71,4.13-42.2,0-68.21-33-68.21-75.2,0-39.35,18.08-60,49.18-60,30.77,0,52.67,30.78,52.67,79C244.91,376.48,241.73,395.51,237,407.57Z"/><path d="M966.12,234.33c-20,20.62-45,35.85-75.83,45.69-9.2,24.43-14.28,43.15-14.28,68.85,0,48.23,17.77,84.4,87.58,115.18,27.92-25.7,62.19-45.37,90.11-56.48,5.71-19.67,10.47-38.39,10.47-64.73C1064.17,271.45,1034,239.72,966.12,234.33Zm45.7,173.24c-5.4,2.86-14,4.13-25.71,4.13-42.2,0-68.21-33-68.21-75.2,0-39.35,18.08-60,49.18-60,30.77,0,52.67,30.78,52.67,79C1019.75,376.48,1016.57,395.51,1011.82,407.57Z"/><path d="M448.93,413.28a48.09,48.09,0,0,1-10.25-1c9.34-19.16,22.29-33.43,39.44-50,4.13-14.6,7-30.14,7-46.64,0-50.14-37.76-83.14-89.79-80.6-16.82,19-38.4,28.88-62.19,28.88a98.64,98.64,0,0,1-31.42-5.08l-.95,5.08c16.5,7.29,28.56,30.14,28.56,95.19,0,44.1-2.22,71.7-5.71,107.56l51.08-26.65c-5.71-28.88-7.93-55.53-7.93-86.63,0-61.23,15.55-75.83,38.71-75.83,19.67,0,35.22,16.82,35.22,49.18,0,36.17-23.16,84.09-45.37,125.33l4.12,7.62c9.84-5.4,17.77-7.62,29.19-7.62,11.11,0,19,1.91,31.42,7.62,8.24-19.67,19.35-39.35,33.95-60.29l-4.45-3.49C481,408.84,469.24,413.28,448.93,413.28Z"/><path d="M1423.35,331.42c6-20.94,7.93-34.58,7.93-53.31,0-22.52-14-44.42-45.69-44.42-17.44,21.32-29.33,32-49.57,40.71-21.69-37.64-37.31-43-54.82-40.71-7.61,11.74-13.33,18.72-24.75,25.7-23.48-8.88-47.59-23.48-70.12-25.7-22.85,20.94-54.58,36.49-90.11,46.65-8.25,27.92-10.16,40.61-10.16,68.53,0,48.23,17.77,84.4,87.58,115.18,31.73-25.38,60.28-41.25,92-50.45a153.62,153.62,0,0,0,5.71-41.88c0-30.78-10.15-46.33-41.88-54.89-22.21,13.32-44.42,24.11-72.66,31.72l7.93,11.43c10.16-5.4,18.72-10.16,30.15-10.16,20.3,0,33.95,12.7,33.95,33.64,0,8.88-1.27,16.81-2.54,24.43A88,88,0,0,1,1198.7,412c-35.22,0-69.8-30.46-69.8-74.56,0-45.06,19.35-63.78,43.78-63.78,23.48,0,40.62,18.72,62.2,27.29,6-17.13,17.76-32.36,30.46-32.36,16.18,0,34.26,16.18,62.82,87.25L1342,390.42c-15.43,16.62-35.09,36.74-60.15,61.57l4.12,7.62c12.37-5.4,26.65-10.15,45.06-10.15,17.13,0,33.31,3.49,50.45,10.15,8.25-19.67,19.35-39.35,34-60.29l-4.44-3.49c-10.16,13-24.12,17.45-48.55,17.45a86.15,86.15,0,0,1-14.7-1.55c11.08-17.48,19.47-28.75,29.61-40C1392.89,354.27,1407.49,340.94,1423.35,331.42Zm-61.24-2.85c-6.57-15.52-12.61-28.63-18.25-39.66,14.87-13.36,23.44-17.78,33.48-17.78,10.79,0,20,10.48,20,26.66,0,16-3,29.5-24.25,56.76Z"/><path d="M607.58,234.33c-20,20.62-45.06,35.85-75.84,45.69-9.2,24.43-14.27,43.15-14.27,68.85,0,48.23,17.76,84.4,87.57,115.18,27.92-25.7,62.19-45.37,90.11-56.48,5.71-19.67,10.47-38.39,10.47-64.73C705.62,271.45,675.48,239.72,607.58,234.33Zm45.69,173.24c-5.39,2.86-14,4.13-25.7,4.13-42.2,0-68.22-33-68.22-75.2,0-39.35,18.09-60,49.18-60,30.78,0,52.67,30.78,52.67,79C661.2,376.48,658,395.51,653.27,407.57Z"/><path d="M849.9,413.84a278.14,278.14,0,0,1-63.37,7.38c-2.22-26-3.49-44.43-3.49-76.79,0-39.34,7.62-91.06,29.83-118.35l-3.49-2.86c-15.23,17.14-31.1,23.17-53.94,23.17A98.58,98.58,0,0,1,724,241.31l-1.27,2.85c25.06,15.23,26.33,65.37,26.33,99.64,0,59.65-6.34,95.82-24.43,111.05l2.54,3.81L758,449.14a307.22,307.22,0,0,1,94.23,9.52,496.23,496.23,0,0,1,14.6-74.25l-12.37-2.86A213,213,0,0,1,849.9,413.84Z"/><path d="M88.8-3c-19.36,13-38.71,18.4-58.07,18.4-13.64,0-23.8-1-34.27-3.17l-2.53,5.71C10.74,28.08,19,48.39,19,110.9c0,68.54-2.85,102.8-23.48,139.29L2.18,255c14.55-13.07,28.72-26.72,39.82-40a153,153,0,0,0,31.25,15.62l5.39-5.39c-16-16.5-22.49-30.3-24.7-69.24,11.81,1.43,25.26,2.63,39.3,3.24,13.64-20.31,34-35.54,56.8-45.06,4.76-13.64,6.66-25.06,6.66-42.83C156.7,30.31,125-3.33,88.8-3Zm24.75,131A427.23,427.23,0,0,1,53,123.81q-.07-7.16-.07-15.13c0-38.71,1.91-60.29,4.13-75.2a101.65,101.65,0,0,1,20-1.91c20.62,0,43.15,19.68,43.15,52.36C120.21,97.89,117.35,119.15,113.55,128Z"/><path d="M1213.3,142.31c-18.09,18.72-40.3,30.14-63.78,30.14-44.74,0-72.66-27.6-72.66-68.53,0-36.49,26.34-59.65,52.67-59.65,22.53,0,42.52,11.1,54.58,31.73h3.49a335,335,0,0,1,20-75.84l-9.84-2.85a100,100,0,0,1-5.81,22.84C1170,9.71,1145.1,2,1117.48-3q-28.1,31.89-65.69,44.74c-9.2,23.8-15.23,47.91-15.23,71.71,0,63.77,41.25,115.18,120.26,105.66,18.72-29.19,40-50.77,64.41-65.37Z"/><path d="M1010.55-9.36C987.07,4.29,956.92,3,930.27.16L929,3c25.07,16.18,26.34,71.71,26.34,109.15,0,59.65-6.35,91.06-24.44,106.29l2.54,3.81a293.55,293.55,0,0,1,74.57,0l2.54-3.81c-18.09-15.23-24.44-46.64-24.44-106.29,0-39.66,6.67-98,26.34-118.67Z"/><path d="M692.3,189.78c-14.89-12-21.26-36.6-21.26-84.28C671,49,677.38,16,695.47-2.38l-2.54-3.8L662.15,3.34c-39.66,0-79-3.5-118.67-9.52L527,40.14l3.5,2.54c8-9.53,18.67-12.21,61.23-12.37-12.66,8.45-26.86,16.33-38.39,20.94-6,22.53-9.2,41.56-11.42,91.06-4.76,104.08-7.93,110.42-13,115.5-6.35,6.34-12.06,9.83-20.94,13.64l9.83,7.62c12.06-15.87,32.05-30.46,57.12-42.52l4.81-105.37A271.75,271.75,0,0,1,622.17,135c2.11-7.15,5.89-15.43,10.79-24.08v.92c0,67,7.62,96.46,24.43,113.59,18.09-15.54,36.81-27.6,56.48-35.53l-4.76-12.7A103.59,103.59,0,0,1,692.3,189.78ZM581,103.65,582.51,70c1-21.9,19.36-38.4,46-37.13l17.14.92c-9.14,18.51-12,35.35-12.59,65.08A465.32,465.32,0,0,1,581,103.65Z"/><path d="M287.74,178.8c-27.46,0-56.87-21.35-63.83-58.32,66.8-1.72,84.33,4.32,86.68,26.91l3.49.32C323.91,77.27,337.56,9.05,342.32-7.77l-7.93-2.54c-.71,9.2-2.82,18.4-5.3,27.61C307.52,7.5,282.76.64,255.38-3,239.51,16.34,217,32.53,188.43,45.54a226.59,226.59,0,0,0-9.52,66.31c0,73.61,50.45,113.59,101.85,113.59a527.78,527.78,0,0,1,67.59-58.38l-8.25-11.74C324.87,171.5,309.32,178.8,287.74,178.8ZM269.34,37.92c25.07,0,40.61,15.23,48.23,40-16.39,12.65-45.8,19.83-95.07,19.41C224.05,57.45,240.67,37.92,269.34,37.92Z"/><path d="M868.71,78.85C846.5,92.18,824.29,103,796.05,110.58L804,122c10.15-5.39,18.72-10.15,30.14-10.15,20.31,0,34,12.69,34,33.63,0,8.89-1.27,16.82-2.54,24.44a88.26,88.26,0,0,1-27.6,4.12c-35.22,0-69.81-30.46-69.81-74.56C768.13,57.91,793.2,37,824.61,37c21.58,0,44.42,12.37,57.75,30.46h2.54c5.71-27,9.83-43.47,20.3-69.49l-8.88-3.17a98.71,98.71,0,0,1-8.05,25.57C868,9.43,841.13-.94,819.22-3,798.91,17.3,771,32.21,739.57,42.05c-9.2,24.43-14.27,43.15-14.27,68.85,0,48.23,17.76,84.4,87.57,115.18,31.73-25.39,60.29-41.25,92-50.45a153.64,153.64,0,0,0,5.71-41.89C910.6,103,900.44,87.42,868.71,78.85Z"/><path d="M498.43,143.58a211.78,211.78,0,0,1-4.54,32.29,278.6,278.6,0,0,1-63.36,7.37c-2.22-26-3.49-44.42-3.49-76.78,0-39.35,7.61-91.07,29.82-118.36l-3.49-2.85C438.14,2.38,422.28,8.41,399.43,8.41A98.57,98.57,0,0,1,368,3.34l-1.27,2.85c25.07,15.23,26.34,65.36,26.34,99.63,0,59.65-6.35,95.83-24.44,111.06l2.54,3.8L402,211.16a307.63,307.63,0,0,1,94.24,9.52,495.07,495.07,0,0,1,14.59-74.24Z"/></g></svg>