<svg xmlns="http://www.w3.org/2000/svg" viewBox="0 0 1076 1274"><title>Sobrado-specimen1</title><path d="M709.8,153.27c0-11.22-9-18-29.61-18H614.52v51.51h11.4V170.93H682c5.33,0,8.09.55,10.3,3.86l8.28,12h13.24l-10.3-15.27a9.3,9.3,0,0,0-6.25-4.42C705.39,165.22,709.8,160.63,709.8,153.27ZM682,162.1H625.92v-18h54.27c13.06,0,17.47,2.58,17.47,9.2C697.66,159,693.43,162.1,682,162.1Z" fill="tomato"/><polygon points="712.93 109.86 624.82 109.86 624.82 97.35 700.24 97.35 700.24 88.52 624.82 88.52 624.82 76.01 709.62 76.01 709.62 67.18 613.05 67.18 613.05 118.69 712.93 118.69 712.93 109.86" fill="tomato"/><polygon points="531.38 186.75 544.25 186.75 544.25 79.14 586.01 79.14 586.01 67.18 489.44 67.18 489.44 79.14 531.38 79.14 531.38 186.75" fill="#231f20"/><polygon points="340.07 174.79 264.29 174.79 264.29 131.19 322.6 131.19 322.6 119.24 264.29 119.24 264.29 79.14 334.37 79.14 334.37 67.18 251.41 67.18 251.41 186.75 340.07 186.75 340.07 174.79" fill="#231f20"/><polygon points="407.95 186.75 420.83 186.75 420.83 79.14 462.58 79.14 462.58 67.18 366.01 67.18 366.01 79.14 407.95 79.14 407.95 186.75" fill="#231f20"/><path d="M953.9,156.21c0-27.41-28.88-33.66-42.12-37.89-12.88-4.23-26.31-8.28-26.31-21.52,0-13.06,12.88-19.32,26.12-19.32,18.21,0,31.83,8.28,37,11.22V75.64c-4.6-2.76-16.56-10.3-37-10.3-27.41,0-39.91,15.27-39.91,31.46,0,24.09,23.73,30,36.42,34.39,10.85,3.87,32,8.65,32,25,0,11.22-8.28,20.24-30.36,20.24-18.21,0-35.5-9-40.65-12.88v13.06c4.23,3.13,18.4,12,40.65,12C938.08,188.59,953.9,175,953.9,156.21Z" fill="#231f20"/><polygon points="220.14 175.34 145.82 175.34 145.82 67.18 132.95 67.18 132.95 186.75 220.14 186.75 220.14 175.34" fill="#231f20"/><path d="M749.53,102.87h56.11c5.33,0,8.09.55,10.3,3.86l8.28,12h13.24l-10.3-15.27A9.3,9.3,0,0,0,820.91,99c8.09-1.84,12.5-6.44,12.5-13.79,0-11.22-9-18-29.61-18H738.13v51.51h11.4Zm0-26.86H803.8c13.06,0,17.47,2.57,17.47,9.2,0,5.7-4.23,8.83-15.63,8.83H749.53Z" fill="tomato"/><polygon points="836.36 177.92 748.25 177.92 748.25 165.41 823.67 165.41 823.67 156.58 748.25 156.58 748.25 144.07 833.05 144.07 833.05 135.24 736.47 135.24 736.47 186.75 836.36 186.75 836.36 177.92" fill="tomato"/><polygon points="259.87 502.54 252.15 410.75 236.88 410.75 236.88 530.32 246.07 530.32 246.07 421.6 253.25 506.95 266.49 506.95 273.67 421.6 273.67 530.32 282.87 530.32 282.87 410.75 267.6 410.75 259.87 502.54" fill="#231f20"/><polygon points="829 449.38 807.85 410.75 793.5 410.75 793.5 462.25 803.25 462.25 803.25 420.87 826.8 462.25 838.75 462.25 838.75 410.75 829 410.75 829 449.38" fill="tomato"/><path d="M635.12,464.09c7.73,0,13.06-2.2,15.09-3.49v-9.75a34,34,0,0,1-14.53,3.68c-7.73,0-16-4-16-18s8.28-18,16-18a34,34,0,0,1,14.53,3.68V412.4c-2-1.28-7.36-3.49-15.09-3.49-15.45,0-26.49,9.93-26.49,27.59S619.67,464.09,635.12,464.09Z" fill="tomato"/><path d="M198.06,408.91c-16.92,0-25.75,18.95-25.75,60.7,0,42.68,8.83,62.54,25.75,62.54s25.76-19.86,25.76-62.54C223.82,427.86,215,408.91,198.06,408.91Zm0,112.21c-9.56,0-13.79-15.45-13.79-51.51,0-35.13,4.23-49.66,13.79-49.66s13.8,14.53,13.8,49.66C211.86,505.67,207.63,521.12,198.06,521.12Z" fill="#231f20"/><polygon points="743.1 413.51 769.41 407.99 769.04 406.15 742.73 411.67 743.1 413.51" fill="tomato"/><path d="M145.09,408.91c-19,0-31.09,16.19-31.09,61.62s12.14,61.62,31.09,61.62a19.22,19.22,0,0,0,16.18-8.27v-14c-3.12,5.15-8.09,11.59-16.18,11.59-12.14,0-19.5-15.27-19.5-51s7.36-50.95,19.5-50.95c7.72,0,13.06,6.44,16.18,12V417.19A19.2,19.2,0,0,0,145.09,408.91Z" fill="#231f20"/><path d="M681.29,515.42h22.45v14.9h10.48V500.88c0-16.37-8.83-23.91-21.7-23.91s-21.71,7.54-21.71,23.91v29.44h10.48Zm0-14.54c0-9.56,3.87-14.71,11.23-14.71s11.22,5.15,11.22,14.71v6.26H681.29Z" fill="tomato"/><path d="M754.32,477C739.61,477,731,486.9,731,504.56s8.65,27.59,23.36,27.59,23.36-9.93,23.36-27.59S769,477,754.32,477Zm0,46c-7,0-12.32-4.05-12.32-18.4s5.33-18.39,12.32-18.39,12.33,4,12.33,18.39S761.31,523,754.32,523Z" fill="tomato"/><path d="M299.6,410.75V499c0,19.5,5.15,33.11,22.81,33.11,16,0,21.53-13.61,21.53-33.11V410.75h-11V499c0,15.09-2.39,22.81-10.49,22.81-8.27,0-11.77-6.62-11.77-22.81V410.75Z" fill="#231f20"/><polygon points="396.36 524.61 377.78 410.75 360.68 410.75 360.68 530.32 370.79 530.32 370.79 417.56 389.19 530.32 406.48 530.32 406.48 410.75 396.36 410.75 396.36 524.61" fill="#231f20"/><path d="M515.93,408.91c-18.95,0-31.09,16.19-31.09,61.62s12.14,61.62,31.09,61.62a19.22,19.22,0,0,0,16.18-8.27v-14c-3.12,5.15-8.09,11.59-16.18,11.59-12.15,0-19.5-15.27-19.5-51s7.35-50.95,19.5-50.95c7.72,0,13.06,6.44,16.18,12V417.19A19.2,19.2,0,0,0,515.93,408.91Z" fill="#231f20"/><path d="M754.32,418.11c-12.87,0-23.36,8.27-23.36,23s10.49,23,23.36,23,23.36-8.27,23.36-23S767.2,418.11,754.32,418.11Zm0,36.79c-7,0-12.32-5-12.32-13.8s5.33-13.8,12.32-13.8,12.33,5,12.33,13.8S761.31,454.9,754.32,454.9Z" fill="tomato"/><path d="M632.18,522.77l-1.29,5.34c7.36-.55,8.83,1.1,8.83,2.76,0,2-2.2,2.94-5.7,2.94a12.36,12.36,0,0,1-7.17-2.39v2.21a11.92,11.92,0,0,0,7.17,2.2c4.6,0,7.73-1.65,7.73-5,0-2.76-2.58-4.79-7.36-4.79h-.92l.73-3.12h.92c7.73,0,13.06-2.21,15.09-3.5v-9.75a34,34,0,0,1-14.53,3.68c-7.73,0-16-3.12-16-13.43s8.28-13.42,16-13.42a34,34,0,0,1,14.53,3.67v-9.74c-2-1.29-7.36-3.5-15.09-3.5-15.45,0-26.49,8.28-26.49,23C608.63,513.76,618.2,521.85,632.18,522.77Z" fill="tomato"/><polygon points="423.58 420.31 439.95 420.31 439.95 520.75 423.58 520.75 423.58 530.32 467.18 530.32 467.18 520.75 450.99 520.75 450.99 420.31 467.18 420.31 467.18 410.75 423.58 410.75 423.58 420.31" fill="#231f20"/><path d="M569.09,408.91c-17.66,0-22.81,12.51-22.81,31.64v89.77h11V479.91h23.37v50.41h11V440.55C591.71,421.42,585.09,408.91,569.09,408.91Zm11.59,60.33H557.31V440.55c0-13.25,2.76-21.34,11.78-21.34,8.83,0,11.59,8.28,11.59,21.34Z" fill="#231f20"/><polygon points="710.17 418.84 710.17 410.75 674.49 410.75 674.49 418.84 687.37 418.84 687.37 454.16 674.49 454.16 674.49 462.25 710.17 462.25 710.17 454.16 697.85 454.16 697.85 418.84 710.17 418.84" fill="tomato"/><polygon points="340.07 345.19 264.29 345.19 264.29 301.6 322.6 301.6 322.6 289.64 264.29 289.64 264.29 249.54 334.37 249.54 334.37 237.59 251.41 237.59 251.41 357.15 340.07 357.15 340.07 345.19" fill="#231f20"/><path d="M961.45,331.4c0-17.66-19.5-27.59-52.61-27.59s-52.61,9.93-52.61,27.59S875.73,359,908.84,359,961.45,349.06,961.45,331.4Zm-52.61,18.39c-23,0-40.47-4-40.47-18.39S885.85,313,908.84,313s40.47,4.05,40.47,18.4S931.83,349.79,908.84,349.79Z" fill="tomato"/><path d="M785.23,290.93c33.11,0,52.61-9.93,52.61-27.59s-19.5-27.59-52.61-27.59-52.61,9.93-52.61,27.59S752.12,290.93,785.23,290.93Zm0-46c23,0,40.46,4.05,40.46,18.4s-17.47,18.39-40.46,18.39-40.47-4-40.47-18.39S762.23,244.94,785.23,244.94Z" fill="tomato"/><path d="M145.82,311.72h29.44C198.8,311.72,215,295.9,215,272c0-21.7-14.35-34.4-36.06-34.4H133V357.15h12.87Zm0-62.18h33.11c12.88,0,22.81,9.57,22.81,24.28,0,12.88-8.09,25.94-26.48,25.94H145.82Z" fill="#231f20"/><polygon points="374.29 305.65 374.29 357.15 465.34 357.15 465.34 348.32 386.06 348.32 386.06 305.65 374.29 305.65" fill="tomato"/><path d="M707.42,310.43V299.58H666v11.95h28.51c0,20.05-9.75,35.14-31.27,35.14-20.42,0-33.3-15.09-33.3-50.22,0-34.22,13.62-48.38,37-48.38a49.56,49.56,0,0,1,32.74,11.77v-14c-4.6-3.86-14.53-10.11-32.74-10.11-30.54,0-50.22,18.94-50.22,60.7,0,42.67,16.74,62.54,46.54,62.54C686.26,359,707.42,345.19,707.42,310.43Z" fill="#231f20"/><polygon points="577 248.62 577 237.59 498.82 237.59 498.82 248.62 531.56 248.62 531.56 346.12 498.82 346.12 498.82 357.15 577 357.15 577 346.12 544.44 346.12 544.44 248.62 577 248.62" fill="#231f20"/><path d="M450.63,269.41c8.09-1.84,12.5-6.44,12.5-13.8,0-11.22-9-18-29.61-18H367.85v51.51h11.4V273.27h56.11c5.33,0,8.09.55,10.3,3.86l8.28,12h13.24l-10.3-15.27A9.26,9.26,0,0,0,450.63,269.41Zm-15.27-5H379.25v-18h54.27c13.06,0,17.47,2.58,17.47,9.2C451,261.31,446.76,264.44,435.36,264.44Z" fill="tomato"/><path d="M821.46,337.47c8.1-1.84,12.51-6.44,12.51-13.8,0-11.22-9-18-29.61-18H738.69v51.5h11.4V341.33H806.2c5.33,0,8.09.55,10.3,3.86l8.27,12H838l-10.3-15.27A9.26,9.26,0,0,0,821.46,337.47Zm-15.26-5H750.09v-18h54.27c13.06,0,17.47,2.57,17.47,9.19C821.83,329.38,817.6,332.5,806.2,332.5Z" fill="tomato"/><polygon points="869.47 652.89 858.99 652.89 858.99 704.4 902.59 704.4 902.59 695.2 869.47 695.2 869.47 652.89" fill="#231f20"/><path d="M732.25,610.59c0,17.65,11,27.59,26.49,27.59,7.72,0,13.06-2.21,15.08-3.5v-9.75a33.81,33.81,0,0,1-14.53,3.68c-7.73,0-16-4-16-18s8.27-18,16-18a34,34,0,0,1,14.53,3.68v-9.75c-2-1.29-7.36-3.5-15.08-3.5C743.29,583,732.25,592.93,732.25,610.59Z" fill="#231f20"/><path d="M732.25,678.65c0,17.66,11,27.59,26.49,27.59,7.72,0,13.06-2.21,15.08-3.5V693a33.81,33.81,0,0,1-14.53,3.68c-7.73,0-16-4-16-18s8.27-18,16-18a34,34,0,0,1,14.53,3.68v-9.75c-2-1.29-7.36-3.5-15.08-3.5C743.29,651.05,732.25,661,732.25,678.65Z" fill="#231f20"/><path d="M816.13,651.05c-14.72,0-23.36,9.94-23.36,27.6s8.64,27.59,23.36,27.59,23.36-9.93,23.36-27.59S830.84,651.05,816.13,651.05Zm0,46c-7,0-12.33-4-12.33-18.39s5.34-18.4,12.33-18.4,12.32,4,12.32,18.4S823.12,697,816.13,697Z" fill="#231f20"/><polygon points="682.77 687.48 705.94 687.48 705.94 679.01 682.77 679.01 682.77 670.55 713.85 670.55 713.85 662.09 672.28 662.09 672.28 704.4 714.77 704.4 714.77 695.94 682.77 695.94 682.77 687.48" fill="#231f20"/><path d="M695.09,605.07c-5.89-1.66-12-3.5-12-7.36,0-3.68,2.58-5.52,10.12-5.52,5.89,0,12.51,1.84,15.45,3.5v-9.2a33.22,33.22,0,0,0-15.45-3.5c-14,0-20,7.55-20,15.64,0,11,8.46,13.8,15.64,15.82,8.27,2.39,12.87,4.41,12.87,8.46,0,4.23-5.15,6.07-11.59,6.07a40.18,40.18,0,0,1-16.55-4.05v9.39c2,1.28,8.64,3.86,16.55,3.86,14,0,21.53-6.44,21.53-16C711.65,610.4,702.63,607.27,695.09,605.07Z" fill="#231f20"/><polygon points="683.13 655.65 709.44 650.13 709.07 648.29 682.77 653.81 683.13 655.65" fill="#231f20"/><path d="M928.52,621.44H951v14.9h10.49V606.91c0-16.37-8.83-23.92-21.71-23.92S918,590.54,918,606.91v29.43h10.48Zm0-14.53c0-9.57,3.86-14.72,11.22-14.72S951,597.34,951,606.91v6.25H928.52Z" fill="#231f20"/><polygon points="929.99 695.2 929.99 683.25 953.17 683.25 953.17 674.05 929.99 674.05 929.99 662.09 961.08 662.09 961.08 652.89 919.51 652.89 919.51 704.4 962 704.4 962 695.2 929.99 695.2" fill="#231f20"/><polygon points="869.47 584.83 858.99 584.83 858.99 636.34 902.59 636.34 902.59 627.14 869.47 627.14 869.47 584.83" fill="#231f20"/><polygon points="117.68 636.34 128.16 636.34 128.16 619.97 152.63 619.97 152.63 610.22 128.16 610.22 128.16 594.58 158.7 594.58 158.7 584.83 117.68 584.83 117.68 636.34" fill="#231f20"/><path d="M816.13,583c-14.72,0-23.36,9.94-23.36,27.6s8.64,27.59,23.36,27.59,23.36-9.94,23.36-27.59S830.84,583,816.13,583Zm0,46c-7,0-12.33-4.05-12.33-18.39s5.34-18.4,12.33-18.4,12.32,4,12.32,18.4S823.12,629,816.13,629Z" fill="#231f20"/><path d="M260.61,592.19c5.88,0,12.51,1.84,15.45,3.5v-9.2a33.22,33.22,0,0,0-15.45-3.5c-14,0-20.05,7.55-20.05,15.64,0,11,8.46,13.8,15.63,15.82,8.28,2.39,12.88,4.41,12.88,8.46,0,4.23-5.15,6.07-11.59,6.07a40.27,40.27,0,0,1-16.56-4.05v9.39c2,1.28,8.65,3.86,16.56,3.86,14,0,21.52-6.44,21.52-16,0-11.77-9-14.9-16.55-17.1-5.89-1.66-12-3.5-12-7.36C250.49,594,253.07,592.19,260.61,592.19Z" fill="#231f20"/><polygon points="250.12 687.48 273.3 687.48 273.3 679.01 250.12 679.01 250.12 670.55 281.21 670.55 281.21 662.09 239.64 662.09 239.64 704.4 282.13 704.4 282.13 695.94 250.12 695.94 250.12 687.48" fill="#231f20"/><polygon points="248.28 652.89 249.39 654.37 261.71 647.74 274.04 654.37 275.14 652.89 261.71 645.72 248.28 652.89" fill="#231f20"/><polygon points="219.4 594.03 219.4 584.83 177.83 584.83 177.83 636.34 220.32 636.34 220.32 627.14 188.31 627.14 188.31 615.18 211.49 615.18 211.49 605.99 188.31 605.99 188.31 594.03 219.4 594.03" fill="#231f20"/><polygon points="620.96 615.18 644.14 615.18 644.14 605.99 620.96 605.99 620.96 594.03 652.05 594.03 652.05 584.83 610.48 584.83 610.48 636.34 652.97 636.34 652.97 627.14 620.96 627.14 620.96 615.18" fill="#231f20"/><polygon points="179.49 704.4 189.97 704.4 189.97 688.03 214.44 688.03 214.44 678.28 189.97 678.28 189.97 662.64 220.51 662.64 220.51 652.89 179.49 652.89 179.49 704.4" fill="#231f20"/><polygon points="373.74 683.25 396.91 683.25 396.91 674.05 373.74 674.05 373.74 662.09 404.82 662.09 404.82 652.89 363.25 652.89 363.25 704.4 405.74 704.4 405.74 695.2 373.74 695.2 373.74 683.25" fill="#231f20"/><path d="M405.19,636.34V606.91c0-16.37-8.83-23.92-21.71-23.92s-21.7,7.55-21.7,23.92v29.43h10.48v-14.9h22.45v14.9Zm-32.93-23.18v-6.25c0-9.57,3.87-14.72,11.22-14.72s11.23,5.15,11.23,14.72v6.25Z" fill="#231f20"/><polygon points="297.95 660.99 316.53 660.99 316.53 704.4 327.01 704.4 327.01 660.99 345.41 660.99 345.41 652.89 297.95 652.89 297.95 660.99" fill="#231f20"/><polygon points="297.95 592.93 316.53 592.93 316.53 636.34 327.01 636.34 327.01 592.93 345.41 592.93 345.41 584.83 297.95 584.83 297.95 592.93" fill="#231f20"/><polygon points="280.18 1173.02 277.1 1173.02 277.1 1188.14 289.9 1188.14 289.9 1185.44 280.18 1185.44 280.18 1173.02" fill="#231f20"/><polygon points="340.88 1184.36 334.67 1173.02 330.45 1173.02 330.45 1188.14 333.31 1188.14 333.31 1175.99 340.23 1188.14 343.74 1188.14 343.74 1173.02 340.88 1173.02 340.88 1184.36" fill="#231f20"/><path d="M446.17,1173h-6v15.12h6c4.76,0,6.7-2.7,6.7-7.56S450.93,1173,446.17,1173Zm0,12.42h-3v-9.72h3c1.95,0,3.46,1.08,3.46,4.86S448.12,1185.44,446.17,1185.44Z" fill="#231f20"/><path d="M337.09,1202.72h3.41a3,3,0,0,1-3.24,3.24c-2.22,0-3.73-1.3-3.73-5.29,0-2.81,1-5.51,4.48-5.51a7.37,7.37,0,0,1,3.89,1.08v-2.75a6.27,6.27,0,0,0-3.89-1c-5.67,0-7.56,4.43-7.56,8.21,0,5.24,2.32,8,6.81,8,3.18,0,6.15-2.11,6.15-7v-1.35h-6.32Z" fill="#231f20"/><polygon points="221.32 1175.94 226.61 1175.94 226.61 1208.12 229.85 1208.12 229.85 1175.94 235.2 1175.94 235.2 1173.02 221.32 1173.02 221.32 1175.94" fill="#231f20"/><polygon points="298.38 1176.26 307.99 1176.26 307.99 1204.88 298.38 1204.88 298.38 1208.12 321.33 1208.12 321.33 1204.88 311.77 1204.88 311.77 1176.26 321.33 1176.26 321.33 1173.02 298.38 1173.02 298.38 1176.26" fill="#231f20"/><path d="M409.67,1172.48c-5,0-7.56,5.56-7.56,17.82,0,12.53,2.59,18.36,7.56,18.36s7.56-5.83,7.56-18.36C417.23,1178,414.64,1172.48,409.67,1172.48Zm0,32.94c-2.81,0-4.05-4.54-4.05-15.12,0-10.31,1.24-14.58,4.05-14.58s4.05,4.27,4.05,14.58C413.72,1200.88,412.48,1205.42,409.67,1205.42Z" fill="#231f20"/><path d="M255.45,1172.48c-9.18,0-12.1,5.56-12.1,17.82v17.82h3.78v-11.18h16.63v11.18h3.78V1190.3C267.54,1178,264.63,1172.48,255.45,1172.48Zm8.31,21H247.13v-3.13c0-10,1.4-14.2,8.32-14.2,6.26,0,8.31,4.16,8.31,14.2Z" fill="#231f20"/><path d="M482.3,1172.48c-5.18,0-6.7,3.67-6.7,9.29v26.35h3.24v-14.8h6.86v14.8h3.24v-26.35C488.94,1176.15,487,1172.48,482.3,1172.48Zm3.4,17.71h-6.86v-8.42c0-3.89.81-6.27,3.46-6.27s3.4,2.43,3.4,6.27Z" fill="#231f20"/><path d="M389.2,1193.81c3.24-1.3,5.94-5.08,5.94-9.88,0-6-3.51-10.91-10.58-10.91h-13v35.1h3.78v-13.28h8c2.54,0,3.67.75,4.7,3l4.7,10.21h4.1l-5-10.86A7,7,0,0,0,389.2,1193.81Zm-3.56-2.48H375.38v-14.8h9.18c4.43,0,6.7,3.08,6.7,7.4S389,1191.33,385.64,1191.33Z" fill="#231f20"/><path d="M284.5,1200.94c1.83-.33,2.37-1.62,2.75-2.81l1.68-5.13h-3.24l-1.68,5c-.32,1-.92,1.57-2.59,1.57h-.92V1193h-3.08v15.12h3.08v-5.94h.92c1.57,0,2.16.27,2.75,1.62l1.89,4.32h3.24l-1.89-4.27A4.37,4.37,0,0,0,284.5,1200.94Z" fill="#231f20"/><polygon points="431.59 1204.34 425.38 1193 421.17 1193 421.17 1208.12 424.03 1208.12 424.03 1195.97 430.95 1208.12 434.46 1208.12 434.46 1193 431.59 1193 431.59 1204.34" fill="#231f20"/><path d="M421.33,1173v8.91c0,5,2.76,6.75,6.54,6.75s6.42-1.78,6.42-6.75V1173h-3.07v8.91c0,2.54-1.25,3.89-3.41,3.89s-3.4-1.35-3.4-3.89V1173Z" fill="#231f20"/><path d="M813.43,1187v-2.7a45,45,0,0,1-12.91,1.73c-6.26,0-11.83-1.24-11.83-5.4s5.57-5.4,11.83-5.4a45.92,45.92,0,0,1,12.91,1.73v-2.7c-1.73-.65-6.38-1.73-13.07-1.73-9.45,0-15.23,2.92-15.23,8.1s5.78,8.1,15.23,8.1A43.26,43.26,0,0,0,813.43,1187Z" fill="#231f20"/><polygon points="777.73 1175.39 777.73 1173.02 767.26 1173.02 767.26 1175.39 771.04 1175.39 771.04 1185.76 767.26 1185.76 767.26 1188.14 777.73 1188.14 777.73 1185.76 774.12 1185.76 774.12 1175.39 777.73 1175.39" fill="#231f20"/><path d="M775.9,1202.18a4,4,0,0,0,3-4c0-3.13-1.94-5.13-6.8-5.13h-5.67v15.12h3.07v-4.59h3.84a1.79,1.79,0,0,1,1.78,1.35l1.08,3.24h3.24l-1.62-4.16C777.41,1202.83,777,1202.34,775.9,1202.18Zm-3.78-1.24h-2.6v-5.35h2.6c2.7,0,3.72,1,3.72,2.65S774.82,1200.94,772.12,1200.94Z" fill="#231f20"/><path d="M573,1172.48c-4.32,0-6.86,2.92-6.86,8.1s2.54,8.1,6.86,8.1,6.85-2.92,6.85-8.1S577.29,1172.48,573,1172.48Zm0,13.5c-2.06,0-3.62-1.19-3.62-5.4s1.56-5.4,3.62-5.4,3.61,1.19,3.61,5.4S575,1186,573,1186Z" fill="#231f20"/><path d="M576.37,1201.91c0,2.54-1.25,3.89-3.4,3.89s-3.41-1.35-3.41-3.89V1193h-3.07v8.91c0,5,2.75,6.75,6.53,6.75s6.43-1.78,6.43-6.75V1193h-3.08Z" fill="#231f20"/><polygon points="791.45 1193 787.99 1193 787.99 1208.12 814.72 1208.12 814.72 1205.53 791.45 1205.53 791.45 1193" fill="#231f20"/><path d="M627.61,1173h-6.05v15.12h6.05c4.75,0,6.7-2.7,6.7-7.56S632.36,1173,627.61,1173Zm0,12.42h-3v-9.72h3c1.95,0,3.46,1.08,3.46,4.86S629.56,1185.44,627.61,1185.44Z" fill="#231f20"/><polygon points="609.58 1204.5 592.3 1173.02 587.17 1173.02 587.17 1208.12 590.78 1208.12 590.78 1177.66 607.52 1208.12 613.2 1208.12 613.2 1173.02 609.58 1173.02 609.58 1204.5" fill="#231f20"/><path d="M733.18,1190.57c0,12.26,5.56,18.09,14.2,18.09,5.35,0,8.27-1.84,9.62-3v-4a14.51,14.51,0,0,1-9.62,3.35c-6.42,0-10.31-4.37-10.31-14.47s3.89-14.47,10.31-14.47a14.57,14.57,0,0,1,9.62,3.45v-4.1c-1.35-1.13-4.27-3-9.62-3C738.74,1172.48,733.18,1178.31,733.18,1190.57Z" fill="#231f20"/><polygon points="703.75 1206.45 698.3 1173.02 693.28 1173.02 693.28 1208.12 696.25 1208.12 696.25 1175.02 701.65 1208.12 706.72 1208.12 706.72 1173.02 703.75 1173.02 703.75 1206.45" fill="#231f20"/><path d="M552.5,1193.81c3.24-1.3,5.94-5.08,5.94-9.88,0-6-3.51-10.91-10.58-10.91h-13v35.1h3.78v-13.28h8c2.54,0,3.67.75,4.7,3l4.69,10.21h4.11l-5-10.86A7,7,0,0,0,552.5,1193.81Zm-3.56-2.48H538.68v-14.8h9.18c4.42,0,6.69,3.08,6.69,7.4S552.34,1191.33,548.94,1191.33Z" fill="#231f20"/><polygon points="661.25 1176.26 670.87 1176.26 670.87 1204.88 661.25 1204.88 661.25 1208.12 684.21 1208.12 684.21 1204.88 674.65 1204.88 674.65 1176.26 684.21 1176.26 684.21 1173.02 661.25 1173.02 661.25 1176.26" fill="#231f20"/><polygon points="825.31 1181.88 847.45 1181.88 847.45 1179.28 825.31 1179.28 825.31 1175.61 850.2 1175.61 850.2 1173.02 821.85 1173.02 821.85 1188.14 851.17 1188.14 851.17 1185.55 825.31 1185.55 825.31 1181.88" fill="#231f20"/><path d="M500.61,1193h-6.05v15.12h6.05c4.75,0,6.69-2.7,6.69-7.56S505.36,1193,500.61,1193Zm0,12.42h-3v-9.72h3c1.94,0,3.45,1.08,3.45,4.86S502.55,1205.42,500.61,1205.42Z" fill="#231f20"/><polygon points="496.61 1175.99 503.52 1188.14 507.03 1188.14 507.03 1173.02 504.17 1173.02 504.17 1184.36 497.96 1173.02 493.75 1173.02 493.75 1188.14 496.61 1188.14 496.61 1175.99" fill="#231f20"/><path d="M835,1198.72c-5.94-.32-9.72,0-9.72-1.62s3.62-2,9.56-2a39.61,39.61,0,0,1,12.37,1.84v-2.7a41.48,41.48,0,0,0-12.53-1.73c-9.07,0-13,1.62-13,4.64,0,3.89,5.24,4.05,13.12,4.43,7.67.38,10.31.54,10.31,2.11s-4.69,2.43-11.17,2.43a39.56,39.56,0,0,1-12.37-1.84v2.7a38.37,38.37,0,0,0,12.53,1.73c9.07,0,14.58-1.46,14.58-5C848.69,1199.75,842.75,1199.16,835,1198.72Z" fill="#231f20"/><polygon points="299.35 1123.34 302.43 1123.34 302.43 1110.6 307.83 1110.6 307.83 1108.22 293.89 1108.22 293.89 1110.6 299.35 1110.6 299.35 1123.34" fill="#231f20"/><path d="M782.21,1110.38a45.92,45.92,0,0,1,12.91,1.73v-2.7c-1.73-.65-6.37-1.73-13.07-1.73-9.45,0-15.23,2.92-15.23,8.1s5.78,8.1,15.23,8.1a43.2,43.2,0,0,0,13.07-1.73v-2.7a44.93,44.93,0,0,1-12.91,1.73c-6.26,0-11.82-1.24-11.82-5.4S776,1110.38,782.21,1110.38Z" fill="#231f20"/><polygon points="794.47 1130.58 794.47 1128.2 768.44 1128.2 768.44 1130.58 779.73 1130.58 779.73 1140.94 768.44 1140.94 768.44 1143.32 794.47 1143.32 794.47 1140.94 783.18 1140.94 783.18 1130.58 794.47 1130.58" fill="#231f20"/><path d="M504.82,1113.35l1.67-5.13h-3.24l-1.67,5c-.33,1-.92,1.57-2.6,1.57h-.91v-6.59H495v15.12h3.08v-5.94H499c1.57,0,2.16.27,2.76,1.62l1.89,4.32h3.24l-1.89-4.27a4.38,4.38,0,0,0-2.92-2.91A3.44,3.44,0,0,0,504.82,1113.35Z" fill="#231f20"/><polygon points="203.77 1111.03 208.57 1111.03 208.57 1140.51 203.77 1140.51 203.77 1143.32 216.57 1143.32 216.57 1140.51 211.81 1140.51 211.81 1111.03 216.57 1111.03 216.57 1108.22 203.77 1108.22 203.77 1111.03" fill="#231f20"/><path d="M282.77,1123.88c3.78,0,6.43-1.78,6.43-6.75v-8.91h-3.08v8.91c0,2.54-1.24,3.89-3.4,3.89s-3.4-1.35-3.4-3.89v-8.91h-3.08v8.91C276.24,1122.1,279,1123.88,282.77,1123.88Z" fill="#231f20"/><path d="M281.64,1136.89c2.43.71,3.78,1.3,3.78,2.49s-1.51,1.78-3.4,1.78a11.72,11.72,0,0,1-4.86-1.19v2.76a10.51,10.51,0,0,0,4.86,1.13c4.1,0,6.31-1.89,6.31-4.7,0-3.45-2.64-4.37-4.86-5-1.72-.49-3.51-1-3.51-2.16s.76-1.62,3-1.62a10.75,10.75,0,0,1,4.54,1v-2.7a9.67,9.67,0,0,0-4.54-1c-4.1,0-5.88,2.21-5.88,4.59C277.05,1135.49,279.53,1136.3,281.64,1136.89Z" fill="#231f20"/><path d="M846.42,1110.49a10.05,10.05,0,0,1,4.27,1.08v-2.86a8.78,8.78,0,0,0-4.43-1c-4.54,0-7.78,2.92-7.78,8.1s3.24,8.1,7.78,8.1a8.78,8.78,0,0,0,4.43-1V1120a10.05,10.05,0,0,1-4.27,1.08c-2.27,0-4.7-1.19-4.7-5.29S844.15,1110.49,846.42,1110.49Z" fill="#231f20"/><polygon points="350.22 1123.34 379.54 1123.34 379.54 1120.75 353.67 1120.75 353.67 1117.08 375.81 1117.08 375.81 1114.48 353.67 1114.48 353.67 1110.81 378.57 1110.81 378.57 1108.22 350.22 1108.22 350.22 1123.34" fill="#231f20"/><path d="M264.79,1130.47v-22.25H245.35v3.24H261v19c0,5.4-2.59,9.83-8.53,9.83a14.54,14.54,0,0,1-9.61-3.51v4.1c1.35,1.13,4.26,3,9.61,3C260.58,1143.86,264.79,1138,264.79,1130.47Z" fill="#231f20"/><polygon points="505.41 1130.58 505.41 1128.2 494.93 1128.2 494.93 1130.58 498.71 1130.58 498.71 1140.94 494.93 1140.94 494.93 1143.32 505.41 1143.32 505.41 1140.94 501.79 1140.94 501.79 1130.58 505.41 1130.58" fill="#231f20"/><polygon points="842.48 1128.2 839.4 1128.2 839.4 1143.32 852.2 1143.32 852.2 1140.62 842.48 1140.62 842.48 1128.2" fill="#231f20"/><polygon points="603.64 1143.32 616.7 1143.32 616.7 1140.3 606.88 1140.3 606.88 1127.23 614.81 1127.23 614.81 1124.2 606.88 1124.2 606.88 1111.24 616.7 1111.24 616.7 1108.22 603.64 1108.22 603.64 1143.32" fill="#231f20"/><path d="M823.36,1133.06l4.7,10.21h4.1l-5-10.86a7,7,0,0,0-2.7-3.4c3.24-1.3,5.94-5.08,5.94-9.88,0-6-3.51-10.91-10.59-10.91h-13v35.1h3.78V1130h8C821.2,1130,822.34,1130.79,823.36,1133.06Zm-12.69-6.53v-14.8h9.18c4.43,0,6.7,3.08,6.7,7.4s-2.22,7.4-5.62,7.4Z" fill="#231f20"/><path d="M863.86,1134.14c-1.73-.49-3.51-1-3.51-2.16s.76-1.62,3-1.62a10.79,10.79,0,0,1,4.54,1v-2.7a9.75,9.75,0,0,0-4.54-1c-4.1,0-5.88,2.21-5.88,4.59,0,3.24,2.48,4,4.59,4.64,2.43.71,3.78,1.3,3.78,2.49s-1.52,1.78-3.41,1.78a11.81,11.81,0,0,1-4.86-1.19v2.76a10.59,10.59,0,0,0,4.86,1.13c4.11,0,6.32-1.89,6.32-4.7C868.72,1135.71,866.08,1134.79,863.86,1134.14Z" fill="#231f20"/><path d="M590.24,1141.16a11.81,11.81,0,0,1-4.86-1.19v2.76a10.59,10.59,0,0,0,4.86,1.13c4.11,0,6.32-1.89,6.32-4.7,0-3.45-2.64-4.37-4.86-5-1.73-.49-3.51-1-3.51-2.16s.76-1.62,3-1.62a10.79,10.79,0,0,1,4.54,1v-2.7a9.75,9.75,0,0,0-4.54-1c-4.1,0-5.88,2.21-5.88,4.59,0,3.24,2.48,4,4.59,4.64,2.43.71,3.78,1.3,3.78,2.49S592.13,1141.16,590.24,1141.16Z" fill="#231f20"/><polygon points="522.15 1119.56 515.94 1108.22 511.73 1108.22 511.73 1123.34 514.59 1123.34 514.59 1111.19 521.5 1123.34 525.01 1123.34 525.01 1108.22 522.15 1108.22 522.15 1119.56" fill="#231f20"/><polygon points="860.24 1117.13 867.05 1117.13 867.05 1114.43 860.24 1114.43 860.24 1110.92 869.37 1110.92 869.37 1108.22 857.16 1108.22 857.16 1123.34 869.64 1123.34 869.64 1120.64 860.24 1120.64 860.24 1117.13" fill="#231f20"/><polygon points="697.38 1111.46 706.99 1111.46 706.99 1140.08 697.38 1140.08 697.38 1143.32 720.33 1143.32 720.33 1140.08 710.77 1140.08 710.77 1111.46 720.33 1111.46 720.33 1108.22 697.38 1108.22 697.38 1111.46" fill="#231f20"/><polygon points="742.74 1123.34 742.74 1108.22 739.88 1108.22 739.88 1119.56 733.67 1108.22 729.46 1108.22 729.46 1123.34 732.32 1123.34 732.32 1111.19 739.23 1123.34 742.74 1123.34" fill="#231f20"/><path d="M518.37,1137.92h3.4a3,3,0,0,1-3.24,3.24c-2.21,0-3.72-1.3-3.72-5.29,0-2.81,1-5.51,4.48-5.51a7.43,7.43,0,0,1,3.89,1.08v-2.75a6.29,6.29,0,0,0-3.89-1c-5.67,0-7.56,4.43-7.56,8.21,0,5.24,2.32,8,6.8,8,3.19,0,6.16-2.11,6.16-7v-1.35h-6.32Z" fill="#231f20"/><polygon points="625.24 1108.22 622 1108.22 622 1143.32 635.06 1143.32 635.06 1140.3 625.24 1140.3 625.24 1108.22" fill="#231f20"/><polygon points="666.49 1125.66 647.54 1125.66 647.54 1111.73 667.57 1111.73 667.57 1108.22 643.76 1108.22 643.76 1143.32 647.54 1143.32 647.54 1129.17 666.49 1129.17 666.49 1125.66" fill="#231f20"/><path d="M588.68,1117.45h.86v3.62h-2.7v2.27h8.32v-2.27h-2.81v-3.62h.86c1.08,0,1.52-.64,2.54-3.51l2.11-5.72h-3.19l-1.62,5.35c-.32,1.13-.65,1.45-1.4,1.45h-1.41c-.75,0-1.08-.32-1.4-1.45l-1.62-5.35H584l2.11,5.72C587.17,1116.81,587.6,1117.45,588.68,1117.45Z" fill="#231f20"/><path d="M391.42,1108.22h-5.29v35.1h3.24v-13.5h2.21c4.16,0,7.51-4.91,7.51-11.23C399.09,1112.76,396.22,1108.22,391.42,1108.22Zm.16,18.58h-2.21v-15.56h2c2.7,0,4.32,3,4.32,7.35C395.68,1123.39,393.79,1126.8,391.58,1126.8Z" fill="#231f20"/><polygon points="450.98 1108.22 422.63 1108.22 422.63 1111.73 434.94 1111.73 434.94 1143.32 438.72 1143.32 438.72 1111.73 450.98 1111.73 450.98 1108.22" fill="#231f20"/><polygon points="379.48 1140.73 353.62 1140.73 353.62 1137.06 375.76 1137.06 375.76 1134.46 353.62 1134.46 353.62 1130.79 378.51 1130.79 378.51 1128.2 350.16 1128.2 350.16 1143.32 379.48 1143.32 379.48 1140.73" fill="#231f20"/><polygon points="575.12 1143.32 578.74 1143.32 578.74 1108.22 573.4 1108.22 563.89 1128.04 554.06 1108.22 548.72 1108.22 548.72 1143.32 552.34 1143.32 552.34 1112.54 562.38 1132.52 565.35 1132.52 575.12 1112.59 575.12 1143.32" fill="#231f20"/><path d="M463,1118.91h20.19v4.43h3.46v-5.13c0-5.94-4.37-10.53-13.55-10.53-9.78,0-13.56,4.59-13.56,10.53v5.13H463Zm10.1-8.53c5.88,0,9.12,2.27,9.88,5.94H463.13C463.94,1112.65,467.18,1110.38,473.07,1110.38Z" fill="#231f20"/><path d="M342.82,1121l2.81-12.74h-3.46l-2.27,11.5c-.65,3.4-1.78,4.48-4,4.48h-1.25v-16h-3.24v35.1h3.24v-16.09h1.25c2.21,0,3.34.92,4,4.32l2.27,11.77h3.46l-2.81-13a6.58,6.58,0,0,0-3.35-4.65A6.94,6.94,0,0,0,342.82,1121Z" fill="#231f20"/><polygon points="488.02 1140.73 464.75 1140.73 464.75 1128.2 461.29 1128.2 461.29 1143.32 488.02 1143.32 488.02 1140.73" fill="#231f20"/><path d="M633.31,1063.4H614v15.12h19.82c6,0,8.15-3.73,8.15-7.34C642,1067.34,639.84,1063.4,633.31,1063.4Zm.54,12.53H617.49V1066h15.82c3.83,0,5.13,2.16,5.13,5.19C638.44,1073.93,637.2,1075.93,633.85,1075.93Z" fill="#231f20"/><path d="M473.31,1058.54c4.75,0,6.69-2.7,6.69-7.56s-1.94-7.56-6.69-7.56h-6.05v15.12Zm-3-12.42h3c1.94,0,3.45,1.08,3.45,4.86s-1.51,4.86-3.45,4.86h-3Z" fill="#231f20"/><path d="M425,1048.55c0-3.13-1.94-5.13-6.8-5.13h-5.67v15.12h3.08V1054h3.83a1.77,1.77,0,0,1,1.78,1.35l1.08,3.24h3.24l-1.62-4.16c-.43-1.13-.86-1.62-1.94-1.78A4,4,0,0,0,425,1048.55Zm-6.8,2.81h-2.59V1046h2.59c2.7,0,3.72,1,3.72,2.65S420.93,1051.36,418.23,1051.36Z" fill="#231f20"/><path d="M431.89,1043.42v5.29c0,5.94,3.35,10.37,14.09,10.37,10.1,0,14.1-4.43,14.1-10.37v-5.29h-3.46v5.29c0,5.08-3.45,7.67-10.64,7.67s-10.63-2.59-10.63-7.67v-5.29Z" fill="#231f20"/><polygon points="350.03 1045.8 350.03 1043.42 324 1043.42 324 1045.8 335.29 1045.8 335.29 1056.16 324 1056.16 324 1058.54 350.03 1058.54 350.03 1056.16 338.74 1056.16 338.74 1045.8 350.03 1045.8" fill="#231f20"/><path d="M827.38,1075.5a22.9,22.9,0,0,1-11.93-3.78v3.83a20.39,20.39,0,0,0,11.93,3.51c8.32,0,13-4,13-9.5,0-8-8.47-9.89-12.36-11.13s-7.72-2.43-7.72-6.32,3.78-5.67,7.66-5.67a21.31,21.31,0,0,1,10.86,3.3v-3.84a19.67,19.67,0,0,0-10.86-3c-8,0-11.71,4.48-11.71,9.23,0,7.08,7,8.81,10.69,10.1,3.18,1.14,9.39,2.54,9.39,7.35C836.29,1072.85,833.86,1075.5,827.38,1075.5Z" fill="#231f20"/><path d="M386.75,1064.8v-3.18H374.6v3.51H383c0,5.88-2.87,10.31-9.18,10.31-6,0-9.78-4.43-9.78-14.74,0-10,4-14.2,10.86-14.2a14.56,14.56,0,0,1,9.61,3.45v-4.1c-1.35-1.13-4.27-3-9.61-3-9,0-14.75,5.56-14.75,17.82,0,12.53,4.92,18.36,13.67,18.36C380.54,1079.06,386.75,1075,386.75,1064.8Z" fill="#231f20"/><path d="M783,1045.69a10,10,0,0,1,4.26,1.08v-2.86a8.75,8.75,0,0,0-4.43-1c-4.53,0-7.77,2.92-7.77,8.1s3.24,8.1,7.77,8.1a8.75,8.75,0,0,0,4.43-1v-2.86a10,10,0,0,1-4.26,1.08c-2.27,0-4.7-1.19-4.7-5.29S780.73,1045.69,783,1045.69Z" fill="#231f20"/><polygon points="705.24 1045.42 710.64 1078.52 715.71 1078.52 715.71 1043.42 712.74 1043.42 712.74 1076.85 707.29 1043.42 702.27 1043.42 702.27 1078.52 705.24 1078.52 705.24 1045.42" fill="#231f20"/><path d="M593.62,1063.4v8.91c0,5,2.75,6.75,6.53,6.75s6.43-1.78,6.43-6.75v-8.91H603.5v8.91c0,2.54-1.24,3.89-3.4,3.89s-3.4-1.35-3.4-3.89v-8.91Z" fill="#231f20"/><path d="M585.3,1078.52h3.35l-1.51-12.64c-.22-1.62-.86-3-2.27-3.61,2-.92,4.16-3.78,4.16-8.86,0-5.83-3-10-8.1-10h-4.81v35.1h3.24v-14.58h2.38a2.34,2.34,0,0,1,2.32,2.32Zm-3.56-17.6h-2.38v-14.48h1.57c2.7,0,4.7,2.6,4.7,7C585.63,1058.22,583.79,1060.92,581.74,1060.92Z" fill="#231f20"/><polygon points="768.58 1045.8 768.58 1043.42 758.1 1043.42 758.1 1045.8 761.88 1045.8 761.88 1056.16 758.1 1056.16 758.1 1058.54 768.58 1058.54 768.58 1056.16 764.96 1056.16 764.96 1045.8 768.58 1045.8" fill="#231f20"/><path d="M747.84,1046c2.27,0,3.84,1.89,4.75,3.51v-4.21a5.62,5.62,0,0,0-4.75-2.43c-5.56,0-9.12,4.75-9.12,18.09s3.56,18.09,9.12,18.09a5.62,5.62,0,0,0,4.75-2.43v-4.1c-.91,1.51-2.37,3.4-4.75,3.4-3.56,0-5.72-4.48-5.72-15S744.28,1046,747.84,1046Z" fill="#231f20"/><polygon points="788.77 1075.82 779.05 1075.82 779.05 1063.4 775.98 1063.4 775.98 1078.52 788.77 1078.52 788.77 1075.82" fill="#231f20"/><path d="M306.39,1068.58l3.46,9.94h4l-3.57-9.94c-1.4-4-2.48-6.26-6-7a7.77,7.77,0,0,0,5.29-5.5l4-12.64h-4l-3.67,11.93c-.92,3.08-3.08,4.65-6.91,4.65h-5.51v-16.58h-3.78v35.1h3.78v-15H299C303.26,1063.56,305.31,1065.56,306.39,1068.58Z" fill="#231f20"/><polygon points="670.25 1046.66 679.86 1046.66 679.86 1075.28 670.25 1075.28 670.25 1078.52 693.2 1078.52 693.2 1075.28 683.64 1075.28 683.64 1046.66 693.2 1046.66 693.2 1043.42 670.25 1043.42 670.25 1046.66" fill="#231f20"/><path d="M600.1,1042.88c-4.32,0-6.86,2.92-6.86,8.1s2.54,8.1,6.86,8.1,6.86-2.92,6.86-8.1S604.42,1042.88,600.1,1042.88Zm0,13.5c-2.05,0-3.62-1.19-3.62-5.4s1.57-5.4,3.62-5.4,3.62,1.19,3.62,5.4S602.15,1056.38,600.1,1056.38Z" fill="#231f20"/><polygon points="541.89 1046.39 548.8 1058.54 552.31 1058.54 552.31 1043.42 549.45 1043.42 549.45 1054.76 543.24 1043.42 539.03 1043.42 539.03 1058.54 541.89 1058.54 541.89 1046.39" fill="#231f20"/><polygon points="807.3 1046.44 807.3 1043.42 794.23 1043.42 794.23 1078.52 807.3 1078.52 807.3 1075.49 797.47 1075.49 797.47 1062.43 805.41 1062.43 805.41 1059.4 797.47 1059.4 797.47 1046.44 807.3 1046.44" fill="#231f20"/><path d="M770.31,1078.52l-1.62-4.16c-.44-1.13-.87-1.62-2-1.78a4,4,0,0,0,3-4c0-3.13-1.95-5.13-6.81-5.13h-5.67v15.12h3.08v-4.59h3.83a1.79,1.79,0,0,1,1.79,1.35l1.08,3.24Zm-7.35-7.18h-2.59V1066H763c2.7,0,3.73,1,3.73,2.65S765.66,1071.34,763,1071.34Z" fill="#231f20"/><polygon points="616.84 1046.66 637.25 1058.54 641.14 1058.54 641.14 1043.42 637.79 1043.42 637.79 1055.3 617.38 1043.42 613.49 1043.42 613.49 1058.54 616.84 1058.54 616.84 1046.66" fill="#231f20"/><path d="M552.58,1071c0-4.86-1.94-7.56-6.7-7.56h-6v15.12h6C550.64,1078.52,552.58,1075.82,552.58,1071Zm-9.67-4.86h3c2,0,3.46,1.08,3.46,4.86s-1.51,4.86-3.46,4.86h-3Z" fill="#231f20"/><polygon points="459.7 1063.4 456.35 1063.4 456.35 1075.28 435.94 1063.4 432.05 1063.4 432.05 1078.52 435.4 1078.52 435.4 1066.64 455.81 1078.52 459.7 1078.52 459.7 1063.4" fill="#231f20"/><path d="M518.45,1042.88c-9.18,0-12.09,5.56-12.09,17.82v17.82h3.78v-11.18h16.63v11.18h3.78V1060.7C530.55,1048.44,527.63,1042.88,518.45,1042.88Zm8.32,20.95H510.14v-3.13c0-10,1.4-14.2,8.31-14.2,6.27,0,8.32,4.16,8.32,14.2Z" fill="#231f20"/><polygon points="248.24 1078.52 248.24 1046.93 260.5 1046.93 260.5 1043.42 232.15 1043.42 232.15 1046.93 244.46 1046.93 244.46 1078.52 248.24 1078.52" fill="#231f20"/><path d="M425.52,1071c0-5.18-2.54-8.1-6.86-8.1s-6.86,2.92-6.86,8.1,2.54,8.1,6.86,8.1S425.52,1076.14,425.52,1071Zm-6.86,5.4c-2.05,0-3.62-1.19-3.62-5.4s1.57-5.4,3.62-5.4,3.62,1.19,3.62,5.4S420.71,1076.36,418.66,1076.36Z" fill="#231f20"/><path d="M279.88,1058.54v-8.64c0-4.81-2.59-7-6.37-7s-6.37,2.21-6.37,7v8.64h3.07v-4.37h6.59v4.37Zm-9.67-6.8v-1.84c0-2.81,1.14-4.32,3.3-4.32s3.29,1.51,3.29,4.32v1.84Z" fill="#231f20"/><polygon points="280.75 1075.82 271.02 1075.82 271.02 1063.4 267.95 1063.4 267.95 1078.52 280.75 1078.52 280.75 1075.82" fill="#231f20"/><polygon points="350.84 1063.4 347.49 1063.4 347.49 1075.28 327.08 1063.4 323.19 1063.4 323.19 1078.52 326.54 1078.52 326.54 1066.64 346.95 1078.52 350.84 1078.52 350.84 1063.4" fill="#231f20"/><polygon points="550.88 1000.98 550.88 998.6 540.4 998.6 540.4 1000.98 544.18 1000.98 544.18 1011.34 540.4 1011.34 540.4 1013.72 550.88 1013.72 550.88 1011.34 547.26 1011.34 547.26 1000.98 550.88 1000.98" fill="#231f20"/><polygon points="570.48 978.62 567.62 978.62 567.62 989.96 561.41 978.62 557.2 978.62 557.2 993.74 560.06 993.74 560.06 981.59 566.97 993.74 570.48 993.74 570.48 978.62" fill="#231f20"/><polygon points="606.77 993.74 606.77 978.62 602.77 978.62 600.18 990.5 597.64 978.62 593.48 978.62 593.48 993.74 596.02 993.74 596.02 981.37 598.94 993.74 601.42 993.74 604.23 981.43 604.23 993.74 606.77 993.74" fill="#231f20"/><polygon points="642.68 981.32 642.68 978.62 630.47 978.62 630.47 993.74 642.95 993.74 642.95 991.04 633.55 991.04 633.55 987.53 640.36 987.53 640.36 984.83 633.55 984.83 633.55 981.32 642.68 981.32" fill="#231f20"/><polygon points="483.92 993.74 483.92 981.21 496.83 981.21 496.83 978.62 467.56 978.62 467.56 981.21 480.46 981.21 480.46 993.74 483.92 993.74" fill="#231f20"/><polygon points="633.93 998.6 630.85 998.6 630.85 1013.72 643.65 1013.72 643.65 1011.02 633.93 1011.02 633.93 998.6" fill="#231f20"/><polygon points="869.42 987.53 876.23 987.53 876.23 984.83 869.42 984.83 869.42 981.32 878.55 981.32 878.55 978.62 866.35 978.62 866.35 993.74 878.82 993.74 878.82 991.04 869.42 991.04 869.42 987.53" fill="#231f20"/><path d="M540.46,978.62v15.12h3.08V987.8h.91c1.57,0,2.16.27,2.76,1.62l1.89,4.32h3.24l-1.89-4.27a4.38,4.38,0,0,0-2.92-2.91,3.44,3.44,0,0,0,2.76-2.81l1.67-5.13h-3.24l-1.67,5c-.33,1-.92,1.57-2.6,1.57h-.91v-6.59Z" fill="#231f20"/><path d="M873,1004.54c-1.73-.49-3.51-1-3.51-2.16s.76-1.62,3-1.62a10.79,10.79,0,0,1,4.54,1v-2.7a9.75,9.75,0,0,0-4.54-1c-4.1,0-5.88,2.21-5.88,4.59,0,3.24,2.48,4.05,4.59,4.64,2.43.71,3.78,1.3,3.78,2.49s-1.52,1.78-3.41,1.78a11.81,11.81,0,0,1-4.86-1.19v2.76a10.59,10.59,0,0,0,4.86,1.13c4.11,0,6.32-1.89,6.32-4.7C877.9,1006.11,875.26,1005.19,873,1004.54Z" fill="#231f20"/><path d="M270,1000.87c0,5.4-2.59,9.83-8.53,9.83a14.54,14.54,0,0,1-9.61-3.51v4.1c1.35,1.13,4.26,3,9.61,3,8.1,0,12.31-5.83,12.31-13.39V978.62H254.31v3.24H270Z" fill="#231f20"/><polygon points="221.48 1010.48 211.92 1010.48 211.92 981.86 221.48 981.86 221.48 978.62 198.53 978.62 198.53 981.86 208.14 981.86 208.14 1010.48 198.53 1010.48 198.53 1013.72 221.48 1013.72 221.48 1010.48" fill="#231f20"/><path d="M776,986.18c0,5.18,5.78,8.1,15.23,8.1a43.2,43.2,0,0,0,13.07-1.73v-2.7a44.93,44.93,0,0,1-12.91,1.73c-6.26,0-11.82-1.24-11.82-5.4s5.56-5.4,11.82-5.4a45.92,45.92,0,0,1,12.91,1.73v-2.7c-1.73-.65-6.37-1.73-13.07-1.73C781.78,978.08,776,981,776,986.18Z" fill="#231f20"/><path d="M564.76,1000.76a7.36,7.36,0,0,1,3.88,1.08v-2.75a6.23,6.23,0,0,0-3.88-1c-5.67,0-7.56,4.43-7.56,8.21,0,5.24,2.32,8,6.8,8,3.19,0,6.16-2.11,6.16-7v-1.35h-6.32v2.38h3.4a3,3,0,0,1-3.24,3.24c-2.21,0-3.73-1.3-3.73-5.29C560.27,1003.46,561.25,1000.76,564.76,1000.76Z" fill="#231f20"/><polygon points="729.51 981.86 729.51 978.62 706.56 978.62 706.56 981.86 716.17 981.86 716.17 1010.48 706.56 1010.48 706.56 1013.72 729.51 1013.72 729.51 1010.48 719.95 1010.48 719.95 981.86 729.51 981.86" fill="#231f20"/><polygon points="748.41 993.74 751.92 993.74 751.92 978.62 749.06 978.62 749.06 989.96 742.85 978.62 738.64 978.62 738.64 993.74 741.5 993.74 741.5 981.59 748.41 993.74" fill="#231f20"/><polygon points="803.65 1000.98 803.65 998.6 777.62 998.6 777.62 1000.98 788.91 1000.98 788.91 1011.34 777.62 1011.34 777.62 1013.72 803.65 1013.72 803.65 1011.34 792.37 1011.34 792.37 1000.98 803.65 1000.98" fill="#231f20"/><path d="M495.75,1013.72v-5.13c0-5.94-4.38-10.53-13.56-10.53-9.77,0-13.55,4.59-13.55,10.53v5.13h3.45v-4.43h20.2v4.43Zm-23.49-7c.81-3.67,4.05-5.94,9.93-5.94s9.13,2.27,9.88,5.94Z" fill="#231f20"/><path d="M603.85,998.6l-1.62,5.35c-.32,1.13-.65,1.45-1.4,1.45h-1.41c-.75,0-1.08-.32-1.4-1.45l-1.62-5.35h-3.19l2.11,5.72c1,2.87,1.46,3.51,2.54,3.51h.86v3.62H596v2.27h8.32v-2.27h-2.81v-3.62h.86c1.08,0,1.52-.64,2.54-3.51L607,998.6Z" fill="#231f20"/><path d="M617.3,1011.13a6.25,6.25,0,0,1-5-2.86v4.1a6.75,6.75,0,0,0,5,1.89c5.07,0,8.31-4,8.31-9.18,0-4.59-2.48-7.45-5.67-10.64-2.59-2.59-4.37-5.29-4.37-8.21,0-3.18,1.73-5,4.16-5,2.27,0,3.83,1.89,4.75,3.51v-4.21c-.65-1-2-2.43-5.18-2.43-3.84,0-7.13,3.29-7.13,8.15,0,5.19,3,8.64,5.45,11.07,2.65,2.65,4.54,4.7,4.54,7.78C622.16,1009,620.11,1011.13,617.3,1011.13Z" fill="#231f20"/><polygon points="676.75 982.13 676.75 978.62 652.94 978.62 652.94 1013.72 656.72 1013.72 656.72 999.57 675.67 999.57 675.67 996.06 656.72 996.06 656.72 982.13 676.75 982.13" fill="#231f20"/><polygon points="356.91 993.74 356.91 981.21 369.82 981.21 369.82 978.62 340.55 978.62 340.55 981.21 353.46 981.21 353.46 993.74 356.91 993.74" fill="#231f20"/><polygon points="512.22 978.62 508.44 978.62 508.44 1013.72 534.03 1013.72 534.03 1010.37 512.22 1010.37 512.22 978.62" fill="#231f20"/><polygon points="426.3 981.64 426.3 978.62 413.23 978.62 413.23 1013.72 426.3 1013.72 426.3 1010.7 416.47 1010.7 416.47 997.63 424.41 997.63 424.41 994.6 416.47 994.6 416.47 981.64 426.3 981.64" fill="#231f20"/><path d="M431.16,993.74h3.08V990h2.86c4.59,0,6.81-2.16,6.81-5.67s-2.22-5.67-6.81-5.67h-5.94Zm3.08-12.42h2.86c3,0,3.73,1.08,3.73,3s-.76,3-3.73,3h-2.86Z" fill="#231f20"/><polygon points="407.08 1011.02 397.68 1011.02 397.68 1007.51 404.49 1007.51 404.49 1004.81 397.68 1004.81 397.68 1001.3 406.81 1001.3 406.81 998.6 394.6 998.6 394.6 1013.72 407.08 1013.72 407.08 1011.02" fill="#231f20"/><path d="M332.34,1004.76c0-8-8.48-9.89-12.36-11.13s-7.73-2.43-7.73-6.32,3.78-5.67,7.67-5.67a21.35,21.35,0,0,1,10.86,3.3V981.1a19.67,19.67,0,0,0-10.86-3c-8,0-11.72,4.48-11.72,9.23,0,7.08,7,8.81,10.7,10.1,3.18,1.14,9.39,2.54,9.39,7.35,0,3.29-2.43,5.94-8.91,5.94a22.9,22.9,0,0,1-11.93-3.78v3.83a20.39,20.39,0,0,0,11.93,3.51C327.7,1014.26,332.34,1010.26,332.34,1004.76Z" fill="#231f20"/><polygon points="861.38 1011.02 851.66 1011.02 851.66 998.6 848.58 998.6 848.58 1013.72 861.38 1013.72 861.38 1011.02" fill="#231f20"/><path d="M398.38,987.8h.92c1.57,0,2.16.27,2.76,1.62l1.89,4.32h3.24l-1.89-4.27a4.38,4.38,0,0,0-2.92-2.91,3.41,3.41,0,0,0,2.75-2.81l1.68-5.13h-3.24l-1.68,5c-.32,1-.91,1.57-2.59,1.57h-.92v-6.59h-3.07v15.12h3.07Z" fill="#231f20"/><path d="M816.07,1013.72h3.78v-13.28h8c2.54,0,3.68.75,4.7,3l4.7,10.21h4.1l-5-10.86a7,7,0,0,0-2.7-3.4c3.24-1.3,5.94-5.08,5.94-9.88,0-6-3.51-10.91-10.59-10.91h-13Zm3.78-31.59H829c4.43,0,6.7,3.08,6.7,7.4s-2.22,7.4-5.62,7.4H819.85Z" fill="#231f20"/><path d="M855.6,980.89a10.05,10.05,0,0,1,4.27,1.08v-2.86a8.78,8.78,0,0,0-4.43-1c-4.54,0-7.78,2.92-7.78,8.1s3.24,8.1,7.78,8.1a8.78,8.78,0,0,0,4.43-1v-2.86a10.05,10.05,0,0,1-4.27,1.08c-2.27,0-4.7-1.19-4.7-5.29S853.33,980.89,855.6,980.89Z" fill="#231f20"/><path d="M285.2,978.62v25.92c0,5.72,1.51,9.72,6.7,9.72,4.69,0,6.31-4,6.31-9.72V978.62H295v25.92c0,4.43-.7,6.7-3.07,6.7s-3.46-2-3.46-6.7V978.62Z" fill="#231f20"/><polygon points="303.26 913.82 303.26 948.92 306.5 948.92 306.5 932.34 313.36 932.34 313.36 948.92 316.6 948.92 316.6 913.82 313.36 913.82 313.36 929.48 306.5 929.48 306.5 913.82 303.26 913.82" fill="#231f20"/><path d="M164.81,933.26c-4.32,0-6.86,2.92-6.86,8.1s2.54,8.1,6.86,8.1,6.86-2.92,6.86-8.1S169.13,933.26,164.81,933.26Zm0,13.5c-2.05,0-3.62-1.19-3.62-5.4s1.57-5.4,3.62-5.4,3.62,1.19,3.62,5.4S166.86,946.76,164.81,946.76Z" fill="#231f20"/><path d="M633.26,931.37c0,12.26,5.56,18.09,14.2,18.09,5.34,0,8.26-1.84,9.61-3v-4a14.5,14.5,0,0,1-9.61,3.35c-6.43,0-10.32-4.37-10.32-14.47S641,916.9,647.46,916.9a14.56,14.56,0,0,1,9.61,3.45v-4.1c-1.35-1.13-4.27-3-9.61-3C638.82,913.28,633.26,919.11,633.26,931.37Z" fill="#231f20"/><polygon points="121.61 916.74 126.9 916.74 126.9 948.92 130.14 948.92 130.14 916.74 135.49 916.74 135.49 913.82 121.61 913.82 121.61 916.74" fill="#231f20"/><polygon points="774.3 948.92 774.3 917.33 786.56 917.33 786.56 913.82 758.21 913.82 758.21 917.33 770.52 917.33 770.52 948.92 774.3 948.92" fill="#231f20"/><polygon points="570.02 936.5 570.02 933.8 557.82 933.8 557.82 948.92 570.29 948.92 570.29 946.22 560.89 946.22 560.89 942.71 567.7 942.71 567.7 940.01 560.89 940.01 560.89 936.5 570.02 936.5" fill="#231f20"/><polygon points="407.81 948.92 411.59 948.92 411.59 917.33 423.85 917.33 423.85 913.82 395.5 913.82 395.5 917.33 407.81 917.33 407.81 948.92" fill="#231f20"/><path d="M619.21,948.92h3.46v-5.13c0-5.94-4.37-10.53-13.55-10.53-9.78,0-13.56,4.59-13.56,10.53v5.13H599v-4.43h20.19Zm-20-7c.81-3.67,4.05-5.94,9.94-5.94s9.12,2.27,9.88,5.94Z" fill="#231f20"/><path d="M852.44,913.82v35.1h13c6.48,0,10.8-3.13,10.8-9.61,0-4.81-2.21-7.29-5.78-8.32a7.76,7.76,0,0,0,5-7.72c0-5.94-3.56-9.45-10-9.45Zm19.87,25.49c0,4.32-2.59,6.15-6.91,6.15h-9.18V933.1h9.18C869.72,933.1,872.31,935,872.31,939.31Zm-.75-16c0,3.78-2.38,6.32-6.16,6.32h-9.18V917.33h9.18C869.18,917.33,871.56,919.49,871.56,923.27Z" fill="#231f20"/><polygon points="966.65 947.25 961.2 913.82 956.17 913.82 956.17 948.92 959.14 948.92 959.14 915.82 964.54 948.92 969.62 948.92 969.62 913.82 966.65 913.82 966.65 947.25" fill="#231f20"/><polygon points="984.79 945.14 978.58 933.8 974.37 933.8 974.37 948.92 977.23 948.92 977.23 936.77 984.14 948.92 987.65 948.92 987.65 933.8 984.79 933.8 984.79 945.14" fill="#231f20"/><polygon points="361.91 917.06 371.52 917.06 371.52 945.68 361.91 945.68 361.91 948.92 384.86 948.92 384.86 945.68 375.3 945.68 375.3 917.06 384.86 917.06 384.86 913.82 361.91 913.82 361.91 917.06" fill="#231f20"/><path d="M321.68,920.3v8.64h3.08v-4.37h6.58v4.37h3.08V920.3c0-4.81-2.59-7-6.37-7S321.68,915.49,321.68,920.3Zm3.08,0c0-2.81,1.13-4.32,3.29-4.32s3.29,1.51,3.29,4.32v1.84h-6.58Z" fill="#231f20"/><polygon points="945.05 945.3 927.77 913.82 922.64 913.82 922.64 948.92 926.26 948.92 926.26 918.46 943 948.92 948.67 948.92 948.67 913.82 945.05 913.82 945.05 945.3" fill="#231f20"/><path d="M670.46,923h.92c1.56,0,2.16.27,2.75,1.62l1.89,4.32h3.24l-1.89-4.27a4.37,4.37,0,0,0-2.91-2.91c1.83-.33,2.37-1.62,2.75-2.81l1.67-5.13h-3.23l-1.68,5c-.32,1-.92,1.57-2.59,1.57h-.92v-6.59h-3.08v15.12h3.08Z" fill="#231f20"/><polygon points="703.35 916.41 716.25 916.41 716.25 928.94 719.71 928.94 719.71 916.41 732.62 916.41 732.62 913.82 703.35 913.82 703.35 916.41" fill="#231f20"/><polygon points="205.04 946.54 193.75 946.54 193.75 936.18 205.04 936.18 205.04 933.8 179.01 933.8 179.01 936.18 190.3 936.18 190.3 946.54 179.01 946.54 179.01 948.92 205.04 948.92 205.04 946.54" fill="#231f20"/><polygon points="792.93 913.82 792.93 948.92 796.17 948.92 796.17 932.34 803.03 932.34 803.03 948.92 806.27 948.92 806.27 913.82 803.03 913.82 803.03 929.48 796.17 929.48 796.17 913.82 792.93 913.82" fill="#231f20"/><path d="M733.42,941.36c0-5.18-5.72-8.1-15.44-8.1s-15.44,2.92-15.44,8.1,5.72,8.1,15.44,8.1S733.42,946.54,733.42,941.36ZM718,946.76c-6.75,0-11.88-1.19-11.88-5.4S711.23,936,718,936s11.88,1.19,11.88,5.4S724.73,946.76,718,946.76Z" fill="#231f20"/><polygon points="329.62 948.92 329.62 936.18 335.02 936.18 335.02 933.8 321.08 933.8 321.08 936.18 326.54 936.18 326.54 948.92 329.62 948.92" fill="#231f20"/><path d="M113.78,922.73c0,2.54-1.24,3.89-3.4,3.89s-3.41-1.35-3.41-3.89v-8.91H103.9v8.91c0,5,2.75,6.75,6.53,6.75s6.43-1.78,6.43-6.75v-8.91h-3.08Z" fill="#231f20"/><path d="M230.74,921.49c0,5.24,2.32,8,6.81,8,3.18,0,6.15-2.11,6.15-7v-1.35h-6.32v2.38h3.41a3,3,0,0,1-3.24,3.24c-2.22,0-3.73-1.3-3.73-5.29,0-2.81,1-5.51,4.48-5.51a7.37,7.37,0,0,1,3.89,1.08v-2.75a6.27,6.27,0,0,0-3.89-1C232.63,913.28,230.74,917.71,230.74,921.49Z" fill="#231f20"/><polygon points="212.54 948.92 215.51 948.92 215.51 915.82 220.91 948.92 225.99 948.92 225.99 913.82 223.02 913.82 223.02 947.25 217.57 913.82 212.54 913.82 212.54 948.92" fill="#231f20"/><polygon points="533.63 926.35 507.76 926.35 507.76 922.68 529.9 922.68 529.9 920.08 507.76 920.08 507.76 916.41 532.65 916.41 532.65 913.82 504.3 913.82 504.3 928.94 533.63 928.94 533.63 926.35" fill="#231f20"/><path d="M486,933.8v15.12h3.08V943H490c1.57,0,2.16.27,2.76,1.62l1.89,4.32h3.24L496,944.65a4.38,4.38,0,0,0-2.92-2.91,3.44,3.44,0,0,0,2.76-2.81l1.67-5.13h-3.24l-1.67,5c-.33,1-.92,1.57-2.6,1.57h-.91V933.8Z" fill="#231f20"/><path d="M516.4,946.87A39.61,39.61,0,0,1,504,945v2.7a38.47,38.47,0,0,0,12.53,1.73c9.07,0,14.58-1.46,14.58-5,0-3.89-5.94-4.48-13.71-4.92-5.94-.32-9.72,0-9.72-1.62s3.61-2,9.55-2a39.56,39.56,0,0,1,12.37,1.84V935a41.36,41.36,0,0,0-12.53-1.73c-9.07,0-13,1.62-13,4.64,0,3.89,5.24,4.05,13.12,4.43,7.67.38,10.32.54,10.32,2.11S522.88,946.87,516.4,946.87Z" fill="#231f20"/><polygon points="449.87 917.33 462.19 917.33 462.19 948.92 465.96 948.92 465.96 917.33 478.22 917.33 478.22 913.82 449.87 913.82 449.87 917.33" fill="#231f20"/><path d="M999.16,921.16v2.38h3.4a3,3,0,0,1-3.24,3.24c-2.21,0-3.73-1.3-3.73-5.29,0-2.81,1-5.51,4.49-5.51a7.36,7.36,0,0,1,3.88,1.08v-2.75a6.23,6.23,0,0,0-3.88-1c-5.68,0-7.56,4.43-7.56,8.21,0,5.24,2.32,8,6.8,8,3.19,0,6.15-2.11,6.15-7v-1.35Z" fill="#231f20"/><path d="M487.94,924.57h6.59v4.37h3.08V920.3c0-4.81-2.59-7-6.37-7s-6.38,2.21-6.38,7v8.64h3.08Zm0-4.27c0-2.81,1.14-4.32,3.3-4.32s3.29,1.51,3.29,4.32v1.84h-6.59Z" fill="#231f20"/><path d="M183.28,924.62h16.36c5.51,0,8.15-2.11,8.15-5.18,0-3.3-2.64-5.62-8.69-5.62H179.82v15.12h3.46Zm0-8.21H199.1c3.83,0,5.13,1.08,5.13,3,0,1.67-1.24,2.59-4.59,2.59H183.28Z" fill="#231f20"/><polygon points="823.98 916.52 823.98 913.82 811.78 913.82 811.78 928.94 824.25 928.94 824.25 926.24 814.86 926.24 814.86 922.73 821.66 922.73 821.66 920.03 814.86 920.03 814.86 916.52 823.98 916.52" fill="#231f20"/><polygon points="161.25 922.57 168.37 922.57 168.37 928.94 171.45 928.94 171.45 913.82 168.37 913.82 168.37 920.03 161.25 920.03 161.25 913.82 158.17 913.82 158.17 928.94 161.25 928.94 161.25 922.57" fill="#231f20"/><polygon points="887.43 922.73 894.24 922.73 894.24 920.03 887.43 920.03 887.43 916.52 896.56 916.52 896.56 913.82 884.35 913.82 884.35 928.94 896.83 928.94 896.83 926.24 887.43 926.24 887.43 922.73" fill="#231f20"/><path d="M890.29,943.52h3.41a3,3,0,0,1-3.24,3.24c-2.22,0-3.73-1.3-3.73-5.29,0-2.81,1-5.51,4.48-5.51A7.37,7.37,0,0,1,895.1,937v-2.75a6.27,6.27,0,0,0-3.89-1c-5.67,0-7.56,4.43-7.56,8.21,0,5.24,2.32,8,6.81,8,3.18,0,6.15-2.11,6.15-7v-1.35h-6.32Z" fill="#231f20"/><polygon points="986.2 926.56 982.58 926.56 982.58 916.2 986.2 916.2 986.2 913.82 975.72 913.82 975.72 916.2 979.5 916.2 979.5 926.56 975.72 926.56 975.72 928.94 986.2 928.94 986.2 926.56" fill="#231f20"/><path d="M73,917.06H88.67v19c0,5.4-2.59,9.83-8.53,9.83a14.54,14.54,0,0,1-9.61-3.51v4.1c1.35,1.13,4.26,3,9.61,3,8.1,0,12.31-5.83,12.31-13.39V913.82H73Z" fill="#231f20"/><path d="M111.13,939.74c-1.72-.49-3.51-1-3.51-2.16s.76-1.62,3-1.62a10.75,10.75,0,0,1,4.54,1v-2.7a9.67,9.67,0,0,0-4.54-1c-4.1,0-5.88,2.21-5.88,4.59,0,3.24,2.48,4,4.59,4.64,2.43.71,3.78,1.3,3.78,2.49s-1.51,1.78-3.4,1.78a11.72,11.72,0,0,1-4.86-1.19v2.76a10.51,10.51,0,0,0,4.86,1.13c4.1,0,6.31-1.89,6.31-4.7C116,941.31,113.35,940.39,111.13,939.74Z" fill="#231f20"/><polygon points="280.85 948.92 284.63 948.92 284.63 917.33 296.89 917.33 296.89 913.82 268.54 913.82 268.54 917.33 280.85 917.33 280.85 948.92" fill="#231f20"/><polygon points="559.65 916.57 562.57 928.94 565.05 928.94 567.86 916.63 567.86 928.94 570.4 928.94 570.4 913.82 566.4 913.82 563.81 925.7 561.27 913.82 557.12 913.82 557.12 928.94 559.65 928.94 559.65 916.57" fill="#231f20"/><path d="M596.37,913.82v15.12h18.09c6.43,0,9-1.57,9-4.16,0-1.89-1.19-3-3.4-3.51,2-.65,2.86-1.83,2.86-3.24,0-2.59-2.05-4.21-8.48-4.21Zm23.55,10.75c0,1.18-1.25,1.78-4.92,1.78H599.83v-3.67H615C618.67,922.68,619.92,923.43,619.92,924.57Zm-.54-6.27c0,1.35-1.25,1.78-4.92,1.78H599.83v-3.67h14.63C618.13,916.41,619.38,916.84,619.38,918.3Z" fill="#231f20"/><polygon points="902.07 916.63 906.87 916.63 906.87 946.11 902.07 946.11 902.07 948.92 914.86 948.92 914.86 946.11 910.11 946.11 910.11 916.63 914.86 916.63 914.86 913.82 902.07 913.82 902.07 916.63" fill="#231f20"/><polygon points="896.99 852.26 906.6 852.26 906.6 880.88 896.99 880.88 896.99 884.12 919.94 884.12 919.94 880.88 910.38 880.88 910.38 852.26 919.94 852.26 919.94 849.02 896.99 849.02 896.99 852.26" fill="#231f20"/><path d="M878,859.77h6.59v4.37h3.08V855.5c0-4.81-2.59-7-6.37-7s-6.38,2.21-6.38,7v8.64H878Zm0-4.27c0-2.81,1.14-4.32,3.3-4.32s3.29,1.51,3.29,4.32v1.84H878Z" fill="#231f20"/><polygon points="804.97 851.99 811.89 864.14 815.4 864.14 815.4 849.02 812.53 849.02 812.53 860.36 806.32 849.02 802.11 849.02 802.11 864.14 804.97 864.14 804.97 851.99" fill="#231f20"/><polygon points="842.29 851.56 853.09 864.14 856 864.14 865.94 851.77 865.94 864.14 869.02 864.14 869.02 849.02 864.32 849.02 854.55 861.39 844.12 849.02 839.21 849.02 839.21 864.14 842.29 864.14 842.29 851.56" fill="#231f20"/><polygon points="877.5 871.97 884.41 884.12 887.92 884.12 887.92 869 885.06 869 885.06 880.34 878.85 869 874.63 869 874.63 884.12 877.5 884.12 877.5 871.97" fill="#231f20"/><polygon points="931.93 851.99 938.84 864.14 942.35 864.14 942.35 849.02 939.49 849.02 939.49 860.36 933.28 849.02 929.07 849.02 929.07 864.14 931.93 864.14 931.93 851.99" fill="#231f20"/><path d="M806.49,878.23h.86v3.62h-2.7v2.27H813v-2.27h-2.81v-3.62H811c1.08,0,1.51-.64,2.54-3.51l2.11-5.72h-3.19l-1.62,5.35c-.32,1.13-.65,1.45-1.4,1.45h-1.41c-.75,0-1.08-.32-1.4-1.45L805,869h-3.19l2.11,5.72C805,877.59,805.41,878.23,806.49,878.23Z" fill="#231f20"/><path d="M787.21,869.32h6.86v14.8h3.24V857.77c0-5.62-1.95-9.29-6.65-9.29-5.18,0-6.69,3.67-6.69,9.29v26.35h3.24Zm0-11.55c0-3.89.81-6.27,3.45-6.27s3.41,2.43,3.41,6.27v8.42h-6.86Z" fill="#231f20"/><polygon points="843.42 877.86 865.56 877.86 865.56 875.26 843.42 875.26 843.42 871.59 868.32 871.59 868.32 869 839.97 869 839.97 884.12 869.29 884.12 869.29 881.53 843.42 881.53 843.42 877.86" fill="#231f20"/><path d="M935.87,884.66c3.19,0,6.16-2.11,6.16-7v-1.35h-6.32v2.38h3.4a3,3,0,0,1-3.24,3.24c-2.21,0-3.73-1.3-3.73-5.29,0-2.81,1-5.51,4.49-5.51a7.36,7.36,0,0,1,3.88,1.08v-2.75a6.23,6.23,0,0,0-3.88-1c-5.67,0-7.56,4.43-7.56,8.21C929.07,881.91,931.39,884.66,935.87,884.66Z" fill="#231f20"/><polygon points="605.39 871.97 612.3 884.12 615.81 884.12 615.81 869 612.95 869 612.95 880.34 606.74 869 602.53 869 602.53 884.12 605.39 884.12 605.39 871.97" fill="#231f20"/><polygon points="325.51 861.44 316.12 861.44 316.12 857.93 322.92 857.93 322.92 855.23 316.12 855.23 316.12 851.72 325.24 851.72 325.24 849.02 313.04 849.02 313.04 864.14 325.51 864.14 325.51 861.44" fill="#231f20"/><polygon points="335.61 864.14 338.69 864.14 338.69 851.39 344.09 851.39 344.09 849.02 330.15 849.02 330.15 851.39 335.61 851.39 335.61 864.14" fill="#231f20"/><polygon points="351.54 851.02 356.94 884.12 362.02 884.12 362.02 849.02 359.05 849.02 359.05 882.45 353.59 849.02 348.57 849.02 348.57 884.12 351.54 884.12 351.54 851.02" fill="#231f20"/><path d="M315.68,879.75h6.59v4.37h3.08v-8.64c0-4.81-2.59-7-6.37-7s-6.37,2.21-6.37,7v8.64h3.07Zm0-4.27c0-2.81,1.14-4.32,3.3-4.32s3.29,1.51,3.29,4.32v1.84h-6.59Z" fill="#231f20"/><polygon points="416.88 884.12 420.66 884.12 420.66 852.53 432.92 852.53 432.92 849.02 404.57 849.02 404.57 852.53 416.88 852.53 416.88 884.12" fill="#231f20"/><polygon points="444.09 857.44 465.91 857.44 465.91 864.14 469.37 864.14 469.37 849.02 465.91 849.02 465.91 854.85 444.09 854.85 444.09 849.02 440.64 849.02 440.64 864.14 444.09 864.14 444.09 857.44" fill="#231f20"/><path d="M298.73,870.62h2.21c4.16,0,7.51-4.91,7.51-11.23,0-5.83-2.86-10.37-7.67-10.37h-5.29v35.1h3.24Zm0-18.58h2c2.7,0,4.32,3,4.32,7.35,0,4.8-1.89,8.21-4.11,8.21h-2.21Z" fill="#231f20"/><polygon points="331.83 881.74 331.83 884.12 342.31 884.12 342.31 881.74 338.69 881.74 338.69 871.38 342.31 871.38 342.31 869 331.83 869 331.83 871.38 335.61 871.38 335.61 881.74 331.83 881.74" fill="#231f20"/><path d="M373.57,864.68c3.19,0,6.16-2.11,6.16-7v-1.35h-6.32v2.38h3.4a3,3,0,0,1-3.24,3.24c-2.21,0-3.72-1.3-3.72-5.29,0-2.81,1-5.51,4.48-5.51a7.43,7.43,0,0,1,3.89,1.08v-2.75a6.29,6.29,0,0,0-3.89-1c-5.67,0-7.56,4.43-7.56,8.21C366.77,861.93,369.09,864.68,373.57,864.68Z" fill="#231f20"/><path d="M193.81,869.16h5.5c4.27,0,6.32,2,7.4,5l3.46,9.94h4l-3.56-9.94c-1.4-4-2.48-6.26-6-7a7.79,7.79,0,0,0,5.29-5.5l4-12.64h-4L206.23,861c-.92,3.08-3.08,4.65-6.92,4.65h-5.5V849H190v35.1h3.78Z" fill="#231f20"/><path d="M754.38,864.68c3.78,0,6.42-1.78,6.42-6.75V849h-3.07v8.91c0,2.54-1.25,3.89-3.41,3.89s-3.4-1.35-3.4-3.89V849h-3.08v8.91C747.84,862.9,750.6,864.68,754.38,864.68Z" fill="#231f20"/><polygon points="158.06 880.88 148.5 880.88 148.5 852.26 158.06 852.26 158.06 849.02 135.11 849.02 135.11 852.26 144.72 852.26 144.72 880.88 135.11 880.88 135.11 884.12 158.06 884.12 158.06 880.88" fill="#231f20"/><path d="M279.67,859.55h3.83a1.77,1.77,0,0,1,1.78,1.35l1.08,3.24h3.24L288,860c-.43-1.13-.86-1.62-1.94-1.78a4,4,0,0,0,3-4.05c0-3.13-1.94-5.13-6.8-5.13h-5.67v15.12h3.08Zm0-7.94h2.59c2.7,0,3.72,1,3.72,2.65s-1,2.7-3.72,2.7h-2.59Z" fill="#231f20"/><polygon points="288.95 871.7 288.95 869 276.75 869 276.75 884.12 289.22 884.12 289.22 881.42 279.83 881.42 279.83 877.91 286.63 877.91 286.63 875.21 279.83 875.21 279.83 871.7 288.95 871.7" fill="#231f20"/><path d="M246.67,869h-5.94v15.12h3.08v-3.78h2.86c4.59,0,6.81-2.16,6.81-5.67S251.26,869,246.67,869Zm0,8.64h-2.86V871.7h2.86c3,0,3.73,1.08,3.73,3S249.64,877.64,246.67,877.64Z" fill="#231f20"/><polygon points="252.94 861.44 243.54 861.44 243.54 857.93 250.34 857.93 250.34 855.23 243.54 855.23 243.54 851.72 252.67 851.72 252.67 849.02 240.46 849.02 240.46 864.14 252.94 864.14 252.94 861.44" fill="#231f20"/><polygon points="235.87 881.1 226.04 881.1 226.04 868.03 233.98 868.03 233.98 865 226.04 865 226.04 852.04 235.87 852.04 235.87 849.02 222.8 849.02 222.8 884.12 235.87 884.12 235.87 881.1" fill="#231f20"/><polygon points="716.52 864.14 719.6 864.14 719.6 851.39 725 851.39 725 849.02 711.07 849.02 711.07 851.39 716.52 851.39 716.52 864.14" fill="#231f20"/><polygon points="596.32 884.12 596.32 869 592.86 869 592.86 874.83 571.05 874.83 571.05 869 567.59 869 567.59 884.12 571.05 884.12 571.05 877.42 592.86 877.42 592.86 884.12 596.32 884.12" fill="#231f20"/><polygon points="684.88 864.14 690.44 853.5 695.95 864.14 700.27 864.14 707.07 849.02 703.94 849.02 698.05 862.14 692.06 850.64 688.77 850.64 682.83 862.03 677.7 849.02 674.57 849.02 680.56 864.14 684.88 864.14" fill="#231f20"/><polygon points="711.39 869 711.39 884.12 714.47 884.12 714.47 877.75 721.6 877.75 721.6 884.12 724.68 884.12 724.68 869 721.6 869 721.6 875.21 714.47 875.21 714.47 869 711.39 869" fill="#231f20"/><polygon points="752.81 884.12 755.89 884.12 755.89 871.38 761.29 871.38 761.29 869 747.36 869 747.36 871.38 752.81 871.38 752.81 884.12" fill="#231f20"/><polygon points="677.8 881.74 677.8 884.12 703.83 884.12 703.83 881.74 692.55 881.74 692.55 871.38 703.83 871.38 703.83 869 677.8 869 677.8 871.38 689.09 871.38 689.09 881.74 677.8 881.74" fill="#231f20"/><path d="M736.18,884.66c5,0,7.56-5.83,7.56-18.36,0-12.26-2.59-17.82-7.56-17.82s-7.56,5.56-7.56,17.82C728.62,878.83,731.21,884.66,736.18,884.66Zm0-32.94c2.81,0,4.05,4.27,4.05,14.58,0,10.58-1.24,15.12-4.05,15.12s-4-4.54-4-15.12C732.13,856,733.37,851.72,736.18,851.72Z" fill="#231f20"/><path d="M636.87,884.66c6.75,0,13-4,13-14.26v-3.18H637.68v3.51h8.37c0,5.88-2.86,10.31-9.18,10.31-6,0-9.77-4.43-9.77-14.74,0-10,4-14.2,10.85-14.2a14.57,14.57,0,0,1,9.62,3.45v-4.1c-1.35-1.13-4.27-3-9.62-3-9,0-14.74,5.56-14.74,17.82C623.21,878.83,628.13,884.66,636.87,884.66Z" fill="#231f20"/><path d="M509.38,868.46c-9.77,0-13.55,4.59-13.55,10.53v5.13h3.45v-4.43h20.2v4.43h3.45V879C522.93,873.05,518.56,868.46,509.38,868.46Zm-9.94,8.64c.81-3.67,4.05-5.94,9.94-5.94s9.13,2.27,9.88,5.94Z" fill="#231f20"/><polygon points="532.49 851.77 535.41 864.14 537.89 864.14 540.7 851.83 540.7 864.14 543.24 864.14 543.24 849.02 539.24 849.02 536.65 860.9 534.11 849.02 529.95 849.02 529.95 864.14 532.49 864.14 532.49 851.77" fill="#231f20"/><path d="M522.12,859.66c0-3.89-5.94-4.48-13.71-4.92-5.94-.32-9.72,0-9.72-1.62s3.62-2,9.56-2a39.54,39.54,0,0,1,12.36,1.84v-2.7a41.36,41.36,0,0,0-12.53-1.73c-9.07,0-13,1.62-13,4.64,0,3.89,5.24,4,13.13,4.43,7.66.38,10.31.54,10.31,2.11s-4.7,2.43-11.18,2.43A39.48,39.48,0,0,1,495,860.25V863a38.34,38.34,0,0,0,12.52,1.73C516.62,864.68,522.12,863.22,522.12,859.66Z" fill="#231f20"/><polygon points="614.36 861.76 610.74 861.76 610.74 851.39 614.36 851.39 614.36 849.02 603.88 849.02 603.88 851.39 607.66 851.39 607.66 861.76 603.88 861.76 603.88 864.14 614.36 864.14 614.36 861.76" fill="#231f20"/><polygon points="444.31 877.86 466.45 877.86 466.45 875.26 444.31 875.26 444.31 871.59 469.2 871.59 469.2 869 440.85 869 440.85 884.12 470.18 884.12 470.18 881.53 444.31 881.53 444.31 877.86" fill="#231f20"/><polygon points="580.23 864.14 583.68 864.14 583.68 851.61 596.59 851.61 596.59 849.02 567.32 849.02 567.32 851.61 580.23 851.61 580.23 864.14" fill="#231f20"/><polygon points="543.13 881.42 533.73 881.42 533.73 877.91 540.54 877.91 540.54 875.21 533.73 875.21 533.73 871.7 542.86 871.7 542.86 869 530.65 869 530.65 884.12 543.13 884.12 543.13 881.42" fill="#231f20"/></svg>