<svg xmlns="http://www.w3.org/2000/svg" xmlns:xlink="http://www.w3.org/1999/xlink" viewBox="0 0 1200 594.06"><defs><linearGradient id="a" x1="1078.62" y1="627.17" x2="193.27" y2="-40.38" gradientUnits="userSpaceOnUse"><stop offset="0.11" stop-color="#ff811a"/><stop offset="0.19" stop-color="#ff9016"/><stop offset="0.34" stop-color="#ffb60d"/><stop offset="0.52" stop-color="#ffec00"/><stop offset="1" stop-color="#ff811a"/></linearGradient><linearGradient id="b" x1="1138.45" y1="135.51" x2="1059.99" y2="178.43" gradientUnits="userSpaceOnUse"><stop offset="0" stop-color="#4e5c66"/><stop offset="0.01" stop-color="#505e68"/><stop offset="0.2" stop-color="#657886"/><stop offset="0.37" stop-color="#728798"/><stop offset="0.48" stop-color="#778d9e"/><stop offset="0.61" stop-color="#738899"/><stop offset="0.76" stop-color="#687b8a"/><stop offset="0.93" stop-color="#566571"/><stop offset="0.99" stop-color="#4e5c66"/></linearGradient><linearGradient id="c" x1="1092.38" y1="42.13" x2="1092.38" y2="200.57" xlink:href="#b"/><linearGradient id="d" x1="1004.98" y1="172.9" x2="906.18" y2="172.9" xlink:href="#b"/><linearGradient id="e" x1="1020.02" y1="38.03" x2="1020.02" y2="184.3" xlink:href="#b"/><linearGradient id="f" x1="899.01" y1="39.39" x2="899.01" y2="183.1" xlink:href="#b"/><linearGradient id="g" x1="876.9" y1="172.9" x2="786.97" y2="172.9" xlink:href="#b"/><linearGradient id="h" x1="755.6" y1="172.9" x2="359.87" y2="172.9" xlink:href="#b"/><linearGradient id="i" x1="305.44" y1="510.36" x2="228.58" y2="560.79" xlink:href="#b"/><linearGradient id="j" x1="253.53" y1="172.9" x2="43.25" y2="172.9" xlink:href="#b"/><linearGradient id="k" x1="1018.15" y1="333.83" x2="1104.23" y2="333.83" xlink:href="#b"/><linearGradient id="l" x1="1011.98" y1="426.77" x2="979.52" y2="356.92" gradientUnits="userSpaceOnUse"><stop offset="0" stop-color="#778d9e"/><stop offset="0.31" stop-color="#6d8291"/><stop offset="0.88" stop-color="#54636e"/><stop offset="1" stop-color="#4e5c66"/></linearGradient><linearGradient id="m" x1="1125.34" y1="184.93" x2="1090.5" y2="347.68" xlink:href="#b"/><linearGradient id="n" x1="985.19" y1="383.33" x2="1030.86" y2="324.63" gradientUnits="userSpaceOnUse"><stop offset="0" stop-color="#778d9e"/><stop offset="0.99" stop-color="#4e5c66"/></linearGradient><linearGradient id="o" x1="805.3" y1="328.71" x2="829.68" y2="380.49" xlink:href="#b"/><linearGradient id="p" x1="813.02" y1="333.66" x2="748.62" y2="334.05" xlink:href="#b"/><linearGradient id="q" x1="759.5" y1="178.37" x2="709.19" y2="424.79" xlink:href="#b"/><linearGradient id="r" x1="560.75" y1="176.12" x2="507.47" y2="442.76" xlink:href="#b"/><linearGradient id="s" x1="865.32" y1="20.37" x2="865.32" y2="61.62" gradientUnits="userSpaceOnUse"><stop offset="0" stop-color="#92b0cc"/><stop offset="0.02" stop-color="#9ab7d1"/><stop offset="0.07" stop-color="#b3cbe2"/><stop offset="0.14" stop-color="#c6dbef"/><stop offset="0.21" stop-color="#d4e6f8"/><stop offset="0.31" stop-color="#dcedfd"/><stop offset="0.48" stop-color="#deefff"/><stop offset="0.59" stop-color="#d9ebfb"/><stop offset="0.72" stop-color="#cadef1"/><stop offset="0.86" stop-color="#b1cae1"/><stop offset="1" stop-color="#92b0cc"/></linearGradient><linearGradient id="t" x1="797.95" y1="4.87" x2="797.95" y2="272.99" xlink:href="#s"/><linearGradient id="u" x1="825.81" y1="377.14" x2="783.3" y2="430.89" gradientUnits="userSpaceOnUse"><stop offset="0" stop-color="#deefff"/><stop offset="0.21" stop-color="#d9ebfb"/><stop offset="0.46" stop-color="#cadef1"/><stop offset="0.74" stop-color="#b1cae1"/><stop offset="1" stop-color="#92b0cc"/></linearGradient><linearGradient id="v" x1="98.7" y1="14.73" x2="98.7" y2="138.48" xlink:href="#s"/><linearGradient id="w" x1="577.85" y1="263.22" x2="691.51" y2="184.47" gradientUnits="userSpaceOnUse"><stop offset="0" stop-color="#92b0cc"/><stop offset="0.01" stop-color="#99b6d1"/><stop offset="0.08" stop-color="#b2cbe2"/><stop offset="0.15" stop-color="#c6dbef"/><stop offset="0.22" stop-color="#d4e6f8"/><stop offset="0.32" stop-color="#dcedfd"/><stop offset="0.5" stop-color="#deefff"/><stop offset="0.68" stop-color="#dcedfd"/><stop offset="0.78" stop-color="#d3e6f8"/><stop offset="0.85" stop-color="#c6dbef"/><stop offset="0.92" stop-color="#b2cbe1"/><stop offset="0.99" stop-color="#99b6d1"/><stop offset="1" stop-color="#92b0cc"/></linearGradient><linearGradient id="x" x1="508.22" y1="421.61" x2="562.92" y2="421.61" gradientUnits="userSpaceOnUse"><stop offset="0.04" stop-color="#deefff"/><stop offset="0.24" stop-color="#d9ebfb"/><stop offset="0.48" stop-color="#cadef1"/><stop offset="0.75" stop-color="#b1cae1"/><stop offset="1" stop-color="#92b0cc"/></linearGradient><linearGradient id="y" x1="1039.98" y1="4.87" x2="1039.98" y2="272.99" xlink:href="#s"/><linearGradient id="z" x1="918.97" y1="4.87" x2="918.97" y2="272.99" xlink:href="#s"/><linearGradient id="aa" x1="986.34" y1="20.37" x2="986.34" y2="61.62" xlink:href="#s"/><linearGradient id="ab" x1="1046.22" y1="407.12" x2="1046.22" y2="448.37" gradientUnits="userSpaceOnUse"><stop offset="0" stop-color="#fff"/><stop offset="1" stop-color="#b3b3b3"/></linearGradient><linearGradient id="ac" x1="866.08" y1="510.15" x2="554.78" y2="510.15" gradientUnits="userSpaceOnUse"><stop offset="0" stop-color="#4e5c66"/><stop offset="0.01" stop-color="#505e68"/><stop offset="0.2" stop-color="#657886"/><stop offset="0.37" stop-color="#728798"/><stop offset="0.48" stop-color="#778d9e"/><stop offset="0.57" stop-color="#7c92a3"/><stop offset="0.68" stop-color="#8ba0b1"/><stop offset="0.79" stop-color="#a4b8c8"/><stop offset="0.92" stop-color="#c7d8e7"/><stop offset="0.99" stop-color="#e1f1ff"/></linearGradient><linearGradient id="ad" x1="1100.76" y1="183.19" x2="936.31" y2="268.05" gradientUnits="userSpaceOnUse"><stop offset="0" stop-color="#deefff"/><stop offset="0.2" stop-color="#d9ebfb"/><stop offset="0.46" stop-color="#cadef1"/><stop offset="0.73" stop-color="#b1cae1"/><stop offset="0.99" stop-color="#92b0cc"/></linearGradient><linearGradient id="ae" x1="203.66" y1="194.32" x2="117.64" y2="591.11" gradientUnits="userSpaceOnUse"><stop offset="0" stop-color="#92b0cc"/><stop offset="0.01" stop-color="#a3bed7"/><stop offset="0.03" stop-color="#b9d0e6"/><stop offset="0.06" stop-color="#cadef1"/><stop offset="0.09" stop-color="#d5e8f9"/><stop offset="0.13" stop-color="#dcedfe"/><stop offset="0.26" stop-color="#deefff"/><stop offset="0.44" stop-color="#daecfd"/><stop offset="0.6" stop-color="#cfe3f5"/><stop offset="0.76" stop-color="#bdd4e9"/><stop offset="0.92" stop-color="#a3bed8"/><stop offset="1" stop-color="#92b0cc"/></linearGradient><linearGradient id="af" x1="481.8" y1="193.58" x2="380.82" y2="261.48" xlink:href="#s"/><linearGradient id="ag" x1="523.37" y1="456.05" x2="523.37" y2="626.61" xlink:href="#b"/><linearGradient id="ah" x1="415.45" y1="207.09" x2="415.45" y2="556.7" xlink:href="#ae"/><linearGradient id="ai" x1="572.14" y1="197.22" x2="455.51" y2="197.22" xlink:href="#s"/><linearGradient id="aj" x1="858.92" y1="208.1" x2="960.23" y2="271.96" xlink:href="#x"/><linearGradient id="ak" x1="749.6" y1="350.08" x2="776.61" y2="217.09" xlink:href="#u"/><linearGradient id="al" x1="805.11" y1="227.66" x2="896.33" y2="164.35" xlink:href="#x"/><linearGradient id="am" x1="707.81" y1="422.42" x2="796.99" y2="422.4" xlink:href="#u"/><linearGradient id="an" x1="595.65" y1="243.75" x2="557.33" y2="428.19" xlink:href="#ae"/><linearGradient id="ao" x1="664.51" y1="197.22" x2="777.94" y2="197.22" xlink:href="#s"/><linearGradient id="ap" x1="186.94" y1="214.43" x2="259.14" y2="161.91" gradientUnits="userSpaceOnUse"><stop offset="0.04" stop-color="#deefff"/><stop offset="0.11" stop-color="#d7e9fb"/><stop offset="0.49" stop-color="#b2cae1"/><stop offset="0.8" stop-color="#9bb7d2"/><stop offset="1" stop-color="#92b0cc"/></linearGradient><linearGradient id="aq" x1="332.61" y1="125.02" x2="332.61" y2="557.14" xlink:href="#b"/><linearGradient id="ar" x1="777.99" y1="7.37" x2="777.99" y2="200.42" xlink:href="#b"/><linearGradient id="as" x1="248.86" y1="558.39" x2="108.59" y2="558.39" xlink:href="#b"/><linearGradient id="at" x1="1109.22" y1="20.37" x2="1109.22" y2="61.62" xlink:href="#s"/><linearGradient id="au" x1="802.13" y1="35.66" x2="106.19" y2="35.66" gradientUnits="userSpaceOnUse"><stop offset="0" stop-color="#92b0cc"/><stop offset="0.02" stop-color="#a3bed7"/><stop offset="0.06" stop-color="#b9d0e6"/><stop offset="0.11" stop-color="#cadef1"/><stop offset="0.17" stop-color="#d5e8f9"/><stop offset="0.25" stop-color="#dcedfe"/><stop offset="0.48" stop-color="#deefff"/><stop offset="0.67" stop-color="#dcedfd"/><stop offset="0.77" stop-color="#d4e7f8"/><stop offset="0.85" stop-color="#c6dbef"/><stop offset="0.92" stop-color="#b3cbe2"/><stop offset="0.98" stop-color="#9ab7d2"/><stop offset="1" stop-color="#92b0cc"/></linearGradient><linearGradient id="av" x1="51.29" y1="71.52" x2="51.29" y2="240.64" xlink:href="#s"/><linearGradient id="aw" x1="973.24" y1="533.44" x2="1069.3" y2="533.44" xlink:href="#b"/><linearGradient id="ax" x1="1068.68" y1="416.08" x2="1068.68" y2="515.31" xlink:href="#b"/><linearGradient id="ay" x1="947.92" y1="578.02" x2="885.4" y2="444.15" gradientUnits="userSpaceOnUse"><stop offset="0" stop-color="#92b0cc"/><stop offset="0" stop-color="#92b0cc"/><stop offset="0.19" stop-color="#bbd2e8"/><stop offset="0.33" stop-color="#d5e7f9"/><stop offset="0.42" stop-color="#deefff"/><stop offset="0.56" stop-color="#daecfd"/><stop offset="0.69" stop-color="#cfe3f5"/><stop offset="0.82" stop-color="#bdd4e9"/><stop offset="0.94" stop-color="#a3bed8"/><stop offset="1" stop-color="#92b0cc"/></linearGradient></defs><title>Artboard 1</title><path d="M947,594.06c-35.25,0-65-19.64-82.74-54.19l-1.45,1.82c-33.07,40.58-55.33,52.37-139.12,52.37H638.89c-34.21,0-75.78-4.16-100.81-34.84l-35.72,34.84H440.53c-51.93,0-85.43-11.53-105.44-36.28a82,82,0,0,1-10.66-17.17l-81.58,53.45H81.29l82-385.5H0L30.61,69.14,131.43,0H1200L1090.07,524.94,987.83,594.06Z" fill="#003247"/><path d="M1043.1,160.42h23.7l56.14-31.19,17.47-81.09H1066.8Zm-121,0H993.2l23.7-112.28H945.79Zm-121,0h71.11L895.89,48.14H824.78ZM774.87,48.14l-23.7,112.28H359.44L285.83,508.49l-57.39,37.43H141.11l71.11-335.6,72.36-49.9H60L73.74,98l72.36-49.9Zm243.28,273.22-43.8,54.53,27.58,59h57.39L1046.84,496l-73.6,49.9H947c-17.47,0-31.19-10-42.42-33.69l-29.14-62.8-50.7,62.8c-22.46,28.7-32.44,33.69-101.06,33.69H638.89c-57.5,0-80.46-19.1-75.09-78.22L483,545.92H440.53c-67.37,0-88.58-26.2-69.87-112.28L408.09,259l72.36-49.9h62.38L495.42,433.64l73.43.89.18-.89L605.21,259l73.6-49.9h62.38l-47.12,225.8h102L842,377.26l-26-55.9h-47.4L781.11,259l73.61-49.9h16.22c17.46,0,29.94,10,41.17,33.68L940.75,304l48.71-61.26c23.7-28.69,32.43-33.68,64.87-33.68h52.4L1083,321.36Z" fill="url(#a)"/><path d="M1074.29,185.37l72.36-39.92-23.71-16.22-56.14,31.19Z" fill="url(#b)"/><path d="M1146.65,145.45,1171.6,23.19l-31.19,25-17.47,81.09Zm-79.85,15h-23.7l-29.94,25h61.13Z" fill="url(#c)"/><path d="M993.2,160.42H922.09l-29.94,25h121Z" fill="url(#d)"/><path d="M1013.16,185.37l33.68-162.18-29.94,25L993.2,160.42Z" fill="url(#e)"/><path d="M892.15,185.37,925.83,23.19l-29.94,25L872.18,160.42Z" fill="url(#f)"/><path d="M872.18,160.42H801.07l-29.94,25h121Z" fill="url(#g)"/><polygon points="379.4 185.37 771.13 185.37 751.17 160.42 359.44 160.42 379.4 185.37" fill="url(#h)"/><polygon points="235.93 570.87 308.29 523.46 285.83 508.49 228.44 545.92 235.93 570.87" fill="url(#i)"/><polygon points="28.83 185.37 204.74 185.37 284.58 160.42 60.02 160.42 28.83 185.37" fill="url(#j)"/><polygon points="1030.63 346.31 1104.23 346.31 1083.02 321.36 1018.15 321.36 1030.63 346.31" fill="url(#k)"/><polygon points="974.35 375.89 1001.93 434.88 1018.15 409.93 1003.18 379.99 974.35 375.89" fill="url(#l)"/><polygon points="1104.23 346.31 1137.92 185.37 1106.73 209.08 1083.02 321.36 1104.23 346.31" fill="url(#m)"/><polygon points="1018.15 321.36 974.35 375.89 1003.18 379.99 1030.63 346.31 1018.15 321.36" fill="url(#n)"/><polygon points="799.83 346.31 812.3 373.75 841.99 377.26 816.04 321.36 799.83 346.31" fill="url(#o)"/><polygon points="816.04 321.36 768.64 321.36 737.16 346.31 799.83 346.31 816.04 321.36" fill="url(#p)"/><polyline points="723.73 409.93 771.13 185.37 741.19 209.08 694.07 434.88" fill="url(#q)"/><polygon points="526.61 408.69 572.77 185.37 542.83 209.08 495.42 433.64 526.61 408.69" fill="url(#r)"/><polygon points="804.82 23.19 925.83 23.19 895.89 48.14 824.78 48.14 804.82 23.19" fill="url(#s)"/><polygon points="824.78 48.14 801.07 160.42 771.13 185.37 804.82 23.19 824.78 48.14" fill="url(#t)"/><polygon points="796.08 434.88 841.99 377.26 812.3 373.75 783.61 409.93 796.08 434.88" fill="url(#u)"/><polygon points="73.75 98.04 146.1 48.14 138.62 23.19 51.29 83.07 73.75 98.04" fill="url(#v)"/><polygon points="668.83 185.37 582.75 244.01 605.21 258.98 678.81 209.08 668.83 185.37" fill="url(#w)"/><path d="M549.32,408.69H526.61l-31.19,24.95,73.43.89.18-.89Z" fill="url(#x)"/><polygon points="1046.84 23.19 1013.16 185.37 1043.1 160.42 1066.81 48.14 1046.84 23.19" fill="url(#y)"/><polygon points="925.83 23.19 892.15 185.37 922.09 160.42 945.79 48.14 925.83 23.19" fill="url(#z)"/><polygon points="945.79 48.14 1016.9 48.14 1046.84 23.19 925.83 23.19 945.79 48.14" fill="url(#aa)"/><polygon points="1001.93 434.88 1059.32 434.88 1090.51 409.93 1018.15 409.93 1001.93 434.88" fill="url(#ab)"/><path d="M824.78,512.23c-22.46,28.7-32.44,33.69-101.06,33.69H638.89c-57.5,0-80.46-19.1-75.09-78.22L544.08,521c11.22,38.67,43.66,49.9,94.81,49.9h84.83c78.6,0,93.57-10,121-43.67l25-31.18,5.79-46.59Z" fill="url(#ac)"/><path d="M1045.6,185.37c-31.19,0-51.15,10-76.11,41.17l-23.7,29.94-5,47.54,48.71-61.26c23.7-28.69,32.43-33.68,64.87-33.68h52.4l31.19-23.71H1045.6Z" fill="url(#ad)"/><polygon points="189.77 195.35 109.92 570.87 141.11 545.92 212.22 210.32 189.77 195.35" fill="url(#ae)"/><polygon points="470.47 185.37 385.63 244.01 408.09 258.98 480.45 209.08 470.47 185.37" fill="url(#af)"/><polygon points="492.93 570.87 544.08 520.97 563.8 467.7 482.94 545.92 492.93 570.87" fill="url(#ag)"/><path d="M492.93,570.87h-52.4c-92.32,0-117.27-37.43-94.82-142.22L385.64,244l22.45,15L370.66,433.64c-18.71,86.08,2.5,112.28,69.87,112.28H483Z" fill="url(#ah)"/><polygon points="480.45 209.08 542.83 209.08 572.77 185.37 470.47 185.37 480.45 209.08" fill="url(#ai)"/><path d="M844.74,185.37h25c32.44,0,48.65,10,64.87,46.16l11.23,25-5,47.54-28.64-61.26c-11.23-23.7-23.71-33.68-41.17-33.68H854.72Z" fill="url(#aj)"/><polygon points="758.76 244 737.16 346.31 768.64 321.36 781.11 258.98 758.76 244" fill="url(#ak)"/><polyline points="854.72 209.08 781.11 258.98 758.76 244 844.74 185.37 854.72 209.08" fill="url(#al)"/><polygon points="783.61 409.93 723.73 409.93 694.07 434.88 796.08 434.88 783.61 409.93" fill="url(#am)"/><path d="M568.85,434.53l.18-.89L605.21,259l-22.46-15L549.32,408.69Z" fill="url(#an)"/><polygon points="678.81 209.08 741.19 209.08 771.13 185.37 668.83 185.37 678.81 209.08" fill="url(#ao)"/><polygon points="212.22 210.32 284.58 160.42 204.74 185.37 189.77 195.35 212.22 210.32" fill="url(#ap)"/><polygon points="308.29 523.46 379.4 185.37 359.44 160.42 285.83 508.49 308.29 523.46" fill="url(#aq)"/><polyline points="771.13 185.37 804.82 23.19 774.88 48.14 751.17 160.42" fill="url(#ar)"/><polyline points="228.44 545.92 141.11 545.92 109.92 570.87 235.93 570.87" fill="url(#as)"/><polygon points="1066.81 48.14 1140.41 48.14 1171.6 23.19 1046.84 23.19 1066.81 48.14" fill="url(#at)"/><polygon points="146.1 48.14 774.88 48.14 804.82 23.19 138.62 23.19 146.1 48.14" fill="url(#au)"/><polygon points="51.29 83.07 28.83 185.37 60.02 160.42 73.75 98.04 51.29 83.07" fill="url(#av)"/><polygon points="1046.84 496.01 973.24 545.92 980.72 570.87 1069.3 510.99 1046.84 496.01" fill="url(#aw)"/><polygon points="1069.3 510.99 1090.51 409.93 1059.32 434.88 1046.84 496.01 1069.3 510.99" fill="url(#ax)"/><path d="M973.24,545.92H947c-17.47,0-31.19-10-42.42-33.69l-29.14-62.8L869.69,496l12.48,27.44c13.72,31.19,37.42,47.41,64.87,47.41h33.68l-7.48-25Z" fill="url(#ay)"/></svg>